<svg version="1.1" xmlns="http://www.w3.org/2000/svg" xmlns:xlink="http://www.w3.org/1999/xlink" width="109.46544" height="109.46546" viewBox="0,0,109.46544,109.46546"><defs><linearGradient x1="191.77597" y1="180" x2="288.22406" y2="180" gradientUnits="userSpaceOnUse" id="color-1"><stop offset="0" stop-color="#83ff2f"/><stop offset="1" stop-color="#2bec46"/></linearGradient><linearGradient x1="191.77595" y1="180" x2="288.22406" y2="180" gradientUnits="userSpaceOnUse" id="color-2"><stop offset="0" stop-color="#83ff2f"/><stop offset="1" stop-color="#2bec46"/></linearGradient><linearGradient x1="191.77597" y1="203.21817" x2="288.2371" y2="203.21817" gradientUnits="userSpaceOnUse" id="color-3"><stop offset="0" stop-color="#000000" stop-opacity="0"/><stop offset="1" stop-color="#000000" stop-opacity="0.29473"/></linearGradient><linearGradient x1="223.72943" y1="179.67851" x2="275.10246" y2="179.67851" gradientUnits="userSpaceOnUse" id="color-4"><stop offset="0" stop-color="#feff00"/><stop offset="1" stop-color="#fab400"/></linearGradient></defs><g transform="translate(-185.26728,-125.26727)"><g data-paper-data="{&quot;isPaintingLayer&quot;:true}" fill-rule="nonzero" stroke-linecap="butt" stroke-linejoin="miter" stroke-miterlimit="10" stroke-dasharray="" stroke-dashoffset="0" style="mix-blend-mode: normal"><g><path d="M188.26728,180c0,-28.57119 23.16151,-51.73273 51.73272,-51.73273c28.57119,0 51.73272,23.16151 51.73272,51.73273c0,28.57119 -23.1615,51.73273 -51.73272,51.73273c-28.57119,0 -51.73272,-23.16151 -51.73272,-51.73273z" fill="none" stroke="#ffffff" stroke-width="6"/><path d="M191.77597,180c0,-26.63341 21.59063,-48.22406 48.22405,-48.22406c26.6334,0 48.22407,21.59063 48.22407,48.22407c0,26.63341 -21.59064,48.22407 -48.22406,48.22407c-26.63341,0 -48.22405,-21.59063 -48.22405,-48.22406z" fill="url(#color-1)" stroke="none" stroke-width="0"/><path d="M191.77595,180c0,-26.63341 21.59063,-48.22406 48.22405,-48.22406c26.6334,0 48.22406,21.59063 48.22406,48.22407c0,26.63341 -21.59063,48.22407 -48.22406,48.22407c-26.63341,0 -48.22405,-21.59063 -48.22405,-48.22406z" fill="none" stroke="#000000" stroke-width="6"/><path d="M191.77595,180c0,-26.63341 21.59063,-48.22406 48.22405,-48.22406c26.6334,0 48.22407,21.59063 48.22407,48.22407c0,26.63341 -21.59064,48.22407 -48.22406,48.22407c-26.63341,0 -48.22405,-21.59063 -48.22405,-48.22406z" fill="url(#color-2)" stroke="none" stroke-width="0"/><path d="M288.22406,178.04168c1.77503,27.88381 -20.2838,50.18239 -48.22406,50.18239c-26.63341,0 -48.22405,-23.92975 -48.22405,-50.56318z" fill="url(#color-3)" stroke="none" stroke-width="3"/></g><path d="M231.39237,143.41232l44.40104,33.41243c2.77229,3.05797 0.49893,5.42389 -1.98768,7.30293c-20.59575,15.56618 -34.8301,26.27715 -42.70304,32.1329c-1.28222,0.95496 -2.7951,1.48606 -4.53868,1.59337c-4.77607,-0.86911 -4.59904,-3.75004 -4.59904,-8.14387c0,-9.22492 0,-18.49138 0,-27.79943c-0.00269,-11.226 -0.00133,-22.49894 0.00403,-33.81882c0.00403,-3.15454 0.35005,-5.62506 3.65347,-6.33322c2.02255,-0.43724 3.94588,0.114 5.76993,1.65372zM223.91239,212.3456l0.32995,2.16474c0.02146,0.13413 0.0845,0.24142 0.18911,0.3219c1.76236,1.36804 3.51534,1.40559 5.25891,0.11265c6.08376,-4.5065 20.71378,-15.52593 43.89003,-33.05834c1.17223,-0.88788 1.64031,-1.81735 1.40427,-2.78839c-0.38895,-0.67865 -0.84497,-1.21381 -1.36804,-1.60545c-14.78023,-11.06773 -29.54841,-22.15157 -44.30448,-33.25149c-1.57325,-1.18295 -5.36354,-1.24733 -5.40376,1.54509c-0.25752,18.3519 -0.11267,44.38092 0.00403,66.55931z" fill="#000000" stroke="none" stroke-width="1"/><path d="M223.87643,212.3917c-0.11668,-22.17839 -0.26072,-48.30024 -0.0032,-66.65214c0.04023,-2.79243 3.83683,-2.73219 5.41008,-1.54924c14.75608,11.09992 29.61134,22.22936 44.39156,33.2971c0.52308,0.39163 0.97931,0.93071 1.36827,1.60936c0.23604,0.97104 -0.23226,1.90716 -1.40449,2.79503c-23.17625,17.53241 -37.89305,28.59757 -43.97681,33.10408c-1.74358,1.29294 -3.50188,1.25202 -5.26424,-0.11602c-0.10461,-0.08047 -0.16804,-0.18803 -0.18949,-0.32216l-0.33167,-2.16603z" data-paper-data="{&quot;noHover&quot;:false,&quot;origItem&quot;:[&quot;Path&quot;,{&quot;applyMatrix&quot;:true,&quot;segments&quot;:[[223.64471,202.65625],[[223.92682,204.50715],[0,0],[0.01835,0.11468]],[[224.08852,204.78238],[-0.08945,-0.06881],[1.50686,1.16971]],[[228.58502,204.8787],[-1.4908,1.10549],[5.20176,-3.85316]],[[266.11205,176.61302],[-19.81625,14.99063],[1.00228,-0.75916]],[[267.31273,174.22888],[0.20183,0.83026],[-0.33256,-0.58027]],[[266.14302,172.85619],[0.44724,0.33485],[-12.63745,-9.46318]],[[228.26163,144.42537],[12.6168,9.4907],[-1.34517,-1.01146]],[[223.64128,145.74646],[0.0344,-2.38759],[-0.22018,15.69131]],[[223.64472,202.65627],[-0.09977,-18.96306],[0,0]]],&quot;closed&quot;:true,&quot;fillColor&quot;:[0,0,0,1]}]}" fill="url(#color-4)" stroke="none" stroke-width="0.5"/><path d="M276.38889,176.72418c1.97562,1.50484 3.32755,2.58319 3.01775,5.12614c-0.45065,1.02201 -1.23124,1.95951 -2.34176,2.81253c-5.33269,4.08803 -10.69085,8.14657 -16.0745,12.17559l-18.80657,14.15121c-2.8863,2.19154 -5.79138,4.32543 -8.71523,6.40165c-2.09632,1.48473 -4.94508,2.55502 -6.90458,0.46272c1.74358,-0.10731 3.25647,-0.63841 4.53869,-1.59337c7.87295,-5.85575 22.10732,-16.56673 42.70306,-32.1329c2.48661,-1.87904 4.75999,-4.24495 1.98768,-7.30293z" fill="#45781b" stroke="none" stroke-width="1"/><path d="M274.98466,179.09813c0.23606,0.97104 -0.23204,1.90051 -1.40427,2.78839c-23.17626,17.53241 -37.80627,28.55186 -43.89003,33.05835c-1.74358,1.29294 -3.49656,1.25539 -5.25892,-0.11266c-0.10461,-0.08047 -0.16765,-0.18777 -0.18911,-0.3219l-0.32995,-2.16473c0.10997,-0.0161 0.17838,0.03756 0.2052,0.16094c-0.07511,0.24141 -0.01609,0.33396 0.17705,0.27765c2.20898,1.69396 4.08402,1.01799 6.24874,-0.57941c4.84716,-3.57569 9.66749,-7.18625 14.46101,-10.83169l28.97032,-21.86455c0.46138,-0.41846 0.79804,-0.55526 1.00995,-0.41041z" fill="#875e03" stroke="none" stroke-width="1"/></g></g></svg>