<svg version="1.1" xmlns="http://www.w3.org/2000/svg" xmlns:xlink="http://www.w3.org/1999/xlink" width="22.56183" height="22.56183" viewBox="0,0,22.56183,22.56183"><g transform="translate(-228.71908,-168.71908)"><g data-paper-data="{&quot;isPaintingLayer&quot;:true}" fill-rule="nonzero" stroke-linecap="butt" stroke-linejoin="miter" stroke-miterlimit="10" stroke-dasharray="" stroke-dashoffset="0" style="mix-blend-mode: normal"><path d="M239.99995,169.95535c2.7717,0 5.2826,1.125 7.1011,2.9436c1.8186,1.8185 2.9436,4.3294 2.9436,7.1011c0,2.7717 -1.125,5.2825 -2.9436,7.1011c-1.8185,1.8185 -4.3294,2.9435 -7.1011,2.9435c-2.7717,0 -5.2825,-1.125 -7.1011,-2.9435c-1.8185,-1.8186 -2.9435,-4.3294 -2.9435,-7.1011c0,-2.7717 1.125,-5.2826 2.9435,-7.1011c1.8186,-1.8186 4.3294,-2.9436 7.1011,-2.9436z" fill="none" stroke="#ccffff" stroke-width="2.47253"/><path d="M239.89215,175.90565c1.104,0 2.104,0.448 2.828,1.172c0.724,0.724 1.172,1.724 1.172,2.828c0,1.104 -0.448,2.104 -1.172,2.828c-0.724,0.724 -1.724,1.172 -2.828,1.172c-1.104,0 -2.104,-0.448 -2.828,-1.172c-0.724,-0.724 -1.172,-1.724 -1.172,-2.828c0,-1.104 0.448,-2.104 1.172,-2.828c0.724,-0.724 1.724,-1.172 2.828,-1.172z" fill="#ccffff" stroke="none" stroke-width="1"/></g></g></svg>