<svg version="1.1" xmlns="http://www.w3.org/2000/svg" xmlns:xlink="http://www.w3.org/1999/xlink" width="13.38876" height="13.38876" viewBox="0,0,13.38876,13.38876"><g transform="translate(-233.30562,-173.30562)"><g data-paper-data="{&quot;isPaintingLayer&quot;:true}" fill-rule="nonzero" stroke-linecap="butt" stroke-linejoin="miter" stroke-miterlimit="10" stroke-dasharray="" stroke-dashoffset="0" style="mix-blend-mode: normal"><path d="M240,173.6937c1.7402,0 3.3165,0.7063 4.4583,1.848c1.1417,1.1418 1.848,2.7181 1.848,4.4583c0,1.7402 -0.7063,3.3165 -1.848,4.4583c-1.1418,1.1417 -2.7181,1.848 -4.4583,1.848c-1.7402,0 -3.3166,-0.7063 -4.4583,-1.848c-1.1417,-1.1418 -1.848,-2.7181 -1.848,-4.4583c0,-1.7402 0.7063,-3.3165 1.848,-4.4583c1.1417,-1.1417 2.7181,-1.848 4.4583,-1.848z" fill="none" stroke="#ffff00" stroke-width="0.77616"/><path d="M240.0239,175.9476c1.104,0 2.104,0.448 2.828,1.172c0.724,0.724 1.172,1.724 1.172,2.828c0,1.104 -0.448,2.104 -1.172,2.828c-0.724,0.724 -1.724,1.172 -2.828,1.172c-1.104,0 -2.104,-0.448 -2.828,-1.172c-0.724,-0.724 -1.172,-1.724 -1.172,-2.828c0,-1.104 0.448,-2.104 1.172,-2.828c0.724,-0.724 1.724,-1.172 2.828,-1.172z" fill="#ffff00" stroke="none" stroke-width="1"/></g></g></svg>