<svg version="1.1" xmlns="http://www.w3.org/2000/svg" xmlns:xlink="http://www.w3.org/1999/xlink" width="35.52636" height="38.43665" viewBox="0,0,35.52636,38.43665"><defs><linearGradient x1="237.97316" y1="161.6429" x2="237.97316" y2="193.97368" gradientUnits="userSpaceOnUse" id="color-1"><stop offset="0" stop-color="#ff98f3"/><stop offset="1" stop-color="#f23de0"/></linearGradient><linearGradient x1="238.82496" y1="177.46513" x2="238.82496" y2="192.8645" gradientUnits="userSpaceOnUse" id="color-2"><stop offset="0" stop-color="#000000" stop-opacity="0.10196"/><stop offset="1" stop-color="#000000" stop-opacity="0.4"/></linearGradient></defs><g transform="translate(-221.83664,-160.2792)"><g data-paper-data="{&quot;isPaintingLayer&quot;:true}" fill-rule="nonzero" stroke-linejoin="miter" stroke-miterlimit="10" stroke-dasharray="" stroke-dashoffset="0" style="mix-blend-mode: normal"><path d="M257.36299,165.72607c0,3.5241 0,25.25936 0,31.89749c0,1.20955 -1.10759,1.32554 -2.11597,0.78118c-6.54307,-3.53215 -26.19663,-14.14174 -29.32055,-15.82813c-0.83538,-0.45096 -0.35609,-1.42804 0.4793,-1.879c3.57015,-1.92728 23.75746,-12.825 29.45812,-15.9024c0.95124,-0.51351 1.49911,0.93086 1.49911,0.93086z" fill-opacity="0.42745" fill="#000000" stroke="none" stroke-width="0" stroke-linecap="butt"/><path d="M254.01119,163.22496c0,3.20398 0,22.96486 0,29c0,1.09968 -1.07863,1.20513 -2.06065,0.71022c-6.372,-3.2113 -25.5117,-12.85714 -28.55394,-14.39034c-0.81354,-0.41 -0.34678,-1.29832 0.46677,-1.70832c3.47681,-1.75221 23.1363,-11.66001 28.68791,-14.45786c0.92637,-0.46686 1.45991,0.8463 1.45991,0.8463z" fill="url(#color-1)" stroke="none" stroke-width="0" stroke-linecap="butt"/><path d="M255.1796,162.30186c0,3.44439 0,24.35472 0,30.84271c0,1.1822 -1.30913,1.29556 -2.34926,0.76351c-6.74908,-3.45226 -26.52143,-13.32189 -29.7437,-14.97013c-0.86168,-0.44076 -0.3673,-2.06241 0.49439,-2.50317c3.68256,-1.88369 24.00546,-12.03493 29.8856,-15.04272c0.98119,-0.50189 1.71297,0.9098 1.71297,0.9098z" fill="none" stroke="#ffffff" stroke-width="2.5" stroke-linecap="butt"/><path d="M254.52966,163.16482c0,3.20398 0,22.96486 0,29c0,1.09968 -1.07863,1.20513 -2.06065,0.71022c-6.372,-3.2113 -25.5117,-12.85714 -28.55394,-14.39034c-0.81354,-0.41 -0.34678,-1.29832 0.46677,-1.70832c3.47681,-1.75221 23.1363,-11.66001 28.68791,-14.45786c0.92637,-0.46686 1.45991,0.8463 1.45991,0.8463z" fill="#ff0000" stroke="#000000" stroke-width="2" stroke-linecap="butt"/><path d="M223.24163,177.46513h31.16667v15.39937z" fill="url(#color-2)" stroke="#000000" stroke-width="0" stroke-linecap="butt"/><path d="M224.08633,178.4203c0,0 1.54064,-0.02999 2.17357,-0.00524c0.27511,0.01076 0.79789,0.33329 0.93282,0.40064c2.58589,1.29081 26.0628,13.06694 26.0628,13.06694" fill="none" stroke-opacity="0.60392" stroke="#000000" stroke-width="2" stroke-linecap="round"/></g></g></svg>