<svg version="1.1" xmlns="http://www.w3.org/2000/svg" xmlns:xlink="http://www.w3.org/1999/xlink" width="37.35" height="72.37336" viewBox="0,0,37.35,72.37336"><g transform="translate(-220.85,-143.81332)"><g data-paper-data="{&quot;isPaintingLayer&quot;:true}" fill-rule="nonzero" stroke-linecap="butt" stroke-linejoin="miter" stroke-miterlimit="10" stroke-dasharray="" stroke-dashoffset="0" style="mix-blend-mode: normal"><g><path d="M249.41093,206.28428v0c0.74624,0.91207 -0.82916,1.40957 -1.0779,1.98998c-0.16583,0.41458 -0.58041,0.66333 -0.99499,0.66333h-14.84191c-9.70114,-7.04784 -9.94989,-20.14852 -9.94989,-28.85467c0,-8.70615 -0.74624,-25.28929 10.44738,-29.518c6.63326,0 8.12574,0.16583 14.84191,0.16583c-0.91207,0.24875 -2.73622,0.49749 -3.48246,0.99499c-0.74624,0 -0.41458,0 -0.58041,0c-3.39954,4.14579 -3.39954,6.13576 -3.39954,6.13576l0.58041,0.16583h-1.0779c-0.33166,0.74624 -0.49749,1.0779 -0.74624,1.90706h3.39954c0.16583,-0.49749 0.16583,-0.74624 0.33166,-1.0779l-0.74624,1.0779c-2.40456,6.63326 0.58041,13.76401 0.58041,19.98269c0,6.21868 -2.32164,12.18861 -0.33166,17.74396v1.16082c-0.16583,-0.08292 -0.16583,-0.16583 -0.16583,-0.33166c-1.32665,0.16583 -1.98998,0.16583 -3.39954,0.16583c0.24875,0.74624 0.41458,1.0779 0.74624,1.82415h0.16583c0.16583,0.74624 0.91207,2.73622 3.23371,5.72118h6.46743zM237.55399,194.09567v0c1.32665,0 1.98998,0 3.39954,0c-0.08292,-0.82916 -0.08292,-1.16082 -0.24875,-1.98998c-1.32665,0 -1.98998,0 -3.39954,0c0.16583,0.82916 0.16583,1.16082 0.33166,1.98998zM236.72483,174.36173v0h3.48246c0,-0.82916 0,-1.24374 0,-2.15581h-3.39954c0,0.82916 0,1.32665 0,2.15581zM236.72483,179.08793v1.82415h3.48246v-1.82415zM237.22232,158.11025h-3.39954c-0.33166,0.74624 -0.49749,1.0779 -0.74624,1.90706h3.39954c0.24875,-0.74624 0.41458,-1.16082 0.74624,-1.90706zM231.8328,164.90934c-0.16583,0.82916 -0.16583,1.24374 -0.33166,2.15581h3.39954c0.16583,-0.82916 0.16583,-1.24374 0.33166,-2.15581zM230.92073,172.20592c0,0.82916 0,1.32665 0,2.15581h3.48246c0,-0.82916 0,-1.24374 0,-2.15581zM230.7549,179.08793v1.82415h3.48246v-1.82415zM230.83781,185.47244c0,0.74624 0,1.16082 0,1.98998h3.39954c0,-0.82916 0,-1.16082 0,-1.98998zM234.81777,192.10569v0c-1.32665,0 -1.98998,0 -3.39954,0c0.16583,0.82916 0.16583,1.24374 0.33166,2.07289c1.32665,0 1.98998,0 3.39954,0c-0.16583,-0.74624 -0.16583,-1.16082 -0.33166,-1.98998zM232.91071,198.90478c0.24875,0.74624 0.41458,1.0779 0.74624,1.82415c1.32665,-0.16583 1.98998,-0.16583 3.39954,-0.16583c-0.33166,-0.66333 -0.49749,-1.0779 -0.74624,-1.82415c-1.32665,0.16583 -1.98998,0.16583 -3.39954,0.16583zM240.12437,187.46241c0,-0.82916 0,-1.24374 0,-1.98998h-3.39954c0,0.82916 0,1.16082 0,1.98998zM237.6369,164.99226c-0.16583,0.82916 -0.16583,1.24374 -0.33166,2.15581h3.39954c0.16583,-0.82916 0.16583,-1.24374 0.33166,-2.15581zM235.97859,154.21321h3.39954c0.41458,-0.66333 0.66333,-0.91207 1.24374,-1.40957h-3.39954c-0.58041,0.49749 -0.74624,0.82916 -1.24374,1.40957zM230.00866,154.21321h3.39954c0.49749,-0.66333 0.66333,-0.91207 1.24374,-1.40957h-3.39954c-0.58041,0.49749 -0.74624,0.82916 -1.24374,1.40957zM226.94077,160.01731h3.39954c0.24875,-0.74624 0.41458,-1.16082 0.74624,-1.90706h-3.39954c-0.33166,0.74624 -0.49749,1.0779 -0.74624,1.90706zM225.36538,167.06515h3.39954c0.16583,-0.82916 0.16583,-1.24374 0.33166,-2.15581h-3.39954c-0.16583,0.82916 -0.16583,1.24374 -0.33166,2.15581zM224.86788,172.20592v0c-0.16583,0.82916 -0.16583,1.32665 -0.16583,2.15581h3.48246c0.16583,-0.82916 0.16583,-1.24374 0.16583,-2.15581h-3.39954zM224.70205,180.91207h3.48246v-1.82415h-3.48246c0,0.74624 0,1.0779 0,1.82415zM224.86788,185.38952v0c0.16583,0.82916 0.16583,1.24374 0.16583,2.07289h3.39954c-0.16583,-0.74624 -0.16583,-1.16082 -0.16583,-1.98998h-3.39954zM225.77995,194.34442c1.32665,0 1.98998,0 3.39954,0c-0.16583,-0.82916 -0.16583,-1.24374 -0.33166,-2.07289c-1.32665,0 -1.98998,0 -3.39954,0c0.16583,0.82916 0.16583,1.24374 0.33166,2.07289zM227.10661,198.90478v0c0.24875,0.82916 0.41458,1.16082 0.74624,1.90706c1.32665,-0.16583 1.98998,-0.16583 3.39954,-0.16583c-0.33166,-0.66333 -0.49749,-1.0779 -0.74624,-1.82415c-1.32665,0.16583 -1.98998,0.16583 -3.39954,0.16583zM231.33531,206.45011v0c1.32665,0 1.98998,0 3.39954,0c-0.58041,-0.58041 -0.74624,-0.99499 -1.24374,-1.5754c-1.32665,0.16583 -1.98998,0.16583 -3.39954,0.16583c0.49749,0.58041 0.66333,0.91207 1.24374,1.49248zM237.22232,206.20137v0c1.32665,0 1.98998,0 3.39954,0c-0.58041,-0.58041 -0.82916,-0.91207 -1.32665,-1.5754c-1.32665,0.16583 -1.98998,0.16583 -3.39954,0.16583c0.41458,0.66333 0.66333,0.99499 1.24374,1.5754z" fill="#000000" stroke="none" stroke-width="0"/><path d="M239.2123,146.83371c0,-1.41958 1.1508,-2.57039 2.57039,-2.57039c1.41958,0 2.57039,1.1508 2.57039,2.57039c0,1.41958 -1.1508,2.57039 -2.57039,2.57039c-1.41958,0 -2.57039,-1.1508 -2.57039,-2.57039z" fill="#ff77ff" stroke="#fee6ff" stroke-width="0.9"/><path d="M239.2123,213.16629c0,-1.41958 1.1508,-2.57039 2.57039,-2.57039c1.41958,0 2.57039,1.1508 2.57039,2.57039c0,1.41958 -1.1508,2.57039 -2.57039,2.57039c-1.41958,0 -2.57039,-1.1508 -2.57039,-2.57039z" fill="#ff77ff" stroke="#fee6ff" stroke-width="0.9"/><path d="M258.2,180.08292v0c0,15.17358 -2.57039,23.96264 -8.70615,29.10342h-14.759c7.04784,-8.78907 8.54032,-18.57312 8.54032,-29.35216c0,-10.77904 -1.24374,-20.97768 -8.54032,-29.35216h14.759c5.72118,4.80911 8.70615,14.42733 8.70615,29.518zM256.21002,177.84419v0c-0.08292,-2.07289 -0.24875,-4.14579 -0.41458,-6.13576h-2.57039c0.24875,1.98998 0.41458,4.06287 0.41458,6.05285h2.57039zM255.21503,167.72847v0c-0.33166,-1.98998 -0.82916,-3.97995 -1.40957,-5.88702h-2.57039c0.58041,1.90706 1.0779,3.81412 1.40957,5.8041h2.57039zM246.17722,154.21321h-2.57039c0.66333,1.0779 1.32665,2.32164 1.90706,3.56538h2.57039c-0.49749,-1.24374 -1.16082,-2.40456 -1.90706,-3.56538zM249.65968,161.84146h-2.57039c0.58041,1.90706 1.0779,3.81412 1.32665,5.72118h2.57039c-0.41458,-1.90706 -0.82916,-3.89704 -1.40957,-5.72118zM248.91344,171.70843c0.16583,1.98998 0.33166,4.06287 0.33166,6.05285h2.57039c0,-1.98998 -0.16583,-4.06287 -0.33166,-6.05285zM247.25513,171.79134v0h-2.57039c0.08292,1.98998 0.24875,3.97995 0.24875,5.96993h2.57039c-0.08292,-2.07289 -0.16583,-4.06287 -0.33166,-6.05285zM244.68474,187.62825h2.57039c0.16583,-1.90706 0.16583,-3.81412 0.16583,-5.63827h-2.57039c0,1.90706 0,3.81412 -0.16583,5.63827zM248.58178,191.27654v0c-0.24875,1.90706 -0.66333,3.89704 -1.24374,5.63827h2.57039c0.58041,-1.82415 0.99499,-3.73121 1.24374,-5.55535h-2.57039zM248.99636,187.46241h2.57039c0.16583,-1.82415 0.16583,-3.73121 0.16583,-5.55535h-2.57039c0,1.90706 0,3.81412 -0.16583,5.63827zM249.65968,157.77859h2.57039c-0.41458,-1.24374 -1.16082,-2.40456 -1.82415,-3.56538h-2.57039c0.74624,1.0779 1.32665,2.32164 1.90706,3.56538zM241.11936,157.77859h2.57039c-0.49749,-1.24374 -1.16082,-2.48747 -1.90706,-3.56538h-2.57039c0.74624,1.0779 1.40957,2.32164 1.98998,3.56538zM242.86059,162.09021v0c0.58041,1.90706 0.99499,3.81412 1.24374,5.63827h2.57039c-0.33166,-1.98998 -0.74624,-3.89704 -1.32665,-5.72118h-2.57039zM243.02642,196.99772h2.57039c0.58041,-1.82415 0.99499,-3.81412 1.24374,-5.63827h-2.57039c-0.24875,1.90706 -0.66333,3.89704 -1.24374,5.63827zM238.54897,206.11845h2.57039c1.16082,-1.74123 2.15581,-3.39954 2.98497,-5.22369h-2.57039M245.59681,206.11845c1.0779,-1.74123 2.07289,-3.39954 2.90205,-5.22369h-2.57039c-0.82916,1.82415 -1.90706,3.48246 -2.98497,5.22369zM252.72756,200.97768h-2.57039c-0.82916,1.74123 -1.82415,3.39954 -2.90205,5.14077h2.57039c1.16082,-1.65831 2.07289,-3.39954 2.90205,-5.14077zM254.22005,196.83189v0c0.58041,-1.74123 0.99499,-3.64829 1.24374,-5.47244h-2.57039c-0.24875,1.82415 -0.66333,3.81412 -1.24374,5.55535h2.57039zM255.87836,187.54533c0.16583,-1.82415 0.16583,-3.73121 0.16583,-5.55535h-2.57039c0,1.82415 0,3.73121 -0.16583,5.55535z" fill="#000000" stroke="none" stroke-width="0"/><path d="M232.41321,155.2082c-3.97995,0 -7.29658,11.02779 -7.29658,24.62597c0,13.59818 3.23371,24.62597 7.29658,24.62597c4.06287,0 7.29658,-11.02779 7.29658,-24.62597c0,-13.59818 -3.23371,-24.62597 -7.29658,-24.62597zM243.10934,179.83417c0,16.58314 -4.7262,30.09841 -10.61321,30.09841c-5.88702,0 -10.69613,-13.43235 -10.69613,-30.01549c0,-16.58314 4.80911,-30.09841 10.69613,-30.09841c5.88702,0 10.61321,13.43235 10.61321,30.09841v0z" fill="#ff77ff" stroke="none" stroke-width="0"/><path d="M243.10934,179.91708c0,16.58314 -4.7262,30.09841 -10.61321,30.09841c-5.88702,0 -10.69613,-13.51526 -10.69613,-30.09841c0,-16.58314 4.80911,-30.09841 10.69613,-30.09841c5.88702,0 10.61321,13.43235 10.61321,30.09841z" fill="none" stroke="#fee6ff" stroke-width="1.9"/><path d="M248.91344,193.84692c0,-1.41958 1.1508,-2.57039 2.57039,-2.57039c1.41958,0 2.57039,1.1508 2.57039,2.57039c0,1.41958 -1.1508,2.57039 -2.57039,2.57039c-1.41958,0 -2.57039,-1.1508 -2.57039,-2.57039z" fill="#ff77ff" stroke="#fee6ff" stroke-width="0.9"/><path d="M248.91344,165.40683c0,-1.41958 1.1508,-2.57039 2.57039,-2.57039c1.41958,0 2.57039,1.1508 2.57039,2.57039c0,1.41958 -1.1508,2.57039 -2.57039,2.57039c-1.41958,0 -2.57039,-1.1508 -2.57039,-2.57039z" fill="#ff77ff" stroke="#fee6ff" stroke-width="0.9"/></g></g></g></svg>