<svg version="1.1" xmlns="http://www.w3.org/2000/svg" xmlns:xlink="http://www.w3.org/1999/xlink" width="31.64642" height="64.5" viewBox="0,0,31.64642,64.5"><g transform="translate(-223.70179,-147.75)"><g data-paper-data="{&quot;isPaintingLayer&quot;:true}" fill-rule="nonzero" stroke-linecap="butt" stroke-linejoin="miter" stroke-miterlimit="10" stroke-dasharray="" stroke-dashoffset="0" style="mix-blend-mode: normal"><g><path d="M246.72562,182.50055v-5.43223h8.62259v5.43223z" fill="#000000" stroke="none" stroke-width="0"/><path d="M225.60028,182.50055v-5.43223h4.74242v5.43223z" fill="#000000" stroke="none" stroke-width="0"/><path d="M226.20386,175.77493v-5.43223h4.74242v5.43223z" fill="#000000" stroke="none" stroke-width="0"/><path d="M227.49725,168.79063v-5.17355h4.74242v5.17355z" fill="#000000" stroke="none" stroke-width="0"/><path d="M229.30799,162.58237v-4.39752h4.74242v4.39752z" fill="#000000" stroke="none" stroke-width="0"/><path d="M230.94628,157.32259v-3.01791h4.74242v3.01791z" fill="#000000" stroke="none" stroke-width="0"/><path d="M246.12204,175.51625v-5.0011h8.62259v5.0011z" fill="#000000" stroke="none" stroke-width="0"/><path d="M244.91488,169.22176v-5.17355h8.62259v5.17355z" fill="#000000" stroke="none" stroke-width="0"/><path d="M242.41433,162.58237v-4.31129h8.62259v4.31129z" fill="#000000" stroke="none" stroke-width="0"/><path d="M240.3449,157.32259v-2.673h8.62259v2.673z" fill="#000000" stroke="none" stroke-width="0"/><path d="M237.49945,153.7011v-2.06942h8.62259v2.06942z" fill="#000000" stroke="none" stroke-width="0"/><path d="M233.79174,151.11433v-1.37961h8.62259v1.37961z" fill="#000000" stroke="none" stroke-width="0"/><path d="M246.12204,188.96749v-5.0011h8.62259v5.0011z" fill="#000000" stroke="none" stroke-width="0"/><path d="M244.91488,195.43444v-5.17355h8.62259v5.17355z" fill="#000000" stroke="none" stroke-width="0"/><path d="M242.41433,201.21157v-4.31129h8.62259v4.31129z" fill="#000000" stroke="none" stroke-width="0"/><path d="M240.3449,204.83306v-2.673h8.62259v2.673z" fill="#000000" stroke="none" stroke-width="0"/><path d="M237.49945,207.85096v-2.06942h8.62259v2.06942z" fill="#000000" stroke="none" stroke-width="0"/><path d="M233.79174,209.74793v-1.37961h8.62259v1.37961z" fill="#000000" stroke="none" stroke-width="0"/><path d="M226.20386,189.22617v-5.43223h4.74242v5.43223z" fill="#000000" stroke="none" stroke-width="0"/><path d="M227.49725,195.77934v-5.17355h4.74242v5.17355z" fill="#000000" stroke="none" stroke-width="0"/><path d="M229.30799,201.2978v-4.39752h4.74242v4.39752z" fill="#000000" stroke="none" stroke-width="0"/><path d="M230.94628,205.17796v-3.01791h4.74242v3.01791z" fill="#000000" stroke="none" stroke-width="0"/><path d="M235.77493,154.30468c-4.13884,0 -7.58788,11.46804 -7.58788,25.60909c0,14.14105 3.36281,25.60909 7.58788,25.60909c4.22507,0 7.58788,-11.46804 7.58788,-25.60909c0,-14.14105 -3.36281,-25.60909 -7.58788,-25.60909zM246.81185,179.91377c0,17.24518 -4.91488,31.3 -11.03691,31.3c-6.12204,0 -11.12314,-13.9686 -11.12314,-31.21377c0,-17.24518 5.0011,-31.3 11.12314,-31.3c6.12204,0 11.03691,13.9686 11.03691,31.3v0z" fill="#69f4ff" stroke="none" stroke-width="0"/><path d="M246.81185,180c0,17.24518 -4.91488,31.3 -11.03691,31.3c-6.12204,0 -11.12314,-14.05482 -11.12314,-31.3c0,-17.24518 5.0011,-31.3 11.12314,-31.3c6.12204,0 11.03691,13.9686 11.03691,31.3z" fill="none" stroke="#e9fcff" stroke-width="1.9"/></g></g></g></svg>