<svg version="1.1" xmlns="http://www.w3.org/2000/svg" xmlns:xlink="http://www.w3.org/1999/xlink" width="79.67101" height="79.42857" viewBox="0,0,79.67101,79.42857"><g transform="translate(-200.16451,-140.28572)"><g data-paper-data="{&quot;isPaintingLayer&quot;:true}" fill-rule="nonzero" stroke="none" stroke-width="1" stroke-linecap="butt" stroke-linejoin="miter" stroke-miterlimit="10" stroke-dasharray="" stroke-dashoffset="0" style="mix-blend-mode: normal"><path d="M252.18903,145.30585c0.01493,0.22399 0.05674,0.39721 0.12543,0.51967c0.06868,0.11648 0.21055,0.17471 0.42558,0.17471c0.99154,0.00597 2.06968,0.01941 3.23445,0.04031c3.73022,0.09557 7.57093,0.112 11.52216,0.04928c1.99353,-0.03584 2.54008,2.42359 2.34744,4.33649l0.00448,12.96019c-0.00054,0.09601 0.04003,0.18773 0.11169,0.25256c0.07166,0.06484 0.16775,0.09676 0.26462,0.0879c1.28722,-0.12543 2.50124,-0.03135 3.6421,0.28222c1.85018,0.56446 1.89946,2.36536 1.80538,3.96914c0.00298,6.92883 0.0015,13.87856 -0.00448,20.84919c-0.00448,3.82579 -2.28921,3.74514 -5.59532,3.64659c-0.15828,-0.00597 -0.23743,0.07169 -0.23743,0.23295l-0.01792,15.20011c-0.14335,1.22747 -0.95421,1.97113 -2.24888,2.02489c-4.98159,0.19711 -9.98108,0.19413 -14.99852,-0.00896c-0.17024,-0.00896 -0.25984,0.07317 -0.2688,0.24639c-0.08511,2.18168 0.36287,5.6222 -2.9343,5.65805c-7.13191,0.07467 -14.2683,0.08811 -21.40918,0.04031c-1.71578,0.07615 -3.54803,0.18815 -4.07218,-1.63515l-0.43454,-3.95122c-0.01792,-0.14933 -0.10154,-0.22399 -0.25087,-0.22399l-13.26481,0.01344c-1.92633,-0.10304 -3.62419,0.12991 -4.02739,-2.32504l-0.0224,-10.85466v-4.14834c0,-0.16427 -0.07914,-0.27476 -0.23743,-0.3315c-0.24191,-0.08661 -0.59731,-0.06421 -1.0662,0.0672c-1.67994,0.14784 -4.31857,-0.1568 -4.34993,-2.43704c-0.09259,-6.73768 -0.0896,-14.94177 0.00896,-24.61226c1.11101,-1.76506 3.29716,-1.70235 5.39821,-1.75162c0.16724,-0.00298 0.25087,-0.08811 0.25087,-0.25535c0.01792,-4.81135 0.0209,-9.60926 0.00896,-14.39373c-0.00448,-2.34744 1.65307,-2.90293 3.76307,-2.90742c4.46491,-0.01194 8.95222,-0.01344 13.46193,-0.00448c0.19944,0.00005 0.36249,-0.15902 0.36735,-0.35839c0.08511,-4.06321 0.11648,-5.44301 4.80687,-5.45645c6.30762,-0.01792 12.61674,-0.0209 18.92735,-0.00896c4.26929,0.00448 5.16975,0.56895 4.96367,5.01295zM251.37817,208.9286l16.09608,0.0224c0.69277,0 1.25436,-0.5596 1.25436,-1.24988c0,-5.11897 0,-10.30066 0,-15.54506c0,-0.08363 -0.01941,-0.16276 -0.05824,-0.23743c-0.06868,-0.13439 -0.10452,-0.20756 -0.10752,-0.21951c-0.01225,-0.10004 0.03548,-0.20021 0.13123,-0.27545c0.09576,-0.07524 0.23049,-0.11844 0.3705,-0.11877l4.54704,0.00448c0.58143,0 1.05277,-0.47134 1.05277,-1.05277v-23.98508c0,-0.8041 -0.65186,-1.45596 -1.45596,-1.45596h-4.26033c-0.1553,0 -0.23295,-0.07615 -0.23295,-0.22847l0.01792,-16.18567c0,-0.71678 -0.35839,-1.07368 -1.07516,-1.07068l-16.40967,0.04928c-0.07467,0 -0.112,-0.03883 -0.112,-0.11648c0.00448,-1.7785 0.86908,-5.81931 -1.78298,-5.82827c-7.60977,-0.03285 -15.31957,-0.03733 -23.12944,-0.01344c-0.89637,0.00247 -1.62171,0.73183 -1.6217,1.63066v4.1349c0,0.11648 -0.05972,0.17471 -0.17919,0.17471l-15.66602,-0.02687c-1.0901,-0.00298 -1.63515,0.54058 -1.63515,1.63066l0.0224,15.48682c0.00003,0.17888 -0.14368,0.32458 -0.32255,0.32702l-4.11698,0.01344c-0.77092,0.00246 -1.39525,0.6268 -1.39771,1.39771v23.82381c0,0.89597 0.44799,1.34396 1.34396,1.34396h4.21105c0.19711,0 0.29418,0.09707 0.29119,0.29119l-0.03135,16.07816c-0.00298,0.82131 0.40767,1.23047 1.23196,1.22747l16.17672,-0.04031c0.03712,0 0.0672,0.03008 0.0672,0.0672l0.00448,4.21554c0.00298,1.11996 0.56297,1.67994 1.67994,1.67994h23.5595c0.7175,0 1.29916,-0.58165 1.29916,-1.29916l0.00448,-4.42161c0,-0.15231 0.07765,-0.22847 0.23295,-0.22847z" fill="#ffe6e6"/><path d="M251.14522,209.15708l-0.00448,4.42161c0,0.7175 -0.58165,1.29916 -1.29916,1.29916h-23.5595c-1.11697,0 -1.67695,-0.55999 -1.67994,-1.67994l-0.00448,-4.21554c0,-0.03712 -0.03008,-0.0672 -0.0672,-0.0672l-16.17672,0.04031c-0.82429,0.00298 -1.23495,-0.40617 -1.23196,-1.22747l0.03135,-16.07816c0.00298,-0.19413 -0.09407,-0.29119 -0.29119,-0.29119h-4.21105c-0.89597,0 -1.34396,-0.44799 -1.34396,-1.34396v-23.82381c0.00246,-0.77092 0.6268,-1.39525 1.39771,-1.39771l4.11698,-0.01344c0.17885,-0.00244 0.32256,-0.14816 0.32255,-0.32702l-0.0224,-15.48682c0,-1.0901 0.54504,-1.63365 1.63515,-1.63066l15.66602,0.02687c0.11947,0 0.17919,-0.05824 0.17919,-0.17471v-4.1349c-0.00001,-0.89885 0.72533,-1.62819 1.6217,-1.63066c7.80986,-0.02389 15.51967,-0.01941 23.12944,0.01344c2.65207,0.00896 1.78746,4.04978 1.78298,5.82827c0,0.07765 0.03733,0.11648 0.112,0.11648l16.40967,-0.04928c0.71678,-0.00298 1.07516,0.35391 1.07516,1.07068l-0.01792,16.18567c0,0.15231 0.07765,0.22847 0.23295,0.22847h4.26033c0.8041,0 1.45596,0.65186 1.45596,1.45596v23.98508c0,0.58143 -0.47134,1.05277 -1.05277,1.05277l-4.54704,-0.00448c-0.14002,0.00036 -0.27476,0.04354 -0.3705,0.11877c-0.09576,0.07524 -0.14348,0.17539 -0.13123,0.27545c0.00298,0.01194 0.03883,0.08511 0.10752,0.21951c0.03883,0.07467 0.05824,0.1538 0.05824,0.23743c0,5.24441 0,10.42609 0,15.54506c0,0.69029 -0.56159,1.24988 -1.25436,1.24988l-16.09608,-0.0224c-0.1553,0 -0.23295,0.07615 -0.23295,0.22847zM240.07552,154.74489c-6.79593,-2.34296 -9.65855,1.6665 -13.57393,6.02987c-0.25087,0.28074 -0.39572,0.58237 -0.43454,0.90493c-0.00461,0.05104 0.0202,0.10025 0.06397,0.12689c0.04377,0.02665 0.09888,0.02607 0.14209,-0.00147l1.04381,-0.71678c0.06843,-0.04783 0.15432,-0.06347 0.23521,-0.04282c0.08089,0.02065 0.14877,0.07555 0.1859,0.15034c0.22698,0.47486 0.49875,0.77949 0.81534,0.9139c0.17024,0.18815 0.28522,0.2658 0.34495,0.23295c2.82528,2.59233 5.5804,5.2683 8.26531,8.02788c0.18815,0.19114 0.37182,0.30612 0.55102,0.34495c0.31658,0.06272 0.53908,-0.02987 0.6675,-0.27775l9.25984,-9.19264c0.16807,-0.16744 0.22864,-0.41319 0.1568,-0.63614c-0.89895,-2.77452 -0.51071,-5.31907 1.16476,-7.63365c1.27227,-1.75611 0.76606,-7.19912 0.6451,-9.90941c-0.00896,-0.17919 -0.10154,-0.2688 -0.27775,-0.2688l-22.80688,-0.0672c-0.18804,0 -0.34046,0.15243 -0.34046,0.34046l-0.03584,7.53958c-0.00298,0.13439 0.06123,0.18667 0.19264,0.1568c6.12842,-1.4022 9.86014,-0.6675 14.45646,3.4898c0.32702,0.29567 0.88252,0.50622 1.2454,0.85565c0.21802,0.20905 0.18218,0.27028 -0.10752,0.18367zM208.47919,161.26306v2.29368c-0.00143,0.11992 0.05002,0.23438 0.14065,0.31293c0.09063,0.07854 0.21124,0.1132 0.32975,0.09474l2.334,-0.34046c0.15231,-0.02389 0.29865,-0.00597 0.43902,0.05376c1.8009,0.76606 3.15829,-1.07068 4.12146,-2.35639l7.65605,-7.85764c0.11193,-0.11467 0.17462,-0.269 0.17471,-0.43006l0.0448,-4.09905c0.00298,-0.16427 -0.07765,-0.24639 -0.24191,-0.24639h-14.77453c-0.14635,0 -0.21951,0.07317 -0.21951,0.21951zM257.65443,150.92806l-4.668,4.65904c-0.18564,0.18556 -0.28492,0.44057 -0.27386,0.70344c0.01106,0.26286 0.13145,0.50968 0.3321,0.68083c1.43654,1.22151 2.8029,2.56546 4.09905,4.03186c0.66302,0.75261 1.32155,1.16028 2.09209,1.79642c0.12245,0.10452 0.24043,0.10006 0.35391,-0.01344l2.12344,-2.12344l3.31957,-3.16725c0.0701,-0.06545 0.17137,-0.08521 0.26093,-0.05092c0.08956,0.03429 0.15174,0.11665 0.16017,0.21218l0.16576,2.24441l-0.72573,3.83027c-0.01248,0.06761 0.00677,0.1372 0.05223,0.18878c0.04546,0.05157 0.11209,0.07942 0.18072,0.07553l1.85466,-0.10752c0.12266,-0.00744 0.22244,-0.09967 0.23743,-0.21951c0.21504,-1.69636 0.22399,-3.48084 0.02687,-5.35341l0.01344,-9.39422c0,-0.1553 -0.07615,-0.23295 -0.22847,-0.23295l-14.66701,-0.05376c-0.19711,-0.00298 -0.29865,0.09407 -0.30463,0.29119l-0.04928,1.30812c-0.00597,0.18218 0.08064,0.25684 0.25984,0.22399c1.86361,-0.34347 3.74665,-0.43305 5.64908,-0.2688c0.20308,0.01792 0.24191,0.10602 0.11648,0.26431zM216.75794,168.85192c0.38825,-0.25087 0.6436,-0.55102 0.76606,-0.90045l10.15581,-10.52763l2.14585,-2.19513c1.30214,-0.92285 2.35192,-1.50672 3.14933,-1.75162c0.99452,-0.30762 1.72774,-0.63913 2.19961,-0.99452c0.41215,0.22698 0.81832,0.32852 1.21851,0.30463c0.20607,-0.00896 0.22698,-0.07615 0.06272,-0.2016c-2.62967,-1.95322 -6.24938,-1.69786 -9.37631,-0.92732c-0.14049,0.03507 -0.26798,0.1097 -0.36735,0.21504c-4.07964,4.27676 -8.18766,8.53261 -12.32405,12.76755c-1.01245,1.03932 -1.80538,1.42458 -3.05525,0.4883c-0.11976,-0.09317 -0.29257,-0.07549 -0.39422,0.04031l-2.15928,2.53559c-0.14335,0.16724 -0.13887,0.3315 0.01344,0.49279l5.21006,5.56845c0.05659,0.06008 0.13573,0.09375 0.21824,0.0929c0.08253,-0.00084 0.16094,-0.03616 0.21629,-0.09738l2.24441,-2.46839c0.10417,-0.11229 0.13385,-0.27475 0.07615,-0.41663c-0.29567,-0.73171 -0.29567,-1.40667 0,-2.02489zM238.79429,171.51294c-0.48682,0.666 -0.92135,0.8228 -1.30363,0.47039c-3.35988,-3.10305 -6.69438,-6.23594 -10.00349,-9.39871c-0.10752,-0.10452 -0.21354,-0.10304 -0.31807,0.00448l-3.77203,3.92435l8.95969,9.01793c0.61224,0.93181 0.62717,1.70682 0.0448,2.32504c-2.83127,3.00747 -5.70285,5.90443 -8.61474,8.6909c-0.209,0.19774 -0.50374,0.27396 -0.77949,0.2016c-5.21006,-1.36635 -9.87806,0.5779 -9.92734,6.54506c-0.00298,0.16724 0.05227,0.18965 0.16576,0.0672l1.81433,-1.99353l2.67894,-2.03385c0.11995,-0.09154 0.27196,-0.13035 0.4211,-0.10752c0.50771,0.07169 0.94823,0.28821 1.32155,0.64957c2.49079,2.40717 4.78447,4.8666 6.88104,7.3783l-4.34096,4.58287c-0.15231,0.16128 -0.11797,0.24043 0.10304,0.23743c0.19711,0 0.41663,-0.06272 0.65854,-0.18815c1.84869,0.01792 3.41364,-0.84968 4.69487,-2.60278c1.3559,-1.72922 1.6665,-3.88551 0.93181,-6.46889c-0.17919,-0.63017 0.03584,-1.30214 0.6451,-2.01593c2.85814,-2.59832 5.63864,-5.23993 8.34148,-7.92484c0.33748,-0.3345 1.00648,-0.36585 2.00697,-0.09407l2.98806,3.18069l14.66701,15.35242c0.12245,0.13141 0.24639,0.13141 0.37182,0l5.20558,-5.36237c-6.24789,-5.92235 -12.44501,-11.82082 -18.59136,-17.69539c-0.67197,-0.64062 -0.68541,-1.19612 -0.16576,-1.91737l9.78846,-9.59134c0.34801,-0.34292 0.85943,-0.45772 1.31707,-0.29567c2.79543,0.97212 4.15729,1.04381 6.60329,-0.81981c1.38577,-1.05425 2.21604,-2.40419 2.49079,-4.04978c0.2658,-0.56147 0.35241,-1.09159 0.25984,-1.59035c-0.03883,-0.20308 -0.13141,-0.23147 -0.27775,-0.08511l-3.83922,3.8437c-0.49222,0.49269 -1.29175,0.49269 -1.78746,0l-6.60329,-6.58537c-0.30907,-0.30757 -0.4821,-0.72612 -0.48042,-1.16215c0.00168,-0.43603 0.17792,-0.85323 0.48937,-1.15841l3.32853,-3.2658c0.18815,-0.18517 0.15231,-0.28522 -0.10752,-0.30015c-3.32853,-0.19264 -5.8462,2.25783 -6.49129,5.4027c-0.26431,1.29467 0.27775,2.85365 0.56895,4.21554c0.0304,0.13981 -0.01179,0.28494 -0.112,0.38526zM202.65988,177.70857l-0.00448,9.26432l0.00448,2.54903c0,0.14037 0.07018,0.21951 0.21055,0.23743c1.00049,0.11648 2.001,0.15978 3.00149,0.12991c2.10552,-0.06272 4.26481,0.13439 6.41513,-0.16576c0.14933,-0.0209 0.27178,-0.0896 0.36735,-0.20607l2.11448,-2.60278c2.36536,-1.91737 5.00846,-1.92633 8.03684,-1.2902c0.14933,0.02987 0.27775,-0.00896 0.38526,-0.11648l8.01892,-7.93829c0.25684,-0.05376 0.43006,-0.17322 0.51967,-0.35839c0.0657,-0.14037 0.0448,-0.2658 -0.06272,-0.3763l-8.6685,-9.04032l-1.46491,-1.48731c-0.11947,-0.12543 -0.24191,-0.12693 -0.36735,-0.00448l-3.49875,3.40468c-0.14635,0.14037 -0.15231,0.28821 -0.01792,0.4435l0.77501,0.90045c0.08215,0.09588 0.08022,0.23788 -0.00448,0.3315l-3.61075,4.0005c-0.35539,0.41513 -0.67347,0.47636 -0.95421,0.18367c-2.13838,-2.23992 -4.38428,-4.60976 -6.73768,-7.10951c-0.25684,-0.2688 -0.26431,-0.54504 -0.0224,-0.82877l0.98556,-1.14236c0.12245,-0.14335 0.0896,-0.21504 -0.09856,-0.21504h-5.0891c-0.14933,0 -0.22548,0.07615 -0.22847,0.22847zM273.19949,186.89225l-0.00896,-10.69338l-0.112,-9.57343c-0.00298,-0.1553 -0.08064,-0.23295 -0.23295,-0.23295l-5.48332,-0.08511c-1.99802,-0.19264 -3.96018,-0.21504 -5.72972,0.86908c-1.91439,1.16775 -3.96914,1.38427 -6.16427,0.64957c-0.45482,-0.154 -0.95756,-0.0417 -1.30363,0.29119l-8.92833,8.6237c-0.38526,0.37034 -0.38228,0.73619 0.00896,1.09756c3.75112,3.4674 7.55749,7.10504 11.41912,10.91291c1.29916,1.28571 3.12693,1.19164 4.33649,1.15132c3.81086,-0.12543 7.62768,-0.1553 11.45048,-0.0896c0.33301,0.00526 0.61033,-0.25423 0.62717,-0.58686zM226.1477,204.25164l-0.07615,4.89199l0.01344,3.89298c0.00298,0.19413 0.10006,0.29119 0.29119,0.29119l22.84272,-0.02687c0.14635,0 0.23893,-0.06868 0.27775,-0.20607c0.2897,-0.9796 0.31359,-1.8875 0.07169,-2.72374l0.09407,-14.05775c0.00279,-0.48557 -0.18361,-0.95314 -0.51967,-1.30363l-9.25984,-9.62271c-0.50771,-0.69586 -0.98108,-1.15281 -1.42011,-1.37083c-0.15231,-0.07467 -0.2897,-0.05376 -0.41215,0.06272l-8.07716,7.74565c-0.30899,0.29597 -0.41903,0.7431 -0.28222,1.14685c1.18866,3.49727 0.33748,6.36885 -2.55351,8.61474c-0.93629,0.73021 -1.19612,1.58138 -0.99005,2.66551zM208.49262,204.61451l0.13439,2.63863c0.00896,0.16427 0.09707,0.24639 0.26431,0.24639l14.53262,-0.01792c0.18218,-0.00298 0.27326,-0.09407 0.27326,-0.27326l0.04031,-3.5122c0.00298,-0.15828 -0.07467,-0.23295 -0.23295,-0.22399l-1.14236,0.08064l-3.10453,-0.29119c-0.06999,-0.00649 -0.13014,-0.05235 -0.15492,-0.11813c-0.02478,-0.06577 -0.00987,-0.13993 0.03844,-0.19098c1.53658,-1.60827 5.81931,-4.69487 4.23793,-7.10504c-0.56147,-0.85415 -1.72774,-2.0458 -3.49875,-3.57492c-2.53857,-0.55849 -4.52763,0.20607 -5.96716,2.29368l-1.57242,1.48283c-0.18815,0.17621 -0.29268,0.13739 -0.31359,-0.11648l-0.28222,-3.50772c-0.00935,-0.11418 -0.10495,-0.20197 -0.21951,-0.2016l-2.78647,0.01792c-0.13182,0.00244 -0.23741,0.10803 -0.23743,0.23743zM257.69921,203.19439c-0.35241,0.27476 -0.81682,0.05525 -1.39323,-0.65854c-1.18568,-1.47835 -2.5102,-2.85515 -3.97363,-4.13042c-0.14635,-0.12843 -0.22101,-0.09557 -0.22399,0.09856l-0.08064,6.24042l0.01344,2.17721c0,0.31174 0.25272,0.56446 0.56446,0.56446h14.33102c0.14335,0 0.22997,-0.07018 0.25984,-0.21055c0.19711,-0.88402 0.20607,-1.74266 0.02687,-2.57591l0.00448,-12.22102c0,-0.15828 -0.07914,-0.23893 -0.23743,-0.24191l-3.61972,-0.00896l-2.56695,-0.00896c-0.19114,0 -0.21951,0.0672 -0.08511,0.2016l3.42708,3.43157c0.17879,0.17895 0.18078,0.46927 0.00448,0.65406z" fill="#000000"/><path d="M238.38214,170.43778c-3.18965,-3.27925 -5.95221,-5.89996 -8.28771,-7.86213c-0.31359,-0.26282 -0.7123,-0.34046 -1.19612,-0.23295c-0.05972,0.03285 -0.17471,-0.0448 -0.34495,-0.23295c2.78198,-3.61524 5.86859,-7.30215 10.50076,-6.87208c0.15828,0.01493 0.28372,-0.04031 0.3763,-0.16576c0.20009,-0.27775 0.41513,-0.38676 0.6451,-0.32702l1.85913,0.55102c0.2897,0.08661 0.32554,0.02539 0.10752,-0.18367c-0.36287,-0.34942 -0.91836,-0.55999 -1.2454,-0.85565c-4.59631,-4.15729 -8.32803,-4.89199 -14.45646,-3.4898c-0.13141,0.02987 -0.19563,-0.0224 -0.19264,-0.1568l0.03584,-7.53958c0,-0.18804 0.15243,-0.34046 0.34046,-0.34046l22.80688,0.0672c0.17621,0 0.2688,0.0896 0.27775,0.2688c0.12096,2.7103 0.62717,8.15331 -0.6451,9.90941c-1.67546,2.31459 -2.06372,4.85914 -1.16476,7.63365c0.07185,0.22296 0.01127,0.4687 -0.1568,0.63614z" fill="#a2e638"/><path d="M215.84405,161.32131c-2.50275,-0.30163 -4.95769,-0.32105 -7.36486,-0.05824l0.00448,-12.35542c0,-0.14635 0.07317,-0.21951 0.21951,-0.21951h14.77453c0.16427,0 0.2449,0.08213 0.24191,0.24639l-0.0448,4.09905c-0.00009,0.16106 -0.06279,0.31539 -0.17471,0.43006zM220.58548,154.5846c-0.22022,-0.22409 -0.58042,-0.22725 -0.80453,-0.00703l-4.60115,4.52155c-0.10763,0.10576 -0.16883,0.24995 -0.17016,0.40083c-0.00131,0.15088 0.05736,0.29613 0.16312,0.40375l0.19469,0.1981c0.22022,0.22409 0.58042,0.22725 0.80453,0.00703l4.60115,-4.52155c0.10763,-0.10576 0.16883,-0.24995 0.17016,-0.40083c0.00131,-0.15088 -0.05736,-0.29613 -0.16312,-0.40375z" fill="#4bffe2"/><path d="M267.24577,158.31533c-0.49577,0.97064 -1.03784,1.49925 -1.62618,1.58587l-0.16576,-2.24441c-0.00844,-0.09553 -0.07062,-0.17789 -0.16017,-0.21218c-0.08956,-0.03429 -0.19083,-0.01454 -0.26093,0.05092l-3.31957,3.16725c-2.82678,1.22747 -5.11599,-1.26331 -6.93032,-3.3554c-0.08064,-0.09259 -0.07765,-0.18218 0.00896,-0.2688l5.48332,-5.38477c0.07678,-0.07662 0.09563,-0.1939 0.04671,-0.29072c-0.04891,-0.09682 -0.15451,-0.15123 -0.26175,-0.13486c-0.9796,0.15828 -1.78148,0.05824 -2.40567,-0.30015l0.38079,-0.47486c0.12543,-0.15828 0.08661,-0.24639 -0.11648,-0.26431c-1.90244,-0.16427 -3.78548,-0.07467 -5.64908,0.2688c-0.17919,0.03285 -0.2658,-0.04181 -0.25984,-0.22399l0.04928,-1.30812c0.00597,-0.19711 0.10752,-0.29418 0.30463,-0.29119l14.66701,0.05376c0.15231,0 0.22847,0.07765 0.22847,0.23295z" fill="#18e2d5"/><path d="M269.84409,150.42633c1.79642,-0.17919 3.97363,-0.1568 4.04081,2.21752c0.07765,2.75361 0.16724,5.6222 0.2688,8.60578l-0.28671,2.75958c-1.14086,-0.31359 -2.35491,-0.40767 -3.6421,-0.28222c-0.09687,0.00884 -0.19296,-0.02308 -0.26462,-0.0879c-0.07166,-0.06484 -0.11221,-0.15656 -0.11169,-0.25256z" fill-opacity="0.41129" fill="#000000"/><path d="M257.65443,150.92806c0.62419,0.35839 1.42608,0.45843 2.40567,0.30015c0.10723,-0.01636 0.21282,0.03805 0.26175,0.13486c0.04891,0.09682 0.03008,0.2141 -0.04671,0.29072l-5.48332,5.38477c-0.08661,0.08661 -0.0896,0.17621 -0.00896,0.2688c1.81433,2.09209 4.10354,4.58287 6.93032,3.3554l-2.12344,2.12344c-0.11348,0.11348 -0.23147,0.11797 -0.35391,0.01344c-0.77052,-0.63614 -1.42907,-1.04381 -2.09209,-1.79642c-1.29617,-1.4664 -2.66253,-2.81035 -4.09905,-4.03186c-0.20065,-0.17114 -0.32104,-0.41796 -0.3321,-0.68083c-0.01106,-0.26286 0.08822,-0.51788 0.27386,-0.70344z" fill="#157b79"/><path d="M235.17457,152.48257c-2.28472,-0.0657 -4.0677,0.84968 -5.34893,2.74615l-2.14585,2.19513c-1.75012,1.30513 -3.45844,2.93878 -5.12495,4.90095c-1.09756,1.29467 -2.66998,2.47287 -3.81683,3.74963c-0.55251,0.61523 -1.10205,1.23196 -1.64858,1.85018c-0.2449,0.3345 -0.35539,0.6436 -0.3315,0.92732c-0.29567,0.61822 -0.29567,1.29318 0,2.02489c0.0577,0.14188 0.02801,0.30433 -0.07615,0.41663l-2.24441,2.46839c-0.05535,0.06123 -0.13376,0.09653 -0.21629,0.09738c-0.08253,0.00084 -0.16165,-0.03283 -0.21824,-0.0929l-5.21006,-5.56845c-0.15231,-0.16128 -0.1568,-0.32554 -0.01344,-0.49279l2.15928,-2.53559c0.10165,-0.11581 0.27446,-0.13348 0.39422,-0.04031c1.24988,0.93629 2.04281,0.55102 3.05525,-0.4883c4.13638,-4.23495 8.2444,-8.4908 12.32405,-12.76755c0.09937,-0.10533 0.22686,-0.17996 0.36735,-0.21504c3.12693,-0.77052 6.74664,-1.02588 9.37631,0.92732c0.16427,0.12543 0.14335,0.19264 -0.06272,0.2016c-0.40019,0.02389 -0.80637,-0.07765 -1.21851,-0.30463z" fill="#ffee01"/><path d="M264.07853,161.58112l-1.61274,2.31159c-0.08363,0.11648 -0.18965,0.20607 -0.31807,0.2688c-1.88153,0.90941 -2.37879,2.05624 -4.87407,1.93977c-2.48183,-0.11648 -3.109,-1.34843 -5.23694,1.0662c-2.49528,2.82678 -5.33101,5.30414 -8.01892,7.98308c-0.10297,0.10326 -0.15956,0.24394 -0.1568,0.38975l0.01792,0.79741c-0.51967,0.72125 -0.50622,1.27676 0.16576,1.91737c6.14635,5.87457 12.34346,11.77303 18.59136,17.69539c-0.9348,-0.08064 -1.75909,-0.47486 -2.47287,-1.18267c-3.84968,-3.83176 -7.76955,-7.58586 -11.75959,-11.26233c-0.0896,-0.08363 -0.17621,-0.07914 -0.25984,0.01344c-0.35839,0.39721 -0.78249,0.69736 -1.27227,0.90045c-0.15251,0.06158 -0.28419,0.16228 -0.38079,0.29119c-1.15879,1.52614 -2.52513,1.94276 -4.09905,1.24988l-2.98806,-3.18069c-0.45695,-1.04529 -0.9766,-1.34992 -1.559,-0.9139c-2.90593,2.18317 -5.83575,5.16079 -8.78946,8.93281c-0.60926,0.71378 -0.82429,1.38577 -0.6451,2.01593c0.7347,2.58337 0.42409,4.73967 -0.93181,6.46889l-4.69487,2.60278c-0.24191,0.12543 -0.46142,0.18815 -0.65854,0.18815c-0.22101,0.00298 -0.25535,-0.07615 -0.10304,-0.23743l4.34096,-4.58287c-0.12843,-1.08114 -0.40319,-1.82777 -0.82429,-2.23992c-2.26381,-2.20408 -4.46341,-4.31708 -6.59881,-6.33898c-0.32077,-0.30187 -0.80177,-0.35491 -1.1782,-0.12991c-1.0662,0.63316 -1.96665,1.57392 -2.70134,2.8223l-1.81433,1.99353c-0.11348,0.12245 -0.16874,0.10006 -0.16576,-0.0672c0.04928,-5.96716 4.71728,-7.9114 9.92734,-6.54506c0.27576,0.07237 0.57049,-0.00385 0.77949,-0.2016c2.91189,-2.78647 5.78347,-5.68344 8.61474,-8.6909c0.58237,-0.61822 0.56745,-1.39323 -0.0448,-2.32504c-2.16824,-3.06123 -4.73071,-5.85516 -7.68742,-8.38179c0.20607,-0.17024 0.23295,-0.32105 0.08064,-0.45246c0.61822,-0.88701 1.59035,-2.58487 2.7551,-2.67894c0.15231,-0.01194 0.28372,0.03584 0.39422,0.14335c1.00946,0.97362 2.03833,1.92185 3.08662,2.84471c1.76057,1.55003 3.98705,4.13042 6.50473,5.72076c0.12843,0.08064 0.2673,0.10752 0.41663,0.08064c0.76456,-0.14037 1.06023,-0.57193 0.88701,-1.29467l10.23196,-10.23196c0.1002,-0.10033 0.14239,-0.24545 0.112,-0.38526c-0.29119,-1.36187 -0.83325,-2.92086 -0.56895,-4.21554c0.6451,-3.14484 3.16277,-5.59532 6.49129,-5.4027c0.25984,0.01493 0.29567,0.11498 0.10752,0.30015l-3.32853,3.2658c-0.31145,0.30518 -0.48768,0.72237 -0.48937,1.15841c-0.00168,0.43603 0.17133,0.85458 0.48042,1.16215l6.60329,6.58537c0.49571,0.49269 1.29523,0.49269 1.78746,0l3.83922,-3.8437c0.14635,-0.14635 0.23893,-0.11797 0.27775,0.08511c0.09259,0.49875 0.00597,1.02888 -0.25984,1.59035z" fill="#fecc00"/><path d="M235.17457,152.48257c-0.47187,0.35539 -1.20508,0.68691 -2.19961,0.99452c-0.79741,0.2449 -1.84719,0.82877 -3.14933,1.75162c1.28123,-1.89646 3.06422,-2.81186 5.34893,-2.74615z" fill="#ce9c01"/><path d="M240.07552,154.74489c-0.22997,-0.05972 -0.445,0.04928 -0.6451,0.32702c-0.09259,0.12543 -0.21802,0.18068 -0.3763,0.16576c-4.63215,-0.43006 -7.71877,3.25684 -10.50076,6.87208c-0.31658,-0.13439 -0.58836,-0.43902 -0.81534,-0.9139c-0.03712,-0.07479 -0.10499,-0.12968 -0.1859,-0.15034c-0.08089,-0.02065 -0.16679,-0.00502 -0.23521,0.04282l-1.04381,0.71678c-0.04322,0.02754 -0.09832,0.0281 -0.14209,0.00147c-0.04377,-0.02665 -0.06859,-0.07587 -0.06397,-0.12689c0.03883,-0.32255 0.18367,-0.62419 0.43454,-0.90493c3.91539,-4.36337 6.77801,-8.37283 13.57393,-6.02987z" fill="#529f20"/><path d="M216.172,160.10882c-0.22411,0.22023 -0.40579,0.39878 -0.40579,0.39878l-0.99223,-1.0097c0,0 0.18168,-0.17853 0.40579,-0.39878l4.60116,-4.52155c0.22411,-0.22023 0.40579,-0.39878 0.40579,-0.39878l0.99223,1.0097c0,0 -0.18168,0.17853 -0.40579,0.39878z" fill="#2e2702"/><path d="M227.67981,157.42384l-10.15581,10.52763l-0.43454,-0.02687c0.54654,-0.61822 1.09606,-1.23495 1.64858,-1.85018c1.14685,-1.27676 2.71927,-2.45495 3.81683,-3.74963c1.6665,-1.96217 3.37481,-3.59582 5.12495,-4.90095z" fill="#ce9c01"/><path d="M267.24577,158.31533c0.19711,1.87257 0.18815,3.65705 -0.02687,5.35341c-0.015,0.11984 -0.11476,0.21207 -0.23743,0.21951l-1.85466,0.10752c-0.06864,0.0039 -0.13527,-0.02395 -0.18072,-0.07553c-0.04546,-0.05157 -0.06471,-0.12118 -0.05223,-0.18878l0.72573,-3.83027c0.58836,-0.08661 1.13042,-0.61523 1.62618,-1.58587z" fill="#055b5e"/><path d="M215.84405,161.32131c-0.96317,1.28571 -2.32056,3.12245 -4.12146,2.35639c-0.14037,-0.05972 -0.28671,-0.07765 -0.43902,-0.05376l-2.334,0.34046c-0.11849,0.01846 -0.23911,-0.0162 -0.32975,-0.09474c-0.09063,-0.07854 -0.14207,-0.19301 -0.14065,-0.31293v-2.29368c2.40717,-0.26282 4.86212,-0.24341 7.36486,0.05824z" fill="#0db7bb"/><path d="M264.07853,161.58112c-0.27476,1.64559 -1.10503,2.99552 -2.49079,4.04978c-2.446,1.86361 -3.80786,1.79194 -6.60329,0.81981c-0.45766,-0.16205 -0.96906,-0.04726 -1.31707,0.29567l-9.78846,9.59134l-0.01792,-0.79741c-0.00277,-0.1458 0.05383,-0.28648 0.1568,-0.38975c2.68791,-2.67894 5.52365,-5.1563 8.01892,-7.98308c2.12793,-2.41463 2.7551,-1.18267 5.23694,-1.0662c2.49528,0.11648 2.99254,-1.03036 4.87407,-1.93977c0.12843,-0.06272 0.23445,-0.15231 0.31807,-0.2688z" fill="#b87e00"/><path d="M238.38214,170.43778c-0.12843,0.24788 -0.35092,0.34046 -0.6675,0.27775c-0.17919,-0.03883 -0.36287,-0.1538 -0.55102,-0.34495c-2.68491,-2.75958 -5.44003,-5.43554 -8.26531,-8.02788c0.48382,-0.10752 0.88252,-0.02987 1.19612,0.23295c2.33549,1.96217 5.09806,4.58287 8.28771,7.86213z" fill="#4fad13"/><path d="M238.79429,171.51294c0.17322,0.72274 -0.12245,1.1543 -0.88701,1.29467c-0.14933,0.02687 -0.28821,0 -0.41663,-0.08064c-2.51767,-1.59035 -4.74415,-4.17074 -6.50473,-5.72076c-1.04828,-0.92285 -2.07716,-1.87109 -3.08662,-2.84471c-0.1105,-0.10752 -0.24191,-0.1553 -0.39422,-0.14335c-1.16476,0.09407 -2.13688,1.79194 -2.7551,2.67894c0.15231,0.13141 0.12543,0.28222 -0.08064,0.45246c0.13739,-0.33748 -0.28671,-0.54953 -1.27227,-0.63614l3.77203,-3.92435c0.10452,-0.10752 0.21055,-0.10901 0.31807,-0.00448c3.30912,3.16277 6.64361,6.29567 10.00349,9.39871c0.38228,0.35241 0.81682,0.19563 1.30363,-0.47039z" fill="#ffee01"/><path d="M214.8092,175.38353c0.40916,0.57939 0.79293,0.94375 1.15132,1.09308c0.3315,0.14037 0.73769,-0.0224 1.21851,-0.4883c0.98556,-0.94673 2.00846,-2.00249 3.06869,-3.16725c0.19114,-0.20905 0.24341,-0.44947 0.1568,-0.72125c-0.10752,-0.34347 -0.31209,-0.58985 -0.61375,-0.73917c-0.18517,-0.09259 -0.20458,-0.21204 -0.05824,-0.35839l3.2658,-3.20757l8.6685,9.04032c0.10752,0.1105 0.12843,0.23594 0.06272,0.3763c-0.0896,0.18517 -0.26282,0.30463 -0.51967,0.35839c-3.88253,-0.00896 -7.71579,0.00597 -11.49976,0.0448c-4.47536,0.0448 -11.34744,-0.24639 -17.05029,0.09407l0.00448,-11.20857c0.00298,-0.15231 0.07914,-0.22847 0.22847,-0.22847h5.0891c0.18815,0 0.22101,0.07169 0.09856,0.21504l-0.98556,1.14236c-0.24191,0.28372 -0.23445,0.55999 0.0224,0.82877c2.35341,2.49976 4.59932,4.8696 6.73768,7.10951c0.28074,0.29268 0.5988,0.23147 0.95421,-0.18367z" fill="#c3fa53"/><path d="M222.99836,167.79468l-3.2658,3.20757c-0.14635,0.14635 -0.12693,0.2658 0.05824,0.35839c0.30163,0.14933 0.50622,0.39572 0.61375,0.73917c0.08661,0.27178 0.03435,0.51219 -0.1568,0.72125c-1.06023,1.16476 -2.08313,2.22051 -3.06869,3.16725c-0.48083,0.46591 -0.88701,0.62867 -1.21851,0.4883c-0.35839,-0.14933 -0.74215,-0.51369 -1.15132,-1.09308l3.61075,-4.0005c0.0847,-0.09363 0.08662,-0.23562 0.00448,-0.3315l-0.77501,-0.90045c-0.13439,-0.1553 -0.12843,-0.30313 0.01792,-0.4435l3.49875,-3.40468c0.12543,-0.12245 0.24788,-0.12096 0.36735,0.00448z" fill="#529f20"/><path d="M267.36224,166.30737c-3.50324,0.55102 -4.36785,4.1349 -8.9552,2.79543c-1.39323,-0.40767 -1.69786,-0.30911 -2.62967,0.68541c-1.01842,1.08711 -3.50772,3.4898 -7.46789,7.20807c-0.99901,0.74814 -1.34396,1.55003 -0.3315,2.53559c2.54456,2.49528 5.25037,4.79791 7.83077,7.24839c0.28372,0.2688 0.56147,0.35092 0.83325,0.24639c0.10752,-0.0448 0.22101,-0.0672 0.34046,-0.0672l16.21704,-0.0672l-0.12096,2.334c-0.01684,0.33262 -0.29417,0.59211 -0.62717,0.58686c-3.8228,-0.0657 -7.63962,-0.03584 -11.45048,0.0896c-1.20956,0.04031 -3.03734,0.13439 -4.33649,-1.15132c-3.86163,-3.80786 -7.66801,-7.4455 -11.41912,-10.91291c-0.39124,-0.36138 -0.39422,-0.72723 -0.00896,-1.09756l8.92833,-8.6237c0.34607,-0.33289 0.84881,-0.44518 1.30363,-0.29119c2.19513,0.7347 4.24988,0.51817 6.16427,-0.64957c1.76953,-1.08412 3.73171,-1.06172 5.72972,-0.86908z" fill="#366913"/><path d="M267.36224,166.30737l5.48332,0.08511c0.15231,0 0.22997,0.07765 0.23295,0.23295l0.112,9.57343c-0.31359,0.90493 -0.86461,1.36187 -1.65307,1.37083c-7.3783,0.07615 -14.81932,-0.27775 -22.1797,0.14784c-0.63614,0.03584 -0.98556,-0.20458 -1.04828,-0.72125c3.96018,-3.71827 6.44948,-6.12095 7.46789,-7.20807c0.93181,-0.99452 1.23643,-1.09308 2.62967,-0.68541c4.58736,1.33947 5.45197,-2.24441 8.9552,-2.79543z" fill="#6fd026"/><path d="M223.39707,166.51343c0.98556,0.08661 1.40966,0.29865 1.27227,0.63614c2.95669,2.52663 5.51917,5.32056 7.68742,8.38179z" fill="#b87e00"/><path d="M217.08945,167.92459l0.43454,0.02687c-0.12245,0.34942 -0.3778,0.64957 -0.76606,0.90045c-0.02389,-0.28372 0.08661,-0.59283 0.3315,-0.92732z" fill="#b87e00"/><path d="M275.67236,167.53035c1.2454,-0.02987 2.43404,0.27178 3.56595,0.90493c0.13153,0.07443 0.22582,0.20124 0.25984,0.34942c0.18517,0.83923 0.28074,1.80239 0.28671,2.8895c0.06272,9.90344 0.0672,17.35192 0.01344,22.34546c-0.03135,2.50423 -3.8885,2.25783 -5.49229,2.06521c-0.07234,-0.00767 -0.14451,0.01534 -0.19841,0.06323c-0.0539,0.04791 -0.08438,0.11616 -0.08382,0.18764l0.03584,9.35391l-0.07615,0.80637c-0.23295,0.34347 -0.60776,0.51967 -1.12443,0.52862c-1.17372,0.01493 -2.18765,0.15978 -3.04182,0.43454l0.01792,-15.20011c0,-0.16128 0.07914,-0.23893 0.23743,-0.23295c3.30612,0.09856 5.59085,0.17919 5.59532,-3.64659c0.00597,-6.97063 0.00747,-13.92036 0.00448,-20.84919z" fill-opacity="0.41129" fill="#000000"/><path d="M273.19052,176.19886l0.00896,10.69338l-16.21704,0.0672c-0.11947,0 -0.23295,0.0224 -0.34046,0.0672c-0.27178,0.10452 -0.54953,0.0224 -0.83325,-0.24639c-2.58039,-2.45048 -5.28621,-4.75311 -7.83077,-7.24839c-1.01245,-0.98556 -0.6675,-1.78746 0.3315,-2.53559c0.06272,0.51667 0.41215,0.7571 1.04828,0.72125c7.36038,-0.42558 14.8014,-0.07169 22.1797,-0.14784c0.78845,-0.00896 1.33947,-0.46591 1.65307,-1.37083z" fill="#4fad13"/><path d="M231.20991,177.5697l-8.01892,7.93829c-0.10752,0.10752 -0.23594,0.14635 -0.38526,0.11648c-3.02838,-0.63614 -5.67147,-0.62717 -8.03684,1.2902l-12.11349,0.05824l0.00448,-9.26432c5.70285,-0.34046 12.57492,-0.04928 17.05029,-0.09407c3.78398,-0.03883 7.61723,-0.05376 11.49976,-0.0448z" fill="#89f337"/><path d="M239.40355,182.77976c-1.00049,-0.27178 -1.66949,-0.24043 -2.00697,0.09407c-2.70284,2.68491 -5.48332,5.32653 -8.34148,7.92484c2.95371,-3.77203 5.88353,-6.74963 8.78946,-8.93281c0.58237,-0.43604 1.10205,-0.13141 1.559,0.9139z" fill="#b87e00"/><path d="M257.43044,201.31287c-0.12543,0.13141 -0.24938,0.13141 -0.37182,0l-14.66701,-15.35242c3.27878,-2.93393 5.07768,-4.40321 5.15481,-4.45496c5.54323,5.10757 10.57993,10.36876 15.0896,14.445z" fill="#ce9c01"/><path d="M239.88289,185.38702l-8.02788,7.98308c-0.11947,0.11947 -0.1538,0.25984 -0.10304,0.4211c0.3763,1.18267 0.80637,2.34744 0.60479,3.57492c-0.57939,3.49727 -2.64908,5.79243 -6.20907,6.88552c-0.20607,-1.08412 0.05376,-1.93529 0.99005,-2.66551c2.89099,-2.24589 3.74216,-5.11747 2.55351,-8.61474c-0.1368,-0.40375 -0.02676,-0.85088 0.28222,-1.14685l8.07716,-7.74565c0.12245,-0.11648 0.25984,-0.13739 0.41215,-0.06272c0.43902,0.21802 0.9124,0.67497 1.42011,1.37083z" fill="#44791c"/><path d="M239.88289,185.38702l9.25984,9.62271c0.33607,0.35049 0.52245,0.81807 0.51967,1.30363l-0.09407,14.05775c-9.2016,0.06868 -16.78598,0.04928 -22.75314,-0.05824c-0.45993,-0.00896 -0.70782,-0.39871 -0.74365,-1.16923l0.07615,-4.89199c3.55999,-1.09308 5.62968,-3.38825 6.20907,-6.88552c0.2016,-1.22747 -0.22847,-2.39224 -0.60479,-3.57492c-0.05077,-0.16128 -0.01643,-0.30163 0.10304,-0.4211z" fill="#6fd026"/><path d="M214.76888,186.91465l-2.11448,2.60278c-0.09557,0.11648 -0.21802,0.18517 -0.36735,0.20607c-2.15033,0.30015 -4.30961,0.10304 -6.41513,0.16576c-1.00049,0.02987 -2.001,-0.01344 -3.00149,-0.12991c-0.14037,-0.01792 -0.21055,-0.09707 -0.21055,-0.23743l-0.00448,-2.54903z" fill="#44791c"/><path d="M226.36272,197.25412c-2.09657,-2.5117 -4.39024,-4.97113 -6.88104,-7.3783c-0.37332,-0.36138 -0.81384,-0.5779 -1.32155,-0.64957c-0.14913,-0.02284 -0.30117,0.01598 -0.4211,0.10752l-2.67894,2.03385c0.7347,-1.24838 1.63515,-2.18915 2.70134,-2.8223c0.37643,-0.225 0.85744,-0.17196 1.1782,0.12991c2.13539,2.0219 4.33499,4.1349 6.59881,6.33898c0.4211,0.41215 0.69586,1.15879 0.82429,2.23992z" fill="#b87e00"/><path d="M213.91325,194.56623l0.26431,2.16824c0.01264,0.11176 0.09001,0.2051 0.19798,0.23885c0.10798,0.03374 0.22668,0.00168 0.30375,-0.08205c1.56794,-1.7322 3.30164,-3.27177 5.2011,-4.61872c1.77103,1.52912 2.93728,2.72076 3.49875,3.57492c1.58138,2.41015 -2.70134,5.49677 -4.23793,7.10504c-0.04831,0.05106 -0.06322,0.12521 -0.03844,0.19098c0.02478,0.06577 0.08493,0.11164 0.15492,0.11813l3.10453,0.29119c0.10154,0.12543 0.29567,0.17471 0.58237,0.14784c0.05972,-0.00597 0.0896,0.0209 0.0896,0.08064c0,0.04778 0,0.09557 0,0.14335c-0.00298,0.10752 -0.05972,0.16576 -0.17024,0.17471c-1.2006,0.10752 -2.35639,0.46142 -3.50324,0.49726c-3.61972,0.11648 -7.24241,0.12245 -10.86811,0.01792l0.00896,-12.1359c0.00003,-0.12939 0.10562,-0.23498 0.23743,-0.23743l2.78647,-0.01792c0.11457,-0.00037 0.21016,0.08741 0.21951,0.2016l0.28222,3.50772c0.0209,0.25385 0.12543,0.29268 0.31359,0.11648z" fill="#2bf5f2"/><path d="M219.88039,192.27255c-1.89946,1.34694 -3.63315,2.88651 -5.2011,4.61872c-0.07707,0.08373 -0.19578,0.11579 -0.30375,0.08205c-0.10798,-0.03374 -0.18535,-0.12709 -0.19798,-0.23885l-0.26431,-2.16824c1.43952,-2.08761 3.42857,-2.85217 5.96716,-2.29368z" fill="#157b79"/><path d="M263.37072,192.22775c-0.4898,-0.00597 -0.88851,0.1538 -1.19612,0.47934c-0.09856,0.10452 -0.09557,0.20607 0.00896,0.30463l3.58388,3.45395c0.45484,0.43789 0.47474,1.16051 0.0448,1.62618c-1.69039,1.80986 -3.50772,3.6899 -5.45197,5.64012c-0.68393,0.68393 -1.57094,0.50473 -2.66103,-0.53758l6.45098,-6.68841c0.1763,-0.18478 0.17431,-0.47511 -0.00448,-0.65406l-3.42708,-3.43157c-0.13439,-0.13439 -0.10602,-0.2016 0.08511,-0.2016z" fill="#157b79"/><path d="M267.22337,204.69963l-15.19563,0.0448l0.08064,-6.24042c0.00298,-0.19413 0.07765,-0.22698 0.22399,-0.09856c1.46341,1.27526 2.78795,2.65207 3.97363,4.13042c0.57641,0.71378 1.04082,0.93331 1.39323,0.65854c1.0901,1.04231 1.9771,1.22151 2.66103,0.53758c1.94426,-1.95023 3.76158,-3.83027 5.45197,-5.64012c0.42994,-0.46567 0.41004,-1.1883 -0.0448,-1.62618l-3.58388,-3.45395c-0.10452,-0.09856 -0.10752,-0.20009 -0.00896,-0.30463c0.30762,-0.32554 0.70632,-0.48532 1.19612,-0.47934l3.61972,0.00896c0.15828,0.00298 0.23743,0.08363 0.23743,0.24191z" fill="#0db7bb"/><path d="M227.47821,199.28349c-1.28123,1.75311 -2.84619,2.62071 -4.69487,2.60278z" fill="#b87e00"/><path d="M208.49262,204.61451c3.62568,0.10452 7.24839,0.09856 10.86811,-0.01792c1.14685,-0.03584 2.30264,-0.38975 3.50324,-0.49726c0.1105,-0.00896 0.16724,-0.0672 0.17024,-0.17471c0,-0.04778 0,-0.09557 0,-0.14335c0,-0.05972 -0.02987,-0.08661 -0.0896,-0.08064c-0.28671,0.02687 -0.48083,-0.0224 -0.58237,-0.14784l1.14236,-0.08064c0.15828,-0.00896 0.23594,0.0657 0.23295,0.22399l-0.04031,3.5122c0,0.17919 -0.09109,0.27028 -0.27326,0.27326l-14.53262,0.01792c-0.16724,0 -0.25535,-0.08213 -0.26431,-0.24639z" fill="#157b79"/><path d="M267.22337,204.69963c0.17919,0.83325 0.17024,1.69189 -0.02687,2.57591c-0.02987,0.14037 -0.11648,0.21055 -0.25984,0.21055h-14.33102c-0.31174,0 -0.56446,-0.25272 -0.56446,-0.56446l-0.01344,-2.17721z" fill="#055b5e"/><path d="M273.98347,206.49605c-0.01493,0.30762 0.02389,0.44649 0.11648,0.41663c0.01493,0.66003 -0.04332,2.18765 -0.17471,4.58287c-0.08661,1.55599 -0.89448,2.331 -2.42359,2.32504c-4.92484,-0.0209 -9.84819,-0.05077 -14.77005,-0.0896c-0.17621,0 -0.27028,0.08661 -0.28222,0.25984l-0.30463,3.80786c-0.03883,0.61224 -0.21204,1.12443 -0.51967,1.53658c-0.09557,0.12843 -0.2225,0.19563 -0.38079,0.2016c-8.26979,0.30911 -17.37283,0.11648 -24.90345,0.13439c-2.07417,0.00448 -1.92633,-1.37531 -2.23544,-2.8895l-0.14784,-1.36187c7.14087,0.04778 14.27726,0.03435 21.40918,-0.04031c3.29716,-0.03584 2.84918,-3.47636 2.9343,-5.65805c0.00896,-0.17322 0.09856,-0.25535 0.2688,-0.24639c5.01742,0.20308 10.01693,0.20607 14.99852,0.00896c1.29467,-0.05376 2.10552,-0.79741 2.24888,-2.02489c0.85415,-0.27476 1.86809,-0.41962 3.04182,-0.43454c0.51667,-0.00896 0.89149,-0.18517 1.12443,-0.52862z" fill-opacity="0.41129" fill="#000000"/><path d="M226.07154,209.14363c0.03584,0.77052 0.28372,1.16028 0.74365,1.16923c5.96716,0.10752 13.55152,0.12693 22.75314,0.05824c0.24191,0.83624 0.21802,1.74415 -0.07169,2.72374c-0.03883,0.13739 -0.13141,0.20607 -0.27775,0.20607l-22.84272,0.02687c-0.19114,0 -0.28821,-0.09707 -0.29119,-0.29119z" fill="#366913"/><path d="M223.88537,213.78475c-3.83475,-0.0209 -7.69339,-0.03584 -11.57592,-0.0448c-2.22648,-0.00448 -1.89946,-2.70134 -2.37432,-4.11698l13.26481,-0.01344c0.14933,0 0.23295,0.07467 0.25087,0.22399z" fill-opacity="0.41129" fill="#000000"/></g></g></svg>