<svg version="1.1" xmlns="http://www.w3.org/2000/svg" xmlns:xlink="http://www.w3.org/1999/xlink" width="58.79878" height="58.7988" viewBox="0,0,58.79878,58.7988"><defs><linearGradient x1="215.39109" y1="180" x2="264.60891" y2="180" gradientUnits="userSpaceOnUse" id="color-1"><stop offset="0" stop-color="#83ff2f"/><stop offset="1" stop-color="#2bec46"/></linearGradient><linearGradient x1="215.3911" y1="179.91474" x2="264.60891" y2="179.91474" gradientUnits="userSpaceOnUse" id="color-2"><stop offset="0" stop-color="#83ff2f"/><stop offset="1" stop-color="#2bec46"/></linearGradient><linearGradient x1="215.3911" y1="192.72456" x2="264.61556" y2="192.72456" gradientUnits="userSpaceOnUse" id="color-3"><stop offset="0" stop-color="#000000" stop-opacity="0"/><stop offset="1" stop-color="#000000" stop-opacity="0.29473"/></linearGradient><linearGradient x1="230.40502" y1="161.93318" x2="248.54214" y2="198.06682" gradientUnits="userSpaceOnUse" id="color-4"><stop offset="0" stop-color="#00ffff"/><stop offset="1" stop-color="#009999"/></linearGradient><linearGradient x1="230.40502" y1="161.93318" x2="248.54214" y2="198.06682" gradientUnits="userSpaceOnUse" id="color-5"><stop offset="0" stop-color="#19170a"/><stop offset="1" stop-color="#312114"/></linearGradient></defs><g transform="translate(-210.60061,-150.6006)"><g data-paper-data="{&quot;isPaintingLayer&quot;:true}" fill-rule="nonzero" stroke-linecap="butt" stroke-linejoin="miter" stroke-miterlimit="10" stroke-dasharray="" stroke-dashoffset="0" style="mix-blend-mode: normal"><path d="M213.60061,180c0,-14.57998 11.8194,-26.3994 26.39939,-26.3994c14.57998,0 26.39939,11.8194 26.39939,26.3994c0,14.57998 -11.8194,26.3994 -26.39939,26.3994c-14.57998,0 -26.39939,-11.8194 -26.39939,-26.3994z" fill="none" stroke="#ececec" stroke-width="6"/><path d="M215.39109,180c0,-13.59112 11.01778,-24.60891 24.60891,-24.60891c13.59112,0 24.60891,11.01778 24.60891,24.60891c0,13.59112 -11.01778,24.60891 -24.60891,24.60891c-13.59112,0 -24.60891,-11.01778 -24.60891,-24.60891z" fill="none" stroke="#000000" stroke-width="6"/><path d="M215.39109,180c0,-13.59112 11.01778,-24.60891 24.60891,-24.60891c13.59112,0 24.60891,11.01778 24.60891,24.60891c0,13.59112 -11.01778,24.60891 -24.60891,24.60891c-13.59112,0 -24.60891,-11.01778 -24.60891,-24.60891z" fill="url(#color-1)" stroke="none" stroke-width="0"/><path d="M215.3911,179.91474c0,-13.59112 11.01778,-24.60891 24.60891,-24.60891c13.59112,0 24.60891,11.01778 24.60891,24.60891c0,13.59112 -11.01778,24.60891 -24.60891,24.60891c-13.59112,0 -24.60891,-11.01778 -24.60891,-24.60891zM255.45788,194.35802c0.82405,0 1.49207,-0.66803 1.49207,-1.49207c0,-0.82405 -0.66803,-1.49207 -1.49207,-1.49207c-0.82405,0 -1.49207,0.66803 -1.49207,1.49207c0,0.82405 0.66803,1.49207 1.49207,1.49207z" fill="url(#color-2)" stroke="none" stroke-width="0"/><path d="M264.60891,180.75912c0.9058,13.25212 -10.3509,23.84979 -24.60891,23.84979c-13.59112,0 -24.60891,-11.37291 -24.60891,-24.03077z" fill="url(#color-3)" stroke="none" stroke-width="3"/><path d="M222.69148,190.35329c-5.00843,-9.97803 -0.97977,-22.12695 8.99826,-27.13539c9.97803,-5.00843 22.12695,-0.97977 27.13539,8.99826c2.90328,5.78405 -0.29107,15.80746 -0.22186,15.81394c0.3602,0.14013 2.11131,1.54678 3.42679,2.44164c0.08957,0.06093 -10.25788,3.02902 -10.27905,2.95137c-0.18122,-0.66459 -1.60583,-8.72789 -1.72188,-9.33266c-0.03952,-0.20597 3.20439,1.40973 3.57011,1.32612c0.03259,-0.02468 0.91419,-7.21126 -0.81407,-10.65436c-3.49065,-6.95424 -11.95791,-9.76204 -18.91215,-6.27138c-6.95424,3.49065 -9.76204,11.9579 -6.27138,18.91214c3.7761,7.52295 12.5065,10.08461 19.75811,5.81052c1.62332,1.76957 3.57468,3.06664 5.46235,4.29619c-0.92776,0.68812 -1.92742,1.30588 -2.99523,1.84186c-9.97803,5.00843 -22.12695,0.97977 -27.13539,-8.99826z" fill-opacity="0.52941" fill="#000000" stroke="none" stroke-width="0"/><path d="M221.40675,189.06856c-5.00843,-9.97803 -0.97977,-22.12695 8.99827,-27.13539c9.97803,-5.00843 22.12695,-0.97977 27.13539,8.99826c2.90328,5.78405 -0.29108,15.80746 -0.22187,15.81394c0.3602,0.14013 2.11131,1.54679 3.42679,2.44164c0.08956,0.06093 -10.25788,3.02902 -10.27905,2.95137c-0.18122,-0.6646 -1.60583,-8.7279 -1.72188,-9.33266c-0.03952,-0.20597 3.2044,1.40974 3.57011,1.32612c0.03259,-0.02467 0.91419,-7.21126 -0.81407,-10.65436c-3.49065,-6.95424 -11.9579,-9.76204 -18.91214,-6.27138c-6.95424,3.49065 -9.76204,11.9579 -6.27138,18.91214c3.77611,7.52295 12.5065,10.08461 19.7581,5.81052c1.62332,1.76957 3.57468,3.06664 5.46235,4.29619c-0.92776,0.68812 -1.92742,1.30587 -2.99523,1.84186c-9.97803,5.00843 -22.12695,0.97977 -27.13539,-8.99826z" fill="url(#color-4)" stroke="url(#color-5)" stroke-width="2"/></g></g></svg>