<svg version="1.1" xmlns="http://www.w3.org/2000/svg" xmlns:xlink="http://www.w3.org/1999/xlink" width="37.36548" height="72.00374" viewBox="0,0,37.36548,72.00374"><g transform="translate(-220.84226,-143.99813)"><g data-paper-data="{&quot;isPaintingLayer&quot;:true}" fill-rule="nonzero" stroke-linecap="butt" stroke-linejoin="miter" stroke-miterlimit="10" stroke-dasharray="" stroke-dashoffset="0" style="mix-blend-mode: normal"><path d="M249.41494,206.29546v0c0.74656,0.91246 -0.82951,1.41017 -1.07836,1.99082c-0.1659,0.41475 -0.58066,0.66361 -0.99541,0.66361h-14.84822c-9.70526,-7.05083 -9.95412,-20.15709 -9.95412,-28.86694c0,-8.70985 -0.74656,-25.30005 10.45182,-29.53055c6.63608,0 8.1292,0.1659 14.84822,0.1659c-0.91246,0.24885 -2.73738,0.49771 -3.48394,0.99541c-0.74656,0 -0.41475,0 -0.58066,0c-3.40099,4.14755 -3.40099,6.13837 -3.40099,6.13837l0.58066,0.1659h-1.07836c-0.3318,0.74656 -0.49771,1.07836 -0.74656,1.90787h3.40099c0.1659,-0.49771 0.1659,-0.74656 0.3318,-1.07836l-0.74656,1.07836c-2.40558,6.63608 0.58066,13.76986 0.58066,19.99118c0,6.22132 -2.32263,12.19379 -0.3318,17.75151v1.16131c-0.1659,-0.08295 -0.1659,-0.1659 -0.1659,-0.3318c-1.32722,0.1659 -1.99082,0.1659 -3.40099,0.1659c0.24885,0.74656 0.41475,1.07836 0.74656,1.82492h0.1659c0.1659,0.74656 0.91246,2.73738 3.23509,5.72362h6.47018zM237.55295,194.10167v0c1.32722,0 1.99082,0 3.40099,0c-0.08295,-0.82951 -0.08295,-1.16131 -0.24885,-1.99082c-1.32722,0 -1.99082,0 -3.40099,0c0.1659,0.82951 0.1659,1.16131 0.3318,1.99082zM236.72344,174.35933v0h3.48394c0,-0.82951 0,-1.24426 0,-2.15673h-3.40099c0,0.82951 0,1.32722 0,2.15673zM236.72344,179.08754v1.82492h3.48394v-1.82492zM237.22114,158.10094h-3.40099c-0.3318,0.74656 -0.49771,1.07836 -0.74656,1.90787h3.40099c0.24885,-0.74656 0.41475,-1.16131 0.74656,-1.90787zM231.82933,164.90292c-0.1659,0.82951 -0.1659,1.24426 -0.3318,2.15673h3.40099c0.1659,-0.82951 0.1659,-1.24426 0.3318,-2.15673zM230.91687,172.20261c0,0.82951 0,1.32722 0,2.15673h3.48394c0,-0.82951 0,-1.24426 0,-2.15673zM230.75097,179.08754v1.82492h3.48394v-1.82492zM230.83392,185.47476c0,0.74656 0,1.16131 0,1.99082h3.40099c0,-0.82951 0,-1.16131 0,-1.99082zM234.81556,192.11084v0c-1.32722,0 -1.99082,0 -3.40099,0c0.1659,0.82951 0.1659,1.24426 0.3318,2.07377c1.32722,0 1.99082,0 3.40099,0c-0.1659,-0.74656 -0.1659,-1.16131 -0.3318,-1.99082zM232.90769,198.91282c0.24885,0.74656 0.41475,1.07836 0.74656,1.82492c1.32722,-0.1659 1.99082,-0.1659 3.40099,-0.1659c-0.3318,-0.66361 -0.49771,-1.07836 -0.74656,-1.82492c-1.32722,0.1659 -1.99082,0.1659 -3.40099,0.1659zM240.12443,187.46559c0,-0.82951 0,-1.24426 0,-1.99082h-3.40099c0,0.82951 0,1.16131 0,1.99082zM237.6359,164.98587c-0.1659,0.82951 -0.1659,1.24426 -0.3318,2.15673h3.40099c0.1659,-0.82951 0.1659,-1.24426 0.3318,-2.15673zM235.97688,154.20225h3.40099c0.41475,-0.66361 0.66361,-0.91246 1.24426,-1.41017h-3.40099c-0.58066,0.49771 -0.74656,0.82951 -1.24426,1.41017zM230.00441,154.20225h3.40099c0.49771,-0.66361 0.66361,-0.91246 1.24426,-1.41017h-3.40099c-0.58066,0.49771 -0.74656,0.82951 -1.24426,1.41017zM226.93522,160.00882h3.40099c0.24885,-0.74656 0.41475,-1.16131 0.74656,-1.90787h-3.40099c-0.3318,0.74656 -0.49771,1.07836 -0.74656,1.90787zM225.35915,167.05965h3.40099c0.1659,-0.82951 0.1659,-1.24426 0.3318,-2.15673h-3.40099c-0.1659,0.82951 -0.1659,1.24426 -0.3318,2.15673zM224.86145,172.20261v0c-0.1659,0.82951 -0.1659,1.32722 -0.1659,2.15673h3.48394c0.1659,-0.82951 0.1659,-1.24426 0.1659,-2.15673h-3.40099zM224.69555,180.91246h3.48394v-1.82492h-3.48394c0,0.74656 0,1.07836 0,1.82492zM224.86145,185.39181v0c0.1659,0.82951 0.1659,1.24426 0.1659,2.07377h3.40099c-0.1659,-0.74656 -0.1659,-1.16131 -0.1659,-1.99082h-3.40099zM225.77391,194.35052c1.32722,0 1.99082,0 3.40099,0c-0.1659,-0.82951 -0.1659,-1.24426 -0.3318,-2.07377c-1.32722,0 -1.99082,0 -3.40099,0c0.1659,0.82951 0.1659,1.24426 0.3318,2.07377zM227.10112,198.91282v0c0.24885,0.82951 0.41475,1.16131 0.74656,1.90787c1.32722,-0.1659 1.99082,-0.1659 3.40099,-0.1659c-0.3318,-0.66361 -0.49771,-1.07836 -0.74656,-1.82492c-1.32722,0.1659 -1.99082,0.1659 -3.40099,0.1659zM231.33162,206.46136v0c1.32722,0 1.99082,0 3.40099,0c-0.58066,-0.58066 -0.74656,-0.99541 -1.24426,-1.57607c-1.32722,0.1659 -1.99082,0.1659 -3.40099,0.1659c0.49771,0.58066 0.66361,0.91246 1.24426,1.49312zM237.22114,206.21251v0c1.32722,0 1.99082,0 3.40099,0c-0.58066,-0.58066 -0.82951,-0.91246 -1.32722,-1.57607c-1.32722,0.1659 -1.99082,0.1659 -3.40099,0.1659c0.41475,0.66361 0.66361,0.99541 1.24426,1.57607z" fill="#000000" stroke="none" stroke-width="0"/><path d="M239.21197,146.81961c0,-1.42019 1.15129,-2.57148 2.57148,-2.57148c1.42019,0 2.57148,1.15129 2.57148,2.57148c0,1.42019 -1.15129,2.57148 -2.57148,2.57148c-1.42019,0 -2.57148,-1.15129 -2.57148,-2.57148z" fill="#2b99ff" stroke="#e0f0ff" stroke-width="0.5"/><path d="M239.21197,213.18039c0,-1.42019 1.15129,-2.57148 2.57148,-2.57148c1.42019,0 2.57148,1.15129 2.57148,2.57148c0,1.42019 -1.15129,2.57148 -2.57148,2.57148c-1.42019,0 -2.57148,-1.15129 -2.57148,-2.57148z" fill="#2b99ff" stroke="#e0f0ff" stroke-width="0.5"/><path d="M258.20774,180.08295v0c0,15.18003 -2.57148,23.97283 -8.70985,29.11579h-14.76527c7.05083,-8.7928 8.54395,-18.58102 8.54395,-29.36465c0,-10.78363 -1.24426,-20.9866 -8.54395,-29.36465h14.76527c5.72362,4.81116 8.70985,14.43347 8.70985,29.53055zM256.21692,177.84327v0c-0.08295,-2.07377 -0.24885,-4.14755 -0.41475,-6.13837h-2.57148c0.24885,1.99082 0.41475,4.0646 0.41475,6.05542h2.57148zM255.2215,167.72326v0c-0.3318,-1.99082 -0.82951,-3.98165 -1.41017,-5.88952h-2.57148c0.58066,1.90787 1.07836,3.81574 1.41017,5.80657h2.57148zM246.17985,154.20225h-2.57148c0.66361,1.07836 1.32722,2.32263 1.90787,3.56689h2.57148c-0.49771,-1.24426 -1.16131,-2.40558 -1.90787,-3.56689zM249.66379,161.83374h-2.57148c0.58066,1.90787 1.07836,3.81574 1.32722,5.72362h2.57148c-0.41475,-1.90787 -0.82951,-3.8987 -1.41017,-5.72362zM248.91723,171.7049c0.1659,1.99082 0.3318,4.0646 0.3318,6.05542h2.57148c0,-1.99082 -0.1659,-4.0646 -0.3318,-6.05542zM247.25821,171.78785v0h-2.57148c0.08295,1.99082 0.24885,3.98165 0.24885,5.97247h2.57148c-0.08295,-2.07377 -0.1659,-4.0646 -0.3318,-6.05542zM244.68673,187.63149h2.57148c0.1659,-1.90787 0.1659,-3.81574 0.1659,-5.64067h-2.57148c0,1.90787 0,3.81574 -0.1659,5.64067zM248.58543,191.28133v0c-0.24885,1.90787 -0.66361,3.8987 -1.24426,5.64067h2.57148c0.58066,-1.82492 0.99541,-3.73279 1.24426,-5.55772h-2.57148zM249.00018,187.46559h2.57148c0.1659,-1.82492 0.1659,-3.73279 0.1659,-5.55772h-2.57148c0,1.90787 0,3.81574 -0.1659,5.64067zM249.66379,157.76914h2.57148c-0.41475,-1.24426 -1.16131,-2.40558 -1.82492,-3.56689h-2.57148c0.74656,1.07836 1.32722,2.32263 1.90787,3.56689zM241.11984,157.76914h2.57148c-0.49771,-1.24426 -1.16131,-2.48853 -1.90787,-3.56689h-2.57148c0.74656,1.07836 1.41017,2.32263 1.99082,3.56689zM242.86181,162.08259v0c0.58066,1.90787 0.99541,3.81574 1.24426,5.64067h2.57148c-0.3318,-1.99082 -0.74656,-3.8987 -1.32722,-5.72362h-2.57148zM243.02771,197.00495h2.57148c0.58066,-1.82492 0.99541,-3.81574 1.24426,-5.64067h-2.57148c-0.24885,1.90787 -0.66361,3.8987 -1.24426,5.64067zM238.54836,206.12956h2.57148c1.16131,-1.74197 2.15673,-3.40099 2.98624,-5.22591h-2.57148M245.59919,206.12956c1.07836,-1.74197 2.07377,-3.40099 2.90328,-5.22591h-2.57148c-0.82951,1.82492 -1.90787,3.48394 -2.98624,5.22591zM252.73297,200.9866h-2.57148c-0.82951,1.74197 -1.82492,3.40099 -2.90328,5.14296h2.57148c1.16131,-1.65902 2.07377,-3.40099 2.90328,-5.14296zM254.22609,196.83905v0c0.58066,-1.74197 0.99541,-3.64984 1.24426,-5.47476h-2.57148c-0.24885,1.82492 -0.66361,3.81574 -1.24426,5.55772h2.57148zM255.88511,187.54854c0.1659,-1.82492 0.1659,-3.73279 0.1659,-5.55772h-2.57148c0,1.82492 0,3.73279 -0.1659,5.55772z" fill="#000000" stroke="none" stroke-width="0"/><path d="M232.40999,155.19766c-3.98165,0 -7.29969,11.03248 -7.29969,24.63644c0,13.60396 3.23509,24.63644 7.29969,24.63644c4.0646,0 7.29969,-11.03248 7.29969,-24.63644c0,-13.60396 -3.23509,-24.63644 -7.29969,-24.63644zM243.11066,179.8341c0,16.59019 -4.72821,30.1112 -10.61772,30.1112c-5.88952,0 -10.70068,-13.43806 -10.70068,-30.02825c0,-16.59019 4.81116,-30.1112 10.70068,-30.1112c5.88952,0 10.61772,13.43806 10.61772,30.1112v0z" fill="#2b99ff" stroke="none" stroke-width="0"/><path d="M243.11066,179.91705c0,16.59019 -4.72821,30.1112 -10.61772,30.1112c-5.88952,0 -10.70068,-13.52101 -10.70068,-30.1112c0,-16.59019 4.81116,-30.1112 10.70068,-30.1112c5.88952,0 10.61772,13.43806 10.61772,30.1112z" fill="none" stroke="#e0f0ff" stroke-width="1.9"/><path d="M248.91723,193.85281c0,-1.42019 1.15129,-2.57148 2.57148,-2.57148c1.42019,0 2.57148,1.15129 2.57148,2.57148c0,1.42019 -1.15129,2.57148 -2.57148,2.57148c-1.42019,0 -2.57148,-1.15129 -2.57148,-2.57148z" fill="#2b99ff" stroke="#e0f0ff" stroke-width="0.5"/><path d="M248.91723,165.40063c0,-1.42019 1.15129,-2.57148 2.57148,-2.57148c1.42019,0 2.57148,1.15129 2.57148,2.57148c0,1.42019 -1.15129,2.57148 -2.57148,2.57148c-1.42019,0 -2.57148,-1.15129 -2.57148,-2.57148z" fill="#2b99ff" stroke="#e0f0ff" stroke-width="0.5"/></g></g></svg>