<svg version="1.1" xmlns="http://www.w3.org/2000/svg" xmlns:xlink="http://www.w3.org/1999/xlink" width="312.18222" height="45.08955" viewBox="0,0,312.18222,45.08955"><g transform="translate(-83.90889,-157.45522)"><g data-paper-data="{&quot;isPaintingLayer&quot;:true}" fill-opacity="0.30645" fill="#000000" fill-rule="nonzero" stroke="none" stroke-width="0" stroke-linecap="butt" stroke-linejoin="miter" stroke-miterlimit="10" stroke-dasharray="" stroke-dashoffset="0" style="mix-blend-mode: normal"><path d="M85.01212,201.21027c0,0 -1.12603,-0.75761 -1.10288,-3.54434c0.07639,-9.19429 0.22164,-29.44811 0.05858,-34.88342c-0.07799,-2.59953 1.41151,-3.90187 1.41151,-3.90187c0,0 0.20924,-1.42746 3.50028,-1.42541c38.40652,0.02393 282.50967,0.176 302.71417,0.18859c2.62574,0.00164 3.26721,1.1456 3.26721,1.1456c0,0 1.14668,0.619 1.15275,3.41575c0.02041,9.40616 0.06622,30.51847 0.07735,35.68169c0.00476,2.21082 -0.91907,3.23218 -0.91907,3.23218c0,0 -0.90585,1.42742 -3.59466,1.42574c-20.50359,-0.01282 -267.13902,-0.1664 -303.29509,-0.18892c-2.86927,-0.00179 -3.27015,-1.14561 -3.27015,-1.14561z" data-paper-data="{&quot;index&quot;:null}"/></g></g></svg>