<svg version="1.1" xmlns="http://www.w3.org/2000/svg" xmlns:xlink="http://www.w3.org/1999/xlink" width="23.68462" height="23.68452" viewBox="0,0,23.68462,23.68452"><g transform="translate(-228.15769,-168.15774)"><g data-paper-data="{&quot;isPaintingLayer&quot;:true}" fill-rule="nonzero" stroke-linecap="butt" stroke-linejoin="miter" stroke-miterlimit="10" stroke-dasharray="" stroke-dashoffset="0" style="mix-blend-mode: normal"><path d="M240,168.84425c3.0783,0 5.8669,1.2494 7.8866,3.2691c2.0197,2.0198 3.2692,4.8084 3.2692,7.8867c0,3.0783 -1.2495,5.8669 -3.2692,7.8866c-2.0197,2.0197 -4.8083,3.2691 -7.8866,3.2691c-3.0783,0 -5.8669,-1.2494 -7.8866,-3.2691c-2.0197,-2.0197 -3.2692,-4.8083 -3.2692,-7.8866c0,-3.0783 1.2495,-5.8669 3.2692,-7.8867c2.0197,-2.0197 4.8083,-3.2691 7.8866,-3.2691z" fill="none" stroke="#ccffff" stroke-width="1.37302"/><path d="M239.9914,175.31345c1.311,0 2.4985,0.532 3.3582,1.3917c0.8598,0.8598 1.3918,2.0473 1.3918,3.3583c0,1.311 -0.532,2.4985 -1.3918,3.3582c-0.8597,0.8598 -2.0472,1.3918 -3.3582,1.3918c-1.311,0 -2.4985,-0.532 -3.3583,-1.3918c-0.8597,-0.8597 -1.3917,-2.0472 -1.3917,-3.3582c0,-1.311 0.532,-2.4985 1.3917,-3.3583c0.8598,-0.8597 2.0473,-1.3917 3.3583,-1.3917z" fill="#ccffff" stroke="none" stroke-width="1.1875"/></g></g></svg>