<svg version="1.1" xmlns="http://www.w3.org/2000/svg" xmlns:xlink="http://www.w3.org/1999/xlink" width="56.43514" height="56.43516" viewBox="0,0,56.43514,56.43516"><defs><linearGradient x1="216.49277" y1="180" x2="263.50725" y2="180" gradientUnits="userSpaceOnUse" id="color-1"><stop offset="0" stop-color="#83ff2f"/><stop offset="1" stop-color="#2bec46"/></linearGradient><linearGradient x1="216.49276" y1="180" x2="263.50725" y2="180" gradientUnits="userSpaceOnUse" id="color-2"><stop offset="0" stop-color="#83ff2f"/><stop offset="1" stop-color="#2bec46"/></linearGradient><linearGradient x1="216.49277" y1="191.3179" x2="263.5136" y2="191.3179" gradientUnits="userSpaceOnUse" id="color-3"><stop offset="0" stop-color="#000000" stop-opacity="0"/><stop offset="1" stop-color="#000000" stop-opacity="0.29473"/></linearGradient></defs><g transform="translate(-211.78243,-151.78242)"><g data-paper-data="{&quot;isPaintingLayer&quot;:true}" fill-rule="nonzero" stroke-linecap="butt" stroke-linejoin="miter" stroke-miterlimit="10" stroke-dasharray="" stroke-dashoffset="0" style="mix-blend-mode: normal"><path d="M214.78243,180c0,-13.92728 11.29028,-25.21758 25.21757,-25.21758c13.92728,0 25.21757,11.29028 25.21757,25.21758c0,13.92728 -11.29028,25.21758 -25.21757,25.21758c-13.92728,0 -25.21757,-11.29028 -25.21757,-25.21758z" fill="none" stroke="#ffffff" stroke-width="6"/><path d="M216.49277,180c0,-12.98269 10.52454,-23.50725 23.50724,-23.50725c12.98269,0 23.50725,10.52454 23.50725,23.50725c0,12.98269 -10.52455,23.50725 -23.50725,23.50725c-12.98269,0 -23.50724,-10.52454 -23.50724,-23.50725z" fill="url(#color-1)" stroke="none" stroke-width="0"/><path d="M216.49276,180c0,-12.98269 10.52454,-23.50725 23.50724,-23.50725c12.98269,0 23.50725,10.52454 23.50725,23.50725c0,12.98269 -10.52454,23.50725 -23.50725,23.50725c-12.98269,0 -23.50724,-10.52454 -23.50724,-23.50725z" fill="none" stroke="#000000" stroke-width="4.5"/><path d="M216.49276,180c0,-12.98269 10.52454,-23.50725 23.50724,-23.50725c12.98269,0 23.50725,10.52454 23.50725,23.50725c0,12.98269 -10.52455,23.50725 -23.50725,23.50725c-12.98269,0 -23.50724,-10.52454 -23.50724,-23.50725z" fill="url(#color-2)" stroke="none" stroke-width="0"/><path d="M263.50725,179.0454c0.86525,13.59221 -9.88752,24.46185 -23.50725,24.46185c-12.98269,0 -23.50724,-11.66477 -23.50724,-24.64747z" fill="url(#color-3)" stroke="none" stroke-width="3"/><g stroke="#000000"><path d="M231.62825,194.32363l-4.75741,-4.18076l21.5009,-24.46649l4.75741,4.18076z" fill="#eaff00" stroke-width="1.5"/><path d="M226.87085,169.85713l4.75741,-4.18076l21.5009,24.46649l-4.7574,4.18076z" data-paper-data="{&quot;index&quot;:null}" fill="#ff0000" stroke-width="1.5"/><path d="M231.73936,193.32363l-3.97963,-3.18076l20.61202,-23.46649l3.75741,3.18076z" fill="#ff0000" stroke-width="0"/></g></g></g></svg>