<svg version="1.1" xmlns="http://www.w3.org/2000/svg" xmlns:xlink="http://www.w3.org/1999/xlink" width="50.54242" height="74.5955" viewBox="0,0,50.54242,74.5955"><g transform="translate(-214.72879,-142.70225)"><g data-paper-data="{&quot;isPaintingLayer&quot;:true}" fill-rule="nonzero" stroke-linecap="butt" stroke-linejoin="miter" stroke-miterlimit="10" stroke-dasharray="" stroke-dashoffset="0" style="mix-blend-mode: normal"><path d="M255.60526,200.65657v-1.11783h1.24934v1.11783z" fill="#000000" stroke="none" stroke-width="0"/><path d="M257.5779,199.34147v-1.57811h1.57811v1.57811z" fill="#000000" stroke="none" stroke-width="0"/><path d="M258.95875,197.63185v-2.63019h2.56444v2.63019z" fill="#000000" stroke="none" stroke-width="0"/><path d="M259.48479,194.67287v-3.09047h3.09047v3.09047z" fill="#000000" stroke="none" stroke-width="0"/><path d="M260.86564,190.92485v-3.3535h2.95897v3.3535z" fill="#000000" stroke="none" stroke-width="0"/><path d="M261.19441,186.51929v-3.68227h3.87953v3.68227z" fill="#000000" stroke="none" stroke-width="0"/><path d="M261.85196,182.11373v-3.87953h3.41925v3.87953z" fill="#000000" stroke="none" stroke-width="0"/><path d="M260.79988,177.57662v-3.81378h3.87953v3.81378z" fill="#000000" stroke="none" stroke-width="0"/><path d="M260.66838,173.03954v-4.01104h3.485v4.01104z" fill="#000000" stroke="none" stroke-width="0"/><path d="M258.76149,168.43673v-3.02472h3.68227v3.02472z" fill="#000000" stroke="none" stroke-width="0"/><path d="M258.43271,164.88596v-2.16991h2.89321v2.16991z" fill="#000000" stroke="none" stroke-width="0"/><path d="M256.46007,162.38725v-1.57811h2.7617v1.57811z" fill="#000000" stroke="none" stroke-width="0"/><path d="M253.96139,160.74338v-0.92056h3.02472v0.92056z" fill="#000000" stroke="none" stroke-width="0"/><path d="M224.21721,209.97736v-2.22251h6.41109v2.22251z" fill="#000000" stroke="none" stroke-width="0"/><path d="M220.71248,207.24196v-3.67569h8.03524v3.67569z" fill="#000000" stroke="none" stroke-width="0"/><path d="M218.83189,202.71146v-4.61599h7.69331v4.61599z" fill="#000000" stroke="none" stroke-width="0"/><path d="M216.9513,197.15519v-5.64176h7.09494v5.64176z" fill="#000000" stroke="none" stroke-width="0"/><path d="M215.32716,190.23121v-5.89821h8.2062v5.89821z" fill="#000000" stroke="none" stroke-width="0"/><path d="M214.72879,183.4782v-6.24013h8.71909v6.24013z" fill="#000000" stroke="none" stroke-width="0"/><path d="M215.49812,176.29777v-6.24013h7.77879v6.24013z" fill="#000000" stroke="none" stroke-width="0"/><path d="M216.78034,169.37371v-6.32561h8.6336v6.32561z" fill="#000000" stroke="none" stroke-width="0"/><path d="M219.00285,162.4498v-5.04339h7.52235v5.04339z" fill="#000000" stroke="none" stroke-width="0"/><path d="M221.22536,157.06443v-3.50473h8.12072v3.50473z" fill="#000000" stroke="none" stroke-width="0"/><path d="M224.21721,153.04687v-2.39347h6.15465v2.39347z" fill="#000000" stroke="none" stroke-width="NaN"/><path d="M260.23646,180.33633c0,10.21286 -2.74155,18.49201 -6.12341,18.49201c-3.38185,0 -6.12341,-8.27915 -6.12341,-18.49201c0,-10.21285 2.74155,-18.49201 6.12341,-18.49201c3.38185,0 6.12341,8.27916 6.12341,18.49201z" data-paper-data="{&quot;index&quot;:null}" fill="none" stroke="#000000" stroke-width="5"/><path d="M258.17726,180.39537c0,10.0497 -2.30485,18.19661 -5.148,18.19661c-2.84316,0 -5.148,-8.1469 -5.148,-18.19661c0,-10.0497 2.30484,-18.1966 5.148,-18.1966c2.84316,0 5.148,8.1469 5.148,18.1966z" data-paper-data="{&quot;index&quot;:null}" fill="none" stroke="#f3f3f3" stroke-width="4"/><path d="M258.17726,180.39537c0,10.0497 -2.30483,18.19661 -5.148,18.19661c-2.84317,0 -5.148,-8.1469 -5.148,-18.19661c0,-10.0497 2.30483,-18.1966 5.148,-18.1966c2.84317,0 5.148,8.1469 5.148,18.1966z" data-paper-data="{&quot;index&quot;:null}" fill="none" stroke="#ffa000" stroke-width="2"/><path d="M248.40413,166.6314c0.46659,0 0.84483,7.80535 0.84483,17.43374c0,9.62838 -0.37824,17.43374 -0.84483,17.43374c-0.46658,0 -0.84483,-7.80535 -0.84483,-17.43374c0,-9.62838 0.37824,-17.43374 0.84483,-17.43374z" data-paper-data="{&quot;index&quot;:null}" fill="none" stroke="#000000" stroke-width="1"/><path d="M252.15532,180.23232c0,12.37542 -3.41421,22.40767 -7.62582,22.40767c-4.21162,0 -7.62582,-10.03226 -7.62582,-22.40767c0,-12.37542 3.41421,-22.40767 7.62582,-22.40767c4.21162,0 7.62582,10.03226 7.62582,22.40767z" data-paper-data="{&quot;index&quot;:null}" fill="none" stroke="#000000" stroke-width="6"/><path d="M249.59088,180.30395c0,12.17773 -2.87035,22.04972 -6.41109,22.04972c-3.54074,0 -6.41109,-9.872 -6.41109,-22.04972c0,-12.17773 2.87035,-22.04972 6.41109,-22.04972c3.54074,0 6.41109,9.872 6.41109,22.04972z" data-paper-data="{&quot;index&quot;:null}" fill="none" stroke="#f3f3f3" stroke-width="5"/><path d="M249.59088,180.30395c0,12.17773 -2.87034,22.04972 -6.41109,22.04972c-3.54075,0 -6.41109,-9.872 -6.41109,-22.04972c0,-12.17773 2.87034,-22.04972 6.41109,-22.04972c3.54075,0 6.41109,9.872 6.41109,22.04972z" data-paper-data="{&quot;index&quot;:null}" fill="none" stroke="#ffa000" stroke-width="3"/><path d="M239.41862,182.01357c0,12.17773 -0.47839,22.04972 -1.06852,22.04972c-0.59013,0 -1.06852,-9.872 -1.06852,-22.04972c0,-12.17773 0.47839,-22.04972 1.06852,-22.04972c0.59013,0 1.06852,9.872 1.06852,22.04972z" data-paper-data="{&quot;index&quot;:null}" fill="none" stroke="#000000" stroke-width="2"/><path d="M242.05279,151.59632c0,-1.14661 0.847,-2.07611 1.89184,-2.07611c1.04484,0 1.89184,0.92951 1.89184,2.07611c0,1.14661 -0.847,2.07611 -1.89184,2.07611c-1.04484,0 -1.89184,-0.92951 -1.89184,-2.07611z" data-paper-data="{&quot;index&quot;:null}" fill="#ffa000" stroke="#f3f3f3" stroke-width="1"/><path d="M242.05279,209.07988c0,-1.14661 0.847,-2.07611 1.89184,-2.07611c1.04484,0 1.89184,0.92951 1.89184,2.07611c0,1.14661 -0.847,2.07611 -1.89184,2.07611c-1.04484,0 -1.89184,-0.92951 -1.89184,-2.07611z" data-paper-data="{&quot;index&quot;:null}" fill="#ffa000" stroke="#f3f3f3" stroke-width="1"/><path d="M243.26527,180.42936c0,15.08359 -3.8654,27.31125 -8.6336,27.31125c-4.7682,0 -8.6336,-12.22766 -8.6336,-27.31125c0,-15.08359 3.8654,-27.31125 8.6336,-27.31125c4.7682,0 8.6336,12.22766 8.6336,27.31125z" data-paper-data="{&quot;index&quot;:null}" fill="none" stroke="#000000" stroke-width="7"/><path d="M240.01699,179.95922c0,14.54067 -3.63577,26.32822 -8.12072,26.32822c-4.48494,0 -8.12072,-11.78755 -8.12072,-26.32822c0,-14.54067 3.63577,-26.32822 8.12072,-26.32822c4.48494,0 8.12072,11.78755 8.12072,26.32822z" data-paper-data="{&quot;index&quot;:null}" fill="none" stroke="#f3f3f3" stroke-width="6"/><path d="M240.01699,179.95922c0,14.54067 -3.63576,26.32822 -8.12072,26.32822c-4.48495,0 -8.12072,-11.78755 -8.12072,-26.32822c0,-14.54067 3.63576,-26.32822 8.12072,-26.32822c4.48495,0 8.12072,11.78755 8.12072,26.32822z" data-paper-data="{&quot;index&quot;:null}" fill="none" stroke="#ffa000" stroke-width="4"/><path d="M230.69953,145.68121c0,-1.36909 1.10986,-2.47896 2.47896,-2.47896c1.36909,0 2.47896,1.10986 2.47896,2.47896c0,1.36909 -1.10986,2.47896 -2.47896,2.47896c-1.36909,0 -2.47896,-1.10986 -2.47896,-2.47896z" data-paper-data="{&quot;index&quot;:null}" fill="#ffa000" stroke="#f3f3f3" stroke-width="1"/><path d="M230.69953,214.3188c0,-1.36909 1.10986,-2.47896 2.47896,-2.47896c1.36909,0 2.47896,1.10986 2.47896,2.47896c0,1.36909 -1.10986,2.47896 -2.47896,2.47896c-1.36909,0 -2.47896,-1.10986 -2.47896,-2.47896z" data-paper-data="{&quot;index&quot;:null}" fill="#ffa000" stroke="#f3f3f3" stroke-width="1"/><path d="M252.1243,156.70429c0,-0.94624 0.68013,-1.71332 1.51911,-1.71332c0.83898,0 1.51911,0.76708 1.51911,1.71332c0,0.94624 -0.68013,1.71331 -1.51911,1.71331c-0.83898,0 -1.51911,-0.76707 -1.51911,-1.71331z" data-paper-data="{&quot;index&quot;:null}" fill="#ffa000" stroke="#f3f3f3" stroke-width="1"/><path d="M252.1243,204.14279c0,-0.94624 0.68013,-1.71331 1.51911,-1.71331c0.83898,0 1.51911,0.76707 1.51911,1.71331c0,0.94624 -0.68013,1.71332 -1.51911,1.71332c-0.83898,0 -1.51911,-0.76708 -1.51911,-1.71332z" data-paper-data="{&quot;index&quot;:null}" fill="#ffa000" stroke="#f3f3f3" stroke-width="1"/><path d="M227.80742,150.48241v-1.62414h6.06917l1.96607,1.62414z" fill="#000000" stroke="none" stroke-width="0"/><path d="M227.8929,211.77245v-1.70962h7.52235l-4.35954,1.70962z" fill="#000000" stroke="none" stroke-width="0"/></g></g></svg>