<svg version="1.1" xmlns="http://www.w3.org/2000/svg" xmlns:xlink="http://www.w3.org/1999/xlink" width="117.80248" height="118.07653" viewBox="0,0,117.80248,118.07653"><g transform="translate(-180.47143,-120.19738)"><g data-paper-data="{&quot;isPaintingLayer&quot;:true}" fill-rule="nonzero" stroke="none" stroke-width="1" stroke-linecap="butt" stroke-linejoin="miter" stroke-miterlimit="10" stroke-dasharray="" stroke-dashoffset="0" style="mix-blend-mode: normal"><g fill-opacity="0.41129" fill="#000000"><path d="M262.83514,136.0843c0.38531,-0.21788 0.73737,-0.32683 1.05618,-0.32683c7.50219,-0.01146 15.00324,-0.01146 22.50315,0c1.98163,0 2.91395,0.64334 2.92427,2.64217c0.04129,7.63522 0.06078,15.27159 0.05849,22.90911c0,0.09633 -0.0195,0.19036 -0.05849,0.2821l-0.28555,0.66054c-0.0688,0.15596 -0.01834,0.23509 0.15138,0.23738c2.20869,0.01835 4.40591,0.02752 6.59166,0.02752c1.97818,0 2.49768,1.19035 2.49768,3.0206c0,11.3049 0,22.61094 0,33.91814c0,2.42887 -0.69151,3.27175 -3.09974,3.20638c-2.03208,-0.05505 -4.06646,-0.08486 -6.10313,-0.08945c-0.1399,-0.0023 -0.17889,0.06078 -0.11697,0.18922c0.20298,0.41284 0.33371,0.65366 0.34059,1.13187c0.08256,7.62146 0.11468,15.24292 0.09633,22.86439c-0.00344,1.52407 -0.82224,2.65248 -2.38758,2.65248c-7.63752,0.00458 -15.27389,0.00458 -22.90911,0c-0.47132,0 -0.78095,-0.1445 -1.22475,-0.31651c-0.14679,-0.05734 -0.22018,-0.00688 -0.22018,0.15138c0.01835,1.4587 0.01835,3.63528 0,6.52973c-0.01376,1.99883 -1.16627,2.49767 -3.0206,2.49767c-11.68792,0.0023 -23.37584,0.0023 -35.06376,0c-1.39677,-0.00344 -1.97819,-1.2798 -1.97475,-2.594c0,-2.17199 -0.0023,-4.34513 -0.00688,-6.51942c0,-0.12843 -0.05848,-0.16628 -0.17545,-0.11353c-0.53211,0.24311 -0.90251,0.36582 -1.11122,0.36812c-7.59852,0.0023 -15.1982,0.0023 -22.79902,0c-1.55847,0 -2.74193,-0.68806 -2.74193,-2.33598c-0.00458,-7.60999 -0.00574,-15.21998 -0.00344,-22.82997c0,-0.57798 0.07913,-1.00114 0.45756,-1.40021c0.03571,-0.03489 0.04619,-0.0882 0.02634,-0.13401c-0.01985,-0.04581 -0.06591,-0.07461 -0.11578,-0.07242c-2.17887,0.02293 -4.28206,0.02982 -6.30955,0.02064c-1.8853,-0.01032 -2.91052,-0.61582 -2.91396,-2.56648c-0.00688,-11.53884 -0.00688,-23.07882 0,-34.61996c0,-1.58599 0.50917,-2.95524 2.24997,-2.96556c2.22245,-0.01146 4.45177,-0.01605 6.68798,-0.01376c0.30505,0 0.3727,-0.12729 0.20298,-0.38188l-0.22018,-0.33027c-0.04038,-0.06063 -0.06192,-0.13126 -0.06193,-0.20298c-0.00688,-7.67192 -0.00574,-15.34384 0.00344,-23.01576c0.00344,-1.96098 0.86696,-2.81418 2.83139,-2.81418c7.38522,0 14.77045,0 22.15568,0c0.60206,0 1.05273,0.13073 1.62039,0.33371c0.13303,0.04817 0.20069,0.00115 0.20298,-0.14105c0.01146,-2.23391 0.02065,-4.46095 0.02752,-6.68111c0.00344,-1.56879 0.836,-2.37038 2.35318,-2.37038c11.71315,0 23.42515,0 35.13601,0c2.30158,0 2.56648,1.38301 2.56992,3.40248c0.00459,1.89447 0.00917,3.79238 0.01376,5.69374c0,0.12615 0.05505,0.15825 0.16514,0.09633zM189.12968,181.76145l-0.02065,14.19476l0.06881,4.28665c0.0023,0.12385 0.06537,0.18578 0.18922,0.18578l35.30459,-0.00688l0.0516,31.22781l0.0172,4.22815c0.0023,0.12385 0.06536,0.18578 0.18921,0.18578l35.22202,-0.10321c0.12385,0 0.18693,-0.06193 0.18922,-0.18578l0.01376,-4.10774l0.09289,-31.27252l35.30803,-0.04129c0.12156,0 0.18234,-0.06078 0.18234,-0.18233l-0.00344,-4.20064l0.04129,-14.14316l0.0172,-16.91607c0,-0.11468 -0.05734,-0.17202 -0.17202,-0.17202h-32.12573h-3.17198c-0.09881,0 -0.1789,-0.08164 -0.1789,-0.18233v-35.25298c0,-0.1425 -0.11552,-0.25802 -0.25802,-0.25802l-14.20509,0.00344h-20.98941c-0.1055,0 -0.15825,0.05275 -0.15825,0.15825l0.00344,35.35619c0,0.095 -0.07702,0.17202 -0.17202,0.17202h-35.25986c-0.11238,0 -0.16858,0.05734 -0.16858,0.17201zM197.99883,156.75375l0.02064,4.12151c0,0.12843 0.06422,0.19266 0.19266,0.19266l22.75429,-0.04472c0.1055,0 0.15825,-0.05276 0.15825,-0.15826l-0.04816,-4.00453l0.02064,-18.64999c0,-0.14908 -0.07454,-0.22362 -0.22362,-0.22362h-22.70612c-0.11468,0 -0.17202,0.05619 -0.17202,0.16857zM264.12182,156.78127l0.02064,4.19031c0.0023,0.1078 0.05619,0.1617 0.16169,0.1617l22.61668,-0.11698c0.11009,0 0.16513,-0.05619 0.16513,-0.16857l0.00344,-4.10775v-18.57774c0,-0.0969 -0.07855,-0.17545 -0.17545,-0.17545h-22.6098c-0.11467,0 -0.17201,0.05734 -0.17201,0.17201zM197.99195,222.78385l0.0172,4.16967c0,0.15138 0.07568,0.22706 0.22706,0.22706l22.38273,-0.01032c0.32568,0 0.48623,-0.16284 0.48165,-0.48853l-0.05848,-3.88068l0.04128,-18.56397c0,-0.0627 -0.04929,-0.11354 -0.11009,-0.11354h-22.82309c-0.10321,0 -0.15482,0.05276 -0.15482,0.15826zM264.12526,222.79073l0.05848,4.19376c0,0.12843 0.06422,0.19266 0.19266,0.19266h22.3793c0.1748,0 0.31651,-0.14171 0.31651,-0.31651l-0.00688,-4.0699l0.00688,-18.59494c0,-0.0399 -0.0308,-0.07225 -0.0688,-0.07225h-22.70612c-0.10321,0 -0.15482,0.05161 -0.15482,0.15482z"/><path d="M245.88124,129.04884c0.01376,0.15825 -0.1617,0.31536 -0.52637,0.47132c-0.18807,0.08256 -0.4094,0.12386 -0.66398,0.12386c-2.29814,-0.0023 -4.59857,-0.00344 -6.90129,-0.00344c-0.8532,0 -1.46213,0.36811 -2.24653,0.65022c-0.11697,0.04128 -0.16628,0.125 -0.14794,0.25115c0.06193,0.40596 0.12385,0.62269 0.0344,1.03897c-0.56421,2.56992 -0.30963,5.63181 -0.20298,7.94371c0.02752,0.66054 -0.20986,1.36925 -0.13761,2.09171c0.22018,2.3291 0.18578,4.62035 0.49541,7.12834c0.00388,0.0262 -0.00621,0.05252 -0.02661,0.0694c-0.0204,0.01689 -0.04815,0.02188 -0.07316,0.01317c-0.1055,-0.03211 -0.19839,-0.01376 -0.27866,0.05505c-1.55961,-1.3165 -3.20409,-1.78782 -4.93342,-1.41397c-2.8245,0.6055 -3.12037,2.71785 -3.12381,5.41506c-0.00458,9.67877 -0.00574,19.31741 -0.00344,28.91591l-6.71207,-0.09633l-31.30349,0.05848l0.00688,-16.85414c0,-0.11468 0.05619,-0.17201 0.16858,-0.17201h35.25986c0.095,0 0.17202,-0.07702 0.17202,-0.17202l-0.00344,-35.35619c0,-0.1055 0.05275,-0.15825 0.15825,-0.15825z"/><path d="M245.88124,129.04884l14.20509,-0.00344c0.1425,0 0.25802,0.11552 0.25802,0.25802v35.25298c0,0.1007 0.08009,0.18233 0.1789,0.18233h3.17198c0.05963,0.30045 -0.0023,0.4633 -0.18577,0.48853c-0.30045,0.04358 -0.55734,0.10666 -0.77064,0.18922c-0.11239,0.04358 -0.19495,0.11926 -0.2477,0.22706c-0.22935,0.48164 -0.37844,0.99195 -0.44725,1.53094c-0.06651,0.51605 0.08945,0.76146 0.46789,0.73623c0.17081,-0.01176 0.43787,0.19807 0.6743,0.52981c0.11239,0.15825 0.07799,0.28785 -0.10321,0.38876c-0.01983,0.0111 -0.04442,0.00886 -0.06194,-0.0056c-0.01752,-0.01447 -0.02434,-0.03821 -0.01719,-0.05976l0.07225,-0.2305c0.00688,-0.01835 0.00114,-0.02408 -0.0172,-0.0172l-0.30963,0.13073c-0.15825,0.06422 -0.16972,0.14908 -0.0344,0.25458l10.96431,8.46319l-0.50916,0.08601l-37.96395,-28.56843c0.08027,-0.0688 0.17316,-0.08715 0.27866,-0.05505c0.02501,0.00871 0.05276,0.00372 0.07316,-0.01317c0.0204,-0.01689 0.0305,-0.04321 0.02661,-0.0694c-0.30963,-2.50799 -0.27523,-4.79924 -0.49541,-7.12834c-0.07225,-0.72247 0.16513,-1.43117 0.13761,-2.09171c-0.10665,-2.31189 -0.36123,-5.37379 0.20298,-7.94371c0.08945,-0.41628 0.02752,-0.63302 -0.0344,-1.03897c-0.01835,-0.12615 0.03097,-0.20986 0.14794,-0.25115c0.78439,-0.28211 1.39333,-0.65022 2.24653,-0.65022c2.30272,0 4.60315,0.00115 6.90129,0.00344c0.25458,0 0.47591,-0.04129 0.66398,-0.12386c0.36468,-0.15596 0.54013,-0.31306 0.52637,-0.47132z"/><path d="M221.07651,156.8604l-23.07768,-0.10665l-0.00344,-18.59839c0,-0.11238 0.05734,-0.16857 0.17202,-0.16857h22.70612c0.14908,0 0.22362,0.07454 0.22362,0.22362z"/><path d="M287.08941,156.73998l-22.96759,0.04129l0.01032,-18.62247c0,-0.11468 0.05734,-0.17201 0.17201,-0.17201h22.6098c0.0969,0 0.17545,0.07855 0.17545,0.17545z"/><path d="M235.20592,148.88229l37.96396,28.56843c2.37038,2.61464 0.4266,4.63755 -1.69952,6.24418c-17.60987,13.30946 -29.78057,22.4676 -36.51214,27.47441c-1.09632,0.81651 -2.38988,1.27062 -3.88068,1.36237c-4.08366,-0.74311 -3.93229,-3.20638 -3.93229,-6.96321c0,-7.88752 0,-15.81057 0,-23.76918c-0.0023,-9.5985 -0.00114,-19.23713 0.00344,-28.91591c0.00344,-2.69721 0.29931,-4.80956 3.12381,-5.41506c1.72933,-0.37385 3.37382,0.09747 4.93343,1.41397zM228.81036,207.82189l0.28211,1.85089c0.01835,0.11468 0.07225,0.20643 0.1617,0.27523c1.50686,1.16971 3.0057,1.20181 4.4965,0.09632c5.20176,-3.85316 17.71078,-13.27505 37.52704,-28.26568c1.00228,-0.75916 1.40251,-1.55388 1.20067,-2.38414c-0.33256,-0.58027 -0.72247,-1.03784 -1.16971,-1.37269c-12.63745,-9.46318 -25.26458,-18.94011 -37.88139,-28.43082c-1.34517,-1.01146 -4.58595,-1.06651 -4.62035,1.32108c-0.22018,15.69131 -0.09633,37.94675 0.00344,56.90981z"/><path d="M272.47837,179.39451c-0.18119,-0.12385 -0.46903,-0.00689 -0.86352,0.35091l-10.47578,-7.82673c-1.00457,-1.01834 -2.26373,-1.48279 -3.20982,-2.508c-0.5883,-0.63646 -1.34517,-1.05274 -1.97818,-1.66167c-1.38989,-1.33829 -3.03092,-2.43919 -4.57219,-3.58826c-0.09175,-0.0688 -0.19265,-0.09288 -0.30274,-0.07225c-0.0688,0.01376 -0.1445,0.0023 -0.22707,-0.0344c-0.12843,-0.05505 -0.16169,-0.02064 -0.09976,0.10321c0.02752,0.05963 0.08601,0.09633 0.17545,0.11009c0.13762,0.02064 0.18693,0.09747 0.14793,0.2305l-0.09977,0.34748c-0.03899,0.12615 -0.11468,0.15596 -0.22706,0.08945l-0.17202,-0.10321c-0.03615,-0.02177 -0.08105,-0.02303 -0.11836,-0.00332c-0.03731,0.01971 -0.06159,0.05752 -0.06397,0.09965l-0.04816,0.79816c-0.00227,0.04956 -0.01774,0.09714 -0.04472,0.13761c-1.09402,1.77979 -2.05042,3.63183 -2.86922,5.55612c-0.58486,1.37613 -1.62728,2.50456 -2.22589,3.95293c-2.06763,5.03319 -5.03319,9.40928 -6.35428,12.41612c-1.10091,2.51373 -2.21901,4.49306 -3.35431,5.938c-0.18578,0.23623 -0.42316,0.74999 -0.71214,1.54127c-0.56766,1.55847 -2.07796,3.50913 -2.30846,4.641c-0.2477,1.20411 -0.90022,2.08827 -1.95755,2.65248c-0.11468,0.06193 -0.15252,0.15482 -0.11353,0.27867c0.08487,0.27064 0.03785,0.48623 -0.14105,0.64678c-0.0395,0.03783 -0.09914,0.04527 -0.14673,0.0183c-0.04758,-0.02696 -0.07185,-0.08195 -0.0597,-0.13528c0.06193,-0.30045 0.02179,-0.58486 -0.12041,-0.8532c-0.13303,-0.25229 -0.20068,-0.23509 -0.20298,0.0516c-0.00917,1.46099 -0.0149,2.92543 -0.0172,4.3933c-0.0023,0.53898 -0.24541,0.87154 -0.72935,0.99769c-0.02293,-0.1055 -0.08142,-0.15137 -0.17545,-0.13761c-0.09977,-18.96305 -0.22362,-41.2185 -0.00344,-56.90981c0.0344,-2.38759 3.27518,-2.33254 4.62035,-1.32108c12.61681,9.4907 25.24394,18.96764 37.88139,28.43082c0.44724,0.33486 0.83715,0.79242 1.16971,1.37269z"/><path d="M287.08941,156.73998l-0.00344,4.10775c0,0.11238 -0.05504,0.16857 -0.16513,0.16857l-22.61668,0.11698c-0.1055,0 -0.1594,-0.0539 -0.16169,-0.1617l-0.02064,-4.19031z"/><path d="M197.99883,156.75375l23.07768,0.10665l0.04816,4.00453c0,0.1055 -0.05275,0.15826 -0.15825,0.15826l-22.75429,0.04472c-0.12843,0 -0.19266,-0.06422 -0.19266,-0.19266z"/><path d="M261.13906,171.91869c-0.62385,-0.11927 -1.14562,0.18004 -1.56534,0.89792c-2.44951,4.19031 -4.27976,7.87834 -6.26483,11.74526c-0.04358,0.08487 -0.11238,0.1273 -0.20642,0.1273h-0.32339c-0.11468,0 -0.17202,0.05734 -0.17202,0.17201c0,0.12385 -0.01834,0.22018 -0.05504,0.28898c-2.94721,5.54121 -4.84971,9.14782 -5.70749,10.81982c-0.33715,0.65824 -0.43234,1.39448 -0.28555,2.20869c0.00458,0.03211 0.02294,0.04243 0.05505,0.03097c0.04587,-0.01835 0.08487,-0.01605 0.11697,0.00688c0.08487,0.05505 0.1227,0.12959 0.11353,0.22362c-4.09857,3.11693 -8.22008,6.20405 -12.36452,9.26135c-1.8509,1.3658 -3.45409,1.94378 -5.34282,0.49541c-0.16513,0.04817 -0.2156,-0.03097 -0.15138,-0.23739c0.48394,-0.12615 0.72706,-0.4587 0.72935,-0.99769c0.0023,-1.46787 0.00803,-2.93231 0.0172,-4.3933c0.0023,-0.2867 0.06995,-0.30389 0.20298,-0.0516c0.1422,0.26835 0.18233,0.55275 0.12041,0.8532c-0.01216,0.05333 0.01211,0.10832 0.0597,0.13528c0.04758,0.02696 0.10722,0.01953 0.14673,-0.0183c0.1789,-0.16055 0.22592,-0.37615 0.14105,-0.64678c-0.03899,-0.12385 -0.00115,-0.21674 0.11353,-0.27867c1.05732,-0.56421 1.70985,-1.44837 1.95755,-2.65248c0.2305,-1.13187 1.7408,-3.08253 2.30846,-4.641c0.28898,-0.79128 0.52637,-1.30503 0.71214,-1.54127c1.1353,-1.44493 2.25341,-3.42426 3.35431,-5.938c1.32109,-3.00684 4.28664,-7.38294 6.35428,-12.41612c0.59861,-1.44837 1.64104,-2.5768 2.22589,-3.95293c0.8188,-1.92428 1.7752,-3.77633 2.86923,-5.55612c0.02698,-0.04047 0.04245,-0.08805 0.04472,-0.13761l0.04816,-0.79816c0.00239,-0.04213 0.02666,-0.07993 0.06397,-0.09965c0.03731,-0.01971 0.08221,-0.01845 0.11836,0.00332l0.17202,0.10321c0.11238,0.06651 0.18807,0.0367 0.22706,-0.08945l0.09977,-0.34748c0.03899,-0.13303 -0.01032,-0.20986 -0.14793,-0.2305c-0.08945,-0.01376 -0.14793,-0.05046 -0.17545,-0.11009c-0.06193,-0.12385 -0.02867,-0.15825 0.09976,-0.10321c0.08256,0.0367 0.15826,0.04816 0.22707,0.0344c0.11009,-0.02064 0.211,0.00344 0.30274,0.07225c1.54127,1.14907 3.1823,2.24997 4.57219,3.58826c0.63302,0.60894 1.38989,1.02521 1.97818,1.66167c0.94609,1.02522 2.20524,1.48967 3.20982,2.508z"/><path d="M263.69522,164.73874h32.12573c0.11467,0 0.17202,0.05734 0.17202,0.17202l-0.0172,16.91607l-19.71649,-0.07913c0.2649,-2.17428 -0.89104,-3.09629 -2.58024,-4.38297l-10.96431,-8.46319c-0.13532,-0.1055 -0.12385,-0.19036 0.0344,-0.25458l0.30963,-0.13073c0.01835,-0.00688 0.02409,-0.00115 0.0172,0.0172l-0.07225,0.2305c-0.00715,0.02156 -0.00032,0.0453 0.01719,0.05976c0.01752,0.01447 0.04211,0.0167 0.06194,0.0056c0.18119,-0.10091 0.21559,-0.23051 0.10321,-0.38876c-0.23643,-0.33174 -0.50349,-0.54157 -0.6743,-0.52981c-0.37844,0.02523 -0.5344,-0.22018 -0.46789,-0.73623c0.0688,-0.53898 0.21789,-1.0493 0.44725,-1.53094c0.05275,-0.1078 0.13531,-0.18348 0.2477,-0.22706c0.2133,-0.08256 0.47018,-0.14564 0.77064,-0.18922c0.18348,-0.02523 0.24541,-0.18807 0.18577,-0.48853z"/><path d="M261.13906,171.91869l10.47578,7.82673l-24.77032,18.69471c0.00917,-0.09403 -0.02866,-0.16858 -0.11353,-0.22362c-0.03211,-0.02293 -0.0711,-0.02523 -0.11697,-0.00688c-0.03211,0.01146 -0.05046,0.00114 -0.05505,-0.03097c-0.14679,-0.81421 -0.0516,-1.55044 0.28555,-2.20869c0.85779,-1.672 2.76028,-5.2786 5.70749,-10.81982c0.0367,-0.0688 0.05504,-0.16513 0.05504,-0.28898c0,-0.11468 0.05734,-0.17201 0.17202,-0.17201h0.32339c0.09403,0 0.16284,-0.04243 0.20642,-0.1273c1.98506,-3.86692 3.81532,-7.55495 6.26483,-11.74526c0.41972,-0.71788 0.9415,-1.01719 1.56534,-0.89792z"/><path d="M273.67904,177.36472c1.6892,1.28668 2.84515,2.20869 2.58024,4.38297c-0.38531,0.87384 -1.05274,1.67544 -2.00227,2.40479c-4.55957,3.49537 -9.14093,6.9655 -13.74408,10.41041l-16.08006,12.09962c-2.46785,1.87383 -4.95177,3.69835 -7.45174,5.47356c-1.79241,1.26948 -4.22816,2.18461 -5.90359,0.39563c1.4908,-0.09175 2.78437,-0.54586 3.88069,-1.36237c6.73156,-5.00681 18.90227,-14.16495 36.51214,-27.47441c2.12612,-1.60663 4.0699,-3.62954 1.69952,-6.24418z"/><path d="M272.47837,179.39451c0.20184,0.83026 -0.1984,1.62498 -1.20067,2.38414c-19.81626,14.99063 -32.32527,24.41252 -37.52704,28.26568c-1.4908,1.10549 -2.98964,1.07339 -4.4965,-0.09632c-0.08945,-0.0688 -0.14335,-0.16056 -0.1617,-0.27523l-0.28211,-1.85089c0.09403,-0.01376 0.15252,0.03211 0.17545,0.13761c-0.06422,0.20642 -0.01376,0.28555 0.15138,0.23739c1.88873,1.44837 3.49193,0.8704 5.34282,-0.49541c4.14444,-3.0573 8.26595,-6.14442 12.36452,-9.26135l24.77032,-18.69471c0.39449,-0.3578 0.68233,-0.47476 0.86352,-0.35091z"/><path d="M220.43317,181.70297c-0.57339,0.07568 -0.44953,0.23852 0.37156,0.48852c0.13303,0.04128 0.18348,0.12844 0.15138,0.26147c-0.23394,0.98394 -0.02293,1.84975 0.63302,2.59744c0.08416,0.09459 0.11746,0.22401 0.08944,0.34748c-0.15367,0.72247 -0.13761,1.43347 0.04817,2.133c0.0344,0.12843 0.02523,0.25458 -0.02752,0.37843c-0.61582,1.46558 -0.51261,2.12611 -0.31307,3.66394c0.01605,0.11697 -0.00115,0.22821 -0.05161,0.33372c-0.65022,1.36925 0.03784,2.66625 -0.94265,3.73619c-0.00458,0.00458 -0.00458,0.00803 0,0.01032c0.01376,0.01146 0.0344,0.03211 0.06193,0.06193c0.04128,0.04587 0.03097,0.06651 -0.03096,0.06193c-0.42431,-0.03211 -0.56422,0.02752 -0.41972,0.17889h-30.89409l0.02065,-14.19476z"/><path d="M220.43317,181.70297l6.71207,0.09633c0,7.95861 0,15.88167 0,23.76918c0,3.75683 -0.15138,6.2201 3.93229,6.96321c1.67543,1.78897 4.11119,0.87384 5.90359,-0.39563c2.49997,-1.7752 4.98389,-3.59973 7.45174,-5.47356c0.47706,0.11697 0.71788,0.53784 0.72246,1.2626c0.01032,1.72704 -0.31307,3.42656 -0.01032,5.1364c0.13532,0.76146 0.18119,1.40939 0.13761,1.94378c-0.28898,3.53321 -0.87041,6.51942 0.06193,10.28656c0.02752,0.11238 0.02523,0.22248 -0.00688,0.33027c-0.05848,0.18578 -0.14449,0.46445 -0.12041,0.65711c0.17431,1.51374 0.18922,2.93115 0.04472,4.25223c-0.04587,0.43806 -0.28899,0.67086 -0.72935,0.69839c-0.09862,0.00688 -0.11352,0.04472 -0.04472,0.11353l0.29242,0.30963l-20.05707,-0.00344l-0.0516,-31.22781l0.06537,-4.15935c0.00092,-0.0818 -0.03093,-0.16057 -0.08846,-0.21874c-0.05752,-0.05817 -0.13593,-0.09089 -0.21774,-0.09089l-4.42769,0.00343c-0.1445,-0.15138 -0.00458,-0.211 0.41972,-0.17889c0.06193,0.00458 0.07224,-0.01605 0.03096,-0.06193c-0.02752,-0.02982 -0.04817,-0.05046 -0.06193,-0.06193c-0.00458,-0.0023 -0.00458,-0.00574 0,-0.01032c0.98049,-1.06994 0.29243,-2.36694 0.94265,-3.73619c0.05046,-0.1055 0.06766,-0.21675 0.05161,-0.33372c-0.19954,-1.53782 -0.30275,-2.19836 0.31307,-3.66394c0.05275,-0.12385 0.06192,-0.25 0.02752,-0.37843c-0.18578,-0.69953 -0.20184,-1.41053 -0.04817,-2.133c0.02802,-0.12347 -0.00529,-0.25288 -0.08944,-0.34748c-0.65596,-0.74769 -0.86696,-1.61351 -0.63302,-2.59744c0.03211,-0.13303 -0.01835,-0.22018 -0.15138,-0.26147c-0.82109,-0.25 -0.94494,-0.41284 -0.37156,-0.48852z"/><path d="M295.97577,181.82682l-0.04129,14.14316l-34.7335,-0.01032c-0.03899,-0.10091 -0.03899,-0.20986 0,-0.32683c0.0344,-0.09175 0.01032,-0.16628 -0.07225,-0.22362c-0.16972,-0.11927 -0.22821,-0.2844 -0.17545,-0.49541c0.03062,-0.11449 -0.03629,-0.2331 -0.15137,-0.26835l-0.28899,-0.08257c4.60315,-3.44491 9.18451,-6.91504 13.74408,-10.41041c0.94953,-0.72935 1.61696,-1.53095 2.00227,-2.40479z"/><path d="M260.51293,194.56289l0.28899,0.08257c0.11509,0.03525 0.18199,0.15386 0.15137,0.26835c-0.05275,0.21101 0.00574,0.37614 0.17545,0.49541c0.08256,0.05734 0.10665,0.13188 0.07225,0.22362c-0.03899,0.11697 -0.03899,0.22592 0,0.32683c-0.22477,-0.0367 -0.41857,-0.03326 -0.58141,0.01032c-0.11926,0.03211 -0.1789,0.11009 -0.1789,0.23394l0.00688,4.19031l-0.09289,31.27253l-15.57434,-0.01376l-0.29242,-0.30963c-0.0688,-0.0688 -0.05391,-0.10665 0.04472,-0.11353c0.44036,-0.02752 0.68348,-0.26032 0.72935,-0.69839c0.1445,-1.32109 0.12958,-2.73849 -0.04472,-4.25223c-0.02408,-0.19266 0.06193,-0.47133 0.12041,-0.65711c0.03211,-0.1078 0.0344,-0.21789 0.00688,-0.33027c-0.93233,-3.76715 -0.35091,-6.75335 -0.06193,-10.28656c0.04358,-0.53439 -0.00229,-1.18232 -0.13761,-1.94378c-0.30275,-1.70984 0.02064,-3.40936 0.01032,-5.1364c-0.00458,-0.72476 -0.24541,-1.14563 -0.72246,-1.2626z"/><path d="M189.10904,195.95622h30.89409l4.4277,-0.00343c0.08181,0 0.16021,0.03272 0.21774,0.09089c0.05752,0.05817 0.08938,0.13694 0.08846,0.21874l-0.06537,4.15935l-35.30459,0.00688c-0.12385,0 -0.18692,-0.06193 -0.18922,-0.18578z"/><path d="M261.20099,195.95966l34.7335,0.01032l0.00344,4.20064c0,0.12156 -0.06078,0.18233 -0.18234,0.18233l-35.30803,0.04129l-0.00688,-4.19031c0,-0.12385 0.05964,-0.20183 0.1789,-0.23394c0.16284,-0.04358 0.35664,-0.04702 0.58141,-0.01032z"/><path d="M221.04211,222.80105l-23.05016,-0.0172l0.00344,-18.50205c0,-0.1055 0.05161,-0.15826 0.15482,-0.15826h22.82309c0.0608,0 0.11009,0.05084 0.11009,0.11354z"/><path d="M287.06533,222.79073h-22.94007l0.0172,-18.51237c0,-0.10321 0.05161,-0.15482 0.15482,-0.15482h22.70612c0.038,0 0.0688,0.03235 0.0688,0.07225z"/><path d="M221.04211,222.80105l0.05848,3.88069c0.00458,0.32568 -0.15597,0.48853 -0.48165,0.48853l-22.38273,0.01032c-0.15138,0 -0.22706,-0.07568 -0.22706,-0.22706l-0.0172,-4.16967z"/><path d="M264.12526,222.79073h22.94007l0.00688,4.0699c0,0.1748 -0.14171,0.31651 -0.31651,0.31651h-22.3793c-0.12844,0 -0.19266,-0.06422 -0.19266,-0.19266z"/><path d="M224.72326,231.64956l20.05707,0.00344l15.57434,0.01376l-0.01376,4.10774c-0.0023,0.12385 -0.06537,0.18578 -0.18922,0.18578l-35.22202,0.10321c-0.12385,0 -0.18692,-0.06193 -0.18921,-0.18578z"/></g><path d="M258.47065,129.63874c0.39575,-0.22378 0.75733,-0.33568 1.08477,-0.33568c7.70527,-0.01177 15.40938,-0.01177 23.11231,0c2.03527,0 2.99284,0.66076 3.00344,2.71369c0.04241,7.84191 0.06242,15.68499 0.06006,23.52927c0,0.09894 -0.02002,0.19551 -0.06006,0.28974l-0.29328,0.67842c-0.07066,0.16018 -0.01884,0.24145 0.15547,0.24381c2.26848,0.01884 4.52518,0.02827 6.7701,0.02827c2.03173,0 2.56529,1.22257 2.56529,3.10237c0,11.61093 0,23.22303 0,34.83632c0,2.49462 -0.71022,3.36032 -3.18366,3.29318c-2.08709,-0.05654 -4.17654,-0.08716 -6.26834,-0.09187c-0.14369,-0.00236 -0.18374,0.06243 -0.12014,0.19434c0.20847,0.42401 0.34275,0.67135 0.34981,1.16251c0.08479,7.82777 0.11777,15.65555 0.09894,23.48333c-0.00353,1.56533 -0.84449,2.7243 -2.45221,2.7243c-7.84427,0.00471 -15.68736,0.00471 -23.52927,0c-0.48408,0 -0.80209,-0.14841 -1.25791,-0.32507c-0.15077,-0.0589 -0.22615,-0.00707 -0.22615,0.15548c0.01884,1.49819 0.01884,3.73369 0,6.70649c-0.01413,2.05294 -1.19783,2.56528 -3.10237,2.56528c-12.00432,0.00236 -24.00863,0.00236 -36.01295,0c-1.43458,-0.00353 -2.03174,-1.31444 -2.02821,-2.66422c0,-2.23078 -0.00236,-4.46275 -0.00707,-6.69589c0,-0.1319 -0.06006,-0.17078 -0.18019,-0.1166c-0.54651,0.2497 -0.92694,0.37572 -1.1413,0.37808c-7.80421,0.00236 -15.60962,0.00236 -23.4162,0c-1.60065,0 -2.81616,-0.70669 -2.81616,-2.39921c-0.00471,-7.816 -0.0059,-15.63199 -0.00353,-23.44798c0,-0.59362 0.08128,-1.02824 0.46994,-1.43811c0.03668,-0.03583 0.04744,-0.09059 0.02706,-0.13764c-0.02038,-0.04705 -0.06769,-0.07663 -0.11892,-0.07439c-2.23785,0.02355 -4.39798,0.03063 -6.48035,0.0212c-1.93633,-0.0106 -2.98931,-0.63249 -2.99284,-2.63595c-0.00707,-11.8512 -0.00707,-23.70357 0,-35.55714c0,-1.62892 0.52295,-3.03524 2.31088,-3.04584c2.28261,-0.01177 4.57228,-0.01648 6.86902,-0.01413c0.31331,0 0.38279,-0.13074 0.20847,-0.39222l-0.22614,-0.33921c-0.04147,-0.06227 -0.06359,-0.13481 -0.0636,-0.20847c-0.00707,-7.8796 -0.0059,-15.7592 0.00353,-23.6388c0.00353,-2.01406 0.89043,-2.89036 2.90804,-2.89036c7.58514,0 15.17029,0 22.75544,0c0.61836,0 1.08123,0.13426 1.66426,0.34275c0.13663,0.04947 0.20612,0.00118 0.20847,-0.14487c0.01177,-2.29439 0.0212,-4.58171 0.02827,-6.86197c0.00353,-1.61126 0.85864,-2.43455 2.41688,-2.43455c12.03022,0 24.05928,0 36.08715,0c2.36388,0 2.63595,1.42045 2.63949,3.49459c0.00472,1.94575 0.00942,3.89504 0.01413,5.84787c0,0.12957 0.05654,0.16253 0.16961,0.09894zM182.76996,176.55239l-0.02121,14.57902l0.07067,4.40268c0.00236,0.12721 0.06714,0.1908 0.19434,0.1908l36.26029,-0.00707l0.053,32.07316l0.01766,4.3426c0.00236,0.12721 0.06713,0.19081 0.19433,0.19081l36.17549,-0.10601c0.12721,0 0.19198,-0.0636 0.19433,-0.19081l0.01414,-4.21893l0.09539,-32.11909l36.26382,-0.0424c0.12485,0 0.18727,-0.06242 0.18727,-0.18727l-0.00353,-4.31434l0.04241,-14.52602l0.01766,-17.37399c0,-0.11778 -0.0589,-0.17668 -0.17667,-0.17668h-32.99538h-3.25783c-0.10147,0 -0.18374,-0.08385 -0.18374,-0.18726v-36.20728c0,-0.14636 -0.11865,-0.26502 -0.26502,-0.26502l-14.58962,0.00353h-21.5576c-0.10835,0 -0.16254,0.05418 -0.16254,0.16253l0.00353,36.31329c0,0.09757 -0.0791,0.17668 -0.17668,0.17668h-36.21435c-0.11542,0 -0.17315,0.0589 -0.17315,0.17667zM191.8792,150.86773l0.0212,4.23308c0,0.1319 0.06596,0.19788 0.19788,0.19788l23.37026,-0.04593c0.10835,0 0.16253,-0.05418 0.16253,-0.16254l-0.04946,-4.11294l0.0212,-19.15485c0,-0.15312 -0.07656,-0.22967 -0.22967,-0.22967h-23.32079c-0.11778,0 -0.17668,0.05772 -0.17668,0.17314zM259.79217,150.89599l0.0212,4.30374c0.00236,0.11071 0.05772,0.16608 0.16608,0.16608l23.22893,-0.12014c0.11307,0 0.16961,-0.05772 0.16961,-0.17314l0.00353,-4.21894v-19.08064c0,-0.09952 -0.08068,-0.18019 -0.18019,-0.18019h-23.22186c-0.11777,0 -0.17667,0.0589 -0.17667,0.17667zM191.87214,218.68528l0.01766,4.28255c0,0.15548 0.07773,0.2332 0.2332,0.2332l22.98863,-0.0106c0.3345,0 0.49939,-0.16725 0.49468,-0.50175l-0.06008,-3.98573l0.04241,-19.06651c0,-0.0644 -0.05063,-0.11661 -0.11307,-0.11661h-23.44092c-0.10601,0 -0.15901,0.05419 -0.15901,0.16254zM259.79569,218.69235l0.06008,4.30729c0,0.1319 0.06596,0.19788 0.19788,0.19788h22.98512c0.17953,0 0.32507,-0.14554 0.32507,-0.32507l-0.00707,-4.18007l0.00707,-19.09831c0,-0.04098 -0.03163,-0.07421 -0.07066,-0.07421h-23.32079c-0.10601,0 -0.159,0.05301 -0.159,0.15901z" fill="#ffffff"/><path d="M257.66949,130.91864c0.38531,-0.21788 0.73737,-0.32683 1.05618,-0.32683c7.50219,-0.01146 15.00324,-0.01146 22.50315,0c1.98163,0 2.91396,0.64334 2.92428,2.64217c0.04129,7.63522 0.06078,15.27159 0.05848,22.90911c0,0.09633 -0.01949,0.19036 -0.05848,0.2821l-0.28555,0.66054c-0.0688,0.15596 -0.01835,0.23509 0.15137,0.23738c2.20869,0.01835 4.40591,0.02752 6.59166,0.02752c1.97818,0 2.49768,1.19035 2.49768,3.0206c0,11.3049 0,22.61094 0,33.91814c0,2.42887 -0.69151,3.27175 -3.09974,3.20638c-2.03208,-0.05505 -4.06646,-0.08487 -6.10313,-0.08945c-0.1399,-0.0023 -0.1789,0.06079 -0.11697,0.18922c0.20298,0.41284 0.33371,0.65366 0.34059,1.13187c0.08256,7.62146 0.11467,15.24292 0.09633,22.86438c-0.00344,1.52407 -0.82223,2.65249 -2.38758,2.65249c-7.63752,0.00458 -15.27389,0.00458 -22.90911,0c-0.47132,0 -0.78095,-0.1445 -1.22475,-0.31651c-0.14679,-0.05734 -0.22019,-0.00688 -0.22019,0.15138c0.01835,1.4587 0.01835,3.63528 0,6.52973c-0.01376,1.99883 -1.16626,2.49767 -3.0206,2.49767c-11.68792,0.0023 -23.37584,0.0023 -35.06376,0c-1.39677,-0.00344 -1.97819,-1.2798 -1.97475,-2.594c0,-2.17199 -0.0023,-4.34513 -0.00688,-6.51941c0,-0.12843 -0.05848,-0.16628 -0.17545,-0.11353c-0.53211,0.24311 -0.90251,0.36582 -1.11122,0.36812c-7.59852,0.0023 -15.1982,0.0023 -22.79902,0c-1.55847,0 -2.74193,-0.68806 -2.74193,-2.33598c-0.00458,-7.60999 -0.00574,-15.21998 -0.00344,-22.82997c0,-0.57798 0.07913,-1.00114 0.45756,-1.40021c0.03571,-0.03489 0.04619,-0.0882 0.02634,-0.13401c-0.01985,-0.04581 -0.06591,-0.07461 -0.11578,-0.07242c-2.17887,0.02293 -4.28206,0.02982 -6.30955,0.02064c-1.8853,-0.01032 -2.91052,-0.61582 -2.91396,-2.56648c-0.00688,-11.53884 -0.00688,-23.07882 0,-34.61996c0,-1.58599 0.50917,-2.95524 2.24997,-2.96556c2.22245,-0.01146 4.45177,-0.01605 6.68798,-0.01376c0.30505,0 0.3727,-0.12729 0.20298,-0.38188l-0.22018,-0.33027c-0.04038,-0.06063 -0.06192,-0.13126 -0.06193,-0.20298c-0.00688,-7.67192 -0.00574,-15.34384 0.00344,-23.01576c0.00344,-1.96098 0.86696,-2.81418 2.83139,-2.81418c7.38522,0 14.77045,0 22.15568,0c0.60206,0 1.05273,0.13073 1.62039,0.33371c0.13303,0.04817 0.20069,0.00115 0.20298,-0.14105c0.01146,-2.23391 0.02064,-4.46095 0.02752,-6.68111c0.00344,-1.56879 0.83601,-2.37038 2.35318,-2.37038c11.71315,0 23.42515,0 35.13601,0c2.30157,0 2.56648,1.38301 2.56992,3.40248c0.00459,1.89447 0.00917,3.79238 0.01376,5.69374c0,0.12615 0.05505,0.15825 0.16514,0.09633zM183.96403,176.5958l-0.02065,14.19477l0.06881,4.28664c0.0023,0.12385 0.06537,0.18577 0.18922,0.18577l35.30459,-0.00688l0.0516,31.22781l0.0172,4.22815c0.0023,0.12385 0.06536,0.18578 0.18921,0.18578l35.22202,-0.10321c0.12385,0 0.18692,-0.06193 0.18921,-0.18578l0.01377,-4.10774l0.09288,-31.27253l35.30802,-0.04128c0.12156,0 0.18234,-0.06078 0.18234,-0.18234l-0.00344,-4.20063l0.04129,-14.14316l0.0172,-16.91607c0,-0.11468 -0.05734,-0.17202 -0.17201,-0.17202h-32.12573h-3.17197c-0.0988,0 -0.1789,-0.08164 -0.1789,-0.18233v-35.25298c0,-0.1425 -0.11552,-0.25803 -0.25803,-0.25803l-14.20508,0.00344h-20.98941c-0.1055,0 -0.15826,0.05275 -0.15826,0.15825l0.00344,35.35619c0,0.095 -0.07702,0.17202 -0.17202,0.17202h-35.25986c-0.11238,0 -0.16858,0.05734 -0.16858,0.17201zM192.83318,151.5881l0.02064,4.12151c0,0.12843 0.06422,0.19266 0.19266,0.19266l22.75429,-0.04472c0.1055,0 0.15825,-0.05275 0.15825,-0.15826l-0.04816,-4.00453l0.02064,-18.64999c0,-0.14908 -0.07454,-0.22362 -0.22362,-0.22362h-22.70612c-0.11468,0 -0.17202,0.05619 -0.17202,0.16857zM258.95617,151.61562l0.02064,4.19031c0.0023,0.1078 0.05619,0.1617 0.1617,0.1617l22.61668,-0.11697c0.11009,0 0.16514,-0.05619 0.16514,-0.16857l0.00344,-4.10775v-18.57774c0,-0.0969 -0.07855,-0.17545 -0.17545,-0.17545h-22.6098c-0.11467,0 -0.17201,0.05734 -0.17201,0.17201zM192.8263,217.6182l0.0172,4.16967c0,0.15138 0.07568,0.22706 0.22706,0.22706l22.38273,-0.01032c0.32568,0 0.48623,-0.16284 0.48165,-0.48853l-0.05849,-3.88068l0.04129,-18.56397c0,-0.0627 -0.04929,-0.11354 -0.11009,-0.11354h-22.82309c-0.10321,0 -0.15482,0.05276 -0.15482,0.15826zM258.95961,217.62508l0.05849,4.19376c0,0.12843 0.06422,0.19266 0.19266,0.19266h22.3793c0.1748,0 0.31651,-0.14171 0.31651,-0.31651l-0.00688,-4.0699l0.00688,-18.59494c0,-0.0399 -0.0308,-0.07225 -0.0688,-0.07225h-22.70613c-0.10321,0 -0.15481,0.05161 -0.15481,0.15482z" fill="#000000"/><path d="M240.71559,123.88319c0.01376,0.15825 -0.1617,0.31536 -0.52637,0.47132c-0.18807,0.08257 -0.4094,0.12385 -0.66398,0.12385c-2.29814,-0.0023 -4.59857,-0.00344 -6.90129,-0.00344c-0.8532,0 -1.46213,0.36812 -2.24653,0.65022c-0.11697,0.04129 -0.16628,0.12499 -0.14794,0.25114c0.06193,0.40596 0.12385,0.6227 0.0344,1.03898c-0.56421,2.56992 -0.30963,5.63181 -0.20298,7.94371c0.02752,0.66054 -0.20986,1.36925 -0.13761,2.09171c0.22018,2.3291 0.18578,4.62035 0.49541,7.12834c0.00388,0.0262 -0.00621,0.05252 -0.02661,0.0694c-0.0204,0.01689 -0.04815,0.02188 -0.07316,0.01317c-0.1055,-0.03211 -0.19839,-0.01376 -0.27866,0.05505c-1.55961,-1.3165 -3.20409,-1.78782 -4.93342,-1.41397c-2.8245,0.6055 -3.12037,2.71785 -3.12381,5.41506c-0.00458,9.67877 -0.00574,19.31741 -0.00344,28.91591l-6.71207,-0.09633l-31.30349,0.05848l0.00688,-16.85414c0,-0.11468 0.05619,-0.17201 0.16858,-0.17201h35.25986c0.095,0 0.17202,-0.07702 0.17202,-0.17202l-0.00344,-35.35619c0,-0.1055 0.05275,-0.15825 0.15826,-0.15825z" fill="#bdf34a"/><path d="M240.71559,123.88319l14.20508,-0.00344c0.1425,0 0.25803,0.11553 0.25803,0.25803v35.25298c0,0.1007 0.0801,0.18233 0.1789,0.18233h3.17197c0.05963,0.30045 -0.0023,0.4633 -0.18577,0.48853c-0.30045,0.04358 -0.55734,0.10666 -0.77064,0.18922c-0.11239,0.04358 -0.19495,0.11926 -0.2477,0.22706c-0.22935,0.48164 -0.37844,0.99195 -0.44725,1.53094c-0.06651,0.51605 0.08945,0.76147 0.46788,0.73624c0.17081,-0.01176 0.43787,0.19806 0.67431,0.5298c0.11239,0.15825 0.07798,0.28785 -0.10321,0.38876c-0.01983,0.0111 -0.04442,0.00886 -0.06194,-0.0056c-0.01752,-0.01447 -0.02434,-0.03821 -0.01719,-0.05977l0.07225,-0.2305c0.00688,-0.01835 0.00115,-0.02408 -0.0172,-0.0172l-0.30963,0.13073c-0.15825,0.06422 -0.16972,0.14908 -0.0344,0.25458l10.96431,8.46319l-0.50917,0.08601l-37.96395,-28.56843c0.08027,-0.0688 0.17316,-0.08715 0.27866,-0.05505c0.02501,0.00871 0.05276,0.00372 0.07316,-0.01317c0.0204,-0.01689 0.0305,-0.04321 0.02661,-0.0694c-0.30963,-2.50799 -0.27523,-4.79924 -0.49541,-7.12834c-0.07225,-0.72247 0.16513,-1.43117 0.13761,-2.09171c-0.10665,-2.31189 -0.36123,-5.37378 0.20298,-7.94371c0.08945,-0.41628 0.02752,-0.63302 -0.0344,-1.03898c-0.01835,-0.12614 0.03097,-0.20985 0.14794,-0.25114c0.78439,-0.28211 1.39333,-0.65022 2.24653,-0.65022c2.30272,0 4.60315,0.00114 6.90129,0.00344c0.25458,0 0.47591,-0.04129 0.66398,-0.12385c0.36468,-0.15596 0.54013,-0.31307 0.52637,-0.47132z" fill="#9ae332"/><path d="M215.91086,151.69475l-23.07768,-0.10665l-0.00344,-18.59839c0,-0.11238 0.05734,-0.16857 0.17202,-0.16857h22.70612c0.14908,0 0.22362,0.07454 0.22362,0.22362z" fill="#4affe2"/><path d="M281.92376,151.57434l-22.96759,0.04129l0.01032,-18.62247c0,-0.11468 0.05734,-0.17201 0.17201,-0.17201h22.6098c0.0969,0 0.17545,0.07855 0.17545,0.17545z" fill="#17e2d5"/><path d="M230.04027,143.71664l37.96395,28.56843c2.37038,2.61464 0.4266,4.63755 -1.69952,6.24418c-17.60987,13.30946 -29.78058,22.4676 -36.51214,27.47441c-1.09632,0.81651 -2.38988,1.27062 -3.88068,1.36237c-4.08366,-0.74311 -3.93229,-3.20638 -3.93229,-6.96321c0,-7.88752 0,-15.81057 0,-23.76918c-0.0023,-9.5985 -0.00114,-19.23714 0.00344,-28.91591c0.00344,-2.69721 0.29931,-4.80956 3.12381,-5.41506c1.72933,-0.37385 3.37382,0.09747 4.93343,1.41397zM223.64471,202.65624l0.28211,1.8509c0.01835,0.11468 0.07225,0.20642 0.1617,0.27523c1.50686,1.16971 3.0057,1.20181 4.4965,0.09632c5.20176,-3.85316 17.71078,-13.27505 37.52703,-28.26568c1.00228,-0.75916 1.40251,-1.55388 1.20068,-2.38414c-0.33256,-0.58027 -0.72247,-1.03784 -1.16971,-1.37269c-12.63745,-9.46318 -25.26459,-18.94012 -37.88139,-28.43082c-1.34517,-1.01146 -4.58595,-1.0665 -4.62035,1.32109c-0.22018,15.69131 -0.09633,37.94675 0.00344,56.90981z" fill="#000000"/><path d="M267.31272,174.22886c-0.18119,-0.12385 -0.46904,-0.00689 -0.86353,0.35091l-10.47578,-7.82673c-1.00457,-1.01834 -2.26373,-1.48279 -3.20982,-2.508c-0.58829,-0.63646 -1.34517,-1.05274 -1.97818,-1.66168c-1.38989,-1.33829 -3.03092,-2.43918 -4.57219,-3.58825c-0.09175,-0.0688 -0.19265,-0.09288 -0.30274,-0.07225c-0.0688,0.01376 -0.1445,0.0023 -0.22707,-0.0344c-0.12843,-0.05505 -0.16169,-0.02064 -0.09976,0.10321c0.02752,0.05963 0.08601,0.09633 0.17545,0.11009c0.13762,0.02064 0.18693,0.09747 0.14793,0.2305l-0.09977,0.34748c-0.03899,0.12615 -0.11468,0.15596 -0.22706,0.08945l-0.17202,-0.10321c-0.03615,-0.02177 -0.08105,-0.02303 -0.11836,-0.00332c-0.03731,0.01971 -0.06158,0.05752 -0.06397,0.09965l-0.04816,0.79816c-0.00227,0.04956 -0.01774,0.09714 -0.04472,0.13761c-1.09402,1.77979 -2.05042,3.63183 -2.86922,5.55612c-0.58486,1.37613 -1.62728,2.50456 -2.22589,3.95293c-2.06763,5.03319 -5.03319,9.40928 -6.35428,12.41612c-1.10091,2.51373 -2.21901,4.49306 -3.35431,5.938c-0.18578,0.23623 -0.42317,0.74998 -0.71215,1.54126c-0.56766,1.55847 -2.07795,3.50914 -2.30845,4.641c-0.2477,1.20411 -0.90022,2.08827 -1.95754,2.65248c-0.11468,0.06193 -0.15252,0.15482 -0.11353,0.27867c0.08487,0.27064 0.03785,0.48623 -0.14105,0.64678c-0.0395,0.03783 -0.09914,0.04528 -0.14673,0.01831c-0.04758,-0.02696 -0.07185,-0.08195 -0.0597,-0.13528c0.06193,-0.30045 0.02179,-0.58486 -0.12041,-0.8532c-0.13303,-0.25229 -0.20068,-0.23509 -0.20298,0.0516c-0.00917,1.46099 -0.0149,2.92542 -0.0172,4.39329c-0.0023,0.53898 -0.24541,0.87154 -0.72935,0.99769c-0.02293,-0.1055 -0.08142,-0.15137 -0.17545,-0.13761c-0.09977,-18.96305 -0.22362,-41.2185 -0.00344,-56.90981c0.0344,-2.38759 3.27518,-2.33254 4.62035,-1.32109c12.61681,9.4907 25.24394,18.96765 37.88139,28.43083c0.44724,0.33486 0.83715,0.79242 1.16971,1.37269z" fill="#fffd00"/><path d="M281.92376,151.57434l-0.00344,4.10775c0,0.11238 -0.05505,0.16857 -0.16514,0.16857l-22.61668,0.11697c-0.1055,0 -0.1594,-0.0539 -0.1617,-0.1617l-0.02064,-4.19031z" fill="#157b79"/><path d="M192.83318,151.5881l23.07768,0.10665l0.04816,4.00453c0,0.1055 -0.05275,0.15826 -0.15825,0.15826l-22.75429,0.04472c-0.12843,0 -0.19266,-0.06422 -0.19266,-0.19266z" fill="#0db6bb"/><path d="M255.97341,166.75304c-0.62384,-0.11927 -1.14562,0.18004 -1.56535,0.89792c-2.44951,4.19031 -4.27976,7.87834 -6.26483,11.74526c-0.04358,0.08487 -0.11238,0.12729 -0.20642,0.12729h-0.32339c-0.11468,0 -0.17202,0.05734 -0.17202,0.17202c0,0.12385 -0.01834,0.22018 -0.05504,0.28898c-2.94721,5.54121 -4.84972,9.14782 -5.7075,10.81982c-0.33715,0.65824 -0.43233,1.39448 -0.28554,2.20869c0.00458,0.03211 0.02294,0.04243 0.05505,0.03097c0.04587,-0.01835 0.08486,-0.01605 0.11697,0.00688c0.08487,0.05505 0.1227,0.12959 0.11353,0.22362c-4.09857,3.11693 -8.22007,6.20405 -12.36451,9.26135c-1.8509,1.3658 -3.45409,1.94378 -5.34282,0.49541c-0.16513,0.04817 -0.2156,-0.03097 -0.15138,-0.23739c0.48394,-0.12615 0.72706,-0.45871 0.72935,-0.99769c0.0023,-1.46787 0.00803,-2.9323 0.0172,-4.39329c0.0023,-0.2867 0.06995,-0.30389 0.20298,-0.0516c0.1422,0.26835 0.18233,0.55275 0.12041,0.8532c-0.01216,0.05333 0.01211,0.10832 0.0597,0.13528c0.04758,0.02696 0.10722,0.01952 0.14673,-0.01831c0.1789,-0.16055 0.22592,-0.37614 0.14105,-0.64678c-0.03899,-0.12385 -0.00115,-0.21674 0.11353,-0.27867c1.05732,-0.56421 1.70984,-1.44837 1.95754,-2.65248c0.2305,-1.13187 1.7408,-3.08254 2.30845,-4.641c0.28898,-0.79128 0.52638,-1.30503 0.71215,-1.54126c1.1353,-1.44493 2.25341,-3.42426 3.35431,-5.938c1.32109,-3.00684 4.28664,-7.38294 6.35428,-12.41612c0.59861,-1.44837 1.64104,-2.5768 2.22589,-3.95293c0.8188,-1.92428 1.7752,-3.77633 2.86923,-5.55612c0.02698,-0.04047 0.04245,-0.08805 0.04472,-0.13761l0.04816,-0.79816c0.00239,-0.04213 0.02666,-0.07993 0.06397,-0.09965c0.03731,-0.01971 0.08221,-0.01845 0.11836,0.00332l0.17202,0.10321c0.11238,0.06651 0.18807,0.0367 0.22706,-0.08945l0.09977,-0.34748c0.03899,-0.13303 -0.01032,-0.20986 -0.14793,-0.2305c-0.08945,-0.01376 -0.14793,-0.05046 -0.17545,-0.11009c-0.06193,-0.12385 -0.02867,-0.15825 0.09976,-0.10321c0.08256,0.0367 0.15826,0.04816 0.22707,0.0344c0.11009,-0.02064 0.211,0.00344 0.30274,0.07225c1.54127,1.14907 3.1823,2.24997 4.57219,3.58825c0.63302,0.60894 1.38989,1.02522 1.97818,1.66168c0.94609,1.02522 2.20525,1.48967 3.20982,2.508z" fill="#ffe300"/><path d="M258.52957,159.57309h32.12573c0.11467,0 0.17201,0.05734 0.17201,0.17202l-0.0172,16.91607l-19.71649,-0.07913c0.2649,-2.17428 -0.89104,-3.09629 -2.58024,-4.38297l-10.96431,-8.46319c-0.13532,-0.1055 -0.12385,-0.19036 0.0344,-0.25458l0.30963,-0.13073c0.01835,-0.00688 0.02408,-0.00115 0.0172,0.0172l-0.07225,0.2305c-0.00715,0.02156 -0.00032,0.0453 0.01719,0.05977c0.01752,0.01447 0.04211,0.0167 0.06194,0.0056c0.18119,-0.10091 0.2156,-0.23051 0.10321,-0.38876c-0.23643,-0.33174 -0.50349,-0.54156 -0.67431,-0.5298c-0.37844,0.02523 -0.53439,-0.22019 -0.46788,-0.73624c0.0688,-0.53898 0.21789,-1.0493 0.44725,-1.53094c0.05275,-0.1078 0.13531,-0.18348 0.2477,-0.22706c0.2133,-0.08256 0.47018,-0.14564 0.77064,-0.18922c0.18348,-0.02523 0.24541,-0.18807 0.18577,-0.48853z" fill="#75d82a"/><path d="M255.97341,166.75304l10.47578,7.82673l-24.77032,18.69471c0.00917,-0.09403 -0.02866,-0.16858 -0.11353,-0.22362c-0.03211,-0.02293 -0.0711,-0.02523 -0.11697,-0.00688c-0.03211,0.01146 -0.05046,0.00114 -0.05505,-0.03097c-0.14679,-0.81421 -0.05161,-1.55044 0.28554,-2.20869c0.85779,-1.672 2.76029,-5.2786 5.7075,-10.81982c0.0367,-0.0688 0.05504,-0.16513 0.05504,-0.28898c0,-0.11468 0.05734,-0.17202 0.17202,-0.17202h0.32339c0.09403,0 0.16284,-0.04242 0.20642,-0.12729c1.98506,-3.86692 3.81531,-7.55495 6.26483,-11.74526c0.41972,-0.71788 0.9415,-1.01719 1.56535,-0.89792z" fill="#ffc900"/><path d="M268.51339,172.19907c1.6892,1.28668 2.84514,2.20869 2.58024,4.38297c-0.38531,0.87384 -1.05273,1.67543 -2.00226,2.40479c-4.55957,3.49537 -9.14094,6.96551 -13.74409,10.41042l-16.08007,12.09962c-2.46785,1.87383 -4.95176,3.69835 -7.45173,5.47356c-1.79241,1.26948 -4.22816,2.18461 -5.90359,0.39563c1.4908,-0.09175 2.78437,-0.54586 3.88069,-1.36237c6.73156,-5.00681 18.90228,-14.16495 36.51214,-27.47441c2.12612,-1.60663 4.0699,-3.62954 1.69952,-6.24418z" fill="#45781b"/><path d="M267.31272,174.22886c0.20184,0.83026 -0.1984,1.62498 -1.20068,2.38414c-19.81626,14.99063 -32.32527,24.41252 -37.52703,28.26568c-1.4908,1.10549 -2.98964,1.07339 -4.4965,-0.09632c-0.08945,-0.0688 -0.14335,-0.16055 -0.1617,-0.27523l-0.28211,-1.8509c0.09403,-0.01376 0.15252,0.03211 0.17545,0.13761c-0.06422,0.20642 -0.01376,0.28555 0.15138,0.23739c1.88873,1.44837 3.49193,0.8704 5.34282,-0.49541c4.14444,-3.0573 8.26594,-6.14442 12.36451,-9.26135l24.77032,-18.69471c0.39449,-0.3578 0.68234,-0.47476 0.86353,-0.35091z" fill="#875e03"/><path d="M215.26752,176.53732c-0.57339,0.07568 -0.44953,0.23852 0.37156,0.48852c0.13303,0.04128 0.18348,0.12844 0.15138,0.26147c-0.23394,0.98394 -0.02293,1.84975 0.63302,2.59744c0.08416,0.09459 0.11746,0.22401 0.08944,0.34748c-0.15367,0.72247 -0.13761,1.43347 0.04817,2.133c0.0344,0.12843 0.02523,0.25458 -0.02752,0.37843c-0.61582,1.46558 -0.51261,2.12611 -0.31307,3.66394c0.01605,0.11697 -0.00115,0.22821 -0.05161,0.33372c-0.65022,1.36925 0.03784,2.66625 -0.94265,3.73619c-0.00458,0.00458 -0.00458,0.00803 0,0.01032c0.01376,0.01146 0.0344,0.03211 0.06193,0.06193c0.04128,0.04587 0.03096,0.06651 -0.03096,0.06193c-0.42431,-0.03211 -0.56422,0.02752 -0.41972,0.1789h-30.89409l0.02065,-14.19477z" fill="#8af137"/><path d="M215.26752,176.53732l6.71207,0.09633c0,7.95861 0,15.88167 0,23.76918c0,3.75683 -0.15138,6.2201 3.93229,6.96321c1.67543,1.78897 4.11119,0.87384 5.90359,-0.39563c2.49997,-1.7752 4.98388,-3.59973 7.45173,-5.47356c0.47706,0.11697 0.71789,0.53784 0.72247,1.2626c0.01032,1.72704 -0.31307,3.42656 -0.01032,5.1364c0.13532,0.76146 0.18119,1.40939 0.13761,1.94378c-0.28898,3.53321 -0.87041,6.51942 0.06193,10.28656c0.02752,0.11238 0.02523,0.22248 -0.00688,0.33027c-0.05848,0.18578 -0.14449,0.46444 -0.12041,0.6571c0.17431,1.51374 0.18922,2.93115 0.04472,4.25224c-0.04587,0.43806 -0.28899,0.67086 -0.72935,0.69839c-0.09862,0.00688 -0.11352,0.04472 -0.04472,0.11353l0.29242,0.30963l-20.05708,-0.00344l-0.0516,-31.22781l0.06537,-4.15935c0.00092,-0.0818 -0.03093,-0.16057 -0.08845,-0.21874c-0.05752,-0.05817 -0.13593,-0.09089 -0.21774,-0.09089l-4.42769,0.00344c-0.1445,-0.15138 -0.00458,-0.21101 0.41972,-0.1789c0.06193,0.00458 0.07225,-0.01605 0.03096,-0.06193c-0.02752,-0.02982 -0.04817,-0.05046 -0.06193,-0.06193c-0.00458,-0.0023 -0.00458,-0.00574 0,-0.01032c0.98049,-1.06994 0.29243,-2.36694 0.94265,-3.73619c0.05046,-0.1055 0.06766,-0.21675 0.05161,-0.33372c-0.19954,-1.53782 -0.30275,-2.19836 0.31307,-3.66394c0.05275,-0.12385 0.06192,-0.25 0.02752,-0.37843c-0.18578,-0.69953 -0.20184,-1.41053 -0.04817,-2.133c0.02802,-0.12347 -0.00529,-0.25288 -0.08944,-0.34748c-0.65596,-0.74769 -0.86696,-1.61351 -0.63302,-2.59744c0.03211,-0.13303 -0.01835,-0.22018 -0.15138,-0.26147c-0.82109,-0.25 -0.94494,-0.41284 -0.37156,-0.48852z" fill="#75d82a"/><path d="M290.81012,176.66117l-0.04129,14.14316l-34.7335,-0.01032c-0.03899,-0.10091 -0.03899,-0.20986 0,-0.32683c0.0344,-0.09175 0.01032,-0.16628 -0.07224,-0.22362c-0.16972,-0.11927 -0.22821,-0.2844 -0.17545,-0.4954c0.03062,-0.11449 -0.03629,-0.2331 -0.15138,-0.26835l-0.28899,-0.08257c4.60315,-3.44491 9.18452,-6.91504 13.74409,-10.41041c0.94953,-0.72935 1.61695,-1.53095 2.00226,-2.40479z" fill="#4fac13"/><path d="M255.34727,189.39724l0.28899,0.08257c0.11508,0.03525 0.18199,0.15386 0.15138,0.26835c-0.05275,0.21101 0.00573,0.37614 0.17545,0.4954c0.08257,0.05734 0.10664,0.13188 0.07224,0.22362c-0.03899,0.11697 -0.03899,0.22592 0,0.32683c-0.22477,-0.0367 -0.41857,-0.03325 -0.58141,0.01032c-0.11927,0.03211 -0.1789,0.11009 -0.1789,0.23394l0.00688,4.19031l-0.09288,31.27253l-15.57434,-0.01376l-0.29242,-0.30963c-0.0688,-0.0688 -0.05391,-0.10665 0.04472,-0.11353c0.44036,-0.02752 0.68348,-0.26032 0.72935,-0.69839c0.1445,-1.32109 0.12958,-2.7385 -0.04472,-4.25224c-0.02408,-0.19266 0.06193,-0.47132 0.12041,-0.6571c0.03211,-0.1078 0.0344,-0.21789 0.00688,-0.33027c-0.93233,-3.76715 -0.35091,-6.75335 -0.06193,-10.28656c0.04358,-0.53439 -0.00229,-1.18232 -0.13761,-1.94378c-0.30275,-1.70984 0.02064,-3.40936 0.01032,-5.1364c-0.00458,-0.72476 -0.24541,-1.14563 -0.72247,-1.2626z" fill="#65c620"/><path d="M183.94339,190.79057h30.89409l4.4277,-0.00344c0.08181,0 0.16021,0.03272 0.21774,0.09089c0.05752,0.05817 0.08937,0.13694 0.08845,0.21874l-0.06537,4.15935l-35.30459,0.00688c-0.12385,0 -0.18692,-0.06192 -0.18922,-0.18577z" fill="#45781b"/><path d="M256.03533,190.79401l34.7335,0.01032l0.00344,4.20063c0,0.12156 -0.06079,0.18234 -0.18234,0.18234l-35.30802,0.04128l-0.00688,-4.19031c0,-0.12385 0.05963,-0.20183 0.1789,-0.23394c0.16284,-0.04358 0.35664,-0.04702 0.58141,-0.01032z" fill="#29590a"/><path d="M215.87646,217.6354l-23.05015,-0.0172l0.00344,-18.50205c0,-0.1055 0.05161,-0.15826 0.15482,-0.15826h22.82309c0.0608,0 0.11009,0.05084 0.11009,0.11354z" fill="#2bf5f2"/><path d="M281.89968,217.62508h-22.94007l0.0172,-18.51237c0,-0.10321 0.0516,-0.15482 0.15481,-0.15482h22.70613c0.038,0 0.0688,0.03235 0.0688,0.07225z" fill="#0db6bb"/><path d="M215.87646,217.6354l0.05849,3.88069c0.00458,0.32568 -0.15596,0.48853 -0.48165,0.48853l-22.38273,0.01032c-0.15138,0 -0.22706,-0.07568 -0.22706,-0.22706l-0.0172,-4.16967z" fill="#157b79"/><path d="M258.95961,217.62508h22.94007l0.00688,4.0699c0,0.1748 -0.14171,0.31651 -0.31651,0.31651h-22.3793c-0.12844,0 -0.19266,-0.06422 -0.19266,-0.19266z" fill="#055b5e"/><path d="M219.5576,226.48391l20.05708,0.00344l15.57434,0.01376l-0.01377,4.10774c-0.0023,0.12385 -0.06536,0.18578 -0.18921,0.18578l-35.22202,0.10321c-0.12385,0 -0.18692,-0.06193 -0.18921,-0.18578z" fill="#366812"/></g></g></svg>