<svg version="1.1" xmlns="http://www.w3.org/2000/svg" xmlns:xlink="http://www.w3.org/1999/xlink" width="85.46544" height="85.46546" viewBox="0,0,85.46544,85.46546"><defs><linearGradient x1="202.96207" y1="180" x2="277.03793" y2="180" gradientUnits="userSpaceOnUse" id="color-1"><stop offset="0" stop-color="#83ff2f"/><stop offset="1" stop-color="#2bec46"/></linearGradient><linearGradient x1="202.96208" y1="179.87168" x2="277.03794" y2="179.87168" gradientUnits="userSpaceOnUse" id="color-2"><stop offset="0" stop-color="#9bf2ff"/><stop offset="1" stop-color="#5cd5e6"/></linearGradient><linearGradient x1="202.96208" y1="198.93145" x2="277.04795" y2="198.93145" gradientUnits="userSpaceOnUse" id="color-3"><stop offset="0" stop-color="#000000" stop-opacity="0"/><stop offset="1" stop-color="#000000" stop-opacity="0.29473"/></linearGradient><linearGradient x1="240.09362" y1="156.88583" x2="240.09362" y2="203.45746" gradientUnits="userSpaceOnUse" id="color-4"><stop offset="0" stop-color="#afff9d"/><stop offset="1" stop-color="#36ff01"/></linearGradient><linearGradient x1="240.06083" y1="156.58088" x2="240.06083" y2="203.6005" gradientUnits="userSpaceOnUse" id="color-5"><stop offset="0" stop-color="#9eff98"/><stop offset="1" stop-color="#2ee400"/></linearGradient></defs><g transform="translate(-197.26728,-137.26727)"><g data-paper-data="{&quot;isPaintingLayer&quot;:true}" fill-rule="nonzero" stroke-linejoin="miter" stroke-miterlimit="10" stroke-dasharray="" stroke-dashoffset="0" style="mix-blend-mode: normal"><path d="M200.26728,180c0,-21.94378 17.78893,-39.73273 39.73272,-39.73273c21.94378,0 39.73272,17.78893 39.73272,39.73273c0,21.94378 -17.78893,39.73273 -39.73272,39.73273c-21.94378,0 -39.73272,-17.78893 -39.73272,-39.73273z" fill="none" stroke="#ffffff" stroke-width="6" stroke-linecap="butt"/><path d="M202.96207,180c0,-20.45548 16.58244,-37.03793 37.03793,-37.03793c20.45548,0 37.03793,16.58244 37.03793,37.03793c0,20.45548 -16.58244,37.03793 -37.03793,37.03793c-20.45548,0 -37.03793,-16.58244 -37.03793,-37.03793z" fill="none" stroke="#000000" stroke-width="6" stroke-linecap="butt"/><path d="M202.96207,180c0,-20.45548 16.58244,-37.03793 37.03793,-37.03793c20.45548,0 37.03793,16.58244 37.03793,37.03793c0,20.45548 -16.58244,37.03793 -37.03793,37.03793c-20.45548,0 -37.03793,-16.58244 -37.03793,-37.03793z" fill="url(#color-1)" stroke="none" stroke-width="0" stroke-linecap="butt"/><path d="M202.96208,179.87168c0,-20.45548 16.58244,-37.03793 37.03793,-37.03793c20.45548,0 37.03793,16.58244 37.03793,37.03793c0,20.45548 -16.58244,37.03793 -37.03793,37.03793c-20.45548,0 -37.03793,-16.58244 -37.03793,-37.03793zM263.26507,201.60971c1.24024,0 2.24566,-1.00542 2.24566,-2.24566c0,-1.24024 -1.00542,-2.24566 -2.24566,-2.24566c-1.24024,0 -2.24566,1.00542 -2.24566,2.24566c0,1.24024 1.00542,2.24566 2.24566,2.24566z" fill="url(#color-2)" stroke="none" stroke-width="0" stroke-linecap="butt"/><path d="M277.03793,180.70142c1.36329,20.19037 -15.57874,36.33652 -37.03793,36.33652c-20.45548,0 -37.03793,-17.32727 -37.03793,-36.61224z" fill="url(#color-3)" stroke="none" stroke-width="3" stroke-linecap="butt"/><g stroke-linecap="butt"><path d="M226.75686,182.12589l14.14951,-25.82524l14.14951,25.82524c0,0 -12.4547,22.86205 -13.46781,24.8968z" fill="none" stroke-opacity="0.52941" stroke="#000000" stroke-width="3"/><path d="M225.94412,180.63586l14.14951,-25.82524l14.14951,25.82524c0,0 -12.4547,22.86205 -13.46781,24.8968z" fill="none" stroke="#000000" stroke-width="6"/><path d="M227.10192,180.59789l12.99171,-23.71205l12.99171,23.71205c0,0 -11.43557,20.99134 -12.36579,22.85959z" fill="none" stroke="#ffffff" stroke-width="5"/><path d="M227.10192,180.59789l12.99171,-23.71205l12.99171,23.71205c0,0 -11.43557,20.99134 -12.36579,22.85959z" fill="url(#color-4)" stroke="none" stroke-width="0"/><path d="M227.05842,180.52102h26.00481c0,0 -11.44499,21.19326 -12.37596,23.07947z" fill="url(#color-5)" stroke="none" stroke-width="0"/></g><g fill="none" stroke="#000000" stroke-width="5.5"><path d="M209.72341,180c0,-16.7213 13.5553,-30.27659 30.27659,-30.27659c16.7213,0 30.27659,13.5553 30.27659,30.27659c0,16.7213 -13.55529,30.27659 -30.27659,30.27659c-16.7213,0 -30.27659,-13.55529 -30.27659,-30.27659z" stroke-linecap="butt"/><path d="M219.87497,157.64875l40.25006,44.7025" stroke-linecap="round"/></g><g fill="none" stroke="#ff0000" stroke-width="4"><path d="M209.7234,180c0,-16.7213 13.55529,-30.2766 30.2766,-30.2766c16.7213,0 30.2766,13.55529 30.2766,30.2766c0,16.7213 -13.55529,30.2766 -30.2766,30.2766c-16.7213,0 -30.2766,-13.55529 -30.2766,-30.2766z" stroke-linecap="butt"/><path d="M219.87497,157.64875l40.25006,44.7025" stroke-linecap="round"/></g></g></g></svg>