<svg version="1.1" xmlns="http://www.w3.org/2000/svg" xmlns:xlink="http://www.w3.org/1999/xlink" width="49.68397" height="73.34548" viewBox="0,0,49.68397,73.34548"><g transform="translate(-215.15801,-143.32725)"><g data-paper-data="{&quot;isPaintingLayer&quot;:true}" fill-rule="nonzero" stroke-linecap="butt" stroke-linejoin="miter" stroke-miterlimit="10" stroke-dasharray="" stroke-dashoffset="0" style="mix-blend-mode: normal"><path d="M255.34021,200.30571v-1.09884h1.22812v1.09884z" fill="#000000" stroke="none" stroke-width="0"/><path d="M257.27934,199.01295v-1.55131h1.55131v1.55131z" fill="#000000" stroke="none" stroke-width="0"/><path d="M258.63675,197.33236v-2.58552h2.52088v2.58552z" fill="#000000" stroke="none" stroke-width="0"/><path d="M259.15385,194.42365v-3.03798h3.03798v3.03798z" fill="#000000" stroke="none" stroke-width="0"/><path d="M260.51125,190.73929v-3.29654h2.90871v3.29654z" fill="#000000" stroke="none" stroke-width="0"/><path d="M260.83443,186.40854v-3.61972h3.81364v3.61972z" fill="#000000" stroke="none" stroke-width="0"/><path d="M261.48081,182.07781v-3.81364h3.36117v3.81364z" fill="#000000" stroke="none" stroke-width="0"/><path d="M260.4466,177.61778v-3.749h3.81364v3.749z" fill="#000000" stroke="none" stroke-width="0"/><path d="M260.31733,173.15776v-3.94292h3.42581v3.94292z" fill="#000000" stroke="none" stroke-width="0"/><path d="M258.44283,168.63311v-2.97335h3.61972v2.97335z" fill="#000000" stroke="none" stroke-width="0"/><path d="M258.11964,165.14265v-2.13305h2.84407v2.13305z" fill="#000000" stroke="none" stroke-width="0"/><path d="M256.1805,162.6864v-1.55131h2.7148v1.55131z" fill="#000000" stroke="none" stroke-width="0"/><path d="M253.72426,161.07045v-0.90493h2.97335v0.90493z" fill="#000000" stroke="none" stroke-width="0"/><path d="M224.48527,209.46818v-2.18476h6.3022v2.18476z" fill="#000000" stroke="none" stroke-width="0"/><path d="M221.04007,206.77924v-3.61326h7.89876v3.61326z" fill="#000000" stroke="none" stroke-width="0"/><path d="M219.19142,202.3257v-4.53759h7.56264v4.53759z" fill="#000000" stroke="none" stroke-width="0"/><path d="M217.34278,196.8638v-5.54594h6.97444v5.54594z" fill="#000000" stroke="none" stroke-width="0"/><path d="M215.74622,190.05742v-5.79803h8.06682v5.79803z" fill="#000000" stroke="none" stroke-width="0"/><path d="M215.15801,183.4191v-6.13414h8.57099v6.13414z" fill="#000000" stroke="none" stroke-width="0"/><path d="M215.91428,176.36063v-6.13414h7.64667v6.13414z" fill="#000000" stroke="none" stroke-width="0"/><path d="M217.17472,169.55419v-6.21817h8.48697v6.21817z" fill="#000000" stroke="none" stroke-width="0"/><path d="M219.35948,162.74787v-4.95773h7.39458v4.95773z" fill="#000000" stroke="none" stroke-width="0"/><path d="M221.54425,157.45398v-3.4452h7.98279v3.4452z" fill="#000000" stroke="none" stroke-width="0"/><path d="M224.48527,153.50464v-2.35282h6.05011v2.35282z" fill="#000000" stroke="none" stroke-width="NaN"/><path d="M259.89275,180.3306c0,10.0394 -2.69499,18.17793 -6.0194,18.17793c-3.32441,0 -6.0194,-8.13853 -6.0194,-18.17793c0,-10.03939 2.69499,-18.17793 6.0194,-18.17793c3.32441,0 6.0194,8.13854 6.0194,18.17793z" data-paper-data="{&quot;index&quot;:null}" fill="none" stroke="#000000" stroke-width="5"/><path d="M257.86852,180.38864c0,9.87901 -2.2657,17.88755 -5.06057,17.88755c-2.79487,0 -5.06056,-8.00853 -5.06056,-17.88755c0,-9.87901 2.26569,-17.88754 5.06056,-17.88754c2.79487,0 5.06057,8.00853 5.06057,17.88754z" data-paper-data="{&quot;index&quot;:null}" fill="none" stroke="#f3f3f3" stroke-width="4"/><path d="M257.86852,180.38864c0,9.87901 -2.26568,17.88755 -5.06057,17.88755c-2.79488,0 -5.06056,-8.00853 -5.06056,-17.88755c0,-9.87901 2.26568,-17.88754 5.06056,-17.88754c2.79488,0 5.06057,8.00853 5.06057,17.88754z" data-paper-data="{&quot;index&quot;:null}" fill="none" stroke="#4ffff1" stroke-width="2"/><path d="M248.26139,166.85844c0.45867,0 0.83048,7.67278 0.83048,17.13763c0,9.46485 -0.37181,17.13763 -0.83048,17.13763c-0.45866,0 -0.83048,-7.67278 -0.83048,-17.13763c0,-9.46485 0.37181,-17.13763 0.83048,-17.13763z" data-paper-data="{&quot;index&quot;:null}" fill="none" stroke="#000000" stroke-width="1"/><path d="M251.94887,180.22838c0,12.16522 -3.35622,22.02709 -7.4963,22.02709c-4.14008,0 -7.4963,-9.86186 -7.4963,-22.02709c0,-12.16522 3.35622,-22.02709 7.4963,-22.02709c4.14008,0 7.4963,9.86186 7.4963,22.02709z" data-paper-data="{&quot;index&quot;:null}" fill="none" stroke="#000000" stroke-width="6"/><path d="M249.42798,180.29877c0,11.97089 -2.8216,21.67521 -6.3022,21.67521c-3.48061,0 -6.3022,-9.70432 -6.3022,-21.67521c0,-11.97089 2.8216,-21.67521 6.3022,-21.67521c3.48061,0 6.3022,9.70432 6.3022,21.67521z" data-paper-data="{&quot;index&quot;:null}" fill="none" stroke="#f3f3f3" stroke-width="5"/><path d="M249.42798,180.29877c0,11.97089 -2.82159,21.67521 -6.3022,21.67521c-3.48061,0 -6.3022,-9.70432 -6.3022,-21.67521c0,-11.97089 2.82159,-21.67521 6.3022,-21.67521c3.48061,0 6.3022,9.70432 6.3022,21.67521z" data-paper-data="{&quot;index&quot;:null}" fill="none" stroke="#4ffff1" stroke-width="3"/><path d="M239.42849,181.97937c0,11.97089 -0.47026,21.67521 -1.05037,21.67521c-0.58011,0 -1.05037,-9.70432 -1.05037,-21.67521c0,-11.97089 0.47026,-21.67521 1.05037,-21.67521c0.58011,0 1.05037,9.70432 1.05037,21.67521z" data-paper-data="{&quot;index&quot;:null}" fill="none" stroke="#000000" stroke-width="2"/><path d="M242.01792,152.07874c0,-1.12714 0.83261,-2.04085 1.8597,-2.04085c1.02709,0 1.8597,0.91372 1.8597,2.04085c0,1.12714 -0.83261,2.04085 -1.8597,2.04085c-1.02709,0 -1.8597,-0.91372 -1.8597,-2.04085z" data-paper-data="{&quot;index&quot;:null}" fill="#4ffff1" stroke="#f3f3f3" stroke-width="1"/><path d="M242.01792,208.58594c0,-1.12714 0.83261,-2.04085 1.8597,-2.04085c1.02709,0 1.8597,0.91372 1.8597,2.04085c0,1.12714 -0.83261,2.04085 -1.8597,2.04085c-1.02709,0 -1.8597,-0.91372 -1.8597,-2.04085z" data-paper-data="{&quot;index&quot;:null}" fill="#4ffff1" stroke="#f3f3f3" stroke-width="1"/><path d="M243.20981,180.42205c0,14.8274 -3.79975,26.84738 -8.48697,26.84738c-4.68722,0 -8.48697,-12.01998 -8.48697,-26.84738c0,-14.8274 3.79975,-26.84738 8.48697,-26.84738c4.68722,0 8.48697,12.01998 8.48697,26.84738z" data-paper-data="{&quot;index&quot;:null}" fill="none" stroke="#000000" stroke-width="7"/><path d="M240.0167,179.9599c0,14.2937 -3.57402,25.88104 -7.98279,25.88104c-4.40877,0 -7.98279,-11.58734 -7.98279,-25.88104c0,-14.2937 3.57402,-25.88104 7.98279,-25.88104c4.40877,0 7.98279,11.58734 7.98279,25.88104z" data-paper-data="{&quot;index&quot;:null}" fill="none" stroke="#f3f3f3" stroke-width="6"/><path d="M240.0167,179.9599c0,14.2937 -3.57401,25.88104 -7.98279,25.88104c-4.40878,0 -7.98279,-11.58734 -7.98279,-25.88104c0,-14.2937 3.57401,-25.88104 7.98279,-25.88104c4.40878,0 7.98279,11.58734 7.98279,25.88104z" data-paper-data="{&quot;index&quot;:null}" fill="none" stroke="#4ffff1" stroke-width="4"/><path d="M230.8575,146.26411c0,-1.34584 1.09101,-2.43685 2.43685,-2.43685c1.34584,0 2.43685,1.09101 2.43685,2.43685c0,1.34584 -1.09101,2.43685 -2.43685,2.43685c-1.34584,0 -2.43685,-1.09101 -2.43685,-2.43685z" data-paper-data="{&quot;index&quot;:null}" fill="#4ffff1" stroke="#f3f3f3" stroke-width="1"/><path d="M230.8575,213.73588c0,-1.34584 1.09101,-2.43685 2.43685,-2.43685c1.34584,0 2.43685,1.09101 2.43685,2.43685c0,1.34584 -1.09101,2.43685 -2.43685,2.43685c-1.34584,0 -2.43685,-1.09101 -2.43685,-2.43685z" data-paper-data="{&quot;index&quot;:null}" fill="#4ffff1" stroke="#f3f3f3" stroke-width="1"/><path d="M251.91837,157.09996c0,-0.93017 0.66858,-1.68422 1.49331,-1.68422c0.82473,0 1.49331,0.75405 1.49331,1.68422c0,0.93017 -0.66858,1.68421 -1.49331,1.68421c-0.82473,0 -1.49331,-0.75405 -1.49331,-1.68421z" data-paper-data="{&quot;index&quot;:null}" fill="#4ffff1" stroke="#f3f3f3" stroke-width="1"/><path d="M251.91837,203.73273c0,-0.93017 0.66858,-1.68421 1.49331,-1.68421c0.82473,0 1.49331,0.75405 1.49331,1.68421c0,0.93017 -0.66858,1.68422 -1.49331,1.68422c-0.82473,0 -1.49331,-0.75405 -1.49331,-1.68422z" data-paper-data="{&quot;index&quot;:null}" fill="#4ffff1" stroke="#f3f3f3" stroke-width="1"/><path d="M228.01451,150.98376v-1.59656h5.96608l1.93268,1.59656z" fill="#000000" stroke="none" stroke-width="0"/><path d="M228.09854,211.2328v-1.68059h7.39458l-4.2855,1.68059z" fill="#000000" stroke="none" stroke-width="0"/></g></g></svg>