<svg version="1.1" xmlns="http://www.w3.org/2000/svg" xmlns:xlink="http://www.w3.org/1999/xlink" width="16.68724" height="69.24612" viewBox="0,0,16.68724,69.24612"><defs><linearGradient x1="240" y1="195.69539" x2="240" y2="126.4496" gradientUnits="userSpaceOnUse" id="color-1"><stop offset="0" stop-color="#ffdc3c"/><stop offset="1" stop-color="#ffdc3c" stop-opacity="0"/></linearGradient></defs><g transform="translate(-231.65638,-126.44983)"><g data-paper-data="{&quot;isPaintingLayer&quot;:true}" fill="url(#color-1)" fill-rule="nonzero" stroke="none" stroke-width="1" stroke-linecap="butt" stroke-linejoin="miter" stroke-miterlimit="10" stroke-dasharray="" stroke-dashoffset="0" style="mix-blend-mode: normal"><path d="M231.69506,195.69596c-0.01138,-0.06485 -0.03868,-0.12287 -0.03868,-0.18999c0,-0.62799 0.50967,-1.13766 1.13766,-1.13766h3.5643v-1.94313c0,-1.68488 1.23436,-3.07852 2.84416,-3.347v-1.93289c-1.60979,-0.26849 -2.84416,-1.66213 -2.84416,-3.347v-3.88739c0,-1.68488 1.23436,-3.07852 2.84416,-3.347v-1.93289c-1.60979,-0.26849 -2.84416,-1.66213 -2.84416,-3.347v-3.88739c0,-1.68488 1.23436,-3.07852 2.84416,-3.347v-1.93289c-1.60979,-0.26849 -2.84416,-1.66213 -2.84416,-3.347v-3.88739c0,-1.68488 1.23436,-3.07852 2.84416,-3.347v-1.93289c-1.60979,-0.26849 -2.84416,-1.66213 -2.84416,-3.347v-3.88739c0,-1.68488 1.23436,-3.07852 2.84416,-3.347v-1.93289c-1.60979,-0.26849 -2.84416,-1.66213 -2.84416,-3.347v-3.88739c0,-1.87714 1.52788,-3.40389 3.40389,-3.40389h0.47441c1.87714,0 3.40389,1.52788 3.40389,3.40389v3.88739c0,1.68488 -1.23436,3.07852 -2.84416,3.347v1.93289c1.60979,0.26849 2.84416,1.66213 2.84416,3.347v3.88739c0,1.68488 -1.23436,3.07852 -2.84416,3.347v1.93289c1.60979,0.26849 2.84416,1.66213 2.84416,3.347v3.88739c0,1.68488 -1.23436,3.07852 -2.84416,3.347v1.93289c1.60979,0.26849 2.84416,1.66213 2.84416,3.347v3.88739c0,1.68488 -1.23436,3.07852 -2.84416,3.347v1.93289c1.60979,0.26849 2.84416,1.66213 2.84416,3.347v3.88739c0,1.68488 -1.23436,3.07852 -2.84416,3.347v1.93289c1.60979,0.26849 2.84416,1.66213 2.84416,3.347v1.94313h3.56544c0.62799,0 1.13766,0.50967 1.13766,1.13766c0,0.06826 -0.0273,0.12628 -0.03868,0.18999zM239.2025,135.4533v-0.81229c0,-0.44028 0.35609,-0.79636 0.79636,-0.79636c0.44028,0 0.79636,0.35609 0.79636,0.79636v0.81115c0.72355,-0.23663 1.25143,-0.91013 1.25143,-1.71218v-3.88739c0,-0.99773 -0.81229,-1.81002 -1.81002,-1.81002h-0.47441c-0.99773,0 -1.81002,0.81229 -1.81002,1.81002v3.88739c0,0.80205 0.52788,1.47669 1.25029,1.71332zM239.20364,147.96759v-0.81229c0,-0.44028 0.35609,-0.79636 0.79636,-0.79636c0.44028,0 0.79636,0.35609 0.79636,0.79636v0.81115c0.72355,-0.23663 1.25143,-0.91013 1.25143,-1.71218v-3.88739c0,-0.80091 -0.52788,-1.47555 -1.25143,-1.71218v0.81229c0,0.44028 -0.35609,0.79636 -0.79636,0.79636c-0.44028,0 -0.79636,-0.35609 -0.79636,-0.79636v-0.81229c-0.72355,0.23663 -1.25143,0.91013 -1.25143,1.71218v3.88739c0,0.80205 0.52788,1.47669 1.25143,1.71332zM239.20364,160.48188v-0.81229c0,-0.44028 0.35609,-0.79636 0.79636,-0.79636c0.44028,0 0.79636,0.35609 0.79636,0.79636v0.81115c0.72355,-0.23663 1.25143,-0.91013 1.25143,-1.71218v-3.88739c0,-0.80091 -0.52788,-1.47555 -1.25143,-1.71218v0.81229c0,0.44028 -0.35609,0.79636 -0.79636,0.79636c-0.44028,0 -0.79636,-0.35609 -0.79636,-0.79636v-0.81229c-0.72355,0.23663 -1.25143,0.91013 -1.25143,1.71218v3.88739c0,0.80205 0.52788,1.47669 1.25143,1.71332zM239.20364,172.99617v-0.81229c0,-0.44028 0.35609,-0.79636 0.79636,-0.79636c0.44028,0 0.79636,0.35609 0.79636,0.79636v0.81115c0.72355,-0.23663 1.25143,-0.91013 1.25143,-1.71218v-3.88739c0,-0.80091 -0.52788,-1.47555 -1.25143,-1.71218v0.81229c0,0.44028 -0.35609,0.79636 -0.79636,0.79636c-0.44028,0 -0.79636,-0.35609 -0.79636,-0.79636v-0.81229c-0.72355,0.23663 -1.25143,0.91013 -1.25143,1.71218v3.88739c0,0.80205 0.52788,1.47669 1.25143,1.71332zM239.20364,185.51046v-0.81229c0,-0.44028 0.35609,-0.79636 0.79636,-0.79636c0.44028,0 0.79636,0.35609 0.79636,0.79636v0.81115c0.72355,-0.23663 1.25143,-0.91013 1.25143,-1.71218v-3.88739c0,-0.80091 -0.52788,-1.47555 -1.25143,-1.71218v0.81229c0,0.44028 -0.35609,0.79636 -0.79636,0.79636c-0.44028,0 -0.79636,-0.35609 -0.79636,-0.79636v-0.81229c-0.72355,0.23663 -1.25143,0.91013 -1.25143,1.71218v3.88739c0,0.80205 0.52788,1.47669 1.25143,1.71332zM237.95221,194.3683h4.09559v-1.94313c0,-0.80091 -0.52788,-1.47555 -1.25143,-1.71218v0.81229c0,0.44028 -0.35609,0.79636 -0.79636,0.79636c-0.44028,0 -0.79636,-0.35609 -0.79636,-0.79636v-0.81229c-0.72355,0.23663 -1.25143,0.91013 -1.25143,1.71218z"/></g></g></svg>