<svg version="1.1" xmlns="http://www.w3.org/2000/svg" xmlns:xlink="http://www.w3.org/1999/xlink" width="87.79878" height="87.7988" viewBox="0,0,87.79878,87.7988"><defs><linearGradient x1="201.87455" y1="180" x2="278.12548" y2="180" gradientUnits="userSpaceOnUse" id="color-1"><stop offset="0" stop-color="#83ff2f"/><stop offset="1" stop-color="#2bec46"/></linearGradient><linearGradient x1="201.87453" y1="180" x2="278.12548" y2="180" gradientUnits="userSpaceOnUse" id="color-2"><stop offset="0" stop-color="#83ff2f"/><stop offset="1" stop-color="#2bec46"/></linearGradient><linearGradient x1="201.87455" y1="198.35606" x2="278.13579" y2="198.35606" gradientUnits="userSpaceOnUse" id="color-3"><stop offset="0" stop-color="#000000" stop-opacity="0"/><stop offset="1" stop-color="#000000" stop-opacity="0.29473"/></linearGradient><linearGradient x1="227.13665" y1="179.74583" x2="267.75167" y2="179.74583" gradientUnits="userSpaceOnUse" id="color-4"><stop offset="0" stop-color="#feff00"/><stop offset="1" stop-color="#fab400"/></linearGradient></defs><g transform="translate(-196.10061,-136.1006)"><g data-paper-data="{&quot;isPaintingLayer&quot;:true}" fill-rule="nonzero" stroke-linecap="butt" stroke-linejoin="miter" stroke-miterlimit="10" stroke-dasharray="" stroke-dashoffset="0" style="mix-blend-mode: normal"><g><path d="M199.10061,180c0,-22.58811 18.31127,-40.8994 40.89939,-40.8994c22.58811,0 40.89939,18.31127 40.89939,40.8994c0,22.58811 -18.31126,40.8994 -40.89939,40.8994c-22.58811,0 -40.89939,-18.31127 -40.89939,-40.8994z" fill="none" stroke="#ffffff" stroke-width="6"/><path d="M201.87455,180c0,-21.05612 17.06934,-38.12548 38.12547,-38.12548c21.05611,0 38.12549,17.06934 38.12549,38.12549c0,21.05612 -17.06935,38.12549 -38.12548,38.12549c-21.05612,0 -38.12547,-17.06934 -38.12547,-38.12548z" fill="url(#color-1)" stroke="none" stroke-width="0"/><path d="M201.87453,180c0,-21.05612 17.06934,-38.12548 38.12547,-38.12548c21.05611,0 38.12548,17.06934 38.12548,38.12549c0,21.05612 -17.06934,38.12549 -38.12548,38.12549c-21.05612,0 -38.12547,-17.06934 -38.12547,-38.12548z" fill="none" stroke="#000000" stroke-width="6"/><path d="M201.87453,180c0,-21.05612 17.06934,-38.12548 38.12547,-38.12548c21.05611,0 38.12549,17.06934 38.12549,38.12549c0,21.05612 -17.06935,38.12549 -38.12548,38.12549c-21.05612,0 -38.12547,-17.06934 -38.12547,-38.12548z" fill="url(#color-2)" stroke="none" stroke-width="0"/><path d="M278.12548,178.45177c1.40332,22.04467 -16.03618,39.67371 -38.12548,39.67371c-21.05612,0 -38.12547,-18.91863 -38.12547,-39.97476z" fill="url(#color-3)" stroke="none" stroke-width="3"/></g><path d="M233.1949,151.07413l35.10303,26.41555c2.19175,2.4176 0.39445,4.28808 -1.57144,5.77363c-16.2828,12.30647 -27.53634,20.77446 -33.76061,25.40396c-1.01371,0.75498 -2.20978,1.17486 -3.58824,1.2597c-3.77591,-0.68711 -3.63596,-2.96475 -3.63596,-6.43847c0,-7.29313 0,-14.61911 0,-21.97796c-0.00213,-8.87517 -0.00105,-17.78745 0.00319,-26.73683c0.00319,-2.49395 0.27675,-4.44712 2.8884,-5.00698c1.59901,-0.34568 3.11957,0.09013 4.56165,1.30742zM227.28129,205.57212l0.26086,1.71142c0.01697,0.10604 0.0668,0.19086 0.14951,0.25449c1.3933,1.08156 2.77919,1.11125 4.15764,0.08906c4.80976,-3.5628 16.37612,-12.27465 34.69904,-26.13561c0.92675,-0.70195 1.29681,-1.43678 1.1102,-2.20447c-0.3075,-0.53653 -0.66803,-0.95963 -1.08156,-1.26925c-11.68511,-8.75004 -23.36069,-17.51282 -35.0267,-26.28831c-1.2438,-0.93523 -4.24036,-0.98613 -4.27216,1.22153c-0.20359,14.50884 -0.08908,35.08713 0.00319,52.62115z" fill="#000000" stroke="none" stroke-width="1"/><path d="M227.25287,205.60856c-0.09225,-17.53402 -0.20612,-38.1857 -0.00253,-52.69454c0.03181,-2.20767 3.03336,-2.16004 4.27716,-1.22481c11.66601,8.77549 23.41044,17.57432 35.09554,26.32437c0.41354,0.30962 0.77423,0.73581 1.08174,1.27234c0.18661,0.76769 -0.18362,1.50778 -1.11038,2.20972c-18.32292,13.86095 -29.95788,22.60896 -34.76764,26.17177c-1.37846,1.02219 -2.76855,0.98983 -4.16186,-0.09172c-0.0827,-0.06362 -0.13285,-0.14865 -0.14981,-0.2547l-0.26222,-1.71244z" data-paper-data="{&quot;noHover&quot;:false,&quot;origItem&quot;:[&quot;Path&quot;,{&quot;applyMatrix&quot;:true,&quot;segments&quot;:[[223.64471,202.65625],[[223.92682,204.50715],[0,0],[0.01835,0.11468]],[[224.08852,204.78238],[-0.08945,-0.06881],[1.50686,1.16971]],[[228.58502,204.8787],[-1.4908,1.10549],[5.20176,-3.85316]],[[266.11205,176.61302],[-19.81625,14.99063],[1.00228,-0.75916]],[[267.31273,174.22888],[0.20183,0.83026],[-0.33256,-0.58027]],[[266.14302,172.85619],[0.44724,0.33485],[-12.63745,-9.46318]],[[228.26163,144.42537],[12.6168,9.4907],[-1.34517,-1.01146]],[[223.64128,145.74646],[0.0344,-2.38759],[-0.22018,15.69131]],[[223.64472,202.65627],[-0.09977,-18.96306],[0,0]]],&quot;closed&quot;:true,&quot;fillColor&quot;:[0,0,0,1]}]}" fill="url(#color-4)" stroke="none" stroke-width="0.5"/><path d="M268.76871,177.41017c1.56191,1.18971 2.63073,2.04225 2.3858,4.05268c-0.35628,0.80799 -0.97341,1.54917 -1.85137,2.22356c-4.21597,3.23196 -8.45208,6.4406 -12.70834,9.6259l-14.86829,11.18781c-2.28188,1.73261 -4.57861,3.41964 -6.89018,5.06108c-1.65733,1.17381 -3.90953,2.01997 -5.45869,0.36582c1.37846,-0.08484 2.57453,-0.50472 3.58824,-1.2597c6.22428,-4.6295 17.47783,-13.0975 33.76063,-25.40396c1.96589,-1.48555 3.7632,-3.35602 1.57144,-5.77363z" fill="#45781b" stroke="none" stroke-width="1"/><path d="M267.65854,179.28699c0.18663,0.76769 -0.18345,1.50252 -1.1102,2.20447c-18.32293,13.86095 -29.88927,22.57283 -34.69904,26.13561c-1.37846,1.02219 -2.76435,0.9925 -4.15765,-0.08907c-0.0827,-0.06362 -0.13254,-0.14845 -0.14951,-0.25449l-0.26086,-1.71141c0.08694,-0.01273 0.14103,0.02969 0.16223,0.12724c-0.05938,0.19086 -0.01272,0.26403 0.13997,0.21951c1.7464,1.33923 3.22879,0.80481 4.94019,-0.45808c3.83212,-2.82691 7.64302,-5.68138 11.43274,-8.56343l22.90366,-17.2859c0.36476,-0.33083 0.63092,-0.43898 0.79846,-0.32447z" fill="#875e03" stroke="none" stroke-width="1"/></g></g></svg>