<svg version="1.1" xmlns="http://www.w3.org/2000/svg" xmlns:xlink="http://www.w3.org/1999/xlink" width="41.34522" height="44.77285" viewBox="0,0,41.34522,44.77285"><defs><linearGradient x1="238.02926" y1="159.02902" x2="238.02926" y2="196.84837" gradientUnits="userSpaceOnUse" id="color-1"><stop offset="0" stop-color="#ff98f3"/><stop offset="1" stop-color="#f23de0"/></linearGradient><linearGradient x1="239.02566" y1="177.53728" x2="239.02566" y2="195.55089" gradientUnits="userSpaceOnUse" id="color-2"><stop offset="0" stop-color="#000000" stop-opacity="0.10196"/><stop offset="1" stop-color="#000000" stop-opacity="0.4"/></linearGradient></defs><g transform="translate(-219.36555,-157.62273)"><g data-paper-data="{&quot;isPaintingLayer&quot;:true}" fill-rule="nonzero" stroke-linejoin="miter" stroke-miterlimit="10" stroke-dasharray="" stroke-dashoffset="0" style="mix-blend-mode: normal"><path d="M260.71077,163.80536c0,4.12236 0,29.54747 0,37.31251c0,1.41489 -1.29562,1.55057 -2.47518,0.9138c-7.65384,-4.13178 -30.64385,-16.54249 -34.2981,-18.51516c-0.9772,-0.52752 -0.41654,-1.67047 0.56067,-2.19798c4.17623,-2.25446 27.7906,-15.00221 34.45902,-18.60204c1.11273,-0.60069 1.7536,1.08889 1.7536,1.08889z" fill-opacity="0.42745" fill="#000000" stroke="none" stroke-width="0" stroke-linecap="butt"/><path d="M256.78995,160.87965c0,3.7479 0,26.86345 0,33.92313c0,1.28637 -1.26174,1.40972 -2.41047,0.83079c-7.45373,-3.75646 -29.84265,-15.03981 -33.40135,-16.83329c-0.95165,-0.4796 -0.40565,-1.51873 0.54601,-1.99833c4.06704,-2.04967 27.06399,-13.63945 33.55806,-16.91227c1.08363,-0.54612 1.70775,0.98997 1.70775,0.98997z" fill="url(#color-1)" stroke="none" stroke-width="0" stroke-linecap="butt"/><path d="M258.15672,159.79984c0,4.02912 0,28.48925 0,36.07867c0,1.38289 -1.53137,1.5155 -2.74808,0.89313c-7.89483,-4.03833 -31.02379,-15.58346 -34.79308,-17.51151c-1.00796,-0.51558 -0.42965,-2.41253 0.57832,-2.92812c4.30772,-2.20347 28.0807,-14.07802 34.95907,-17.59642c1.14776,-0.58709 2.00377,1.06425 2.00377,1.06425z" fill="none" stroke="#ffffff" stroke-width="2.5" stroke-linecap="butt"/><path d="M257.39644,160.8093c0,3.7479 0,26.86345 0,33.92313c0,1.28637 -1.26174,1.40972 -2.41047,0.83079c-7.45373,-3.75646 -29.84265,-15.03981 -33.40135,-16.83329c-0.95165,-0.4796 -0.40565,-1.51873 0.54601,-1.99833c4.06704,-2.04967 27.06399,-13.63945 33.55806,-16.91227c1.08363,-0.54612 1.70775,0.98997 1.70775,0.98997z" fill="#78ff00" stroke="#000000" stroke-width="2" stroke-linecap="butt"/><path d="M220.79686,177.53728h36.45762v18.01362z" fill="url(#color-2)" stroke="#000000" stroke-width="0" stroke-linecap="butt"/><path d="M221.78496,178.6546c0,0 1.80218,-0.03508 2.54256,-0.00613c0.32181,0.01259 0.93334,0.38987 1.09118,0.46865c3.02488,1.50994 30.4873,15.28523 30.4873,15.28523" fill="none" stroke-opacity="0.60392" stroke="#000000" stroke-width="2" stroke-linecap="round"/></g></g></svg>