<svg version="1.1" xmlns="http://www.w3.org/2000/svg" xmlns:xlink="http://www.w3.org/1999/xlink" width="87.79878" height="87.7988" viewBox="0,0,87.79878,87.7988"><defs><linearGradient x1="201.87455" y1="180" x2="278.12548" y2="180" gradientUnits="userSpaceOnUse" id="color-1"><stop offset="0" stop-color="#83ff2f"/><stop offset="1" stop-color="#2bec46"/></linearGradient><linearGradient x1="201.87453" y1="180" x2="278.12548" y2="180" gradientUnits="userSpaceOnUse" id="color-2"><stop offset="0" stop-color="#83ff2f"/><stop offset="1" stop-color="#2bec46"/></linearGradient><linearGradient x1="201.87455" y1="198.35606" x2="278.13579" y2="198.35606" gradientUnits="userSpaceOnUse" id="color-3"><stop offset="0" stop-color="#000000" stop-opacity="0"/><stop offset="1" stop-color="#000000" stop-opacity="0.29473"/></linearGradient><linearGradient x1="210.01095" y1="178.43849" x2="266.78596" y2="178.43849" gradientUnits="userSpaceOnUse" id="color-4"><stop offset="0" stop-color="#45ecff"/><stop offset="1" stop-color="#3bc1d9"/></linearGradient></defs><g transform="translate(-196.10061,-136.1006)"><g data-paper-data="{&quot;isPaintingLayer&quot;:true}" fill-rule="nonzero" stroke-linejoin="miter" stroke-miterlimit="10" stroke-dasharray="" stroke-dashoffset="0" style="mix-blend-mode: normal"><g stroke-linecap="butt"><path d="M199.10061,180c0,-22.58811 18.31127,-40.8994 40.89939,-40.8994c22.58811,0 40.89939,18.31127 40.89939,40.8994c0,22.58811 -18.31126,40.8994 -40.89939,40.8994c-22.58811,0 -40.89939,-18.31127 -40.89939,-40.8994z" fill="none" stroke="#ffffff" stroke-width="6"/><path d="M201.87455,180c0,-21.05612 17.06934,-38.12548 38.12547,-38.12548c21.05611,0 38.12549,17.06934 38.12549,38.12549c0,21.05612 -17.06935,38.12549 -38.12548,38.12549c-21.05612,0 -38.12547,-17.06934 -38.12547,-38.12548z" fill="url(#color-1)" stroke="none" stroke-width="0"/><path d="M201.87453,180c0,-21.05612 17.06934,-38.12548 38.12547,-38.12548c21.05611,0 38.12548,17.06934 38.12548,38.12549c0,21.05612 -17.06934,38.12549 -38.12548,38.12549c-21.05612,0 -38.12547,-17.06934 -38.12547,-38.12548z" fill="none" stroke="#000000" stroke-width="6"/><path d="M201.87453,180c0,-21.05612 17.06934,-38.12548 38.12547,-38.12548c21.05611,0 38.12549,17.06934 38.12549,38.12549c0,21.05612 -17.06935,38.12549 -38.12548,38.12549c-21.05612,0 -38.12547,-17.06934 -38.12547,-38.12548z" fill="url(#color-2)" stroke="none" stroke-width="0"/><path d="M278.12548,178.45177c1.40332,22.04467 -16.03618,39.67371 -38.12548,39.67371c-21.05612,0 -38.12547,-18.91863 -38.12547,-39.97476z" fill="url(#color-3)" stroke="none" stroke-width="3"/></g><path d="M232.49213,166.52036l8.68572,9.10942l10.8042,-8.8976l0.4237,-7.41465l4.87248,-4.02508l4.4488,3.38954l-2.96586,3.60139l0.63555,2.54217l3.17771,2.54217l5.29618,-4.0251l2.11847,2.54216l-0.21184,4.87249l-3.38955,2.96586h-6.35543l-9.10943,9.95681l17.37145,16.31223c0,0 0.34211,0.4257 0.37307,0.67349c0.03813,0.30512 -0.16123,1.02129 -0.16123,1.02129l-4.23695,4.44878c0,0 -1.12268,0.45396 -1.66429,0.45396c-0.51645,0 -1.51342,-0.45396 -1.51342,-0.45396l-16.31223,-16.52407l-8.05019,7.20281l-0.42369,8.05019l-5.50803,3.17771l-1.90661,0.21185l-2.96586,-3.38955l4.02511,-4.23695l-4.44878,-5.08431l-3.6014,2.96586l-2.54216,0.21184l-1.48293,-3.1777v-2.33032l4.23695,-4.02509l6.3554,-0.21184l8.26203,-8.05019l-0.63556,-1.2711l-8.26202,-8.47388l-3.6014,2.96586v3.81325l-2.75401,2.11847l-2.33032,-0.63555l-5.93171,-6.7791c0,0 1.8428,-3.26032 2.31176,-4.09004c0.2051,-0.3629 0.53853,-0.49357 0.53853,-0.49357c0,0 0.27502,-0.14964 0.50528,-0.06329c0.31038,0.11639 1.09321,0.40996 1.09321,0.40996l13.55821,-13.13451l6.7791,-0.42369l2.96586,1.27109l1.90661,1.90662v1.69478l-5.50803,1.69476l-4.66064,5.08432l-2.54215,0.63555l-1.05923,1.05923l-1.27109,3.17771" fill="#40b312" stroke="#000000" stroke-width="0" stroke-linecap="round"/><path d="M229.28903,163.39734l8.68572,9.10941l10.8042,-8.89759l0.4237,-7.41465l4.87248,-4.02509l4.4488,3.38955l-2.96586,3.60139l0.63556,2.54217l3.17771,2.54215l5.29618,-4.02508l2.11847,2.54216l-0.21184,4.87249l-3.38955,2.96586h-6.35543l-9.10942,9.9568l17.37146,16.31223c0,0 0.34211,0.42571 0.37307,0.67349c0.03813,0.30512 -0.16123,1.02129 -0.16123,1.02129l-4.23693,4.44878c0,0 -1.12269,0.45396 -1.66429,0.45396c-0.51647,0 -1.51343,-0.45396 -1.51343,-0.45396l-16.31223,-16.52407l-8.05019,7.20279l-0.42369,8.05019l-5.50803,3.17771l-1.90661,0.21185l-2.96586,-3.38955l4.0251,-4.23695l-4.44877,-5.08432l-3.6014,2.96586l-2.54216,0.21185l-1.48294,-3.17771v-2.33032l4.23695,-4.0251l6.3554,-0.21185l8.26204,-8.05019l-0.63556,-1.27109l-8.26201,-8.47388l-3.6014,2.96586v3.81326l-2.75401,2.11847l-2.33032,-0.63556l-5.93171,-6.7791c0,0 1.8428,-3.26032 2.31176,-4.09003c0.2051,-0.3629 0.53854,-0.49358 0.53854,-0.49358c0,0 0.27502,-0.14963 0.50528,-0.06328c0.31038,0.11639 1.09321,0.40996 1.09321,0.40996l13.55821,-13.1345l6.7791,-0.42369l2.96586,1.27109l1.90661,1.90661v1.69478l-5.50803,1.69477l-4.66064,5.08432l-2.54215,0.63555l-1.05922,1.05923l-1.2711,3.1777" fill="url(#color-4)" stroke="#000000" stroke-width="1" stroke-linecap="round"/><path d="M226.21227,167.47107l0.72073,-1.78177l0.90087,-0.90088l0.65067,-0.06007" fill="none" stroke="#45e9ff" stroke-width="1" stroke-linecap="round"/><path d="M222.29208,156.40726l-4.91386,4.91386" fill="none" stroke="#000000" stroke-width="1" stroke-linecap="round"/></g></g></svg>