<svg version="1.1" xmlns="http://www.w3.org/2000/svg" xmlns:xlink="http://www.w3.org/1999/xlink" width="32.00053" height="65.22214" viewBox="0,0,32.00053,65.22214"><g transform="translate(-223.52474,-147.38893)"><g data-paper-data="{&quot;isPaintingLayer&quot;:true}" fill-rule="nonzero" stroke-linecap="butt" stroke-linejoin="miter" stroke-miterlimit="10" stroke-dasharray="" stroke-dashoffset="0" style="mix-blend-mode: normal"><g><path d="M246.80321,182.5294v-5.49489h8.72206v5.49489z" fill="#000000" stroke="none" stroke-width="0"/><path d="M225.34694,182.5294v-5.49489h4.79713v5.49489z" fill="#000000" stroke="none" stroke-width="0"/><path d="M226.04471,175.72619v-5.49489h4.79713v5.49489z" fill="#000000" stroke="none" stroke-width="0"/><path d="M227.2658,168.66132v-5.23323h4.79713v5.23323z" fill="#000000" stroke="none" stroke-width="0"/><path d="M229.18465,162.38144v-4.44825h4.79713v4.44825z" fill="#000000" stroke="none" stroke-width="0"/><path d="M230.84184,157.06099v-3.05272h4.79713v3.05272z" fill="#000000" stroke="none" stroke-width="0"/><path d="M246.10544,175.46453v-5.05879h8.72206v5.05879z" fill="#000000" stroke="none" stroke-width="0"/><path d="M244.97157,169.09743v-5.23323h8.72206v5.23323z" fill="#000000" stroke="none" stroke-width="0"/><path d="M242.44217,162.38144v-4.36103h8.72206v4.36103z" fill="#000000" stroke="none" stroke-width="0"/><path d="M240.34888,157.06099v-2.70383h8.72206v2.70383z" fill="#000000" stroke="none" stroke-width="0"/><path d="M237.4706,153.39772v-2.0933h8.72206v2.0933z" fill="#000000" stroke="none" stroke-width="0"/><path d="M233.72012,150.7811v-1.39553h8.72206v1.39553z" fill="#000000" stroke="none" stroke-width="0"/><path d="M246.10544,189.07093v-5.05879h8.72206v5.05879z" fill="#000000" stroke="none" stroke-width="0"/><path d="M244.97157,195.61248v-5.23323h8.72206v5.23323z" fill="#000000" stroke="none" stroke-width="0"/><path d="M242.44217,201.45626v-4.36103h8.72206v4.36103z" fill="#000000" stroke="none" stroke-width="0"/><path d="M240.34888,205.11953v-2.70383h8.72206v2.70383z" fill="#000000" stroke="none" stroke-width="0"/><path d="M237.4706,208.17225v-2.0933h8.72206v2.0933z" fill="#000000" stroke="none" stroke-width="0"/><path d="M233.72012,210.0911v-1.39553h8.72206v1.39553z" fill="#000000" stroke="none" stroke-width="0"/><path d="M226.04471,189.3326v-5.49489h4.79713v5.49489z" fill="#000000" stroke="none" stroke-width="0"/><path d="M227.2658,195.96137v-5.23323h4.79713v5.23323z" fill="#000000" stroke="none" stroke-width="0"/><path d="M229.18465,201.54348v-4.44825h4.79713v4.44825z" fill="#000000" stroke="none" stroke-width="0"/><path d="M230.84184,205.46841v-3.05272h4.79713v3.05272z" fill="#000000" stroke="none" stroke-width="0"/><path d="M235.63897,154.00826c-4.18659,0 -7.67542,11.60034 -7.67542,25.90452c0,14.30418 3.4016,25.90452 7.67542,25.90452c4.27381,0 7.67542,-11.60034 7.67542,-25.90452c0,-14.30418 -3.4016,-25.90452 -7.67542,-25.90452zM246.89043,179.91278c0,17.44412 -4.97157,31.66107 -11.16423,31.66107c-6.19266,0 -11.25146,-14.12974 -11.25146,-31.57385c0,-17.44412 5.05879,-31.66107 11.25146,-31.66107c6.19266,0 11.16423,14.12974 11.16423,31.66107v0z" fill="#ffed48" stroke="none" stroke-width="0"/><path d="M246.89043,180c0,17.44412 -4.97157,31.66107 -11.16423,31.66107c-6.19266,0 -11.25146,-14.21695 -11.25146,-31.66107c0,-17.44412 5.05879,-31.66107 11.25146,-31.66107c6.19266,0 11.16423,14.12974 11.16423,31.66107z" fill="none" stroke="#fffecc" stroke-width="1.9"/></g></g></g></svg>