<svg version="1.1" xmlns="http://www.w3.org/2000/svg" xmlns:xlink="http://www.w3.org/1999/xlink" width="484.45369" height="314.81347" viewBox="0,0,484.45369,314.81347"><g transform="translate(2.22685,-22.46154)"><g data-paper-data="{&quot;isPaintingLayer&quot;:true}" fill-rule="nonzero" stroke-linecap="butt" stroke-linejoin="miter" stroke-miterlimit="10" stroke-dasharray="" stroke-dashoffset="0" style="mix-blend-mode: normal"><path d="M31.99999,336.27501l16,-28.6l16,28.6z" fill="#000000" stroke="#fffee0" stroke-width="2"/><path d="M-0.00001,336.27501l16,-28.6l16,28.6z" fill="#000000" stroke="#fffee0" stroke-width="2"/><path d="M95.99999,336.27501l16,-28.6l16,28.6z" fill="#000000" stroke="#fffee0" stroke-width="2"/><path d="M63.99999,336.27501l16,-28.6l16,28.6z" fill="#000000" stroke="#fffee0" stroke-width="2"/><path d="M159.99999,336.27501l16,-28.6l16,28.6z" fill="#000000" stroke="#fffee0" stroke-width="2"/><path d="M127.99999,336.27501l16,-28.6l16,28.6z" fill="#000000" stroke="#fffee0" stroke-width="2"/><path d="M223.99999,336.27501l16,-28.6l16,28.6z" fill="#000000" stroke="#fffee0" stroke-width="2"/><path d="M191.99999,336.27501l16,-28.6l16,28.6z" fill="#000000" stroke="#fffee0" stroke-width="2"/><path d="M287.99999,336.27501l16,-28.6l16,28.6z" fill="#000000" stroke="#fffee0" stroke-width="2"/><path d="M255.99999,336.27501l16,-28.6l16,28.6z" fill="#000000" stroke="#fffee0" stroke-width="2"/><path d="M351.99999,336.27501l16,-28.6l16,28.6z" fill="#000000" stroke="#fffee0" stroke-width="2"/><path d="M319.99999,336.27501l16,-28.6l16,28.6z" fill="#000000" stroke="#fffee0" stroke-width="2"/><path d="M415.99999,336.27501l16,-28.6l16,28.6z" fill="#000000" stroke="#fffee0" stroke-width="2"/><path d="M383.99999,336.27501l16,-28.6l16,28.6z" fill="#000000" stroke="#fffee0" stroke-width="2"/><path d="M447.99999,336.27501l16,-28.6l16,28.6z" fill="#000000" stroke="#fffee0" stroke-width="2"/><path d="M31.99999,273.27501l16,-18l16,18z" fill="#000000" stroke="#fffee0" stroke-width="2"/><path d="M-0.00001,273.27501l16,-18l16,18z" fill="#000000" stroke="#fffee0" stroke-width="2"/><path d="M95.99999,273.27501l16,-18l16,18z" fill="#000000" stroke="#fffee0" stroke-width="2"/><path d="M63.99999,273.27501l16,-18l16,18z" fill="#000000" stroke="#fffee0" stroke-width="2"/><path d="M159.99999,273.27501l16,-18l16,18z" fill="#000000" stroke="#fffee0" stroke-width="2"/><path d="M127.99999,273.27501l16,-18l16,18z" fill="#000000" stroke="#fffee0" stroke-width="2"/><path d="M223.99999,273.27501l16,-18l16,18z" fill="#000000" stroke="#fffee0" stroke-width="2"/><path d="M191.99999,273.27501l16,-18l16,18z" fill="#000000" stroke="#fffee0" stroke-width="2"/><path d="M287.99999,273.27501l16,-18l16,18z" fill="#000000" stroke="#fffee0" stroke-width="2"/><path d="M255.99999,273.27501l16,-18l16,18z" fill="#000000" stroke="#fffee0" stroke-width="2"/><path d="M351.99999,273.27501l16,-18l16,18z" fill="#000000" stroke="#fffee0" stroke-width="2"/><path d="M319.99999,273.27501l16,-18l16,18z" fill="#000000" stroke="#fffee0" stroke-width="2"/><path d="M415.99999,273.27501l16,-18l16,18z" fill="#000000" stroke="#fffee0" stroke-width="2"/><path d="M383.99999,273.27501l16,-18l16,18z" fill="#000000" stroke="#fffee0" stroke-width="2"/><path d="M447.99999,273.27501l16,-18l16,18z" fill="#000000" stroke="#fffee0" stroke-width="2"/><path d="M63.99999,191.87501v-14.2h32v14.2z" fill="#000000" stroke="#ffffff" stroke-width="2"/><path d="M31.99999,191.87501v-14.2h32v14.2z" fill="#000000" stroke="#ffffff" stroke-width="2"/><path d="M95.99999,191.87501v-14.2h32v14.2z" fill="#000000" stroke="#ffffff" stroke-width="2"/><path d="M127.99999,191.87501v-14.2h32v14.2z" fill="#000000" stroke="#ffffff" stroke-width="2"/><path d="M-0.00001,191.87501v-14.2h32v14.2z" fill="#000000" stroke="#ffffff" stroke-width="2"/><path d="M223.99999,191.87501v-14.2h32v14.2z" fill="#000000" stroke="#ffffff" stroke-width="2"/><path d="M191.99999,191.87501v-14.2h32v14.2z" fill="#000000" stroke="#ffffff" stroke-width="2"/><path d="M255.99999,191.87501v-14.2h32v14.2z" fill="#000000" stroke="#ffffff" stroke-width="2"/><path d="M287.99999,191.87501v-14.2h32v14.2z" fill="#000000" stroke="#ffffff" stroke-width="2"/><path d="M159.99999,191.87501v-14.2h32v14.2z" fill="#000000" stroke="#ffffff" stroke-width="2"/><path d="M383.99999,191.87501v-14.2h32v14.2z" fill="#000000" stroke="#ffffff" stroke-width="2"/><path d="M351.99999,191.87501v-14.2h32v14.2z" fill="#000000" stroke="#ffffff" stroke-width="2"/><path d="M415.99999,191.87501v-14.2h32v14.2z" fill="#000000" stroke="#ffffff" stroke-width="2"/><path d="M447.99999,191.87501v-14.2h32v14.2z" fill="#000000" stroke="#ffffff" stroke-width="2"/><path d="M319.99999,191.87501v-14.2h32v14.2z" fill="#000000" stroke="#ffffff" stroke-width="2"/><path d="M223.79999,137.57501c-1.4,1.1 -28.7,0.9 -29.6,0c0,-4.1 6.6,-7.4 14.8,-7.4c8.2,0 14.8,3.3 14.8,7.4z" fill="#fbff00" stroke="#fffede" stroke-width="1.9"/><g><path d="M283.69999,68.16592v-6.3h10v6.3z" fill="#000000" stroke="none" stroke-width="0"/><path d="M259.19999,68.16592v-6.3h5.5v6.3z" fill="#000000" stroke="none" stroke-width="0"/><path d="M259.89999,60.36592v-6.3h5.5v6.3z" fill="#000000" stroke="none" stroke-width="0"/><path d="M261.39999,52.26592v-6h5.5v6z" fill="#000000" stroke="none" stroke-width="0"/><path d="M263.49999,45.06592v-5.1h5.5v5.1z" fill="#000000" stroke="none" stroke-width="0"/><path d="M265.39999,38.96592v-3.5h5.5v3.5z" fill="#000000" stroke="none" stroke-width="0"/><path d="M282.99999,60.06592v-5.8h10v5.8z" fill="#000000" stroke="none" stroke-width="0"/><path d="M281.59999,52.76592v-6h10v6z" fill="#000000" stroke="none" stroke-width="0"/><path d="M278.69999,45.06592v-5h10v5z" fill="#000000" stroke="none" stroke-width="0"/><path d="M276.29999,38.96592v-3.1h10v3.1z" fill="#000000" stroke="none" stroke-width="0"/><path d="M272.99999,34.76592v-2.4h10v2.4z" fill="#000000" stroke="none" stroke-width="0"/><path d="M268.69999,31.76592v-1.6h10v1.6z" fill="#000000" stroke="none" stroke-width="0"/><path d="M282.99999,75.66592v-5.8h10v5.8z" fill="#000000" stroke="none" stroke-width="0"/><path d="M281.59999,83.16592v-6h10v6z" fill="#000000" stroke="none" stroke-width="0"/><path d="M278.69999,89.86592v-5h10v5z" fill="#000000" stroke="none" stroke-width="0"/><path d="M276.29999,94.06592v-3.1h10v3.1z" fill="#000000" stroke="none" stroke-width="0"/><path d="M272.99999,97.56592v-2.4h10v2.4z" fill="#000000" stroke="none" stroke-width="0"/><path d="M268.69999,99.76592v-1.6h10v1.6z" fill="#000000" stroke="none" stroke-width="0"/><path d="M259.89999,75.96592v-6.3h5.5v6.3z" fill="#000000" stroke="none" stroke-width="0"/><path d="M261.39999,83.56592v-6h5.5v6z" fill="#000000" stroke="none" stroke-width="0"/><path d="M263.49999,89.96592v-5.1h5.5v5.1z" fill="#000000" stroke="none" stroke-width="0"/><path d="M265.39999,94.46592v-3.5h5.5v3.5z" fill="#000000" stroke="none" stroke-width="0"/><path d="M270.99999,35.46592c-4.8,0 -8.8,13.3 -8.8,29.7c0,16.4 3.9,29.7 8.8,29.7c4.9,0 8.8,-13.3 8.8,-29.7c0,-16.4 -3.9,-29.7 -8.8,-29.7zM283.79999,65.16592c0,20 -5.7,36.3 -12.8,36.3c-7.1,0 -12.9,-16.2 -12.9,-36.2c0,-20 5.8,-36.3 12.9,-36.3c7.1,0 12.8,16.2 12.8,36.3v0z" fill="#69f4ff" stroke="none" stroke-width="0"/><path d="M283.79999,65.26592c0,20 -5.7,36.3 -12.8,36.3c-7.1,0 -12.9,-16.3 -12.9,-36.3c0,-20 5.8,-36.3 12.9,-36.3c7.1,0 12.8,16.2 12.8,36.3z" fill="none" stroke="#e9fcff" stroke-width="1.9"/></g><g><path d="M155.39999,97.71154v0c0.9,1.1 -1,1.7 -1.3,2.4c-0.2,0.5 -0.7,0.8 -1.2,0.8h-17.9c-11.7,-8.5 -12,-24.3 -12,-34.8c0,-10.5 -0.9,-30.5 12.6,-35.6c8,0 9.8,0.2 17.9,0.2c-1.1,0.3 -3.3,0.6 -4.2,1.2c-0.9,0 -0.5,0 -0.7,0c-4.1,5 -4.1,7.4 -4.1,7.4l0.7,0.2h-1.3c-0.4,0.9 -0.6,1.3 -0.9,2.3h4.1c0.2,-0.6 0.2,-0.9 0.4,-1.3l-0.9,1.3c-2.9,8 0.7,16.6 0.7,24.1c0,7.5 -2.8,14.7 -0.4,21.4v1.4c-0.2,-0.1 -0.2,-0.2 -0.2,-0.4c-1.6,0.2 -2.4,0.2 -4.1,0.2c0.3,0.9 0.5,1.3 0.9,2.2h0.2c0.2,0.9 1.1,3.3 3.9,6.9h7.8zM141.09999,83.01154v0c1.6,0 2.4,0 4.1,0c-0.1,-1 -0.1,-1.4 -0.3,-2.4c-1.6,0 -2.4,0 -4.1,0c0.2,1 0.2,1.4 0.4,2.4zM140.09999,59.21154v0h4.2c0,-1 0,-1.5 0,-2.6h-4.1c0,1 0,1.6 0,2.6zM140.09999,64.91154v2.2h4.2v-2.2zM140.69999,39.61154h-4.1c-0.4,0.9 -0.6,1.3 -0.9,2.3h4.1c0.3,-0.9 0.5,-1.4 0.9,-2.3zM134.19999,47.81154c-0.2,1 -0.2,1.5 -0.4,2.6h4.1c0.2,-1 0.2,-1.5 0.4,-2.6zM133.09999,56.61154c0,1 0,1.6 0,2.6h4.2c0,-1 0,-1.5 0,-2.6zM132.89999,64.91154v2.2h4.2v-2.2zM132.99999,72.61154c0,0.9 0,1.4 0,2.4h4.1c0,-1 0,-1.4 0,-2.4zM137.79999,80.61154v0c-1.6,0 -2.4,0 -4.1,0c0.2,1 0.2,1.5 0.4,2.5c1.6,0 2.4,0 4.1,0c-0.2,-0.9 -0.2,-1.4 -0.4,-2.4zM135.49999,88.81154c0.3,0.9 0.5,1.3 0.9,2.2c1.6,-0.2 2.4,-0.2 4.1,-0.2c-0.4,-0.8 -0.6,-1.3 -0.9,-2.2c-1.6,0.2 -2.4,0.2 -4.1,0.2zM144.19999,75.01154c0,-1 0,-1.5 0,-2.4h-4.1c0,1 0,1.4 0,2.4zM141.19999,47.91154c-0.2,1 -0.2,1.5 -0.4,2.6h4.1c0.2,-1 0.2,-1.5 0.4,-2.6zM139.19999,34.91154h4.1c0.5,-0.8 0.8,-1.1 1.5,-1.7h-4.1c-0.7,0.6 -0.9,1 -1.5,1.7zM131.99999,34.91154h4.1c0.6,-0.8 0.8,-1.1 1.5,-1.7h-4.1c-0.7,0.6 -0.9,1 -1.5,1.7zM128.29999,41.91154h4.1c0.3,-0.9 0.5,-1.4 0.9,-2.3h-4.1c-0.4,0.9 -0.6,1.3 -0.9,2.3zM126.39999,50.41154h4.1c0.2,-1 0.2,-1.5 0.4,-2.6h-4.1c-0.2,1 -0.2,1.5 -0.4,2.6zM125.79999,56.61154v0c-0.2,1 -0.2,1.6 -0.2,2.6h4.2c0.2,-1 0.2,-1.5 0.2,-2.6h-4.1zM125.59999,67.11154h4.2v-2.2h-4.2c0,0.9 0,1.3 0,2.2zM125.79999,72.51154v0c0.2,1 0.2,1.5 0.2,2.5h4.1c-0.2,-0.9 -0.2,-1.4 -0.2,-2.4h-4.1zM126.89999,83.31154c1.6,0 2.4,0 4.1,0c-0.2,-1 -0.2,-1.5 -0.4,-2.5c-1.6,0 -2.4,0 -4.1,0c0.2,1 0.2,1.5 0.4,2.5zM128.49999,88.81154v0c0.3,1 0.5,1.4 0.9,2.3c1.6,-0.2 2.4,-0.2 4.1,-0.2c-0.4,-0.8 -0.6,-1.3 -0.9,-2.2c-1.6,0.2 -2.4,0.2 -4.1,0.2zM133.59999,97.91154v0c1.6,0 2.4,0 4.1,0c-0.7,-0.7 -0.9,-1.2 -1.5,-1.9c-1.6,0.2 -2.4,0.2 -4.1,0.2c0.6,0.7 0.8,1.1 1.5,1.8zM140.69999,97.61154v0c1.6,0 2.4,0 4.1,0c-0.7,-0.7 -1,-1.1 -1.6,-1.9c-1.6,0.2 -2.4,0.2 -4.1,0.2c0.5,0.8 0.8,1.2 1.5,1.9z" fill="#000000" stroke="none" stroke-width="0"/><path d="M143.09999,26.01154c0,-1.71208 1.38792,-3.1 3.1,-3.1c1.71208,0 3.1,1.38792 3.1,3.1c0,1.71208 -1.38792,3.1 -3.1,3.1c-1.71208,0 -3.1,-1.38792 -3.1,-3.1z" fill="#2bff50" stroke="#e1ffe5" stroke-width="0.9"/><path d="M143.09999,106.01154c0,-1.71208 1.38792,-3.1 3.1,-3.1c1.71208,0 3.1,1.38792 3.1,3.1c0,1.71208 -1.38792,3.1 -3.1,3.1c-1.71208,0 -3.1,-1.38792 -3.1,-3.1z" fill="#2bff50" stroke="#e1ffe5" stroke-width="0.9"/><path d="M165.99999,66.11154v0c0,18.3 -3.1,28.9 -10.5,35.1h-17.8c8.5,-10.6 10.3,-22.4 10.3,-35.4c0,-13 -1.5,-25.3 -10.3,-35.4h17.8c6.9,5.8 10.5,17.4 10.5,35.6zM163.59999,63.41154v0c-0.1,-2.5 -0.3,-5 -0.5,-7.4h-3.1c0.3,2.4 0.5,4.9 0.5,7.3h3.1zM162.39999,51.21154v0c-0.4,-2.4 -1,-4.8 -1.7,-7.1h-3.1c0.7,2.3 1.3,4.6 1.7,7h3.1zM151.49999,34.91154h-3.1c0.8,1.3 1.6,2.8 2.3,4.3h3.1c-0.6,-1.5 -1.4,-2.9 -2.3,-4.3zM155.69999,44.11154h-3.1c0.7,2.3 1.3,4.6 1.6,6.9h3.1c-0.5,-2.3 -1,-4.7 -1.7,-6.9zM154.79999,56.01154c0.2,2.4 0.4,4.9 0.4,7.3h3.1c0,-2.4 -0.2,-4.9 -0.4,-7.3zM152.79999,56.11154v0h-3.1c0.1,2.4 0.3,4.8 0.3,7.2h3.1c-0.1,-2.5 -0.2,-4.9 -0.4,-7.3zM149.69999,75.21154h3.1c0.2,-2.3 0.2,-4.6 0.2,-6.8h-3.1c0,2.3 0,4.6 -0.2,6.8zM154.39999,79.61154v0c-0.3,2.3 -0.8,4.7 -1.5,6.8h3.1c0.7,-2.2 1.2,-4.5 1.5,-6.7h-3.1zM154.89999,75.01154h3.1c0.2,-2.2 0.2,-4.5 0.2,-6.7h-3.1c0,2.3 0,4.6 -0.2,6.8zM155.69999,39.21154h3.1c-0.5,-1.5 -1.4,-2.9 -2.2,-4.3h-3.1c0.9,1.3 1.6,2.8 2.3,4.3zM145.39999,39.21154h3.1c-0.6,-1.5 -1.4,-3 -2.3,-4.3h-3.1c0.9,1.3 1.7,2.8 2.4,4.3zM147.49999,44.41154v0c0.7,2.3 1.2,4.6 1.5,6.8h3.1c-0.4,-2.4 -0.9,-4.7 -1.6,-6.9h-3.1zM147.69999,86.51154h3.1c0.7,-2.2 1.2,-4.6 1.5,-6.8h-3.1c-0.3,2.3 -0.8,4.7 -1.5,6.8zM142.29999,97.51154h3.1c1.4,-2.1 2.6,-4.1 3.6,-6.3h-3.1M150.79999,97.51154c1.3,-2.1 2.5,-4.1 3.5,-6.3h-3.1c-1,2.2 -2.3,4.2 -3.6,6.3zM159.39999,91.31154h-3.1c-1,2.1 -2.2,4.1 -3.5,6.2h3.1c1.4,-2 2.5,-4.1 3.5,-6.2zM161.19999,86.31154v0c0.7,-2.1 1.2,-4.4 1.5,-6.6h-3.1c-0.3,2.2 -0.8,4.6 -1.5,6.7h3.1zM163.19999,75.11154c0.2,-2.2 0.2,-4.5 0.2,-6.7h-3.1c0,2.2 0,4.5 -0.2,6.7z" fill="#000000" stroke="none" stroke-width="0"/><path d="M134.89999,36.11154c-4.8,0 -8.8,13.3 -8.8,29.7c0,16.4 3.9,29.7 8.8,29.7c4.9,0 8.8,-13.3 8.8,-29.7c0,-16.4 -3.9,-29.7 -8.8,-29.7zM147.79999,65.81154c0,20 -5.7,36.3 -12.8,36.3c-7.1,0 -12.9,-16.2 -12.9,-36.2c0,-20 5.8,-36.3 12.9,-36.3c7.1,0 12.8,16.2 12.8,36.3v0z" fill="#2bff50" stroke="none" stroke-width="0"/><path d="M147.79999,65.91154c0,20 -5.7,36.3 -12.8,36.3c-7.1,0 -12.9,-16.3 -12.9,-36.3c0,-20 5.8,-36.3 12.9,-36.3c7.1,0 12.8,16.2 12.8,36.3z" fill="none" stroke="#e1ffe5" stroke-width="1.9"/><path d="M154.79999,82.71154c0,-1.71208 1.38792,-3.1 3.1,-3.1c1.71208,0 3.1,1.38792 3.1,3.1c0,1.71208 -1.38792,3.1 -3.1,3.1c-1.71208,0 -3.1,-1.38792 -3.1,-3.1z" fill="#2bff50" stroke="#e1ffe5" stroke-width="0.9"/><path d="M154.79999,48.41154c0,-1.71208 1.38792,-3.1 3.1,-3.1c1.71208,0 3.1,1.38792 3.1,3.1c0,1.71208 -1.38792,3.1 -3.1,3.1c-1.71208,0 -3.1,-1.38792 -3.1,-3.1z" fill="#2bff50" stroke="#e1ffe5" stroke-width="0.9"/></g><g><path d="M91.39999,97.97501v0c0.9,1.1 -1,1.7 -1.3,2.4c-0.2,0.5 -0.7,0.8 -1.2,0.8h-17.9c-11.7,-8.5 -12,-24.3 -12,-34.8c0,-10.5 -0.9,-30.5 12.6,-35.6c8,0 9.8,0.2 17.9,0.2c-1.1,0.3 -3.3,0.6 -4.2,1.2c-0.9,0 -0.5,0 -0.7,0c-4.1,5 -4.1,7.4 -4.1,7.4l0.7,0.2h-1.3c-0.4,0.9 -0.6,1.3 -0.9,2.3h4.1c0.2,-0.6 0.2,-0.9 0.4,-1.3l-0.9,1.3c-2.9,8 0.7,16.6 0.7,24.1c0,7.5 -2.8,14.7 -0.4,21.4v1.4c-0.2,-0.1 -0.2,-0.2 -0.2,-0.4c-1.6,0.2 -2.4,0.2 -4.1,0.2c0.3,0.9 0.5,1.3 0.9,2.2h0.2c0.2,0.9 1.1,3.3 3.9,6.9h7.8zM77.09999,83.27501v0c1.6,0 2.4,0 4.1,0c-0.1,-1 -0.1,-1.4 -0.3,-2.4c-1.6,0 -2.4,0 -4.1,0c0.2,1 0.2,1.4 0.4,2.4zM76.09999,59.47501v0h4.2c0,-1 0,-1.5 0,-2.6h-4.1c0,1 0,1.6 0,2.6zM76.09999,65.17501v2.2h4.2v-2.2zM76.69999,39.87501h-4.1c-0.4,0.9 -0.6,1.3 -0.9,2.3h4.1c0.3,-0.9 0.5,-1.4 0.9,-2.3zM70.19999,48.07501c-0.2,1 -0.2,1.5 -0.4,2.6h4.1c0.2,-1 0.2,-1.5 0.4,-2.6zM69.09999,56.87501c0,1 0,1.6 0,2.6h4.2c0,-1 0,-1.5 0,-2.6zM68.89999,65.17501v2.2h4.2v-2.2zM68.99999,72.87501c0,0.9 0,1.4 0,2.4h4.1c0,-1 0,-1.4 0,-2.4zM73.79999,80.87501v0c-1.6,0 -2.4,0 -4.1,0c0.2,1 0.2,1.5 0.4,2.5c1.6,0 2.4,0 4.1,0c-0.2,-0.9 -0.2,-1.4 -0.4,-2.4zM71.49999,89.07501c0.3,0.9 0.5,1.3 0.9,2.2c1.6,-0.2 2.4,-0.2 4.1,-0.2c-0.4,-0.8 -0.6,-1.3 -0.9,-2.2c-1.6,0.2 -2.4,0.2 -4.1,0.2zM80.19999,75.27501c0,-1 0,-1.5 0,-2.4h-4.1c0,1 0,1.4 0,2.4zM77.19999,48.17501c-0.2,1 -0.2,1.5 -0.4,2.6h4.1c0.2,-1 0.2,-1.5 0.4,-2.6zM75.19999,35.17501h4.1c0.5,-0.8 0.8,-1.1 1.5,-1.7h-4.1c-0.7,0.6 -0.9,1 -1.5,1.7zM67.99999,35.17501h4.1c0.6,-0.8 0.8,-1.1 1.5,-1.7h-4.1c-0.7,0.6 -0.9,1 -1.5,1.7zM64.29999,42.17501h4.1c0.3,-0.9 0.5,-1.4 0.9,-2.3h-4.1c-0.4,0.9 -0.6,1.3 -0.9,2.3zM62.39999,50.67501h4.1c0.2,-1 0.2,-1.5 0.4,-2.6h-4.1c-0.2,1 -0.2,1.5 -0.4,2.6zM61.79999,56.87501v0c-0.2,1 -0.2,1.6 -0.2,2.6h4.2c0.2,-1 0.2,-1.5 0.2,-2.6h-4.1zM61.59999,67.37501h4.2v-2.2h-4.2c0,0.9 0,1.3 0,2.2zM61.79999,72.77501v0c0.2,1 0.2,1.5 0.2,2.5h4.1c-0.2,-0.9 -0.2,-1.4 -0.2,-2.4h-4.1zM62.89999,83.57501c1.6,0 2.4,0 4.1,0c-0.2,-1 -0.2,-1.5 -0.4,-2.5c-1.6,0 -2.4,0 -4.1,0c0.2,1 0.2,1.5 0.4,2.5zM64.49999,89.07501v0c0.3,1 0.5,1.4 0.9,2.3c1.6,-0.2 2.4,-0.2 4.1,-0.2c-0.4,-0.8 -0.6,-1.3 -0.9,-2.2c-1.6,0.2 -2.4,0.2 -4.1,0.2zM69.59999,98.17501v0c1.6,0 2.4,0 4.1,0c-0.7,-0.7 -0.9,-1.2 -1.5,-1.9c-1.6,0.2 -2.4,0.2 -4.1,0.2c0.6,0.7 0.8,1.1 1.5,1.8zM76.69999,97.87501v0c1.6,0 2.4,0 4.1,0c-0.7,-0.7 -1,-1.1 -1.6,-1.9c-1.6,0.2 -2.4,0.2 -4.1,0.2c0.5,0.8 0.8,1.2 1.5,1.9z" fill="#000000" stroke="none" stroke-width="0"/><path d="M79.09999,26.27501c0,-1.71208 1.38792,-3.1 3.1,-3.1c1.71208,0 3.1,1.38792 3.1,3.1c0,1.71208 -1.38792,3.1 -3.1,3.1c-1.71208,0 -3.1,-1.38792 -3.1,-3.1z" fill="#ff77ff" stroke="#fee6ff" stroke-width="0.9"/><path d="M79.09999,106.27501c0,-1.71208 1.38792,-3.1 3.1,-3.1c1.71208,0 3.1,1.38792 3.1,3.1c0,1.71208 -1.38792,3.1 -3.1,3.1c-1.71208,0 -3.1,-1.38792 -3.1,-3.1z" fill="#ff77ff" stroke="#fee6ff" stroke-width="0.9"/><path d="M101.99999,66.37501v0c0,18.3 -3.1,28.9 -10.5,35.1h-17.8c8.5,-10.6 10.3,-22.4 10.3,-35.4c0,-13 -1.5,-25.3 -10.3,-35.4h17.8c6.9,5.8 10.5,17.4 10.5,35.6zM99.59999,63.67501v0c-0.1,-2.5 -0.3,-5 -0.5,-7.4h-3.1c0.3,2.4 0.5,4.9 0.5,7.3h3.1zM98.39999,51.47501v0c-0.4,-2.4 -1,-4.8 -1.7,-7.1h-3.1c0.7,2.3 1.3,4.6 1.7,7h3.1zM87.49999,35.17501h-3.1c0.8,1.3 1.6,2.8 2.3,4.3h3.1c-0.6,-1.5 -1.4,-2.9 -2.3,-4.3zM91.69999,44.37501h-3.1c0.7,2.3 1.3,4.6 1.6,6.9h3.1c-0.5,-2.3 -1,-4.7 -1.7,-6.9zM90.79999,56.27501c0.2,2.4 0.4,4.9 0.4,7.3h3.1c0,-2.4 -0.2,-4.9 -0.4,-7.3zM88.79999,56.37501v0h-3.1c0.1,2.4 0.3,4.8 0.3,7.2h3.1c-0.1,-2.5 -0.2,-4.9 -0.4,-7.3zM85.69999,75.47501h3.1c0.2,-2.3 0.2,-4.6 0.2,-6.8h-3.1c0,2.3 0,4.6 -0.2,6.8zM90.39999,79.87501v0c-0.3,2.3 -0.8,4.7 -1.5,6.8h3.1c0.7,-2.2 1.2,-4.5 1.5,-6.7h-3.1zM90.89999,75.27501h3.1c0.2,-2.2 0.2,-4.5 0.2,-6.7h-3.1c0,2.3 0,4.6 -0.2,6.8zM91.69999,39.47501h3.1c-0.5,-1.5 -1.4,-2.9 -2.2,-4.3h-3.1c0.9,1.3 1.6,2.8 2.3,4.3zM81.39999,39.47501h3.1c-0.6,-1.5 -1.4,-3 -2.3,-4.3h-3.1c0.9,1.3 1.7,2.8 2.4,4.3zM83.49999,44.67501v0c0.7,2.3 1.2,4.6 1.5,6.8h3.1c-0.4,-2.4 -0.9,-4.7 -1.6,-6.9h-3.1zM83.69999,86.77501h3.1c0.7,-2.2 1.2,-4.6 1.5,-6.8h-3.1c-0.3,2.3 -0.8,4.7 -1.5,6.8zM78.29999,97.77501h3.1c1.4,-2.1 2.6,-4.1 3.6,-6.3h-3.1M86.79999,97.77501c1.3,-2.1 2.5,-4.1 3.5,-6.3h-3.1c-1,2.2 -2.3,4.2 -3.6,6.3zM95.39999,91.57501h-3.1c-1,2.1 -2.2,4.1 -3.5,6.2h3.1c1.4,-2 2.5,-4.1 3.5,-6.2zM97.19999,86.57501v0c0.7,-2.1 1.2,-4.4 1.5,-6.6h-3.1c-0.3,2.2 -0.8,4.6 -1.5,6.7h3.1zM99.19999,75.37501c0.2,-2.2 0.2,-4.5 0.2,-6.7h-3.1c0,2.2 0,4.5 -0.2,6.7z" fill="#000000" stroke="none" stroke-width="0"/><path d="M70.89999,36.37501c-4.8,0 -8.8,13.3 -8.8,29.7c0,16.4 3.9,29.7 8.8,29.7c4.9,0 8.8,-13.3 8.8,-29.7c0,-16.4 -3.9,-29.7 -8.8,-29.7zM83.79999,66.07501c0,20 -5.7,36.3 -12.8,36.3c-7.1,0 -12.9,-16.2 -12.9,-36.2c0,-20 5.8,-36.3 12.9,-36.3c7.1,0 12.8,16.2 12.8,36.3v0z" fill="#ff77ff" stroke="none" stroke-width="0"/><path d="M83.79999,66.17501c0,20 -5.7,36.3 -12.8,36.3c-7.1,0 -12.9,-16.3 -12.9,-36.3c0,-20 5.8,-36.3 12.9,-36.3c7.1,0 12.8,16.2 12.8,36.3z" fill="none" stroke="#fee6ff" stroke-width="1.9"/><path d="M90.79999,82.97501c0,-1.71208 1.38792,-3.1 3.1,-3.1c1.71208,0 3.1,1.38792 3.1,3.1c0,1.71208 -1.38792,3.1 -3.1,3.1c-1.71208,0 -3.1,-1.38792 -3.1,-3.1z" fill="#ff77ff" stroke="#fee6ff" stroke-width="0.9"/><path d="M90.79999,48.67501c0,-1.71208 1.38792,-3.1 3.1,-3.1c1.71208,0 3.1,1.38792 3.1,3.1c0,1.71208 -1.38792,3.1 -3.1,3.1c-1.71208,0 -3.1,-1.38792 -3.1,-3.1z" fill="#ff77ff" stroke="#fee6ff" stroke-width="0.9"/></g><g stroke="none" stroke-width="0"><path d="M431.99999,93.97501l3.8,52.3h-7.7l3.8,-52.3z" fill="#000000"/><path d="M426.29999,95.67501c0,-3.1 2.5,-5.7 5.7,-5.7c3.2,0 5.7,2.5 5.7,5.7c0,3.2 -2.5,5.7 -5.7,5.7c-3.2,0 -5.7,-2.5 -5.7,-5.7z" fill="#ff00de"/></g><g stroke="#fffede" stroke-width="2"><path d="M259.49999,132.87501c0,-7.5 6,-13.5 13.5,-13.5c7.5,0 13.5,6 13.5,13.5c0,7.5 -6,13.5 -13.5,13.5c-7.5,0 -13.5,-6 -13.5,-13.5z" fill="none"/><path d="M263.99999,132.87501c0,-5 4,-9 9,-9c5,0 9,4 9,9c0,5 -4,9 -9,9c-5,0 -9,-4 -9,-9z" fill="#fbf300"/></g><g><path d="M219.69999,69.07501v-6.3h10v6.3z" fill="#000000" stroke="none" stroke-width="0"/><path d="M195.09999,69.07501v-6.3h5.5v6.3z" fill="#000000" stroke="none" stroke-width="0"/><path d="M195.89999,61.27501v-6.3h5.5v6.3z" fill="#000000" stroke="none" stroke-width="0"/><path d="M197.29999,53.17501v-6h5.5v6z" fill="#000000" stroke="none" stroke-width="0"/><path d="M199.49999,45.97501v-5.1h5.5v5.1z" fill="#000000" stroke="none" stroke-width="0"/><path d="M201.39999,39.87501v-3.5h5.5v3.5z" fill="#000000" stroke="none" stroke-width="0"/><path d="M218.89999,60.97501v-5.8h10v5.8z" fill="#000000" stroke="none" stroke-width="0"/><path d="M217.59999,53.67501v-6h10v6z" fill="#000000" stroke="none" stroke-width="0"/><path d="M214.69999,45.97501v-5h10v5z" fill="#000000" stroke="none" stroke-width="0"/><path d="M212.29999,39.87501v-3.1h10v3.1z" fill="#000000" stroke="none" stroke-width="0"/><path d="M208.99999,35.67501v-2.4h10v2.4z" fill="#000000" stroke="none" stroke-width="0"/><path d="M204.69999,32.67501v-1.6h10v1.6z" fill="#000000" stroke="none" stroke-width="0"/><path d="M218.89999,76.57501v-5.8h10v5.8z" fill="#000000" stroke="none" stroke-width="0"/><path d="M217.59999,84.07501v-6h10v6z" fill="#000000" stroke="none" stroke-width="0"/><path d="M214.69999,90.77501v-5h10v5z" fill="#000000" stroke="none" stroke-width="0"/><path d="M212.29999,94.97501v-3.1h10v3.1z" fill="#000000" stroke="none" stroke-width="0"/><path d="M208.99999,98.47501v-2.4h10v2.4z" fill="#000000" stroke="none" stroke-width="0"/><path d="M204.69999,100.67501v-1.6h10v1.6z" fill="#000000" stroke="none" stroke-width="0"/><path d="M195.89999,76.87501v-6.3h5.5v6.3z" fill="#000000" stroke="none" stroke-width="0"/><path d="M197.29999,84.47501v-6h5.5v6z" fill="#000000" stroke="none" stroke-width="0"/><path d="M199.49999,90.87501v-5.1h5.5v5.1z" fill="#000000" stroke="none" stroke-width="0"/><path d="M201.39999,95.37501v-3.5h5.5v3.5z" fill="#000000" stroke="none" stroke-width="0"/><path d="M206.89999,36.37501c-4.8,0 -8.8,13.3 -8.8,29.7c0,16.4 3.9,29.7 8.8,29.7c4.9,0 8.8,-13.3 8.8,-29.7c0,-16.4 -3.9,-29.7 -8.8,-29.7zM219.79999,66.07501c0,20 -5.7,36.3 -12.8,36.3c-7.1,0 -12.9,-16.2 -12.9,-36.2c0,-20 5.8,-36.3 12.9,-36.3c7.1,0 12.8,16.2 12.8,36.3v0z" fill="#ffed48" stroke="none" stroke-width="0"/><path d="M219.79999,66.17501c0,20 -5.7,36.3 -12.8,36.3c-7.1,0 -12.9,-16.3 -12.9,-36.3c0,-20 5.8,-36.3 12.9,-36.3c7.1,0 12.8,16.2 12.8,36.3z" fill="none" stroke="#fffecc" stroke-width="1.9"/></g></g></g></svg>