<svg version="1.1" xmlns="http://www.w3.org/2000/svg" xmlns:xlink="http://www.w3.org/1999/xlink" width="57.6083" height="57.6083" viewBox="0,0,57.6083,57.6083"><defs><linearGradient x1="215.94596" y1="180" x2="264.05402" y2="180" gradientUnits="userSpaceOnUse" id="color-1"><stop offset="0" stop-color="#83ff2f"/><stop offset="1" stop-color="#2bec46"/></linearGradient><linearGradient x1="215.94596" y1="180" x2="264.05401" y2="180" gradientUnits="userSpaceOnUse" id="color-2"><stop offset="0" stop-color="#83ff2f"/><stop offset="1" stop-color="#2bec46"/></linearGradient><linearGradient x1="215.94596" y1="192.43765" x2="264.06053" y2="192.43765" gradientUnits="userSpaceOnUse" id="color-3"><stop offset="0" stop-color="#000000" stop-opacity="0"/><stop offset="1" stop-color="#000000" stop-opacity="0.29473"/></linearGradient><linearGradient x1="229.47181" y1="164.37365" x2="229.47181" y2="172.16987" gradientUnits="userSpaceOnUse" id="color-4"><stop offset="0" stop-color="#00ffff"/><stop offset="1" stop-color="#00c7b6"/></linearGradient><linearGradient x1="229.47181" y1="164.37365" x2="229.47181" y2="172.16987" gradientUnits="userSpaceOnUse" id="color-5"><stop offset="0" stop-color="#19170a"/><stop offset="1" stop-color="#312114"/></linearGradient><linearGradient x1="229.47181" y1="175.32406" x2="229.47181" y2="183.12028" gradientUnits="userSpaceOnUse" id="color-6"><stop offset="0" stop-color="#00ffff"/><stop offset="1" stop-color="#009999"/></linearGradient><linearGradient x1="229.47181" y1="175.32406" x2="229.47181" y2="183.12028" gradientUnits="userSpaceOnUse" id="color-7"><stop offset="0" stop-color="#19170a"/><stop offset="1" stop-color="#312114"/></linearGradient><linearGradient x1="229.47181" y1="186.27447" x2="229.47181" y2="194.07069" gradientUnits="userSpaceOnUse" id="color-8"><stop offset="0" stop-color="#00cccc"/><stop offset="1" stop-color="#00998c"/></linearGradient><linearGradient x1="229.47181" y1="186.27447" x2="229.47181" y2="194.07069" gradientUnits="userSpaceOnUse" id="color-9"><stop offset="0" stop-color="#19170a"/><stop offset="1" stop-color="#312114"/></linearGradient><linearGradient x1="245.4448" y1="164.94695" x2="245.4448" y2="171.15219" gradientUnits="userSpaceOnUse" id="color-10"><stop offset="0" stop-color="#00ffff"/><stop offset="1" stop-color="#00c7b6"/></linearGradient><linearGradient x1="245.4448" y1="164.94695" x2="245.4448" y2="171.15219" gradientUnits="userSpaceOnUse" id="color-11"><stop offset="0" stop-color="#19170a"/><stop offset="1" stop-color="#312114"/></linearGradient><linearGradient x1="245.4448" y1="176.13399" x2="245.4448" y2="182.33924" gradientUnits="userSpaceOnUse" id="color-12"><stop offset="0" stop-color="#00ffff"/><stop offset="1" stop-color="#009999"/></linearGradient><linearGradient x1="245.4448" y1="176.13399" x2="245.4448" y2="182.33924" gradientUnits="userSpaceOnUse" id="color-13"><stop offset="0" stop-color="#19170a"/><stop offset="1" stop-color="#312114"/></linearGradient><linearGradient x1="245.4448" y1="187.3953" x2="245.4448" y2="193.60053" gradientUnits="userSpaceOnUse" id="color-14"><stop offset="0" stop-color="#00cccc"/><stop offset="1" stop-color="#009999"/></linearGradient><linearGradient x1="245.4448" y1="187.3953" x2="245.4448" y2="193.60053" gradientUnits="userSpaceOnUse" id="color-15"><stop offset="0" stop-color="#19170a"/><stop offset="1" stop-color="#312114"/></linearGradient></defs><g transform="translate(-211.19585,-151.19585)"><g data-paper-data="{&quot;isPaintingLayer&quot;:true}" fill-rule="nonzero" stroke-linecap="butt" stroke-linejoin="miter" stroke-miterlimit="10" stroke-dasharray="" stroke-dashoffset="0" style="mix-blend-mode: normal"><path d="M214.19585,180c0,-14.25124 11.5529,-25.80415 25.80415,-25.80415c14.25124,0 25.80415,11.5529 25.80415,25.80415c0,14.25124 -11.5529,25.80415 -25.80415,25.80415c-14.25124,0 -25.80415,-11.5529 -25.80415,-25.80415z" fill="none" stroke="#ececec" stroke-width="6"/><path d="M215.94596,180c0,-13.28467 10.76935,-24.05403 24.05403,-24.05403c13.28467,0 24.05403,10.76935 24.05403,24.05403c0,13.28467 -10.76935,24.05403 -24.05403,24.05403c-13.28467,0 -24.05403,-10.76935 -24.05403,-24.05403z" fill="url(#color-1)" stroke="none" stroke-width="0"/><path d="M215.94596,180c0,-13.28467 10.76935,-24.05403 24.05403,-24.05403c13.28467,0 24.05403,10.76935 24.05403,24.05403c0,13.28467 -10.76935,24.05403 -24.05403,24.05403c-13.28467,0 -24.05403,-10.76935 -24.05403,-24.05403z" fill="none" stroke="#000000" stroke-width="6"/><path d="M215.94596,180c0,-13.28467 10.76935,-24.05403 24.05403,-24.05403c13.28467,0 24.05403,10.76935 24.05403,24.05403c0,13.28467 -10.76935,24.05403 -24.05403,24.05403c-13.28467,0 -24.05403,-10.76935 -24.05403,-24.05403z" fill="url(#color-2)" stroke="none" stroke-width="0"/><g fill="none" stroke-opacity="0.52549" stroke="#000000" stroke-width="4"><path d="M225.78515,168.77735c0,-2.15287 1.85952,-3.89811 4.15336,-3.89811c2.29384,0 4.15336,1.74525 4.15336,3.89811c0,2.15287 -1.85952,3.89811 -4.15336,3.89811c-2.29384,0 -4.15336,-1.74525 -4.15336,-3.89811z"/><path d="M225.78515,179.72776c0,-2.15287 1.85952,-3.89811 4.15336,-3.89811c2.29385,0 4.15336,1.74524 4.15336,3.89811c0,2.15287 -1.85952,3.89811 -4.15336,3.89811c-2.29385,0 -4.15336,-1.74525 -4.15336,-3.89811z"/><path d="M225.78515,190.67817c0,-2.15287 1.85952,-3.89811 4.15336,-3.89811c2.29385,0 4.15336,1.74525 4.15336,3.89811c0,2.15287 -1.85952,3.89811 -4.15336,3.89811c-2.29385,0 -4.15336,-1.74524 -4.15336,-3.89811z"/><path d="M236.67477,171.65778v-6.20524h18.47345v6.20524z"/><path d="M236.67477,182.9732v-6.20524h18.47345v6.20524z"/><path d="M236.67477,194.10612v-6.20524h18.47345v6.20524z"/></g><path d="M264.05402,180.742c0.88538,12.95332 -10.11751,23.31204 -24.05403,23.31204c-13.28467,0 -24.05403,-11.11648 -24.05403,-23.48893z" fill="url(#color-3)" stroke="none" stroke-width="3"/><path d="M225.31845,168.27176c0,-2.15287 1.85952,-3.89811 4.15336,-3.89811c2.29384,0 4.15336,1.74525 4.15336,3.89811c0,2.15287 -1.85952,3.89811 -4.15336,3.89811c-2.29384,0 -4.15336,-1.74525 -4.15336,-3.89811z" fill="url(#color-4)" stroke="url(#color-5)" stroke-width="2"/><path d="M225.31845,179.22218c0,-2.15287 1.85952,-3.89811 4.15336,-3.89811c2.29384,0 4.15336,1.74525 4.15336,3.89811c0,2.15287 -1.85952,3.89811 -4.15336,3.89811c-2.29384,0 -4.15336,-1.74525 -4.15336,-3.89811z" fill="url(#color-6)" stroke="url(#color-7)" stroke-width="2"/><path d="M225.31845,190.17258c0,-2.15287 1.85952,-3.89811 4.15336,-3.89811c2.29384,0 4.15336,1.74525 4.15336,3.89811c0,2.15287 -1.85952,3.89811 -4.15336,3.89811c-2.29384,0 -4.15336,-1.74525 -4.15336,-3.89811z" fill="url(#color-8)" stroke="url(#color-9)" stroke-width="2"/><path d="M236.20807,171.15219v-6.20524h18.47346v6.20524z" fill="url(#color-10)" stroke="url(#color-11)" stroke-width="2"/><path d="M236.20807,182.33924v-6.20524h18.47345v6.20524z" fill="url(#color-12)" stroke="url(#color-13)" stroke-width="2"/><path d="M236.20807,193.60053v-6.20524h18.47345v6.20524z" fill="url(#color-14)" stroke="url(#color-15)" stroke-width="2"/></g></g></svg>