<svg version="1.1" xmlns="http://www.w3.org/2000/svg" xmlns:xlink="http://www.w3.org/1999/xlink" width="79.80829" height="79.82976" viewBox="0,0,79.80829,79.82976"><g transform="translate(-200.09586,-140.08512)"><g data-paper-data="{&quot;isPaintingLayer&quot;:true}" fill-rule="nonzero" stroke="none" stroke-width="1" stroke-linecap="butt" stroke-linejoin="miter" stroke-miterlimit="10" stroke-dasharray="" stroke-dashoffset="0" style="mix-blend-mode: normal"><path d="M227.70588,140.08514c9.94252,0.11705 16.92356,0.12657 20.94308,0.02866c2.7585,-0.06688 3.90487,1.34222 3.43916,4.22729l0.06806,1.347c0.00717,0.14807 0.08478,0.22211 0.23287,0.22211l3.43201,0.01793c3.48454,0.00717 6.97503,0.00955 10.47152,0.00717c0.68306,0 1.46403,0.09912 2.34292,0.29736c0.71411,0.65917 1.07475,1.26937 1.08189,1.83065c0.05493,4.35866 0.09314,8.72807 0.11463,13.10823l-0.03225,2.30353c-0.00239,0.12657 0.0597,0.19225 0.18628,0.19704l4.15567,0.15404c1.8163,0.87412 1.48314,2.74775 1.4688,4.3885c-0.02149,7.03955 0.22211,14.21521 -0.01431,21.30132c-0.10748,3.22422 -2.95911,2.85522 -5.62803,2.79791c-0.12419,-0.00239 -0.18628,0.05733 -0.18628,0.17912c0.00955,4.76229 0.00955,9.52457 0,14.28685c-0.00358,2.27129 -0.85262,3.20271 -3.2278,3.19914c-4.73841,-0.01192 -9.47919,-0.01315 -14.22237,-0.00358c-0.12419,0 -0.18748,0.06209 -0.18987,0.18628c-0.00358,2.29278 0.69857,5.53848 -2.81581,5.53848c-7.11954,0.00239 -14.24387,0.00358 -21.37297,0.00358c-1.73033,0 -3.2672,0.34749 -4.22013,-1.52615l-0.21495,-3.97652c-0.00717,-0.13375 -0.07763,-0.20062 -0.21136,-0.20062l-13.076,-0.00717c-1.03175,-0.03225 -2.16738,0.17912 -3.03075,-0.36541c-0.78814,-0.49915 -1.22759,-1.23238 -1.31834,-2.19963l0.03225,-2.40743l-0.02507,-8.63015l0.02507,-3.89414c0,-0.13851 -0.06806,-0.20898 -0.20418,-0.21136l-1.07116,-0.01793c-2.42533,0.25077 -4.54256,-0.12897 -4.5354,-3.03436c0.00955,-5.83942 0.00717,-11.67285 -0.00717,-17.50032c0.01192,-1.75301 0.01551,-3.50246 0.01076,-5.24831c-0.00358,-3.50006 3.32812,-2.80864 5.63521,-2.82656c0.12419,0 0.18628,-0.06209 0.18628,-0.18628c0.00239,-4.87215 0.00239,-9.7419 0,-14.60928c0,-3.59321 3.58246,-2.9412 6.2908,-2.93402l2.17456,0.00358h8.87018c0.08872,0.00007 0.17356,-0.03599 0.23456,-0.09968c0.06103,-0.06372 0.09279,-0.14947 0.08786,-0.23706c-0.05373,-1.19297 -0.16836,-3.35317 0.41558,-4.34195c0.7129,-1.19297 2.24263,-1.09624 3.70428,-1.16787zM207.1318,191.45759c-0.05014,0.20777 -0.12897,0.29376 -0.12897,0.5123c-0.00239,5.28293 -0.00239,10.46795 0,15.55505c0,0.75045 0.6073,1.35936 1.35776,1.36135c4.93901,0.0191 9.79326,0.01793 14.56269,-0.00358c0.21972,-0.00239 0.73083,-0.05373 1.53329,-0.15404c0.11941,-0.01431 0.18031,0.03942 0.18271,0.16122c0.02149,1.55479 -0.73798,5.77135 1.55121,5.80359c5.69374,0.08598 13.00912,0.06806 21.94616,-0.05373c0.71647,-0.01076 1.97752,0.30809 2.61518,-0.43706c0.72365,-0.84546 0.39406,-4.1664 0.41558,-5.34502c0.00239,-0.13136 0.06688,-0.18151 0.19346,-0.15046c0.31168,0.07165 0.55169,0.18987 0.86696,0.18987c5.22083,0.0191 10.33421,-0.02149 15.3401,-0.1218c0.67618,-0.01173 1.21813,-0.56327 1.21803,-1.23954l0.02149,-15.47266c0.00001,-0.02131 -0.00361,-0.04309 -0.01076,-0.06448l-0.20062,-0.61976c-0.04539,-0.13615 0.00358,-0.20418 0.1469,-0.20418c1.47598,-0.0191 2.95195,-0.02149 4.42793,-0.00717c0.61976,0.00717 1.39356,-0.40124 1.42224,-1.01025c0.19823,-4.33001 0.21136,-10.48228 0.03942,-18.45684c-0.03942,-1.76258 0.38691,-4.13416 0.02149,-5.79285c-0.41197,-1.85571 -4.453,-1.25386 -5.92182,-1.25386c-0.11941,-0.00239 -0.16479,-0.06209 -0.13615,-0.17912c0.13375,-0.55408 0.20062,-1.0019 0.20062,-1.34342c0.00955,-4.88885 0.00955,-9.75385 0,-14.59496c-0.00197,-0.84344 -0.68626,-1.52615 -1.52971,-1.52615c-4.92947,0 -9.92102,0 -14.97468,0c-0.36184,0 -0.58752,0.06448 -0.9386,0.15761c-0.13136,0.03582 -0.19704,-0.01431 -0.19704,-0.15046v-4.39569c0,-0.84088 -0.68165,-1.52253 -1.52253,-1.52253h-23.50811c-0.81715,0 -1.47956,0.66241 -1.47956,1.47956v4.43867c0,0.14092 -0.06806,0.19586 -0.20418,0.16479c-0.44064,-0.09314 -0.79531,-0.17197 -1.22878,-0.17197c-4.86974,0 -9.79562,0 -14.77766,0c-0.79143,0 -1.43298,0.64157 -1.43298,1.43298v15.57653c0,0.08837 0.02985,0.16361 0.08955,0.2257c0.04539,0.04539 0.08119,0.09912 0.10748,0.16122c0.06688,0.16003 0.01315,0.24001 -0.16122,0.24001l-4.40644,0.02149c-0.84995,0.00197 -1.53848,0.6921 -1.54046,1.54404c-0.00239,7.62348 -0.00119,15.33772 0.00358,23.14269c0,0.96367 0.37973,1.84857 1.42583,1.84139c2.13993,-0.02149 3.62784,0 4.46375,0.06448c0.12419,0.00955 0.17313,0.07524 0.1469,0.19704z" fill="#ffffff"/><path d="M206.98492,191.26056c-0.83591,-0.06448 -2.32383,-0.08598 -4.46375,-0.06448c-1.04606,0.00717 -1.42583,-0.8777 -1.42583,-1.84139c-0.00478,-7.80499 -0.00597,-15.51922 -0.00358,-23.14269c0.00197,-0.85194 0.6905,-1.54206 1.54046,-1.54404l4.40644,-0.02149c0.17436,0 0.22809,-0.08003 0.16122,-0.24001c-0.02626,-0.06209 -0.06209,-0.11583 -0.10748,-0.16122c-0.0597,-0.06209 -0.08955,-0.13733 -0.08955,-0.2257v-15.57653c0,-0.79143 0.64157,-1.43298 1.43298,-1.43298c4.98201,0 9.9079,0 14.77766,0c0.43347,0 0.78814,0.0788 1.22878,0.17197c0.13615,0.03105 0.20418,-0.02388 0.20418,-0.16479v-4.43867c0,-0.81715 0.66241,-1.47956 1.47956,-1.47956h23.50811c0.84088,0 1.52253,0.68165 1.52253,1.52253v4.39569c0,0.13615 0.06567,0.18628 0.19704,0.15046c0.35108,-0.09314 0.57678,-0.15761 0.9386,-0.15761c5.05367,0 10.04523,0 14.97468,0c0.84344,0 1.52775,0.68268 1.52971,1.52615c0.00955,4.8411 0.00955,9.70607 0,14.59496c0,0.34153 -0.06688,0.78935 -0.20062,1.34342c-0.02866,0.11705 0.01673,0.17674 0.13615,0.17912c1.4688,0 5.50982,-0.60185 5.92182,1.25386c0.36541,1.65868 -0.0609,4.03029 -0.02149,5.79285c0.17197,7.97454 0.15882,14.12682 -0.03942,18.45684c-0.02866,0.60902 -0.80246,1.01741 -1.42224,1.01025c-1.47598,-0.01431 -2.95195,-0.01192 -4.42793,0.00717c-0.14328,0 -0.19225,0.06806 -0.1469,0.20418l0.20062,0.61976c0.00713,0.02139 0.01076,0.04318 0.01076,0.06448l-0.02149,15.47266c0.00009,0.67626 -0.54188,1.22782 -1.21803,1.23954c-5.00589,0.10032 -10.11927,0.14092 -15.3401,0.1218c-0.31525,0 -0.55526,-0.11822 -0.86696,-0.18987c-0.12657,-0.03105 -0.19107,0.0191 -0.19346,0.15046c-0.02149,1.17863 0.30809,4.49958 -0.41558,5.34502c-0.63768,0.74515 -1.89869,0.42631 -2.61518,0.43706c-8.93704,0.1218 -16.25242,0.13972 -21.94616,0.05373c-2.28919,-0.03225 -1.52971,-4.24881 -1.55121,-5.80359c-0.00239,-0.1218 -0.06329,-0.17554 -0.18271,-0.16122c-0.80246,0.10032 -1.31357,0.15164 -1.53329,0.15404c-4.76944,0.02149 -9.62368,0.02267 -14.56269,0.00358c-0.75045,-0.00197 -1.35776,-0.61089 -1.35776,-1.36135c-0.00239,-5.08709 -0.00239,-10.27208 0,-15.55505c0,-0.21853 0.0788,-0.3045 0.12897,-0.5123c0.02626,-0.1218 -0.02267,-0.18748 -0.1469,-0.19704zM249.60757,142.67357c-0.00007,-0.02469 -0.00998,-0.04838 -0.02752,-0.06578c-0.01755,-0.01742 -0.04128,-0.02714 -0.06599,-0.02703l-23.36467,0.08154c-0.05145,0.00021 -0.09297,0.04204 -0.09279,0.09346l0.04579,13.12606c0.00007,0.02469 0.00998,0.04838 0.02752,0.06578c0.01755,0.01742 0.04128,0.02714 0.06599,0.02703l23.36467,-0.08154c0.05145,-0.00021 0.09297,-0.04204 0.09279,-0.09346zM208.44297,160.89204v2.60086c0,0.11705 0.05852,0.17554 0.17554,0.17554h6.60964c0.10508,0 0.15761,-0.05134 0.15761,-0.15404l0.04658,-2.57935c-0.03582,-1.6945 -0.60902,-4.68228 2.03126,-4.86499c1.94408,-0.13375 3.89653,-0.15285 5.85732,-0.05733c0.16479,0.00955 0.24837,-0.06806 0.25077,-0.23287l0.10391,-7.05745c0.00096,-0.05003 -0.01823,-0.09832 -0.05326,-0.13405c-0.03504,-0.0357 -0.08295,-0.05583 -0.13301,-0.05583h-14.8708c-0.11705,0 -0.17554,0.0597 -0.17554,0.17912zM258.51862,156.78295c0.39169,1.07713 0.49321,2.44682 0.3045,4.10909l0.05373,2.62594c0.00239,0.14807 0.0788,0.21972 0.22928,0.21495l1.83065,-0.0609l6.09734,-0.00358c0.13851,0 0.20898,-0.06806 0.21136,-0.20418l0.08598,-2.69759l0.03942,-2.89464l0.00717,-2.99852l-0.09673,-6.15824c-0.00239,-0.1218 -0.06448,-0.18271 -0.18628,-0.18271h-14.77407c-0.17912,0 -0.26868,0.08955 -0.26868,0.26868v6.80668c0,0.17912 0.08955,0.26868 0.26868,0.26868h4.9438c0.1218,0 0.23048,0.03942 0.32601,0.11822zM217.39555,196.62351c-0.15285,0.30092 -0.14925,0.54334 0.01076,0.72724c0.10748,0.1218 0.29736,0.18508 0.56962,0.18987c11.52836,0.18271 24.05624,-0.15761 38.98793,-0.07165c0.12419,0.00239 0.20659,-0.05612 0.24718,-0.17554c0.07405,-0.21016 0.09912,-0.41915 0.07524,-0.62692l-0.03225,-19.21274l-0.1218,-15.22189l0.01076,-3.59321c0.06688,-0.33436 0.04895,-0.61379 -0.05373,-0.83829c-0.05493,-0.11941 -0.14807,-0.17912 -0.27943,-0.17912l-39.02017,0.13615c-0.15739,0 -0.30828,0.06276 -0.41924,0.17439c-0.11095,0.11163 -0.17281,0.2629 -0.17185,0.4203zM202.53194,177.33556l0.01793,9.42187l0.04299,2.62236c0.00239,0.17436 0.09075,0.26152 0.26511,0.26152h12.46695c0.10032,0 0.15164,-0.05014 0.15404,-0.15046l0.0788,-2.76566l-0.08598,-14.30118l0.02507,-6.16899c0.00239,-0.10508 -0.05014,-0.15761 -0.15761,-0.15761l-12.6246,-0.01793c-0.10288,0 -0.18628,0.08501 -0.18628,0.18987zM258.97717,177.33556l0.07524,9.43262l0.02149,2.65818c0.00196,0.1193 0.09921,0.21495 0.21853,0.21495h13.71365c0.11535,0.00001 0.2094,-0.09245 0.21136,-0.20777l0.0609,-4.91156l-0.03582,-7.7811l-0.06806,-10.2136c-0.00239,-0.28421 -0.14451,-0.42631 -0.42631,-0.42631l-11.65016,-0.00358l-1.92376,0.02149c-0.14092,0.00239 -0.21136,0.07405 -0.21136,0.21495zM252.12034,203.89593c-0.06688,-0.05014 -0.08718,0.10866 -0.0609,0.47647l-0.00358,2.8194c0,0.10091 0.08182,0.18271 0.18271,0.18271h14.78839c0.14567,0 0.21972,-0.07285 0.22211,-0.21853l0.0609,-2.81223l-0.04299,-11.9081c0,-0.12657 -0.06329,-0.18987 -0.18987,-0.18987l-5.82865,-0.01431l-1.91305,0.04299c-0.13375,0.00478 -0.20062,0.07285 -0.20062,0.20418c-0.01076,1.95962 0.82399,6.36604 -1.95603,6.70277c-1.10099,0.13136 -2.70715,0.15643 -4.81841,0.07524c-0.13136,-0.00478 -0.20777,0.05612 -0.22928,0.18271c-0.25315,1.47838 -0.25675,2.96387 -0.01076,4.45659zM208.44297,204.42968v2.77281c0,0.11463 0.05852,0.17197 0.17554,0.17197h14.78122c0.13615,0 0.20301,-0.06688 0.20062,-0.20062l-0.04658,-2.76566l0.0609,-1.94885l0.01431,-2.81223c0.00239,-0.14328 -0.06806,-0.21495 -0.21136,-0.21495l-5.49906,-0.00717c-0.70695,0.08598 -1.42703,-0.29614 -2.16022,-1.1464c0.13256,-1.65868 0.37973,-3.90846 -0.17197,-5.51699l0.01076,-0.34749c0.00239,-0.11705 -0.05493,-0.17554 -0.17197,-0.17554h-6.80668c-0.11941,0 -0.17912,0.0597 -0.17912,0.17912zM226.08301,200.56422v9.75504l-0.00358,2.78357c0,0.10091 0.08182,0.18271 0.18271,0.18271h23.01731c0.23406,0 0.35108,-0.11705 0.35108,-0.35108l0.00358,-2.61877l0.01431,-8.93465l-0.03942,-1.88796c-0.00478,-0.14328 -0.08003,-0.21495 -0.2257,-0.21495l-23.06747,0.18987c-0.14328,0.00239 -0.21615,0.07524 -0.21853,0.21853z" fill="#000000"/><path d="M226.19588,155.97466c-0.05146,0.00016 -0.09314,0.00032 -0.09314,0.00032l-0.04649,-13.31233c0,0 0.04172,-0.00016 0.09314,-0.00032l23.36467,-0.08156c0.05146,-0.00016 0.09314,-0.00032 0.09314,-0.00032l0.04649,13.31233c0,0 -0.04172,0.00016 -0.09314,0.00032z" fill="#a2e636"/><path d="M252.0881,144.34109l2.55787,0.10032c0.76665,0.18151 1.15833,0.6771 1.17504,1.48673l-3.43201,-0.01793c-0.14807,0 -0.2257,-0.07405 -0.23287,-0.22211z" fill-opacity="0.40965" fill="#000000"/><path d="M215.43237,160.93504l-6.98937,-0.04299v-12.18035c0,-0.11941 0.05852,-0.17912 0.17554,-0.17912h14.8708c0.05004,-0.00001 0.09795,0.02011 0.13301,0.05583c0.03504,0.0357 0.05426,0.08402 0.05326,0.13405l-0.10391,7.05745c-0.00239,0.16479 -0.08598,0.24242 -0.25077,0.23287c-1.96079,-0.09553 -3.91324,-0.07644 -5.85732,0.05733c-2.64028,0.18271 -2.06707,3.17048 -2.03126,4.86499z" fill="#4bffe2"/><path d="M267.37804,154.87351l-0.00717,2.99852l-0.03942,2.89464l-6.12958,0.10032c-0.10748,0 -0.16122,-0.05373 -0.16122,-0.16122c0.00717,-1.91305 -0.02149,-3.86906 -2.52206,-3.9228l-0.92787,-0.78814c-0.09553,-0.0788 -0.20418,-0.11822 -0.32601,-0.11822h-4.9438c-0.17912,0 -0.26868,-0.08955 -0.26868,-0.26868v-6.80668c0,-0.17912 0.08955,-0.26868 0.26868,-0.26868h14.77407c0.1218,0 0.18389,0.0609 0.18628,0.18271z" fill="#16e1d5"/><path d="M274.05575,155.12069l0.08598,8.70538l-4.15567,-0.15404c-0.12657,-0.00478 -0.18867,-0.07045 -0.18628,-0.19704l0.03225,-2.30353l0.13256,-10.36763c0.0016,-0.19264 0.0874,-0.37494 0.23485,-0.49894c0.14743,-0.12401 0.34174,-0.17733 0.53179,-0.14589l2.05991,0.34392c0.13136,0.02149 0.23762,0.08358 0.31885,0.18628c1.17504,1.48673 0.8777,2.62952 0.94578,4.43151z" fill-opacity="0.40965" fill="#000000"/><path d="M267.37086,157.87204l0.00717,-2.99852z" fill="#055b5e"/><path d="M258.51862,156.78295c2.50055,0.05373 2.52922,2.00976 2.52206,3.9228c0,0.10748 0.05373,0.16122 0.16122,0.16122l6.12958,-0.10032l-0.08598,2.69759c-0.00239,0.13615 -0.07285,0.20418 -0.21136,0.20418l-6.09734,0.00358l0.03942,-2.53638c0.00239,-0.14092 -0.06688,-0.21255 -0.20777,-0.21495l-1.94528,-0.02866c0.18867,-1.66225 0.08718,-3.03196 -0.3045,-4.10909z" fill="#157b79"/><path d="M257.14295,158.63868l-18.24906,0.0788l-20.45943,0.16836c-0.15109,0.00095 -0.29559,0.06225 -0.40176,0.17041c-0.10615,0.10817 -0.16524,0.25434 -0.16428,0.40638l0.24718,21.56642l0.07524,15.12514c0.00212,0.11062 -0.04821,0.21657 -0.13615,0.2866c-0.14807,0.11224 -0.19107,0.27345 -0.12897,0.48364c-0.28421,-0.03582 -0.46094,-0.13615 -0.5302,-0.30092l-0.19704,-38.27144c-0.00096,-0.15739 0.0609,-0.30867 0.17185,-0.4203c0.11095,-0.11163 0.26184,-0.17439 0.41924,-0.17439l39.02017,-0.13615c0.13136,0 0.22451,0.0597 0.27943,0.17912c0.1027,0.22451 0.12061,0.50394 0.05373,0.83829z" fill="#ffe267"/><path d="M257.14295,158.63868l-0.01076,3.59321c-0.0597,0.08837 -0.08718,0.22451 -0.08239,0.4084c0.00013,0.0354 -0.02561,0.06663 -0.0601,0.073c-0.03448,0.00634 -0.06704,-0.01415 -0.07603,-0.04791l-0.05014,-0.13972c-0.00449,-0.0093 -0.01421,-0.0149 -0.02452,-0.01411c-0.01028,0.0008 -0.01906,0.00783 -0.02206,0.0177l-0.02507,0.16836c-0.00717,0.06927 -0.0418,0.11941 -0.10391,0.15046c-1.90587,1.02816 -3.08809,2.81581 -4.84706,4.05892c-0.08119,0.05733 -0.12777,0.13375 -0.13972,0.22928l-0.02507,0.18271c-0.00717,0.06448 -0.03345,0.07405 -0.0788,0.02866l-0.10032,-0.10032c-0.03345,-0.03345 -0.04895,-0.02746 -0.04658,0.01793l0.47288,9.03855c0.007,0.12147 -0.03693,0.24032 -0.12125,0.32806c-0.0843,0.08771 -0.20135,0.13631 -0.32301,0.13413l-8.42236,-0.12897c-0.14902,-0.00165 -0.29125,0.06216 -0.38917,0.17453c-0.09791,0.11237 -0.14159,0.26201 -0.11955,0.40942c0.05493,0.34631 -0.01076,0.65797 -0.19704,0.93502c-0.06098,0.08905 -0.14391,0.1596 -0.24001,0.20418c-0.46812,0.21255 -0.86815,0.50871 -1.20013,0.88846c-0.06688,0.0788 -0.15046,0.13375 -0.25077,0.16479c-0.75948,0.25077 -1.53329,1.40074 -2.05274,1.97752c-0.03609,0.03802 -0.05208,0.08995 -0.04299,0.13972l0.02507,0.16122c0.00717,0.03105 -0.00478,0.04658 -0.03582,0.04658c-0.17674,0.00955 -0.30571,0.04299 -0.38691,0.10032l-15.54431,-0.01431c-0.16482,-0.00001 -0.29896,0.13256 -0.30092,0.29736l-0.00358,0.56243l0.14328,6.71353l0.03225,1.03533c0.00478,0.12657 0.07165,0.18987 0.20062,0.18987l12.57444,0.02149l-5.34146,5.86807c-0.07644,0.08358 -0.17074,0.13375 -0.28301,0.15046l-0.88487,0.14328l-10.83334,0.11822c-0.06209,-0.21016 -0.0191,-0.37137 0.12897,-0.48364c0.08792,-0.07004 0.13824,-0.17596 0.13615,-0.2866l-0.07524,-15.12514c0.08119,0.18628 0.10866,0.37973 0.08239,0.58037c-0.01075,0.10376 0.0522,0.20102 0.15125,0.23374c0.09905,0.03272 0.20752,-0.00788 0.26073,-0.09761c0.55887,-1.01264 1.37805,-1.72794 2.45757,-2.14588c0.05161,-0.02105 0.09727,-0.0556 0.13256,-0.10032l2.03126,-2.52206c0.08598,-0.10748 0.19823,-0.16361 0.33674,-0.16836l2.43249,-0.09314l6.54516,0.00358c0.35825,0 0.48603,-0.17197 0.38332,-0.51588c-0.29736,-0.97443 -0.01076,-2.14946 -0.09314,-3.10241c-0.10748,-1.25865 -0.21733,-3.17048 -0.3296,-5.73552c-0.01192,-0.24121 -0.15404,-0.34033 -0.42631,-0.29736c0.1218,-0.28421 0.10748,-0.58037 -0.04299,-0.88846c1.1464,-1.25027 6.2514,-5.53848 6.12958,-7.16492c-0.00955,-0.13615 0.05373,-0.19704 0.18987,-0.18271c0.23644,0.02388 0.41558,-0.01431 0.53737,-0.11463zM242.35454,166.97865l0.01793,8.32566c-0.00001,0.05289 0.02123,0.10354 0.05897,0.14062c0.03772,0.03706 0.08876,0.05738 0.14164,0.05642l8.21817,-0.04299c0.05762,-0.00001 0.11286,-0.02276 0.15328,-0.06319c0.04041,-0.04041 0.06263,-0.09508 0.06167,-0.15174l-0.12897,-8.37579c0.16719,-0.23167 0.20182,-0.43706 0.10391,-0.6162c-0.0597,-0.10987 -0.15164,-0.16479 -0.27584,-0.16479c-2.54355,0 -5.09307,-0.00119 -7.64856,-0.00358c-0.29853,0 -0.50513,0.04299 -0.61976,0.12897c-0.21255,0.15761 -0.24001,0.41318 -0.08239,0.76665z" fill="#ffce00"/><path d="M238.89389,158.7175c-0.1218,0.10032 -0.30092,0.13851 -0.53737,0.11463c-0.13615,-0.01431 -0.19943,0.04658 -0.18987,0.18271c0.1218,1.62644 -4.9832,5.91464 -6.12958,7.16492l-8.29698,0.00358c-0.13851,0 -0.21016,0.06927 -0.21495,0.20777l-0.10032,2.83732c-0.06448,0.33674 -0.04061,0.69619 0.07165,1.07832l0.00358,5.1444c-0.33674,1.88796 1.45448,1.30759 2.50055,1.26459l-2.43249,0.09314c-0.13851,0.00478 -0.25077,0.0609 -0.33674,0.16836l-2.03126,2.52206c-0.03529,0.04469 -0.08095,0.07927 -0.13256,0.10032c-1.07952,0.41795 -1.89869,1.13322 -2.45757,2.14588c-0.05321,0.08972 -0.16168,0.13033 -0.26073,0.09761c-0.09905,-0.03272 -0.16196,-0.12998 -0.15125,-0.23374c0.02626,-0.20062 -0.00119,-0.39406 -0.08239,-0.58037l-0.24718,-21.56642c-0.00096,-0.15202 0.05812,-0.29821 0.16428,-0.40638c0.10615,-0.10817 0.25067,-0.16946 0.40176,-0.17041z" fill="#ffec00"/><path d="M215.43237,160.93504l-0.04658,2.57935c0,0.1027 -0.05254,0.15404 -0.15761,0.15404h-6.60964c-0.11705,0 -0.17554,-0.05852 -0.17554,-0.17554v-2.60086z" fill="#0ab2b6"/><path d="M260.93678,163.67204l-1.83065,0.0609c-0.15046,0.00478 -0.22688,-0.06688 -0.22928,-0.21495l-0.05373,-2.62594l1.94528,0.02866c0.14092,0.00239 0.21016,0.07405 0.20777,0.21495z" fill="#055b5e"/><path d="M257.13219,162.23189l0.1218,15.22189c-0.20062,0.03822 -0.35227,0.02746 -0.45498,-0.03225c-0.06209,-0.03582 -0.11583,-0.02626 -0.16122,0.02866c-0.95296,1.08906 -1.90228,2.18291 -2.84806,3.28154c-0.52304,0.60902 -0.6771,1.02458 -1.65152,1.06399l-13.97159,0.04299c0.08119,-0.05733 0.21016,-0.09075 0.38691,-0.10032c0.03105,0 0.04299,-0.01551 0.03582,-0.04658l-0.02507,-0.16122c-0.00908,-0.04975 0.00688,-0.10168 0.04299,-0.13972c0.51945,-0.57678 1.29327,-1.72675 2.05274,-1.97752c0.10032,-0.03105 0.18389,-0.08598 0.25077,-0.16479c0.33197,-0.37973 0.732,-0.67591 1.20013,-0.88846c0.09612,-0.0446 0.17903,-0.11514 0.24001,-0.20418c0.18628,-0.27706 0.25197,-0.58872 0.19704,-0.93502c-0.02206,-0.14739 0.02164,-0.29705 0.11955,-0.40942c0.09791,-0.11237 0.24015,-0.17616 0.38917,-0.17453l8.42236,0.12897c0.12164,0.00218 0.23868,-0.0464 0.32301,-0.13413c0.0843,-0.08771 0.12824,-0.20657 0.12125,-0.32806l-0.47288,-9.03855c-0.00239,-0.04539 0.01315,-0.05134 0.04658,-0.01793l0.10032,0.10032c0.04539,0.04539 0.07165,0.03582 0.0788,-0.02866l0.02507,-0.18271c0.01192,-0.09553 0.05852,-0.17197 0.13972,-0.22928c1.75899,-1.24311 2.9412,-3.03075 4.84706,-4.05892c0.06209,-0.03105 0.09673,-0.08119 0.10391,-0.15046l0.02507,-0.16836c0.00301,-0.00988 0.01176,-0.01689 0.02206,-0.0177c0.01028,-0.0008 0.02003,0.0048 0.02452,0.01411l0.05014,0.13972c0.00899,0.03376 0.04153,0.05427 0.07603,0.04791c0.03448,-0.00634 0.06023,-0.03761 0.0601,-0.073c-0.00478,-0.18389 0.02267,-0.32004 0.08239,-0.4084z" fill="#ecb200"/><path d="M215.47176,172.42397l-0.11822,4.05535c-0.01357,0.45508 -0.38493,0.81694 -0.83829,0.81681l-11.98333,0.03942l-0.00358,-11.06622c0,-0.10488 0.08339,-0.18987 0.18628,-0.18987l12.6246,0.01793c0.10748,0 0.16003,0.05254 0.15761,0.15761z" fill="#c5fa55"/><path d="M250.87724,166.86759l-8.52268,0.11107c-0.15761,-0.35347 -0.13016,-0.60902 0.08239,-0.76665c0.11463,-0.08598 0.32122,-0.12897 0.61976,-0.12897c2.5555,0.00239 5.10501,0.00358 7.64856,0.00358c0.12419,0 0.21615,0.05493 0.27584,0.16479c0.09792,0.17912 0.06329,0.38452 -0.10391,0.6162z" fill="#805f00"/><path d="M261.09799,166.09736v11.20236c-0.00717,0.02388 -0.01551,0.04775 -0.02507,0.07165l-2.09572,-0.03582l-0.01431,-11.00173c0,-0.14092 0.07045,-0.21255 0.21136,-0.21495z" fill="#438115"/><path d="M261.09799,166.09736l11.65016,0.00358c0.28182,0 0.42392,0.1421 0.42631,0.42631l0.06806,10.2136l-0.10391,0.35468c-0.03582,0.12657 -0.11941,0.18987 -0.25077,0.18987l-11.78989,0.01431z" fill="#6dcf25"/><path d="M232.03708,166.17975c0.15046,0.30809 0.16479,0.60425 0.04299,0.88846c0.00955,0.06927 -0.03464,0.10508 -0.13256,0.10748l-0.0609,-0.13256c-0.01673,-0.04061 -0.04775,-0.0609 -0.09314,-0.0609h-8.02114c-0.1218,0 -0.19823,0.0597 -0.22928,0.17912c-0.13375,0.55648 -0.13851,1.15475 -0.01431,1.79482l-0.10391,0.27227l0.10032,-2.83732c0.00478,-0.13851 0.07644,-0.20777 0.21495,-0.20777z" fill="#c89800"/><path d="M250.87724,166.86759l0.12897,8.37579c0.00096,0.05666 -0.02126,0.11134 -0.06167,0.15174c-0.04041,0.04041 -0.09563,0.06319 -0.15328,0.06319l-8.21817,0.04299c-0.05287,0.00096 -0.10391,-0.01937 -0.14164,-0.05642c-0.03772,-0.03706 -0.05897,-0.08773 -0.05897,-0.14062l-0.01793,-8.32566zM245.9012,173.95729l3.35675,0.00358c0.12657,0 0.18987,-0.06329 0.18987,-0.18987l0.00358,-4.31327l-0.09673,-0.98516c-0.01431,-0.13615 -0.09075,-0.20418 -0.22928,-0.20418l-5.18741,0.05014c-0.11224,0 -0.16836,0.05733 -0.16836,0.17197l0.01793,5.30205c0,0.09299 0.07539,0.16836 0.16836,0.16836z" fill="#000000"/><path d="M231.94751,167.17568l0.18628,8.07129c0.00239,0.14092 -0.06688,0.21136 -0.20777,0.21136l-8.42594,-0.00717l-0.00358,-5.1444c0.18867,-0.57319 0.19943,-1.02339 0.03225,-1.35058c-0.12419,-0.64007 -0.11941,-1.23833 0.01431,-1.79482c0.03105,-0.11941 0.10748,-0.17912 0.22928,-0.17912h8.02114c0.04539,0 0.07644,0.0203 0.09314,0.0609zM227.06461,173.96088l3.38185,0.00358c0.10883,0 0.19704,-0.08821 0.19704,-0.19704v-4.19148l-0.00358,-0.98516c0,-0.11705 -0.05733,-0.17554 -0.17197,-0.17554h-5.37368c-0.11941,0 -0.17912,0.0597 -0.17912,0.17912v5.19098c0,0.11705 0.05852,0.17554 0.17554,0.17554z" fill="#000000"/><path d="M232.08006,167.0682c0.27227,-0.04299 0.41437,0.05612 0.42631,0.29736c0.11224,2.56504 0.22211,4.47687 0.3296,5.73552c0.08239,0.95296 -0.20418,2.12798 0.09314,3.10241c0.1027,0.34392 -0.02507,0.51588 -0.38332,0.51588l-6.54516,-0.00358c-1.04606,0.04299 -2.83732,0.62335 -2.50055,-1.26459l8.42594,0.00717c0.14092,0 0.21016,-0.07045 0.20777,-0.21136l-0.18628,-8.07129c0.09792,-0.00239 0.1421,-0.03822 0.13256,-0.10748z" fill="#ffe267"/><path d="M229.42903,219.90951c-1.80197,-1.01384 -1.49746,-2.55428 -1.47598,-4.20581c7.12911,0 14.25342,-0.00119 21.37297,-0.00358c3.51439,0 2.81223,-3.24572 2.81581,-5.53848c0.00239,-0.12419 0.06567,-0.18628 0.18987,-0.18628c4.74318,-0.00955 9.48399,-0.00836 14.22237,0.00358c2.37517,0.00358 3.22422,-0.92787 3.2278,-3.19914c0.00955,-4.76229 0.00955,-9.52457 0,-14.28685c0,-0.1218 0.06209,-0.18151 0.18628,-0.17912c2.66895,0.05733 5.52057,0.42631 5.62803,-2.79791c0.23644,-7.08611 -0.00717,-14.26179 0.01431,-21.30132c2.55787,-0.76307 4.22013,0.06806 4.24164,2.69042c0.07165,7.54227 0.06927,15.08336 -0.00717,22.62324c-0.03942,3.7365 -3.05226,2.90178 -5.53492,3.02719c-0.12657,0.00717 -0.19107,0.07405 -0.19346,0.20062c-0.09075,4.80766 -0.13375,9.61053 -0.12897,14.40866c0.00358,1.89155 -0.70574,3.00927 -2.65818,3.01285c-4.91513,0.00239 -9.82788,0.00358 -14.73825,0.00358c-0.11859,-0.00015 -0.21637,0.09291 -0.22211,0.21136c-0.1218,2.62236 0.87054,5.51341 -3.10241,5.51699c-7.96262,0.00717 -15.90852,0.00717 -23.8377,0z" fill-opacity="0.40965" fill="#000000"/><path d="M249.4514,169.45772l-3.28869,-0.04658c-0.12419,0 -0.18748,0.0609 -0.18987,0.18271l-0.07165,4.36343l-1.94528,0.00358c-0.09299,0 -0.16836,-0.07539 -0.16836,-0.16836l-0.01793,-5.30205c0,-0.11463 0.05612,-0.17197 0.16836,-0.17197l5.18741,-0.05014c0.13851,0 0.21495,0.06806 0.22928,0.20418z" fill="#438115"/><path d="M230.64349,169.57593l-3.31736,-0.11822c-0.06736,-0.00294 -0.13302,0.02219 -0.18172,0.06953c-0.04873,0.04735 -0.07623,0.11282 -0.07621,0.18125l-0.00358,4.2524h-1.97393c-0.11705,0 -0.17554,-0.05852 -0.17554,-0.17554v-5.19098c0,-0.11941 0.0597,-0.17912 0.17912,-0.17912h5.37368c0.11463,0 0.17197,0.05852 0.17197,0.17554z" fill="#6e9127"/><path d="M223.52872,168.95615c0.16719,0.32721 0.15643,0.77739 -0.03225,1.35058c-0.11224,-0.38213 -0.13615,-0.74157 -0.07165,-1.07832z" fill="#265508"/><path d="M230.64349,169.57593v4.19148c0,0.10883 -0.08821,0.19704 -0.19704,0.19704l-3.38185,-0.00358l0.00358,-4.2524c-0.00001,-0.06841 0.02752,-0.13386 0.07621,-0.18125c0.04873,-0.04735 0.11434,-0.07247 0.18172,-0.06953z" fill="#a2e636"/><path d="M249.4514,169.45772l-0.00358,4.31327c0,0.12657 -0.06329,0.18987 -0.18987,0.18987l-3.35675,-0.00358l0.07165,-4.36343c0.00239,-0.1218 0.06567,-0.18271 0.18987,-0.18271z" fill="#a2e636"/><path d="M215.47176,172.42397l0.08598,14.30118l-13.00791,0.03225l-0.01793,-9.42187l11.98333,-0.03942c0.45336,0.00015 0.82474,-0.3617 0.83829,-0.81681z" fill="#8ef639"/><path d="M273.24252,176.74086l0.03582,7.7811l-0.27584,1.95603c-0.02149,0.14807 -0.10748,0.22331 -0.25794,0.2257l-11.58567,0.02149l-0.08598,-9.35381c0.00955,-0.02388 0.01793,-0.04775 0.02507,-0.07165l11.78989,-0.01431c0.13136,0 0.21495,-0.06329 0.25077,-0.18987z" fill="#4ba810"/><path d="M257.254,177.45376l0.03225,19.21274l-13.11898,0.02149l0.49077,-0.16479c0.02149,-0.00717 0.02388,-0.01793 0.00717,-0.03225c-0.01673,-0.01673 -0.04061,-0.03822 -0.07165,-0.06448c-0.0597,-0.05493 -0.0609,-0.11224 -0.00358,-0.17197c1.6527,-1.67897 3.13107,-3.55261 4.43508,-5.62089l3.84398,-0.03582c0.13136,0 0.19704,-0.06567 0.19704,-0.19704c0.03105,-2.51013 -0.11107,-4.98797 -0.42631,-7.4336c-0.01673,-0.11941 -0.05733,-0.18987 -0.1218,-0.21136c-0.0788,-0.02626 -0.18031,-0.00239 -0.3045,0.07165c0.14807,-0.4084 0.123,-0.75232 -0.07524,-1.03175c0.97443,-0.03942 1.12848,-0.45498 1.65152,-1.06399c0.94578,-1.09863 1.89513,-2.19245 2.84806,-3.28154c0.04539,-0.05493 0.09912,-0.06448 0.16122,-0.02866c0.1027,0.0597 0.25436,0.07045 0.45498,0.03225z" fill="#c89800"/><path d="M258.97717,177.33556l2.09572,0.03582l0.08598,9.35381l-2.10648,0.04299z" fill="#376912"/><path d="M238.16666,181.8387l13.97159,-0.04299c0.19823,0.27943 0.22331,0.62335 0.07524,1.03175c-0.03105,0.00239 -0.06209,0.03582 -0.09314,0.10032c-0.11705,-0.24121 -0.25914,-0.36184 -0.42631,-0.36184c-3.9837,-0.01673 -13.77577,0.02267 -29.37617,0.11822l0.00358,-0.56243c0.00197,-0.16479 0.1361,-0.29736 0.30092,-0.29736z" fill="#805f00"/><path d="M252.12034,182.92777l0.13256,6.11167c0.00193,0.06869 -0.024,0.13525 -0.0719,0.18451c-0.04791,0.04927 -0.11371,0.07704 -0.18244,0.077l-29.53739,0.09673l-0.14328,-6.71353c15.60042,-0.09553 25.39248,-0.13495 29.37617,-0.11822c0.16719,0 0.30927,0.12061 0.42631,0.36184zM224.13059,186.86489c-0.30809,0.83591 0.38213,1.05803 2.07065,0.66635c-0.04299,0.00478 -0.03942,0.02746 0.01076,0.06806c0.03822,0.03105 0.08119,0.04658 0.12897,0.04658l22.12527,0.01431c1.01025,0.01793 2.32503,0.29376 2.04559,-1.06757c0.14328,-0.67112 0.12897,-1.36135 -0.04299,-2.07065c-0.02626,-0.10987 -0.09553,-0.16479 -0.20777,-0.16479h-25.99431c-0.05448,-0.00005 -0.10662,0.02208 -0.14446,0.06125c-0.03784,0.03918 -0.05811,0.09208 -0.05617,0.14653z" fill="#000000"/><path d="M249.02508,190.63364l-13.75665,0.01076l-12.57444,-0.02149c-0.12897,0 -0.19586,-0.06329 -0.20062,-0.18987l-0.03225,-1.03533l29.53739,-0.09673c0.06871,0.00001 0.13451,-0.02776 0.18244,-0.077c0.04791,-0.04927 0.07385,-0.11581 0.0719,-0.18451l-0.13256,-6.11167c0.03105,-0.06448 0.06209,-0.09792 0.09314,-0.10032c0.12419,-0.07405 0.2257,-0.09792 0.3045,-0.07165c0.06448,0.02149 0.10508,0.09194 0.1218,0.21136c0.31525,2.44563 0.45738,4.92349 0.42631,7.4336c0,0.13136 -0.06567,0.19704 -0.19704,0.19704z" fill="#ffec00"/><path d="M250.5118,186.59263l-0.33674,0.14328c0.41558,-0.83829 0.05014,-1.29683 -0.83114,-1.29683c-7.46824,-0.00478 -15.02007,0 -22.65549,0.01431c-0.41079,0.00239 -0.55767,0.19943 -0.44064,0.59111c0.05014,0.1624 0.02149,0.38452 -0.08598,0.66635c-0.82635,-0.10508 -1.50343,-0.05373 -2.03126,0.15404l-0.06448,-2.29995c-0.00196,-0.05444 0.01833,-0.10733 0.05617,-0.14653c0.03784,-0.03918 0.08998,-0.06129 0.14446,-0.06125h25.99431c0.11224,0 0.18151,0.05493 0.20777,0.16479c0.17197,0.70933 0.18628,1.39954 0.04299,2.07065z" fill="#438115"/><path d="M273.27835,184.52198l-0.0609,4.91156c-0.00196,0.11534 -0.09601,0.20781 -0.21136,0.20777h-13.71365c-0.11931,0.00001 -0.21657,-0.09567 -0.21853,-0.21495l-0.02149,-2.65818l2.10648,-0.04299l11.58567,-0.02149c0.15046,-0.00239 0.23644,-0.07763 0.25794,-0.2257z" fill="#265508"/><path d="M250.17506,186.73591c-0.37259,-0.05733 -0.56243,0.14092 -0.56962,0.59468c-0.00239,0.14328 -0.07524,0.22211 -0.21853,0.23644l-0.9207,0.09314l-22.12527,-0.01431c-0.04775,0 -0.09075,-0.01551 -0.12897,-0.04658c-0.05014,-0.04061 -0.05373,-0.06329 -0.01076,-0.06806l-0.03942,-0.82038c0.10748,-0.28182 0.13615,-0.50394 0.08598,-0.66635c-0.11705,-0.39169 0.02985,-0.58872 0.44064,-0.59111c7.63541,-0.01431 15.18723,-0.0191 22.65549,-0.01431c0.88129,0 1.2467,0.45857 0.83114,1.29683z" fill="#6dcf25"/><path d="M250.5118,186.59263c0.27943,1.36135 -1.03533,1.08548 -2.04559,1.06757l0.9207,-0.09314c0.14328,-0.01431 0.21615,-0.09314 0.21853,-0.23644c0.00717,-0.45379 0.19704,-0.652 0.56962,-0.59468z" fill="#376912"/><path d="M215.55776,186.72517l-0.0788,2.76566c-0.00239,0.10032 -0.05373,0.15046 -0.15404,0.15046h-12.46695c-0.17436,0 -0.26272,-0.08718 -0.26511,-0.26152l-0.04299,-2.62236z" fill="#438115"/><path d="M226.16182,186.71085l0.03942,0.82038c-1.68853,0.39169 -2.37876,0.16958 -2.07065,-0.66635c0.52782,-0.20777 1.20489,-0.25914 2.03126,-0.15404z" fill="#265508"/><path d="M249.02508,190.63364c-1.30401,2.06828 -2.78238,3.9419 -4.43508,5.62089c-0.05733,0.0597 -0.05612,0.11705 0.00358,0.17197c0.03105,0.02626 0.05493,0.04775 0.07165,0.06448c0.01673,0.01431 0.01431,0.02507 -0.00717,0.03225l-0.49077,0.16479l-15.40816,0.11822l0.88487,-0.14328c0.11224,-0.01673 0.20659,-0.06688 0.28301,-0.15046l5.34146,-5.86807z" fill="#ecb200"/><path d="M261.24844,192.23141l0.01793,6.12243c0.00409,1.09296 -0.87038,1.98659 -1.96319,2.00617l-6.91055,0.12538c-0.12443,0.00382 -0.22385,0.10481 -0.2257,0.22928l-0.04658,3.18124c-0.246,-1.49271 -0.24242,-2.97822 0.01076,-4.45659c0.02149,-0.12657 0.09792,-0.18748 0.22928,-0.18271c2.11126,0.08119 3.7174,0.05612 4.81841,-0.07524c2.77998,-0.33674 1.94528,-4.74318 1.95603,-6.70277c0,-0.13136 0.06688,-0.19943 0.20062,-0.20418z" fill="#157b79"/><path d="M223.78018,189.88511c-1.48792,-1.08189 -1.90467,-2.45639 -1.25027,-4.1234l1.07116,0.01793c0.13615,0.00239 0.20418,0.07285 0.20418,0.21136z" fill-opacity="0.45161" fill="#000000"/><path d="M215.58642,192.76163c-0.24837,1.98468 -0.19107,3.82369 0.17197,5.51699c0.73321,0.85025 1.45326,1.23238 2.16022,1.1464c0.78455,1.59777 3.84756,1.17504 5.31995,1.12848c0.08709,-0.0029 0.1717,0.0292 0.23496,0.0891c0.06327,0.05991 0.09993,0.14264 0.10179,0.22974l0.03942,1.58703l-0.0609,1.94885l-15.11083,0.02149l-0.00358,-12.012c0,-0.11941 0.0597,-0.17912 0.17912,-0.17912h6.80668c0.11705,0 0.17436,0.05852 0.17197,0.17554z" fill="#2cf8f5"/><path d="M261.24844,192.23141l5.82865,0.01431c0.12657,0 0.18987,0.06329 0.18987,0.18987l0.04299,11.9081l-15.25052,0.02866c-0.02626,-0.3678 -0.00597,-0.52662 0.0609,-0.47647l0.04658,-3.18124c0.00185,-0.12447 0.10127,-0.22547 0.2257,-0.22928l6.91055,-0.12538c1.0928,-0.01958 1.96728,-0.91322 1.96319,-2.00617z" fill="#0ab2b6"/><path d="M215.58642,192.76163c0.55169,1.60853 0.3045,3.85831 0.17197,5.51699c-0.36304,-1.69331 -0.42035,-3.53231 -0.17197,-5.51699z" fill="#055b5e"/><path d="M257.28625,196.66651c0.02388,0.20777 -0.00119,0.41676 -0.07524,0.62692c-0.04061,0.11941 -0.123,0.17792 -0.24718,0.17554c-14.93171,-0.08598 -27.45956,0.25436 -38.98793,0.07165c-0.27227,-0.00478 -0.46214,-0.06806 -0.56962,-0.18987c-0.16003,-0.18389 -0.16361,-0.42631 -0.01076,-0.72724c0.06927,0.16479 0.246,0.26511 0.5302,0.30092l10.83334,-0.11822l15.40816,-0.11822z" fill="#805f00"/><path d="M249.64844,201.38103l-0.12538,-0.61261c-0.02626,-0.12419 -0.1027,-0.19465 -0.22928,-0.21136c-1.78047,-0.2257 -4.01952,-0.04658 -5.29487,-0.0609c-5.97554,-0.07165 -11.94392,0.12538 -17.9159,0.06806l0.01431,-0.8777c0.00239,-0.14328 0.07524,-0.21615 0.21853,-0.21853l23.06747,-0.18987c0.14567,0 0.22091,0.07165 0.2257,0.21495z" fill="#438115"/><path d="M217.91859,199.425l5.49906,0.00717c0.14328,0 0.21375,0.07165 0.21136,0.21495l-0.01431,2.81223l-0.03942,-1.58703c-0.00186,-0.0871 -0.03853,-0.16983 -0.10179,-0.22974c-0.06327,-0.05991 -0.14788,-0.092 -0.23496,-0.0891c-1.47239,0.04658 -4.5354,0.46932 -5.31995,-1.12848z" fill="#157b79"/><path d="M249.64844,201.38103l-0.01431,8.93465l-23.55111,0.00358v-9.75504c5.97197,0.05733 11.94034,-0.13972 17.9159,-0.06806c1.27535,0.01431 3.51439,-0.16479 5.29487,0.0609c0.12657,0.01673 0.20301,0.08718 0.22928,0.21136z" fill="#6dcf25"/><path d="M267.30996,204.34374l-0.0609,2.81223c-0.00239,0.14567 -0.07644,0.21853 -0.22211,0.21853h-14.78839c-0.10091,0 -0.18271,-0.08182 -0.18271,-0.18271l0.00358,-2.8194z" fill="#055b5e"/><path d="M223.55379,204.40821l0.04658,2.76566c0.00239,0.13375 -0.06448,0.20062 -0.20062,0.20062h-14.78122c-0.11705,0 -0.17554,-0.05733 -0.17554,-0.17197v-2.77281z" fill="#157b79"/><path d="M210.23063,209.99325l13.076,0.00717c0.13375,0 0.20418,0.06688 0.21136,0.20062l0.21495,3.97652c-3.46782,0.00478 -6.93684,0.00478 -10.40705,0c-2.71194,-0.00358 -3.53589,-1.70526 -3.09525,-4.1843z" fill-opacity="0.40965" fill="#000000"/><path d="M226.08301,210.31926l23.55111,-0.00358l-0.00358,2.61877c0,0.23406 -0.11705,0.35108 -0.35108,0.35108h-23.01731c-0.10091,0 -0.18271,-0.08182 -0.18271,-0.18271z" fill="#376912"/></g></g></svg>