<svg version="1.1" xmlns="http://www.w3.org/2000/svg" xmlns:xlink="http://www.w3.org/1999/xlink" width="266.75745" height="10.56776" viewBox="0,0,266.75745,10.56776"><g transform="translate(-235.62362,-174.71413)"><g data-paper-data="{&quot;isPaintingLayer&quot;:true}" fill-opacity="0.69412" fill="#000000" fill-rule="nonzero" stroke-width="0" stroke-linecap="butt" stroke-linejoin="miter" stroke-miterlimit="10" stroke-dasharray="" stroke-dashoffset="0" style="mix-blend-mode: normal"><path d="M241.0089,185.27681v-10.55362h256.06018v10.55362z" stroke="#000000"/><path d="M235.62362,180c0,-2.91711 2.36478,-5.28189 5.28189,-5.28189c2.91711,0 5.28189,2.36478 5.28189,5.28189c0,2.91711 -2.36478,5.28189 -5.28189,5.28189c-2.91711,0 -5.28189,-2.36478 -5.28189,-5.28189z" stroke="none"/><path d="M491.81728,179.99602c0,-2.91711 2.36478,-5.28189 5.28189,-5.28189c2.91711,0 5.2819,2.36478 5.2819,5.28189c0,2.91711 -2.36479,5.28189 -5.2819,5.28189c-2.91711,0 -5.28189,-2.36478 -5.28189,-5.28189z" stroke="none"/></g></g></svg>