<svg version="1.1" xmlns="http://www.w3.org/2000/svg" xmlns:xlink="http://www.w3.org/1999/xlink" width="278.93892" height="10.56776" viewBox="0,0,278.93892,10.56776"><g transform="translate(-235.62362,-174.71413)"><g data-paper-data="{&quot;isPaintingLayer&quot;:true}" fill="#00ff18" fill-rule="nonzero" stroke-width="0" stroke-linecap="butt" stroke-linejoin="miter" stroke-miterlimit="10" stroke-dasharray="" stroke-dashoffset="0" style="mix-blend-mode: normal"><path d="M241.25482,185.27681v-10.55362h267.75315v10.55362z" stroke="#000000"/><path d="M235.62362,180c0,-2.91711 2.47276,-5.28189 5.52309,-5.28189c3.05032,0 5.52309,2.36478 5.52309,5.28189c0,2.91711 -2.47276,5.28189 -5.52309,5.28189c-3.05032,0 -5.52309,-2.36478 -5.52309,-5.28189z" stroke="none"/><path d="M503.51635,179.99602c0,-2.91711 2.47276,-5.28189 5.52309,-5.28189c3.05032,0 5.5231,2.36478 5.5231,5.28189c0,2.91711 -2.47277,5.28189 -5.5231,5.28189c-3.05032,0 -5.52309,-2.36478 -5.52309,-5.28189z" stroke="none"/></g></g></svg>