<svg version="1.1" xmlns="http://www.w3.org/2000/svg" xmlns:xlink="http://www.w3.org/1999/xlink" width="106.82479" height="99.74632" viewBox="0,0,106.82479,99.74632"><g transform="translate(-186.5876,-130.12684)"><g data-paper-data="{&quot;isPaintingLayer&quot;:true}" fill="#ffffff" fill-rule="nonzero" stroke="none" stroke-width="0" stroke-linecap="butt" stroke-linejoin="miter" stroke-miterlimit="10" stroke-dasharray="" stroke-dashoffset="0" style="mix-blend-mode: normal"><path d="M233.00363,194.21277v-5.66536h5.66536v5.66536z"/><path d="M221.36937,158.9729v-7.80899h7.80899v7.80899z"/><path d="M254.84444,177.50061v-7.80899h7.80899v7.80899z"/><path d="M196.96214,168.57344v-8.124h8.12401v8.124z"/><path d="M258.14342,204.50969v-5.53907h5.53907v5.53907z"/><path d="M186.5876,192.90276v-6.73718h6.73718v6.73718z"/><path d="M193.57733,221.36081v-5.16115h5.16115v5.16115z"/><path d="M237.98897,229.87316v-7.80899h7.80899v7.80899z"/><path d="M211.44638,207.23309v-7.24139h7.2414v7.24139z"/><path d="M263.89065,153.22978v-7.05219h7.05219v7.05219z"/><path d="M234.16284,166.912v-5.16116h5.16116v5.16116z"/><path d="M274.69881,225.12558v-5.12946h5.12946v5.12946z"/><path d="M203.86275,143.2315v-7.80899h7.80899v7.80899z"/><path d="M236.51942,139.25975v-9.13291h9.13291v9.13291z"/><path d="M281.67829,179.24875v-5.28697h5.28697v5.28697z"/><path d="M247.82119,182.36282l-3.54809,0l0,-3.54809l3.54809,0z"/><path d="M225.75126,189.64909l-4.89059,0l0,-4.89059h4.89059z"/><path d="M237.35474,168.68441l-4.89059,0l0,-4.89059l4.89059,0z"/><path d="M231.76386,204.93479l-5.08788,0l0,-5.08788h5.08788z"/><path d="M254.26992,166.61834l-3.46899,0l0,-3.46899l3.46899,0z"/><path d="M247.00076,211.43213h-4.21934l0,-4.21934l4.21934,0z"/><path d="M264.8234,207.05462l-3.23231,0v-3.23231l3.23231,0z"/><path d="M270.15449,179.24061l-4.89059,0l0,-4.89059l4.89059,0z"/><path d="M255.97553,195.86364l-4.53512,0v-4.53512l4.53512,0z"/><path d="M222.15447,163.01898l-4.41663,0l0,-4.41663l4.41663,0z"/><path d="M230.72333,181.63683l-3.23232,0l0,-3.23232l3.23232,0z"/><path d="M267.18119,156.25007l-3.21246,0l0,-3.21246l3.21246,0z"/><path d="M215.89277,200.61309l-4.89059,0l0,-4.89059l4.89059,0z"/><path d="M213.40535,180.16096l-5.71974,0l0,-5.71974l5.71974,0z"/><path d="M238.44956,151.87898l-3.31111,0l0,-3.31111l3.31111,0z"/><path d="M277.60414,194.22229l5.66537,0v5.66536l-5.66537,0z"/><path d="M289.45409,209.03985l0,-3.54809l3.54809,0l0,3.54809z"/><path d="M282.16782,186.96991v-4.89059l4.8906,0l0,4.89059z"/><path d="M275.95327,217.19419l0,-4.53512l4.53513,0l0,4.53512z"/><path d="M290.18008,191.94199l0,-3.23231l3.23231,0v3.23232z"/></g></g></svg>