<?xml version="1.0" standalone="no"?>
<!DOCTYPE svg PUBLIC "-//W3C//DTD SVG 1.1//EN" "http://www.w3.org/Graphics/SVG/1.1/DTD/svg11.dtd" >
<svg xmlns="http://www.w3.org/2000/svg" xmlns:xlink="http://www.w3.org/1999/xlink" version="1.1">
<metadata>
Created by FontForge 20170731 at Sun Nov 29 14:36:17 2020
 By Aleksey,,,
(c) 2020 VileR
</metadata>
<defs>
<font id="Flexi_IBM_VGA_True_437" horiz-adv-x="675" >
  <font-face 
    font-family="Flexi IBM VGA True (437)"
    font-weight="400"
    font-stretch="normal"
    units-per-em="1600"
    panose-1="0 0 0 9 0 0 0 0 0 0"
    ascent="1200"
    descent="-400"
    x-height="700"
    cap-height="1000"
    bbox="-1 -400 675 1200"
    underline-thickness="100"
    underline-position="-350"
    unicode-range="U+0001-266B"
  />
<missing-glyph 
d="M53 0v1066h425v-1066h-425zM106 53h319v960h-319v-960z" />
    <glyph glyph-name=".notdef" 
d="M53 0v1066h425v-1066h-425zM106 53h319v960h-319v-960z" />
    <glyph glyph-name="uni0000" 
 />
    <glyph glyph-name="uni0000" 
 />
    <glyph glyph-name="uni000D" unicode="&#xd;" 
d="M169 1000h412l10 -4q9 -7 9 -21v-250q0 -11 -4.5 -17.5t-9.5 -7.5h-5h-262l-10 -4q-9 -7 -9 -21v-450q0 -48 -16 -93q-26 -74 -82 -110q-1 -1 -2 -1q-34 -21 -88 -21q-57 0 -84 36q-7 10 -13 21q-15 30 -14 64v3q-1 83 70 142q25 22 54 34q22 9 24 31q1 7 1 19v625
q0 11 5 17.5t9 7.5h5zM319 900l-10 -4q-9 -7 -9 -21v-50q0 -11 4.5 -17.5t9.5 -7.5h5h112l10 4q9 7 9 21v50q0 11 -4.5 17.5t-9.5 7.5h-5h-112z" />
    <glyph glyph-name="uni0001" 
d="M150 1000h300q70 0 115 -71q35 -56 35 -129v-600q0 -93 -53 -153q-42 -47 -97 -47h-300q-70 0 -115 71q-35 56 -35 129v600q0 93 53 153q42 47 97 47zM150 900q-41 0 -63 -46q-12 -25 -12 -54v-600q0 -55 34 -84q19 -16 41 -16h300q41 0 63 46q12 25 12 54v600
q0 55 -34 84q-19 16 -41 16h-300zM169 800h37l10 -4q9 -7 9 -21v-50q0 -11 -4.5 -17.5t-9.5 -7.5h-5h-37l-10 4q-9 7 -9 21v50q0 11 4.5 17.5t9.5 7.5h5zM394 800h37l10 -4q9 -7 9 -21v-50q0 -11 -4.5 -17.5t-9.5 -7.5h-5h-37l-10 4q-9 7 -9 21v50q0 11 4.5 17.5t9.5 7.5h5z
M169 500h131h131q19 0 19 -24q0 -18 -11 -40q-17 -34 -53 -76q-52 -60 -86 -60q-35 1 -86 60q-36 43 -53 76q-21 42 -5 59q6 5 13 5z" />
    <glyph glyph-name="uni0002" 
d="M150 1000h300q70 0 115 -71q35 -56 35 -129v-600q0 -93 -53 -153q-42 -47 -97 -47h-300q-70 0 -115 71q-35 56 -35 129v600q0 93 53 153q42 47 97 47zM169 800l-10 -4q-9 -7 -9 -21v-50q0 -11 4.5 -17.5t9.5 -7.5h5h37l10 4q9 7 9 21v50q0 11 -4.5 17.5t-9.5 7.5h-5h-37z
M394 800l-10 -4q-9 -7 -9 -21v-50q0 -11 4.5 -17.5t9.5 -7.5h5h37l10 4q9 7 9 21v50q0 11 -4.5 17.5t-9.5 7.5h-5h-37zM169 500q-19 0 -19 -24q0 -18 11 -40q17 -34 53 -76q52 -60 86 -60q35 1 86 60q36 43 53 76q21 42 5 59q-6 5 -13 5h-131h-131z" />
    <glyph glyph-name="uni0003" 
d="M149 801q42 -2 86 -66q14 -20 27 -60q15 42 28 60q64 93 125 52q33 -22 67 -87q15 -28 23 -53q18 -56 20 -124v-23q0 -92 -24 -151q-27 -66 -123 -194l-116 -155l-115 155q-98 130 -124 195q-23 59 -23 150q0 87 14 130q3 9 6 17q21 66 66 118q13 15 24 22q20 14 39 14z
" />
    <glyph glyph-name="uni0004" 
d="M0 450l262 350l263 -350l-263 -350z" />
    <glyph glyph-name="uni0005" 
d="M300 900q23 0 44 -13q41 -27 76 -101q3 -8 6 -15q22 -58 24 -121v-25q0 -11 4.5 -17.5t9.5 -7.5h5h56h37l16 -4q21 -13 22 -46v-200q0 -22 -9.5 -34.5t-18.5 -13.5l-10 -2h-168l-10 4q-9 7 -9 21v175v50v25q0 11 -4.5 17.5t-9.5 7.5h-5h-112l-10 -4q-9 -7 -9 -21v-25v-50
v-175q0 -11 -4.5 -17.5t-9.5 -7.5h-5h-168l-16 4q-21 13 -22 46v200q0 22 9.5 34.5t18.5 13.5l10 2h37h56l10 4q9 7 9 21v25q0 57 20 113l4 8q33 78 76 111q4 3 6 5q21 13 44 13zM244 300h112l10 -4q9 -7 9 -21v-150q0 -11 4.5 -17.5t9.5 -7.5h5h37l10 -4q9 -7 9 -21v-50
q0 -11 -4.5 -17.5t-9.5 -7.5h-5h-262l-10 4q-9 7 -9 21v50q0 11 4.5 17.5t9.5 7.5h5h37l10 4q9 7 9 21v150q0 11 4.5 17.5t9.5 7.5h5z" />
    <glyph glyph-name="uni0006" 
d="M300 900q10 0 74 -64q8 -7 13 -13q136 -140 188 -245q6 -13 10 -24q6 -14 9.5 -27.5t4.5 -20.5l1 -6q0 -65 -56 -130q-28 -32 -56 -48q-41 -22 -76 -22h-18l-10 -4q-9 -7 -9 -21v-150q0 -11 4.5 -17.5t9.5 -7.5h5h37l10 -4q9 -7 9 -21v-50q0 -11 -4.5 -17.5t-9.5 -7.5h-5
h-262l-10 4q-9 7 -9 21v50q0 11 4.5 17.5t9.5 7.5h5h37l10 4q9 7 9 21v150q0 11 -4.5 17.5t-9.5 7.5h-5h-18q-36 0 -76 22q-50 28 -85 89q-27 47 -27 89l7 33q4 11 8 21q39 99 177 248l21 21q60 63 84 76q2 1 3 1z" />
    <glyph glyph-name="uni0007" 
d="M450 400q0 -92 -52 -152q-43 -48 -98 -48q-69 0 -114 70q-36 57 -36 130q0 92 52 152q43 48 98 48q69 0 114 -70q36 -57 36 -130z" />
    <glyph glyph-name="uni0008" 
d="M0 1200h600v-1600h-600v1600zM300 600q-69 0 -114 -70q-36 -57 -36 -130q0 -92 52 -152q43 -48 98 -48q69 0 114 70q36 57 36 130q0 92 -52 152q-43 48 -98 48z" />
    <glyph glyph-name="uni0009" unicode="&#x9;" 
d="M262 700h76q82 0 138 -81q49 -72 49 -169v-100q0 -110 -61 -184q-54 -66 -126 -66h-76q-82 0 -138 81q-49 72 -49 169v100q0 110 61 184q54 66 126 66zM300 600q-69 0 -114 -70q-36 -57 -36 -130q0 -92 52 -152q43 -48 98 -48q69 0 114 70q36 57 36 130q0 92 -52 152
q-43 48 -98 48z" />
    <glyph glyph-name="uni000A" unicode="&#xa;" 
d="M0 1200h600v-1600h-600v1600zM262 700q-82 0 -138 -81q-49 -72 -49 -169v-100q0 -110 61 -184q54 -66 126 -66h76q82 0 138 81q49 72 49 169v100q0 110 -61 184q-54 66 -126 66h-76zM300 600q69 0 114 -70q36 -57 36 -130q0 -92 -52 -152q-43 -48 -98 -48q-69 0 -114 70
q-36 57 -36 130q0 92 52 152q43 48 98 48z" />
    <glyph glyph-name="uni000B" 
d="M244 1000h262l10 -4q8 -7 9 -21v-350q0 -11 -4.5 -17.5t-9.5 -7.5h-5h-37l-10 4q-9 7 -9 21v150l-3 13q-5 11 -16 12q-16 0 -49 -42q-11 -13 -26 -33l-56 -75l38 -50q80 -107 98 -155q12 -33 14 -79v-118q0 -58 -19 -112q-30 -80 -96 -116q-29 -16 -55 -18q-16 -2 -36 -2
h-38q-56 0 -87 18q-3 1 -4 2q-67 37 -96 116q-19 55 -19 112v118q3 61 28 108q22 42 84 126l150 200q37 53 38 75q0 11 -4.5 17.5t-9.5 7.5h-5h-37l-10 4q-9 7 -9 21v50q0 11 4.5 17.5t9.5 7.5h5zM188 500l-16 -4q-21 -13 -22 -46v-200v-100q0 -31 28 -44q13 -6 28 -6h38
q43 0 54 35q2 8 2 15v100v200q0 22 -9.5 34.5t-18.5 14.5l-10 1h-74z" />
    <glyph glyph-name="uni000C" 
d="M281 1000h38q56 0 87 -18q3 -1 4 -2q67 -37 96 -116q19 -55 19 -112v-118q-3 -61 -28 -108q-22 -42 -85 -126q-37 -50 -37 -75l3 -13q5 -11 16 -12h94h18l10 -4q9 -7 9 -21v-50q0 -11 -4.5 -17.5t-9.5 -7.5h-5h-112q-8 0 -13 -6t-6 -12v-7v-150l-3 -13q-5 -11 -16 -12
h-112q-8 0 -13 6t-6 12v7v150l-3 13q-5 11 -16 12h-112l-10 4q-9 7 -9 21v50q0 11 4.5 17.5t9.5 7.5h5h18h94q8 0 13 6t6 12v7q-1 26 -37 75q-81 107 -99 155q-12 33 -14 79v118q0 58 19 112q30 80 96 116q29 16 55 18q16 2 36 2zM281 900q-43 0 -54 -35q-2 -8 -2 -15v-100
v-200q0 -22 9.5 -34.5t18.5 -14.5l9 -1h76l15 4q21 13 22 46v200v100q0 31 -28 44q-12 6 -28 6h-38z" />
    <glyph glyph-name="uni000E" 
d="M94 1000h487l10 -4q9 -7 9 -21v-750q0 -48 -12 -93q-21 -76 -63 -111q-26 -21 -66 -21q-32 0 -53 30q-6 9 -12 20q-17 38 -19 100q-1 113 62 181q2 3 4 4q8 9 9 19v21v300q0 11 -4.5 17.5t-9.5 7.5h-5h-187l-10 -4q-9 -7 -9 -21v-550q0 -48 -12 -93q-21 -76 -63 -111
q-26 -21 -66 -21q-32 0 -53 30q-6 9 -12 20q-17 38 -19 100q-1 113 62 181q2 3 4 4q8 9 9 19v21v700q0 11 5 17.5t9 7.5h5zM244 900l-10 -4q-9 -7 -9 -21v-50q0 -11 4.5 -17.5t9.5 -7.5h5h187l10 4q9 7 9 21v50q0 11 -4.5 17.5t-9.5 7.5h-5h-187z" />
    <glyph glyph-name="uni000F" 
d="M244 900h112l10 -4q9 -7 9 -21v-125v-125l3 -13q5 -11 16 -12q21 1 50 50t50 50h87l10 -4q9 -7 9 -21v-50q0 -11 -4.5 -17.5t-9.5 -7.5h-5h-56q-49 0 -69 -30q-6 -10 -6 -20q0 -27 35 -42q18 -8 40 -8h56l10 -4q9 -7 9 -21v-50q0 -11 -4.5 -17.5t-9.5 -7.5h-5h-56
q-49 0 -69 -30q-6 -10 -6 -20q0 -27 35 -42q18 -8 40 -8h56l10 -4q9 -7 9 -21v-50q0 -11 -4.5 -17.5t-9.5 -7.5h-5h-87q-21 1 -50 50q-30 49 -50 50q-9 0 -13.5 -6.5t-4.5 -12.5l-1 -6v-125v-125q0 -11 -4.5 -17.5t-9.5 -7.5h-5h-112l-10 4q-9 7 -9 21v125v125l-3 13
q-5 11 -16 12q-21 -1 -50 -50t-50 -50h-87l-10 4q-9 7 -9 21v50q0 11 4.5 17.5t9.5 7.5h5h56q49 0 69 30q6 10 6 20q0 27 -35 42q-18 8 -40 8h-56l-10 4q-9 7 -9 21v50q0 11 4.5 17.5t9.5 7.5h5h56q49 0 69 30q6 10 6 20q0 27 -35 42q-18 8 -40 8h-56l-10 4q-9 7 -9 21v50
q0 11 4.5 17.5t9.5 7.5h5h87q21 -1 50 -50q30 -49 50 -50q9 0 13.5 6.5t4.5 12.5l1 6v125v125q0 11 4.5 17.5t9.5 7.5h5zM244 500l-10 -4q-9 -7 -9 -21v-50q0 -11 4.5 -17.5t9.5 -7.5h5h112l10 4q9 7 9 21v50q0 11 -4.5 17.5t-9.5 7.5h-5h-112z" />
    <glyph glyph-name="uni0010" 
d="M19 1100q16 0 50 -43q11 -14 25 -32l112 -150q145 -193 186 -233q33 -34 82 -52q3 -2 6 -3q36 -13 40 -17q5 -8 5 -20q0 -19 -14 -25q-2 -1 -31 -12q-50 -18 -79 -45q-36 -35 -159 -197q-14 -18 -32 -43l-116 -153q-52 -69 -69 -74q-4 -1 -6 -1q-9 0 -13.5 6t-5.5 12v7
v1050l3 13q5 11 16 12z" />
    <glyph glyph-name="uni0011" 
d="M506 1100q8 0 13 -6t6 -12v-7v-1050l-3 -13q-5 -11 -16 -12q-16 0 -50 43q-11 14 -25 32q-1 1 -116 153q-143 191 -181 229q-34 35 -79 52l-10 4q-36 13 -40 17q-5 8 -5 20q0 19 14 26q2 1 31 11q51 19 81 48q41 38 171 211q11 14 22 29l112 150q52 69 69 74q4 1 6 1z
" />
    <glyph glyph-name="uni0012" 
d="M300 1000q10 0 74 -64q8 -7 13 -13q64 -66 125 -159q13 -21 13 -39q0 -11 -5 -17.5t-9 -7.5h-5h-112l-10 -4q-9 -7 -9 -21v-250q0 -11 4.5 -17.5t9.5 -7.5h5h112l10 -4q8 -7 9 -21q-1 -19 -13 -39q-62 -94 -125 -159q-60 -63 -84 -76q-2 -1 -3 -1q-1 1 -25 17
q-81 64 -173 196q-8 13 -16 24q-11 16 -11 38q0 11 4.5 17.5t9.5 7.5h5h112l10 4q9 7 9 21v250q0 11 -4.5 17.5t-9.5 7.5h-5h-112l-10 4q-9 7 -9 21q1 24 11 38q86 130 172 205q9 8 17 15z" />
    <glyph glyph-name="uni0013" 
d="M94 1000h112l10 -4q9 -7 9 -21v-650q0 -11 -4.5 -17.5t-9.5 -7.5h-5h-112l-10 4q-9 7 -9 21v650q0 11 4.5 17.5t9.5 7.5h5zM394 1000h112l10 -4q9 -7 9 -21v-650q0 -11 -4.5 -17.5t-9.5 -7.5h-5h-112l-10 4q-9 7 -9 21v650q0 11 4.5 17.5t9.5 7.5h5zM94 200h112l10 -4
q9 -7 9 -21v-150q0 -11 -4.5 -17.5t-9.5 -7.5h-5h-112l-10 4q-9 7 -9 21v150q0 11 4.5 17.5t9.5 7.5h5zM394 200h112l10 -4q9 -7 9 -21v-150q0 -11 -4.5 -17.5t-9.5 -7.5h-5h-112l-10 4q-9 7 -9 21v150q0 11 4.5 17.5t9.5 7.5h5z" />
    <glyph glyph-name="uni0014" 
d="M206 1000h375l10 -4q8 -7 9 -21v-950q0 -11 -4.5 -17.5t-9.5 -7.5h-5h-112l-10 4q-9 7 -9 21v850q0 11 -4.5 17.5t-9.5 7.5h-5h-37l-10 -4q-9 -7 -9 -21v-850q0 -11 -4.5 -17.5t-9.5 -7.5h-5h-112l-10 4q-9 7 -9 21v450l-3 13q-5 11 -16 12q-57 0 -87 18q-3 1 -4 2
q-67 37 -96 115q-19 52 -19 115q0 60 19 114q30 80 96 116q29 16 55 18q16 2 36 2zM206 900q-43 0 -54 -35q-2 -8 -2 -15v-200q0 -31 28 -45q12 -5 28 -5q8 0 13 6t6 12v7v250q0 11 -4.5 17.5t-9.5 7.5h-5zM0 750z" />
    <glyph glyph-name="uni0015" 
d="M206 1100h56q90 0 116 -13q63 -29 113 -90q33 -43 34 -72q0 -11 -4.5 -17.5t-9.5 -7.5h-5h-37q-41 0 -55 11q-5 4 -18 18l-21 21q-37 36 -52 42q-20 8 -61 8h-74l-18 -4q-19 -12 -20 -36q0 -55 56 -96q8 -7 19 -14l75 -50q210 -144 224 -281q1 -10 1 -19q0 -67 -70 -159
q-3 -4 -5 -6q-38 -47 -70 -74q-9 -9 10 -29q134 -110 135 -182q0 -32 -22 -67q-4 -5 -6 -8q-62 -75 -178 -75h-57q-89 0 -115 13q-51 24 -99 75t-48 87q0 11 4.5 17.5t9.5 7.5h5h37q41 0 55 -11q5 -4 18 -18l21 -21q37 -36 52 -42q20 -8 60 -8h76l17 4q19 12 20 36
q0 55 -56 96q-8 7 -19 14l-75 50q-210 144 -224 281q-1 10 -1 19q0 67 70 159q3 4 5 6q38 47 70 74q9 9 -10 29q-134 110 -135 182q0 32 22 67q4 5 6 8q62 75 178 75zM263 699q-20 -1 -53 -42q-71 -91 -53 -197q10 -57 45 -106q39 -55 63 -52q9 1 19 8q28 19 58 78
q11 19 16 36q40 112 -30 215q-7 9 -13 17q-34 43 -52 43z" />
    <glyph glyph-name="uni0016" 
d="M506 400l10 -4q9 -7 9 -21v-350q0 -11 -4.5 -17.5t-9.5 -7.5h-5h-487l-10 4q-9 7 -9 21v350q0 11 4.5 17.5t9.5 7.5h5h487z" />
    <glyph glyph-name="uni0017" 
d="M300 1000q10 0 74 -64q8 -7 13 -13q64 -66 125 -159q13 -21 13 -39q0 -11 -5 -17.5t-9 -7.5h-5h-112l-10 -4q-9 -7 -9 -21v-250q0 -11 4.5 -17.5t9.5 -7.5h5h112l10 -4q8 -7 9 -21q-1 -19 -13 -39q-62 -94 -125 -159q-60 -63 -84 -76q-2 -1 -3 -1q-1 1 -25 17
q-81 64 -173 196q-8 13 -16 24q-11 16 -11 38q0 11 4.5 17.5t9.5 7.5h5h112l10 4q9 7 9 21v250q0 11 -4.5 17.5t-9.5 7.5h-5h-112l-10 4q-9 7 -9 21q1 24 11 38q86 130 172 205q9 8 17 15zM300 100h206l10 -4q9 -7 9 -21v-50q0 -11 -4.5 -17.5t-9.5 -7.5h-5h-412l-10 4
q-9 7 -9 21v50q0 11 4.5 17.5t9.5 7.5h5h206z" />
    <glyph glyph-name="uni0018" 
d="M300 1000q10 0 74 -64q8 -7 13 -13q64 -66 125 -159q13 -21 13 -39q0 -11 -5 -17.5t-9 -7.5h-5h-112l-10 -4q-9 -7 -9 -21v-650q0 -11 -4.5 -17.5t-9.5 -7.5h-5h-112l-10 4q-9 7 -9 21v650q0 11 -4.5 17.5t-9.5 7.5h-5h-112l-10 4q-9 7 -9 21q1 24 11 38q86 130 172 205
q9 8 17 15z" />
    <glyph glyph-name="uni0019" 
d="M300 0q-1 1 -25 17q-81 64 -173 196q-8 13 -16 24q-11 16 -11 38q0 11 4.5 17.5t9.5 6.5l5 1h112l10 4q9 7 9 21v650q0 11 4.5 17.5t9.5 6.5l5 1h112l10 -4q9 -7 9 -21v-650q0 -11 4.5 -17.5t9.5 -6.5l5 -1h112l10 -4q8 -7 9 -21q-1 -19 -13 -39q-62 -94 -125 -159
q-60 -63 -84 -76q-2 -1 -3 -1z" />
    <glyph glyph-name="uni001A" 
d="M319 700q19 0 47 -38q1 -1 3 -4q4 -6 6 -8l113 -150l37 -50l-37 -50l-113 -150q-28 -37 -39 -44q-9 -6 -17 -6h-75l-10 4q-9 7 -9 21q0 22 36 72q7 10 16 23q16 19 23 30l7 11q2 9 3 17q0 10 -5 15.5t-9 5.5l-5 1h-272l-10 4q-9 7 -9 21v50q0 11 4.5 17.5t9.5 7.5h5h272
l10 4q8 7 9 21q-1 6 -3 12.5t-5 9.5l-2 3l-24 32q-47 64 -51 86v7q0 11 4.5 17t9.5 7l5 1h75z" />
    <glyph glyph-name="uni001B" 
d="M206 700h75l10 -4q9 -7 9 -21q0 -21 -32 -66q-8 -12 -19 -27l-24 -32l-7 -13q-2 -6 -3 -12q0 -11 5 -17.5t9 -6.5l5 -1h272l10 -4q9 -7 9 -21v-50q0 -11 -4.5 -17.5t-9.5 -7.5h-5h-272l-11 -4q-7 -7 -8 -18q1 -8 3 -15t5 -10l2 -3q8 -13 23 -30q49 -73 52 -95
q0 -11 -4.5 -17t-9.5 -7l-5 -1h-75q-19 0 -47 38q-1 1 -3 4q-4 6 -6 8l-112 150l-38 50l38 50l112 150q28 37 39 44q9 6 17 6z" />
    <glyph glyph-name="uni001C" 
d="M506 200h-487l-10 4q-8 7 -9 21v350q0 11 4.5 17.5t9.5 7.5h5h112l10 -4q9 -7 9 -21v-250q0 -11 4.5 -17.5t9.5 -7.5h5h337l10 -4q9 -7 9 -21v-50q0 -11 -4.5 -17.5t-9.5 -7.5h-5z" />
    <glyph glyph-name="uni001D" 
d="M206 700q8 0 13 -6t6 -12v-7v-150q0 -11 4.5 -17.5t9.5 -7.5h5h112l10 4q9 7 9 21v150l3 13q5 11 16 12q8 0 60 -62.5t99 -125.5l47 -62l-113 -146q-82 -103 -93 -104q-8 0 -13 6t-6 12v7v150q0 11 -4.5 17.5t-9.5 7.5h-5h-112l-10 -4q-9 -7 -9 -21v-150l-3 -13
q-5 -11 -16 -12q-8 0 -60 62.5t-99 125.5l-47 62l113 146q82 103 93 104z" />
    <glyph glyph-name="uni001E" 
d="M0 125v25q0 41 20 101q14 41 62 169q116 311 157 363q13 17 23 17q25 0 73 -109q38 -85 108 -271t78 -224q4 -22 4 -46v-25l-3 -13q-5 -11 -16 -12h-489l-9 4q-8 7 -8 21z" />
    <glyph glyph-name="uni001F" 
d="M0 775q0 11 4 17.5t8 6.5l5 1h489q8 0 13 -6t6 -12v-7v-25q0 -41 -20 -101q-13 -39 -62 -169q-116 -309 -156 -362q-14 -18 -25 -18q-24 0 -74 113q-38 85 -106 267q-70 186 -78 225q-4 21 -4 45v25z" />
    <glyph glyph-name="space" unicode=" " 
 />
    <glyph glyph-name="exclam" unicode="!" 
d="M225 25v150q0 11 4.5 17.5t9.5 7.5h5h112l10 -4q9 -7 9 -21v-150q0 -11 -4.5 -17.5t-9.5 -7.5h-5h-112l-10 4q-9 7 -9 21zM244 300q-8 0 -13 6t-6 12v7v184q0 10 -7 27t-13 29l-7 12q-6 14 -16 37q-24 59 -28 77t-4 66q0 57 11 87q2 5 5 13q24 61 77 110q35 32 57 33
q33 0 84 -61q34 -41 50 -82q14 -35 15 -68q1 -14 1 -32q0 -54 -7 -77q-4 -14 -41 -103l-18 -36q-9 -20 -9 -31v-185l-3 -13q-5 -11 -16 -12h-112z" />
    <glyph glyph-name="quotedbl" unicode="&#x22;" 
d="M147 755q-40 55 -55 95q-16 44 -17 96v129q0 11 4.5 17.5t9.5 7.5h5h112q8 0 13 -6t6 -12v-7v-350q0 -11 -4.5 -17.5t-9.5 -7.5h-5q-15 -4 -54 49q-3 3 -5 6zM453 755q-44 -57 -59 -55l-10 4q-9 7 -9 21v350l3 13q5 11 16 12h112l10 -4q8 -7 9 -21v-129q-2 -54 -17 -96
q-16 -41 -55 -95z" />
    <glyph glyph-name="numbersign" unicode="#" 
d="M75 25v150q0 11 -4.5 17.5t-9.5 7.5h-5h-37q-9 0 -13.5 6t-4.5 13l-1 6v50q0 11 4.5 17.5t9.5 7.5h5h37q8 0 13 6t6 12v7v250q0 11 -4.5 17.5t-9.5 7.5h-5h-37q-9 0 -13.5 6t-4.5 13l-1 6v50q0 11 4.5 17.5t9.5 7.5h5h37q8 0 13 6t6 12v7v150q0 11 4.5 17.5t9.5 7.5h5
h112q8 0 13 -6t6 -12v-7v-150q0 -11 4.5 -17.5t9.5 -7.5h5h37q9 0 13.5 6t5.5 12v7v150q0 11 4.5 17.5t9.5 7.5h5h112l10 -4q9 -7 9 -21v-150q0 -11 4.5 -17.5t9.5 -7.5h5h37q8 0 13 -6t6 -12v-7v-50q0 -11 -4.5 -17.5t-9.5 -7.5h-5h-37q-9 0 -13.5 -6t-5.5 -12v-7v-250
q0 -11 4.5 -17.5t9.5 -7.5h5h37q8 0 13 -6t6 -12v-7v-50q0 -11 -4.5 -17.5t-9.5 -7.5h-5h-37q-9 0 -13.5 -6t-5.5 -12v-7v-150q0 -11 -4.5 -17.5t-9.5 -7.5h-5h-112l-10 4q-9 7 -9 21v150q0 11 -4.5 17.5t-9.5 7.5h-5h-37q-8 0 -13 -6t-6 -12v-7v-150l-3 -13q-5 -11 -16 -12
h-112q-8 0 -13 6t-6 12v7zM281 300q9 0 13.5 6t5.5 12v7v250q0 11 -4.5 17.5t-9.5 7.5h-5h-37q-8 0 -13 -6t-6 -12v-7v-250l3 -13q5 -11 16 -12h37z" />
    <glyph glyph-name="dollar" unicode="$" 
d="M244 1200h112q8 0 13 -6t6 -12v-7v-150q1 -17 19 -28q8 -5 10 -7q50 -37 88 -101q10 -16 15 -29q15 -37 17 -87q1 -26 1 -48l-3 -13q-5 -11 -16 -12q-8 1 -15 6q-14 12 -60 73q-5 7 -15 23q-40 60 -72 80q-29 18 -63 18h-112l-10 -4q-9 -7 -9 -21v-250l3 -13
q5 -11 16 -12h187q127 -8 158 -170q11 -56 11 -130q0 -135 -29 -193q-17 -35 -70 -84q-3 -4 -12 -12q-13 -12 -20 -19q-18 -6 -19 -29v-138l-3 -13q-5 -11 -16 -12h-112q-8 0 -13 6t-6 12v7v150q0 11 -4.5 17.5t-9.5 7.5h-5h-37q-69 0 -135 113q-8 13 -16 27q-15 37 -17 87
q-1 26 -1 48l3 13q5 11 16 12q8 -1 15 -6q14 -12 60 -73q6 -8 18 -26q45 -65 73 -82q20 -13 40 -13h131l10 4q9 7 9 21v350l-3 13q-5 11 -16 12h-187q-68 0 -118 71q-51 73 -51 179q0 118 61 194q46 56 97 56h48q8 0 13 6t6 12v7v150l3 13q5 11 16 12z" />
    <glyph glyph-name="percent" unicode="%" 
d="M507 800q15 0 18 -13q1 -9 1 -37q0 -44 -13 -81q-2 -6 -6 -16q-13 -37 -57 -99q-39 -55 -186 -252q-190 -255 -226 -294q-8 -7 -19 -8q-15 0 -18 13q-1 9 -1 37q0 44 13 81q2 6 6 16q13 37 57 99q39 55 186 252q190 255 226 294q8 7 19 8zM19 800h112l10 -4q9 -7 9 -21
v-150q0 -11 -4.5 -17.5t-9.5 -7.5h-5h-112l-10 4q-9 7 -9 21v150q0 11 4.5 17.5t9.5 7.5h5zM394 200h112l10 -4q9 -7 9 -21v-150q0 -11 -4.5 -17.5t-9.5 -7.5h-5h-112l-10 4q-9 7 -9 21v150q0 11 4.5 17.5t9.5 7.5h5z" />
    <glyph glyph-name="ampersand" unicode="&#x26;" 
d="M262 1000q73 0 133 -66q55 -62 55 -134q0 -40 -20 -71q-7 -11 -29 -39q-30 -39 -50 -67q-49 -69 -51 -90q0 -12 8 -22q13 -18 36 -8q4 2 6 4q10 8 23 34q28 59 100 59h33l10 -4q9 -7 9 -21v-50q0 -11 -4.5 -17.5t-9.5 -7.5h-5h-37l-10 -4q-9 -7 -9 -21v-350l3 -13
q5 -11 16 -12h37q8 0 13 -6t6 -12v-7v-50q0 -11 -4.5 -17.5t-9.5 -6.5l-5 -1h-29q-44 0 -72 29q-12 12 -26 31q-30 42 -45 40q-13 -4 -34 -38q-28 -47 -57 -57q-17 -5 -46 -5q-40 0 -66 12q-86 48 -114 128q-19 57 -17 140q0 115 8 149q9 41 51 99q12 17 40 53l52 73
q-7 10 -21 27q-36 45 -46 76q-7 21 -9 43q0 74 57 136q59 64 130 64zM253 900l-13 -4q-14 -11 -15 -34v-137q0 -11 4.5 -17.5t9.5 -7.5h5h37l10 4q9 7 9 21v138q0 16 -7 25.5t-14 10.5l-7 1h-19zM169 500q-9 0 -13.5 -6t-5.5 -12v-7v-325l3 -21q10 -28 35 -29h93l10 4
q9 7 9 21v91q-2 91 -12 120q-3 9 -8 21q-62 143 -111 143z" />
    <glyph glyph-name="quotesingle" unicode="'" 
d="M169 1100h112l10 -4q9 -7 9 -21v-96v-4v-27v-23q-2 -45 -12 -70q0 -1 -2 -5q-2 -6 -4 -8q-22 -55 -70 -99q-14 -14 -27 -21q-36 -22 -73 -22q-22 1 -29 10q-16 22 4 54q3 4 5 8q23 33 36 59q19 46 21 78q1 12 1 24v142q0 11 4.5 17.5t9.5 7.5h5z" />
    <glyph glyph-name="parenleft" unicode="(" 
d="M409 1000q33 0 39 -13q2 -5 2 -12q0 -23 -13 -37q-2 -3 -9 -10q-20 -21 -34 -38q-67 -83 -84 -145q-10 -40 -10 -95v-300q-1 -88 32 -150q21 -39 62 -90q15 -18 34 -38q18 -19 21 -30q1 -8 1 -17q0 -23 -27 -25h-14q-26 0 -46 9q-58 28 -129 125q-41 57 -62 106
q-22 49 -22 110v300q0 61 22 110q35 82 108 162q47 52 83 69q21 9 46 9z" />
    <glyph glyph-name="parenright" unicode=")" 
d="M191 1000q26 0 46 -9q58 -28 129 -125q41 -57 62 -106q22 -49 22 -110v-300q0 -61 -22 -110q-35 -82 -108 -162q-47 -52 -83 -69q-21 -9 -46 -9q-33 0 -39 13q-2 5 -2 12q0 23 13 37q2 3 9 10q20 21 34 38q67 83 84 145q10 40 10 95v300q1 88 -32 150q-21 39 -62 90
q-15 18 -34 38q-18 19 -21 30q-1 8 -1 17q0 23 27 25h14z" />
    <glyph glyph-name="asterisk" unicode="*" 
d="M122 700q24 0 46 -13q13 -8 57 -37l75 -50l75 50q4 3 11 7q48 32 59.5 37.5t32.5 5.5h1q40 0 45 -17q1 -6 1 -17q-1 -14 -37 -66q-38 -53 -38 -75q0 -11 4.5 -17.5t9.5 -7.5h5h112q9 0 13.5 -6t5.5 -12v-7v-50l-3 -13q-5 -11 -16 -12h-112l-10 -4q-9 -7 -9 -21
q1 -24 38 -75q36 -52 37 -66q0 -23 -10 -28q-10 -6 -36 -6q-25 0 -44 11q-11 7 -60 39l-75 50l-75 -50q-68 -46 -83 -49q-7 -1 -20 -1q-41 0 -46 16q-1 6 -1 18q1 14 37 66q38 53 38 75l-3 13q-5 11 -16 12h-112q-9 0 -13.5 6t-5.5 12v7v50l3 13q5 11 16 12h112q9 0 13.5 6
t5.5 12v7q-1 24 -38 75q-36 52 -37 66q0 23 9 28q10 6 38 6z" />
    <glyph glyph-name="plus" unicode="+" 
d="M244 700h112l10 -4q9 -7 9 -21v-150q0 -11 4.5 -17.5t9.5 -7.5h5h112l10 -4q9 -7 9 -21v-50q0 -11 -4.5 -17.5t-9.5 -7.5h-5h-112l-10 -4q-9 -7 -9 -21v-150q0 -11 -4.5 -17.5t-9.5 -7.5h-5h-112l-10 4q-9 7 -9 21v150q0 11 -4.5 17.5t-9.5 7.5h-5h-112l-10 4q-9 7 -9 21
v50q0 11 4.5 17.5t9.5 7.5h5h112l10 4q9 7 9 21v150q0 11 4.5 17.5t9.5 7.5h5z" />
    <glyph glyph-name="comma" unicode="," 
d="M244 300h112l10 -4q9 -7 9 -21v-96v-4v-27v-23q-2 -45 -12 -70q0 -1 -2 -5q-2 -6 -4 -8q-22 -55 -70 -99q-14 -14 -27 -21q-36 -22 -72 -22q-23 1 -30 10q-16 22 4 54q3 4 5 8q23 33 36 59q19 46 21 78q1 12 1 24v142q0 11 4.5 17.5t9.5 7.5h5z" />
    <glyph glyph-name="hyphen" unicode="-" 
d="M0 475q0 11 4.5 17.5t9.5 7.5h5h487l10 -4q9 -7 9 -21v-50q0 -11 -4.5 -17.5t-9.5 -7.5h-5h-487l-10 4q-9 7 -9 21v50z" />
    <glyph glyph-name="period" unicode="." 
d="M225 25v150q0 11 4.5 17.5t9.5 7.5h5h112l10 -4q9 -7 9 -21v-150q0 -11 -4.5 -17.5t-9.5 -7.5h-5h-112l-10 4q-9 7 -9 21z" />
    <glyph glyph-name="slash" unicode="/" 
d="M507 800q15 0 18 -13q1 -9 1 -37q0 -44 -13 -81q-2 -6 -6 -16q-13 -37 -57 -99q-39 -55 -186 -252q-190 -255 -226 -294q-8 -7 -19 -8q-15 0 -18 13q-1 9 -1 37q0 44 13 81q2 6 6 16q13 37 57 99q39 55 186 252q190 255 226 294q8 7 19 8z" />
    <glyph glyph-name="zero" unicode="0" 
d="M300 1000q119 0 193 -92q37 -47 85 -148q22 -46 22 -126v-34v-50v-150q0 -89 -12 -130q-4 -16 -10 -30q-58 -118 -101 -165q-70 -75 -177 -75q-158 0 -252 183q-13 26 -26 57q-21 48 -22 141v21v48v148q0 95 13 137q4 14 9 25q69 165 168 215q50 25 110 25zM300 900
q-55 0 -105 -87q-14 -25 -26 -53q-19 -61 -19 -134v-76v-176q0 -75 19 -134q42 -102 99 -131q16 -9 32 -9q56 0 106 90q13 24 24 50q20 41 20 111v24v175v75q0 74 -9 105q-4 16 -11 30q-43 105 -100 133q-16 7 -30 7zM244 600h112l10 -4q9 -7 9 -21v-150q0 -11 -4.5 -17.5
t-9.5 -7.5h-5h-112l-10 4q-9 7 -9 21v150q0 11 4.5 17.5t9.5 7.5h5z" />
    <glyph glyph-name="one" unicode="1" 
d="M326 1000h30q8 0 13 -6t6 -12v-7v-850q0 -11 4.5 -17.5t9.5 -7.5h5h112l10 -4q9 -7 9 -21v-50q0 -11 -4.5 -17.5t-9.5 -7.5h-5h-412l-10 4q-9 7 -9 21v50q0 11 4.5 17.5t9.5 7.5h5h112l10 4q9 7 9 21v550l-3 13q-5 11 -16 12h-112l-10 4q-9 7 -9 21q0 22 38 75
q15 21 40 54q79 104 114 127q25 16 59 19z" />
    <glyph glyph-name="two" unicode="2" 
d="M262 1000h57q74 0 137 -54q68 -60 69 -146q0 -29 -13 -55q-5 -9 -13 -24q-9 -15 -138 -188q-14 -19 -26 -35q-133 -180 -160 -232q-24 -45 -25 -96v-8v-37l3 -13q6 -11 16 -12h131q36 0 49 12q11 11 25 37q21 40 35 47q11 4 41 4h56l10 -4q9 -7 9 -21v-150
q0 -11 -4.5 -17.5t-9.5 -7.5h-5h-244h-243q-9 0 -13.5 6t-5.5 12v7v81q0 84 6 108q12 48 70 132q36 53 116 159q130 174 155 219q23 41 28 76q3 27 0 50q-7 43 -56 49q-13 1 -57 1q-53 0 -77 -18q-9 -7 -35 -32l-21 -21q-22 -24 -36 -27q-11 -2 -37 -2h-37l-10 4q-9 7 -9 21
q0 42 61 101q43 41 86 61q28 13 115 13z" />
    <glyph glyph-name="three" unicode="3" 
d="M262 1000h57q58 0 80 -13q3 -2 11 -7q47 -29 82 -88q9 -16 14 -29q17 -42 19 -88q5 -106 -37 -172q-19 -28 -41 -40l-22 -13l23 -13q49 -30 68 -112q9 -41 9 -74q1 -17 0 -54v-49q0 -58 -19 -112q-30 -80 -96 -116q-29 -16 -55 -18q-16 -2 -36 -2h-57q-89 0 -115 13
q-63 29 -113 90q-33 43 -34 72q0 11 4.5 17.5t9.5 7.5h5h37q41 0 55 -11q5 -4 18 -18l21 -21q37 -36 52 -42q20 -8 60 -8h57q43 0 54 35q2 8 2 15v150v150q0 22 -9.5 34.5t-18.5 13.5l-9 2h-38h-131l-10 4q-9 7 -9 21v50q0 11 4.5 17.5t9.5 7.5h5h169l15 4q21 13 22 46v100
v100q0 31 -28 44q-12 6 -28 6h-57q-53 0 -77 -18q-9 -7 -35 -32l-21 -21q-22 -24 -36 -27q-11 -2 -37 -2h-37l-10 4q-9 7 -9 21q0 42 61 101q43 41 86 61q28 13 115 13z" />
    <glyph glyph-name="four" unicode="4" 
d="M401 1000h30q9 0 13.5 -6t5.5 -12v-7v-275v-175q0 -11 4.5 -17.5t9.5 -7.5h5h37l10 -4q9 -7 9 -21v-50q0 -11 -4.5 -17.5t-9.5 -7.5h-5h-37l-10 -4q-9 -7 -9 -21v-250q0 -11 4.5 -17.5t9.5 -7.5h5h37l10 -4q9 -7 9 -21v-50q0 -11 -4.5 -17.5t-9.5 -7.5h-5h-262l-10 4
q-9 7 -9 21v50q0 11 4.5 17.5t9.5 7.5h5h37l10 4q9 7 9 21v250q0 11 -4.5 17.5t-9.5 7.5h-5h-262l-10 4q-9 7 -9 21v40q3 62 28 110q14 26 38 61l162 218q79 104 114 127q25 16 59 19zM281 700q-16 0 -49 -41q-4 -5 -7 -10l-37 -49q-37 -53 -38 -75q0 -11 5 -17t9 -7l5 -1
h112l10 4q9 7 9 21v150l-3 14q-5 11 -16 11z" />
    <glyph glyph-name="five" unicode="5" 
d="M19 1000h487l10 -4q9 -7 9 -21v-50q0 -11 -4.5 -17.5t-9.5 -7.5h-5h-337l-10 -4q-9 -7 -9 -21v-250q0 -11 4.5 -17.5t9.5 -7.5h5h150q56 0 87 -18q3 -1 4 -2q67 -37 96 -116q19 -55 19 -112v-104q0 -58 -19 -112q-30 -80 -96 -116q-29 -16 -55 -18q-16 -2 -36 -2h-57
q-89 0 -115 13q-63 29 -113 90q-33 43 -34 72q0 11 4.5 17.5t9.5 7.5h5h37q41 0 55 -11q5 -4 18 -18l21 -21q37 -36 52 -42q20 -8 60 -8h57q43 0 54 35q2 8 2 15v300q0 31 -28 44q-12 6 -28 6h-300l-10 4q-9 7 -9 21v450q0 11 4.5 17.5t9.5 7.5h5z" />
    <glyph glyph-name="six" unicode="6" 
d="M295 1000h61l10 -4q9 -7 9 -21v-50q0 -11 -4.5 -17.5t-9.5 -7.5h-5h-56q-53 0 -100 -76q-18 -29 -31 -63q-19 -53 -19 -136q0 -11 4.5 -17.5t9.5 -7.5h5h150q56 0 87 -18q3 -1 4 -2q67 -37 96 -116q19 -55 19 -112v-1v-1v-35v-15v-52q0 -58 -19 -112q-30 -80 -96 -116
q-29 -16 -55 -18q-16 -2 -36 -2h-113q-56 0 -87 18q-3 1 -4 2q-67 37 -96 116q-19 55 -19 112v1v1v375q0 65 14 111l8 24q69 165 168 215q48 24 104 25h1zM169 500l-10 -4q-9 -7 -9 -21v-325q0 -31 28 -44q13 -6 28 -6h113q43 0 54 35q2 8 2 15v150v50v100q0 31 -28 44
q-12 6 -28 6h-150z" />
    <glyph glyph-name="seven" unicode="7" 
d="M19 1000h487l10 -4q9 -7 9 -21v-248v-2q-1 -20 -6 -39q-14 -56 -92 -166l-18 -26q-71 -97 -89 -137q-19 -43 -20 -66q-1 -8 0 -16v-110v-140q0 -11 -4.5 -17.5t-9.5 -7.5h-5h-112l-10 4q-9 7 -9 21v175q1 93 6 114q14 56 92 166l18 26q71 98 89 138q16 35 18 49t2 32v150
q0 11 -4.5 17.5t-9.5 7.5h-5h-131q-37 0 -50 -12q-10 -11 -24 -37q-21 -40 -35 -47q-11 -4 -41 -4h-56l-10 4q-9 7 -9 21v150q0 11 4.5 17.5t9.5 7.5h5z" />
    <glyph glyph-name="eight" unicode="8" 
d="M206 1000h132q58 0 80 -13q3 -2 11 -7q47 -29 82 -88q9 -16 14 -29q17 -42 19 -88q4 -106 -37 -172q-19 -28 -41 -40l-22 -13l23 -13q48 -30 67 -112q10 -41 10 -74v-54v-49q0 -58 -19 -112q-30 -80 -96 -116q-29 -16 -56 -18q-16 -2 -35 -2h-132q-56 0 -87 18q-3 1 -4 2
q-67 37 -96 116q-19 55 -19 112v49q-1 37 0 54q0 35 9 74q20 83 68 112l23 13l-22 13q-48 24 -69 109q-11 49 -9 103q2 48 19 88q22 54 72 99q13 11 24 18q26 16 50 18q16 2 41 2zM206 900q-43 0 -54 -35q-2 -8 -2 -15v-100v-100q0 -22 9.5 -34.5t18.5 -14.5l10 -1h168l16 4
q21 13 22 46v100v100q0 31 -28 44q-13 6 -28 6h-132zM188 500l-16 -4q-21 -13 -22 -46v-150v-150q0 -31 28 -44q13 -6 28 -6h132q42 0 54 35q2 8 2 15v150v150q0 22 -9.5 34.5t-18.5 13.5l-10 2h-168z" />
    <glyph glyph-name="nine" unicode="9" 
d="M230 0h-136l-10 4q-9 7 -9 21v50q0 11 4.5 17.5t9.5 7.5h5h131q53 0 100 76q18 29 31 63q19 53 19 136l-1 106q0 8 -4.5 13t-8.5 5l-5 1h-150q-56 0 -87 17q-3 2 -4 3q-67 37 -96 115q-19 52 -19 115v0q0 60 19 114q30 80 96 116q29 16 55 18q16 2 36 2h113q56 0 87 -18
q3 -1 4 -2q67 -37 96 -116q19 -55 19 -112v-1.5v-0.5v-250v-125q0 -65 -14 -111l-8 -24q-69 -165 -168 -215q-48 -24 -104 -25h-1zM356 600l10 3q9 8 9 22v225q0 31 -28 44q-12 6 -28 6h-113q-43 0 -54 -35q-2 -8 -2 -15v-200q0 -31 28 -45q12 -5 28 -5h150z" />
    <glyph glyph-name="colon" unicode=":" 
d="M244 800h112l10 -4q9 -7 9 -21v-150q0 -11 -4.5 -17.5t-9.5 -7.5h-5h-112l-10 4q-9 7 -9 21v150q0 11 4.5 17.5t9.5 7.5h5zM244 300h112l10 -4q9 -7 9 -21v-150q0 -11 -4.5 -17.5t-9.5 -7.5h-5h-112l-10 4q-9 7 -9 21v150q0 11 4.5 17.5t9.5 7.5h5z" />
    <glyph glyph-name="semicolon" unicode=";" 
d="M244 800h112l10 -4q9 -7 9 -21v-150q0 -11 -4.5 -17.5t-9.5 -7.5h-5h-112l-10 4q-9 7 -9 21v150q0 11 4.5 17.5t9.5 7.5h5zM244 300h112l10 -4q9 -7 9 -21v-50q-2 -45 -12 -70q0 -1 -2 -5q-2 -6 -4 -8q-22 -55 -70 -99q-14 -14 -27 -21q-36 -22 -72 -22q-23 1 -30 10
q-16 22 4 54q3 4 5 8q23 33 36 59q19 46 21 78q1 12 1 24v42q0 11 4.5 17.5t9.5 7.5h5z" />
    <glyph glyph-name="less" unicode="&#x3c;" 
d="M431 900h75l10 -4q9 -7 9 -21q0 -21 -31 -65q-11 -15 -25 -35v0l-244 -325l244 -325v0q51 -70 55 -91q1 -5 1 -9q0 -11 -4.5 -17.5t-9.5 -7.5h-5h-75q-18 0 -33 19l-4 6l-319 425l319 425q16 22 29 24q4 1 8 1z" />
    <glyph glyph-name="equal" unicode="=" 
d="M94 700h412l10 -4q9 -7 9 -21v-50q0 -11 -4.5 -17.5t-9.5 -7.5h-5h-412l-10 4q-9 7 -9 21v50q0 11 4.5 17.5t9.5 7.5h5zM94 400h412l10 -4q9 -7 9 -21v-50q0 -11 -4.5 -17.5t-9.5 -7.5h-5h-412l-10 4q-9 7 -9 21v50q0 11 4.5 17.5t9.5 7.5h5z" />
    <glyph glyph-name="greater" unicode="&#x3e;" 
d="M169 900q18 0 33 -19l4 -6l319 -425l-319 -425q-16 -22 -29 -24q-4 -1 -8 -1h-75l-10 4q-9 7 -9 21q0 21 31 65q11 15 25 35v0l244 325l-244 325v0q-51 70 -55 91q-1 5 -1 9q0 11 4.5 17.5t9.5 7.5h5h75z" />
    <glyph glyph-name="question" unicode="?" 
d="M206 1000h150q56 0 111 -65q54 -70 58 -135q0 -31 -22 -67q-14 -23 -61 -87q-45 -64 -56 -97q-11 -37 -11 -135v-89q0 -11 -4.5 -17.5t-9.5 -7.5h-5h-112l-10 4q-9 7 -9 21v100q0 54 6 76q13 52 77 149q58 91 65 150q2 13 2 25q-1 43 -12 59q-13 15 -25 16h-132
q-43 0 -54 -35q-2 -8 -2 -15v-88v-21v-16q0 -11 -4.5 -17.5t-9.5 -7.5h-5h-112l-10 4q-9 7 -9 21q0 73 15 126q2 7 4 13q30 80 96 116q29 16 55 18q16 2 36 2zM244 200h112l10 -4q9 -7 9 -21v-150q0 -11 -4.5 -17.5t-9.5 -7.5h-5h-112l-10 4q-9 7 -9 21v150q0 11 4.5 17.5
t9.5 7.5h5z" />
    <glyph glyph-name="at" unicode="@" 
d="M206 900h113q56 0 87 -18q3 -1 4 -2q67 -37 96 -116q19 -55 19 -112v-204q0 -58 -19 -112q-30 -80 -96 -116q-29 -16 -55 -18q-16 -2 -36 -2h-75l-10 4q-9 7 -9 21v350q0 11 4.5 17.5t9.5 7.5h5h112l10 4q9 7 9 21v125q0 31 -28 44q-12 6 -28 6h-113q-43 0 -54 -35
q-2 -8 -2 -15v-600q0 -31 28 -44q13 -6 28 -6h225l10 -4q9 -7 9 -21v-50q0 -11 -4.5 -17.5t-9.5 -7.5h-5h-225q-56 0 -87 18q-3 1 -4 2q-67 37 -96 116q-19 54 -19 112v404q0 59 19 112q30 80 96 116q29 16 55 18q16 2 36 2z" />
    <glyph glyph-name="A" unicode="A" 
d="M262 1000q1 -2 113 -150q102 -136 129 -190q21 -43 21 -85v-550q0 -11 -4.5 -17.5t-9.5 -7.5h-5h-112l-10 4q-9 7 -9 21v325v25q0 11 -4.5 17.5t-9.5 7.5h-5h-187l-10 -4q-9 -7 -9 -21v-25v-325q0 -11 -4.5 -17.5t-9.5 -7.5h-5h-112l-10 4q-9 7 -9 21v550q0 38 20 85
q17 39 115 170q7 10 15 20q16 22 34.5 46.5t31.5 41.5t23.5 32t16.5 22zM262 800l-37 -50q-58 -77 -70 -126q-5 -24 -5 -49v-55q1 -9 5.5 -14t9.5 -5l4 -1h187l10 4q9 7 9 21v50q-3 67 -46 134q-12 19 -29 41z" />
    <glyph glyph-name="B" unicode="B" 
d="M19 1000h300q58 0 80 -13q3 -2 11 -7q47 -29 82 -88q9 -16 14 -29q17 -42 19 -88q5 -106 -37 -172q-19 -28 -41 -40l-22 -13l23 -13q49 -30 68 -112q9 -41 9 -74q1 -17 0 -54v-49q0 -58 -19 -112q-30 -80 -96 -116q-29 -16 -55 -18q-16 -2 -36 -2h-300l-10 4q-9 7 -9 21
v50q0 11 4.5 17.5t9.5 7.5h5h37l10 4q9 7 9 21v750q0 11 -4.5 17.5t-9.5 7.5h-5h-37l-10 4q-9 7 -9 21v50q0 11 4.5 17.5t9.5 7.5h5zM244 900l-10 -4q-9 -7 -9 -21v-250q1 -23 19 -25h94l15 4q21 13 22 46v100v100q0 31 -28 44q-12 6 -28 6h-75zM244 500l-10 -4
q-9 -7 -9 -21v-350q0 -11 4.5 -17.5t9.5 -7.5h5h75q43 0 54 35q2 8 2 15v150v150q0 22 -9.5 34.5t-18.5 13.5l-9 2h-94z" />
    <glyph glyph-name="C" unicode="C" 
d="M300 1000q62 0 88 -10q11 -4 23 -11q42 -22 80 -86q11 -19 18 -36q12 -34 15 -84q1 -31 1 -48q0 -11 -5 -17t-9 -7l-5 -1h-16t-24 13q-6 10 -18 34q-39 76 -82 122q-9 10 -15 14q-26 17 -51 17q-49 0 -98 -76q-18 -30 -33 -64q-19 -61 -19 -134v-252q0 -75 19 -134
q38 -92 92 -127q21 -13 39 -13q26 0 51 17q28 19 75 97q12 20 22 39q20 40 28 44q6 3 14 3h16l10 -4q8 -7 9 -21q0 -15 -1 -48q-3 -51 -15 -84q-20 -52 -65 -96q-18 -18 -33 -26q-38 -20 -87 -21h-24q-158 0 -252 183q-13 26 -26 57q-21 48 -22 141v21v196q0 95 13 137
q4 14 9 25q69 165 168 215q50 25 110 25z" />
    <glyph glyph-name="D" unicode="D" 
d="M19 1000h206q158 0 252 -183q13 -26 26 -57q21 -48 22 -141v-21v-196q0 -95 -13 -137q-4 -14 -9 -25q-69 -165 -168 -215q-50 -25 -110 -25h-206l-10 4q-9 7 -9 21v50q0 11 4.5 17.5t9.5 7.5h5h37l10 4q9 7 9 21v750q0 11 -4.5 17.5t-9.5 7.5h-5h-37l-10 4q-9 7 -9 21v50
q0 11 4.5 17.5t9.5 7.5h5zM244 900q-8 0 -13 -6t-6 -12v-7v-750l3 -13q5 -11 16 -12q50 1 111 143q15 35 18 75q1 24 2 66v232q-2 91 -12 120q-3 9 -8 21q-62 143 -111 143z" />
    <glyph glyph-name="E" unicode="E" 
d="M19 1000h487l10 -4q9 -7 9 -21v-250q0 -11 -7 -17.5t-14 -6.5l-6 -1q-23 1 -50 52q-4 7 -11 21q-9 18 -14 27q-33 61 -83 88q-22 12 -40 12h-56l-10 -4q-9 -7 -9 -21v-250q0 -11 4.5 -17.5t9.5 -7.5h5h37q9 0 13.5 6t5.5 12v7v50l3 13q5 11 16 12h37q8 0 13 -6t6 -12v-7
v-250l-3 -13q-5 -11 -16 -12h-37q-9 0 -13.5 6t-5.5 12v7v50l-3 13q-5 11 -16 12h-37l-10 -4q-9 -7 -9 -21v-350q0 -11 4.5 -17.5t9.5 -7.5h5h56q48 0 98 62q15 19 25 38q5 9 14 27q28 55 44 67q9 5 17 6l15 -4q11 -7 12 -21v-250q0 -11 -4.5 -17.5t-9.5 -7.5h-5h-487l-10 4
q-9 7 -9 21v50q0 11 4.5 17.5t9.5 7.5h5h37l10 4q9 7 9 21v750q0 11 -4.5 17.5t-9.5 7.5h-5h-37l-10 4q-9 7 -9 21v50q0 11 4.5 17.5t9.5 7.5h5z" />
    <glyph glyph-name="F" unicode="F" 
d="M19 1000h487l10 -4q9 -7 9 -21v-250q0 -11 -7 -17.5t-14 -6.5l-6 -1q-23 1 -50 52q-4 7 -11 21q-9 18 -14 27q-33 61 -83 88q-22 12 -40 12h-56l-10 -4q-9 -7 -9 -21v-250q0 -11 4.5 -17.5t9.5 -7.5h5h37q9 0 13.5 6t5.5 12v7v50l3 13q5 11 16 12h37q8 0 13 -6t6 -12v-7
v-250l-3 -13q-5 -11 -16 -12h-37q-9 0 -13.5 6t-5.5 12v7v50l-3 13q-5 11 -16 12h-37l-10 -4q-9 -7 -9 -21v-325v-25q0 -11 4.5 -17.5t9.5 -7.5h5h37l10 -4q9 -7 9 -21v-50q0 -11 -4.5 -17.5t-9.5 -7.5h-5h-262l-10 4q-9 7 -9 21v50q0 11 4.5 17.5t9.5 7.5h5h37l10 4
q9 7 9 21v25v725q0 11 -4.5 17.5t-9.5 7.5h-5h-37l-10 4q-9 7 -9 21v50q0 11 4.5 17.5t9.5 7.5h5z" />
    <glyph glyph-name="G" unicode="G" 
d="M300 1000q62 0 88 -10q11 -4 23 -11q42 -22 80 -86q11 -19 18 -36q12 -34 15 -84q1 -31 1 -48q0 -11 -5 -17t-9 -7l-5 -1h-16t-24 13q-6 10 -18 34q-39 76 -82 122q-9 10 -15 14q-26 17 -51 17q-49 0 -98 -76q-18 -30 -33 -64q-19 -61 -19 -134v-252q0 -75 19 -134
q38 -92 92 -127q21 -13 39 -13h19q29 0 38 9q3 3 5 7q12 17 13 59v200q0 11 -4.5 17.5t-9.5 7.5h-5h-112l-10 4q-9 7 -9 21v50q0 11 4.5 17.5t9.5 7.5h5h262l10 -4q9 -7 9 -21v-425q-1 -29 -8 -40q-14 -19 -35 2q-12 12 -31 38q-38 50 -47 50q-6 -2 -14 -19q-17 -38 -49 -65
q-8 -7 -13 -9q-12 -6 -23 -7h-5h-4h-4h-3q-153 6 -244 188q-12 24 -23 52q-21 48 -22 141v21v196q0 95 13 137q4 14 9 25q69 165 168 215q50 25 110 25z" />
    <glyph glyph-name="H" unicode="H" 
d="M19 1000h112l10 -4q9 -7 9 -21v-350l3 -13q5 -11 16 -12h187q8 0 13 6t6 12v7v350q0 11 4.5 17.5t9.5 7.5h5h112l10 -4q9 -7 9 -21v-950q0 -11 -4.5 -17.5t-9.5 -7.5h-5h-112l-10 4q-9 7 -9 21v457q-5 17 -18 18h-189q-14 -1 -18 -18v-457q0 -11 -4.5 -17.5t-9.5 -7.5h-5
h-112l-10 4q-9 7 -9 21v950q0 11 4.5 17.5t9.5 7.5h5z" />
    <glyph glyph-name="I" unicode="I" 
d="M169 1000h262l10 -4q9 -7 9 -21v-50q0 -11 -4.5 -17.5t-9.5 -7.5h-5h-37l-10 -4q-9 -7 -9 -21v-750q0 -11 4.5 -17.5t9.5 -7.5h5h37l10 -4q9 -7 9 -21v-50q0 -11 -4.5 -17.5t-9.5 -7.5h-5h-262l-10 4q-9 7 -9 21v50q0 11 4.5 17.5t9.5 7.5h5h37l10 4q9 7 9 21v750
q0 11 -4.5 17.5t-9.5 7.5h-5h-37l-10 4q-9 7 -9 21v50q0 11 4.5 17.5t9.5 7.5h5z" />
    <glyph glyph-name="J" unicode="J" 
d="M244 1000h262l10 -4q9 -7 9 -21v-50q0 -11 -4.5 -17.5t-9.5 -7.5h-5h-37l-10 -4q-9 -7 -9 -21v-627q0 -59 -19 -112q-30 -80 -96 -116q-29 -16 -56 -18q-8 -1 -17 -2h-18h-38h-18q-41 2 -71 19q-1 1 -2 1q-67 37 -96 116q-19 55 -19 112v127q0 11 4.5 17.5t9.5 7.5h5h112
l10 -4q9 -7 9 -21v-225q0 -31 28 -44q13 -6 28 -6h38q43 0 54 35q2 8 2 15v725q0 11 -4.5 17.5t-9.5 7.5h-5h-37l-10 4q-9 7 -9 21v50q0 11 4.5 17.5t9.5 7.5h5z" />
    <glyph glyph-name="K" unicode="K" 
d="M19 1000h187l10 -4q9 -7 9 -21v-75v-275l3 -13q5 -11 16 -12q50 1 111 143q15 35 18 75q1 24 2 66v92q0 11 5 17t9 6l5 1h56h38q16 0 25.5 -12.5t10.5 -25.5l1 -12v-75q0 -12 -0.5 -23t-0.5 -19.5t-1.5 -17.5t-2 -14t-2 -12t-2 -9.5t-2.5 -9t-2 -7t-3 -7.5l-3 -6
q-19 -48 -84 -136l-84 -114l84 -114q69 -92 84 -136q14 -38 17 -70q2 -24 2 -55v-75l-3 -21q-10 -28 -34 -29h-38h-56l-11 4q-7 8 -8 20v92q-2 91 -12 120q-3 9 -8 21q-62 143 -111 143q-8 0 -13 -6t-6 -12v-7v-275v-75q0 -11 -4.5 -17.5t-9.5 -7.5h-5h-187l-10 4
q-9 7 -9 21v50q0 11 4.5 17.5t9.5 7.5h5h37l10 4q9 7 9 21v750q0 11 -4.5 17.5t-9.5 7.5h-5h-37l-10 4q-9 7 -9 21v50q0 11 4.5 17.5t9.5 7.5h5z" />
    <glyph glyph-name="L" unicode="L" 
d="M19 1000h262l10 -4q9 -7 9 -21v-50q0 -11 -4.5 -17.5t-9.5 -7.5h-5h-37h-1q-17 -4 -18 -25v-175v-575q0 -11 4.5 -17.5t9.5 -7.5h5h56q48 0 98 62q15 19 25 38q5 9 14 27q28 55 44 67q9 5 17 6l15 -4q11 -7 12 -21v-250q0 -11 -4.5 -17.5t-9.5 -7.5h-5h-487l-10 4
q-9 7 -9 21v50q0 11 4.5 17.5t9.5 7.5h5h37l10 4q9 7 9 21v575v175q0 11 -4.5 17.5t-9.5 7.5h-5h-37l-10 4q-9 7 -9 21v50q0 11 4.5 17.5t9.5 7.5h5z" />
    <glyph glyph-name="M" unicode="M" 
d="M19 1000h30q44 0 81 -34q29 -28 92 -112l78 -104l78 104q78 103 110 127q28 19 63 19h30q9 0 13.5 -6t5.5 -12v-7v-125v-825q0 -11 -4.5 -17.5t-9.5 -7.5h-5h-112l-10 4q-9 7 -9 21v575q0 18 -19 20h-13q-18 0 -23 -6q-8 -12 -20 -55q-13 -48 -29 -56q-8 -3 -27 -3h-38
q-28 0 -37 11q-9 13 -19 48q-15 54 -26 60q-4 1 -17 1q-27 0 -30 -10q-2 -5 -2 -10v-575q0 -11 -4.5 -17.5t-9.5 -7.5h-5h-112l-10 4q-9 7 -9 21v825v125l3 13q5 11 16 12z" />
    <glyph glyph-name="N" unicode="N" 
d="M19 1000h30q45 0 86 -39q29 -30 90 -111l86 -115q25 -34 43 -35h2q8 0 13 6t6 12v7v250q0 11 4.5 17.5t9.5 7.5h5h112l10 -4q9 -7 9 -21v-950q0 -11 -4.5 -17.5t-9.5 -7.5h-5h-112l-10 4q-9 7 -9 21v240q-3 62 -28 110q-22 40 -81 121q-69 92 -87 101q-6 3 -10 3
q-9 0 -13.5 -6t-5.5 -12v-7v-550q0 -11 -4.5 -17.5t-9.5 -7.5h-5h-56h-56l-10 4q-9 7 -9 21v950l3 13q5 11 16 12z" />
    <glyph glyph-name="O" unicode="O" 
d="M206 1000h113q56 0 87 -18q3 -1 4 -2q67 -37 96 -116q19 -55 19 -112v-504q0 -58 -19 -112q-30 -80 -96 -116q-29 -16 -55 -18q-16 -2 -36 -2h-113q-56 0 -87 18q-3 1 -4 2q-67 37 -96 116q-19 55 -19 112v504q0 58 19 112q30 80 96 116q29 16 55 18q16 2 36 2zM206 900
q-43 0 -54 -35q-2 -8 -2 -15v-700q0 -31 28 -44q13 -6 28 -6h113q43 0 54 35q2 8 2 15v700q0 31 -28 44q-12 6 -28 6h-113z" />
    <glyph glyph-name="P" unicode="P" 
d="M19 1000h300q56 0 87 -18q3 -1 4 -2q67 -37 96 -116q19 -55 19 -114v0q0 -64 -19 -115q-30 -79 -96 -115q-29 -16 -61 -19q-14 -1 -30 -1h-75l-10 -4q-9 -7 -9 -21v-75v-275q0 -11 4.5 -17.5t9.5 -7.5h5h37l10 -4q9 -7 9 -21v-50q0 -11 -4.5 -17.5t-9.5 -7.5h-5h-262
l-10 4q-9 7 -9 21v50q0 11 4.5 17.5t9.5 7.5h5h37l10 4q9 7 9 21v750q0 11 -4.5 17.5t-9.5 7.5h-5h-37l-10 4q-9 7 -9 21v50q0 11 4.5 17.5t9.5 7.5h5zM525 750zM244 900l-10 -4q-9 -7 -9 -21v-250q0 -12 4.5 -18t9.5 -7h5h75q43 0 54 35q2 7 2 15v200q0 31 -28 44
q-12 6 -28 6h-75z" />
    <glyph glyph-name="Q" unicode="Q" 
d="M206 1000h113q56 0 87 -18q3 -1 4 -2q67 -37 96 -116q19 -55 19 -112v-504q0 -58 -19 -112q-16 -44 -44 -75q-12 -13 -12 -34v-102q0 -11 4.5 -17.5t9.5 -7.5h5h37l10 -4q9 -7 9 -21v-50q0 -11 -4.5 -17.5t-9.5 -7.5h-5h-187l-10 4q-9 7 -9 21v150q0 11 -4.5 17.5
t-9.5 7.5h-5h-75q-56 0 -87 18q-3 1 -4 2q-67 37 -96 116q-19 55 -19 112v504q0 58 19 112q30 80 96 116q29 16 55 18q16 2 36 2zM206 900q-43 0 -54 -35q-2 -8 -2 -15v-700q0 -31 28 -44q13 -6 28 -6l10 4q9 7 9 21v150l3 13q5 11 16 12q15 0 50 -43q9 -12 25 -32
q12 -16 19 -24t16.5 -16.5t15 -1t5.5 29.5v637q0 31 -28 44q-12 6 -28 6h-113z" />
    <glyph glyph-name="R" unicode="R" 
d="M19 1000h300q56 0 87 -18q3 -1 4 -2q67 -37 96 -116q19 -55 19 -114v0q0 -64 -19 -115q-13 -35 -34 -62q-16 -22 -19 -31.5t-3 -40.5v-1q0 -21 8 -42q0 -2 2 -6q3 -8 5 -13q5 -14 17 -45q43 -108 43 -144v-75v-150q0 -11 -4.5 -17.5t-9.5 -7.5h-5h-112l-10 4q-9 7 -9 21
v191q-2 91 -12 120q-3 9 -8 21q-62 143 -111 143q-8 0 -13 -6t-6 -12v-7v-375v-75q0 -11 -4.5 -17.5t-9.5 -7.5h-5h-56h-131l-10 4q-9 7 -9 21v50q0 11 4.5 17.5t9.5 7.5h5h37l10 4q9 7 9 21v750q0 11 -4.5 17.5t-9.5 7.5h-5h-37l-10 4q-9 7 -9 21v50q0 11 4.5 17.5t9.5 7.5
h5zM525 750zM244 900l-10 -4q-9 -7 -9 -21v-250q0 -12 4.5 -18t9.5 -7h5h75q43 0 54 35q2 7 2 15v200q0 31 -28 44q-12 6 -28 6h-75z" />
    <glyph glyph-name="S" unicode="S" 
d="M178 1000h141q56 0 87 -18q3 -1 4 -2q67 -38 96 -116q19 -55 19 -113v-26v0q0 -11 -4.5 -17.5t-9.5 -6.5l-5 -1h-112l-10 4q-9 7 -9 21v125q0 31 -28 44q-12 6 -28 6h-113v0q-32 -1 -41 -12q-1 -2 -3 -4q-12 -18 -12 -49q0 -66 53 -142q41 -59 91 -89q33 -18 70 -52
q156 -149 161 -303q0 -59 -19 -113q-30 -79 -96 -116q-29 -16 -55 -18q-16 -2 -36 -2h-113q-56 0 -87 18q-3 1 -4 2q-67 38 -96 116q-19 55 -19 113v26v0q0 11 4.5 17.5t9.5 6.5l5 1h112l10 -4q9 -7 9 -21v-125q0 -31 28 -44q13 -6 28 -6h113q43 0 54 35q2 8 2 15v99
q-1 52 -13 84q-25 66 -81 123q-29 29 -56 44q-77 42 -146 132q-66 87 -79 168q-3 22 11 60q22 58 85 105q47 35 82 35z" />
    <glyph glyph-name="T" unicode="T" 
d="M19 1000h562l10 -4q9 -7 9 -21v-250q0 -11 -7 -17.5t-14 -6.5l-6 -1q-23 1 -50 52q-4 7 -11 21q-9 18 -14 27q-54 99 -104 100l-10 -4q-9 -7 -9 -21v-750q0 -11 4.5 -17.5t9.5 -7.5h5h37l10 -4q9 -7 9 -21v-50q0 -11 -4.5 -17.5t-9.5 -7.5h-5h-262l-10 4q-9 7 -9 21v50
q0 11 4.5 17.5t9.5 7.5h5h37l10 4q9 7 9 21v750q0 11 -4.5 17.5t-9.5 7.5h-5q-51 -1 -104 -100q-5 -9 -14 -27q-28 -55 -44 -67q-9 -5 -17 -6l-15 4q-11 7 -12 21v250q0 11 4.5 17.5t9.5 7.5h5z" />
    <glyph glyph-name="U" unicode="U" 
d="M19 1000h112l10 -4q9 -7 9 -21v-825q0 -31 28 -44q13 -6 28 -6h113q43 0 54 35q2 8 2 15v825q0 11 4.5 17.5t9.5 7.5h5h112l10 -4q9 -7 9 -21v-726q0 -59 -19 -113q-30 -79 -96 -116q-29 -16 -55 -18q-16 -2 -36 -2h-113q-56 0 -87 18q-3 1 -4 2q-67 38 -96 116
q-19 55 -19 113v726q0 11 4.5 17.5t9.5 7.5h5z" />
    <glyph glyph-name="V" unicode="V" 
d="M19 1000h112l10 -4q9 -7 9 -21v-550q0 -36 22 -86q3 -8 6 -14q42 -73 122 -125q81 53 122 125q20 34 27 84q1 10 1 16v550q0 11 4.5 17.5t9.5 7.5h5h112l10 -4q9 -7 9 -21v-475q0 -92 -15 -129q-35 -89 -123 -206q-39 -51 -75 -88q-60 -63 -84 -76q-2 -1 -3 -1
q-1 1 -25 17q-82 64 -173 197q-64 92 -88 157q-14 38 -14 129v475q0 11 4.5 17.5t9.5 7.5h5z" />
    <glyph glyph-name="W" unicode="W" 
d="M19 1000h112l10 -4q9 -7 9 -21v-625q0 -23 9.5 -35.5t18.5 -13.5l10 -1h18l10 4q9 7 9 21v150q0 11 4.5 17.5t9.5 7.5h5h112l10 -4q9 -7 9 -21v-150q0 -11 4.5 -17.5t9.5 -7.5h5h18l16 4q21 13 22 46v625q0 11 4.5 17.5t9.5 7.5h5h112l10 -4q9 -7 9 -21v-675
q0 -43 -38 -100q-16 -25 -27 -79q-3 -12 -4 -21l-6 -50q-3 -22 -12.5 -34.5t-17.5 -13.5l-7 -2h-66l-14 5q-18 14 -24 45l-18 100q-4 22 -13.5 34.5t-16.5 13.5l-8 2h-56l-14 -5q-18 -14 -24 -45l-18 -100q-4 -22 -13.5 -34.5t-16.5 -13.5l-8 -2h-66l-14 5q-19 14 -23 45
l-6 50q-6 49 -27 93q-3 4 -4 7q-37 58 -38 100v675q0 11 4.5 17.5t9.5 7.5h5z" />
    <glyph glyph-name="X" unicode="X" 
d="M19 1000h93h19l10 -4q9 -7 9 -21v-12v-13q0 -39 19 -95q7 -18 13 -30q44 -77 84 -123q14 -16 34 -37q59 63 91 114q11 19 27 46q22 39 31 107q1 11 1 18v13v12q0 11 4.5 17.5t9.5 7.5h5h19h93l10 -4q9 -7 9 -21v-40q0 -59 -26 -108q-18 -33 -58 -88q-49 -63 -84 -122
q-47 -82 -56 -113q-1 -3 -1 -4q1 -1 13 -34q46 -103 139 -220q56 -79 67 -124q6 -25 6 -57v-40q0 -11 -4.5 -17.5t-9.5 -7.5h-5h-93h-19l-10 4q-9 7 -9 21v12v13q0 39 -19 95q-7 18 -13 30q-44 77 -84 123q-14 16 -34 37q-59 -63 -91 -114q-11 -19 -27 -46q-22 -39 -31 -107
q-1 -11 -1 -18v-13v-12q0 -11 -4.5 -17.5t-9.5 -7.5h-5h-112l-10 4q-9 7 -9 21v40q0 60 26 109q16 28 47 72q93 118 139 220l13 34q0 13 -48 99l-9 18q-36 60 -84 122q-63 86 -76 130q-8 29 -8 66v40q0 11 4.5 17.5t9.5 7.5h5z" />
    <glyph glyph-name="Y" unicode="Y" 
d="M19 1000h93h19l10 -4q9 -7 9 -21v-125q0 -39 19 -95q7 -18 13 -30q44 -77 84 -123q14 -16 34 -37q59 63 91 114q11 19 27 46q22 39 31 107q1 11 1 18v125q0 11 4.5 17.5t9.5 7.5h5h19h93l10 -4q9 -7 9 -21v-140q0 -59 -26 -108q-18 -33 -58 -88q-49 -63 -84 -122
q-20 -36 -46 -92q-11 -26 -11 -50v-50v-200q0 -11 4.5 -17.5t9.5 -7.5h5h37l10 -4q9 -7 9 -21v-50q0 -11 -4.5 -17.5t-9.5 -7.5h-5h-262l-10 4q-9 7 -9 21v50q0 11 4.5 17.5t9.5 7.5h5h37l10 4q9 7 9 21v200v50q0 30 -10 50q-20 43 -47 92q-36 60 -84 122q-63 86 -76 130
q-8 29 -8 66v140q0 11 4.5 17.5t9.5 7.5h5z" />
    <glyph glyph-name="Z" unicode="Z" 
d="M19 1000h225h56h281l10 -4q9 -7 9 -21v-40q0 -59 -26 -108q-21 -38 -83 -123l-200 -266q-104 -142 -125 -191q-16 -37 -16 -85v-37l3 -13q6 -11 16 -12h206q48 0 98 62q15 19 25 38q5 9 14 27q28 55 44 67q9 5 17 6l15 -4q11 -7 12 -21v-250q0 -11 -4.5 -17.5t-9.5 -7.5
h-5h-562q-9 0 -13.5 6t-5.5 12v7v81q0 84 6 108q12 48 70 132q36 53 116 159l220 295q37 53 38 75q0 11 -4.5 17.5t-9.5 7.5h-5h-56h-37h-94h-19q-48 0 -98 -62q-15 -19 -25 -38q-5 -9 -14 -27q-28 -55 -44 -67q-9 -5 -17 -6l-15 4q-11 7 -12 21v250q0 11 4.5 17.5t9.5 7.5
h5z" />
    <glyph glyph-name="bracketleft" unicode="[" 
d="M169 1000h262l10 -4q9 -7 9 -21v-50q0 -11 -4.5 -17.5t-9.5 -7.5h-5h-112l-10 -4q-9 -7 -9 -21v-750q0 -11 4.5 -17.5t9.5 -7.5h5h112l10 -4q9 -7 9 -21v-50q0 -11 -4.5 -17.5t-9.5 -7.5h-5h-262l-10 4q-9 7 -9 21v950q0 11 4.5 17.5t9.5 7.5h5z" />
    <glyph glyph-name="backslash" unicode="\" 
d="M19 900q16 0 49 -42q11 -13 26 -33q302 -402 322 -429q77 -105 95 -147q13 -34 14 -74v-10v-140l-2 -13q-6 -11 -17 -12q-16 0 -49 41q-11 14 -25 34l-323 429q-77 104 -95 148q-13 33 -14 73v10v140l3 13q5 11 16 12z" />
    <glyph glyph-name="bracketright" unicode="]" 
d="M431 1000l10 -4q9 -7 9 -21v-950q0 -11 -4.5 -17.5t-9.5 -7.5h-5h-262l-10 4q-9 7 -9 21v50q0 11 4.5 17.5t9.5 7.5h5h112l10 4q9 7 9 21v750q0 11 -4.5 17.5t-9.5 7.5h-5h-112l-10 4q-9 7 -9 21v50q0 11 4.5 17.5t9.5 7.5h5h262z" />
    <glyph glyph-name="asciicircum" unicode="^" 
d="M56 925l206 275l207 -275v0q51 -70 55 -91q1 -5 1 -9q0 -11 -4.5 -17.5t-9.5 -7.5h-5h-75q-27 0 -45 22q-4 5 -11 14l-113 162l-112 -162q-22 -28 -35 -33q-9 -3 -21 -3h-75l-10 4q-9 7 -9 21q0 21 31 65q11 15 25 35v0z" />
    <glyph glyph-name="underscore" unicode="_" 
d="M0 -125q0 11 4.5 17.5t9.5 7.5h5h562l10 -4q9 -7 9 -21v-50q0 -11 -4.5 -17.5t-9.5 -7.5h-5h-562l-10 4q-9 7 -9 21v50z" />
    <glyph glyph-name="grave" unicode="`" 
d="M281 1200l10 -4q9 -7 9 -21v-42q0 -48 19 -93q0 -2 1 -4q2 -4 2 -5q13 -27 36 -59q25 -36 12 -58q-2 -2 -3 -4q-9 -10 -29 -10q-38 0 -73 22q-44 26 -81 88q-10 17 -16 32q-14 32 -15 40q-3 16 -3 43v50q0 11 4.5 17.5t9.5 7.5h5h112z" />
    <glyph glyph-name="a" unicode="a" 
d="M94 700h150q56 0 87 -18q3 -1 4 -2q67 -38 96 -116q19 -55 19 -113v-326l3 -13q5 -11 16 -12h37l10 -4q9 -7 9 -21v-50q0 -11 -4.5 -17.5t-9.5 -7.5h-5h-21q-53 0 -67 5q-28 12 -43 45q-21 48 -33 50q-11 1 -37 -41q-3 -5 -5 -9q-24 -39 -51 -46q-15 -4 -43 -4
q-56 0 -87 18q-3 1 -4 2q-67 37 -96 115q-19 52 -19 115q0 60 19 114q30 80 96 116q29 16 55 18q16 2 36 2h75q9 0 13.5 6t5.5 12v7v25q0 31 -28 44q-12 6 -28 6h-150l-10 4q-9 7 -9 21v50q0 11 4.5 17.5t9.5 7.5h5zM206 400q-43 0 -54 -35q-2 -8 -2 -15v-200q0 -31 28 -45
q13 -5 28 -5h56l16 5q21 13 22 45v225l-3 13q-5 11 -16 12h-75zM0 250z" />
    <glyph glyph-name="b" unicode="b" 
d="M19 1000h187l10 -4q8 -7 9 -21v-125v-125q0 -11 5 -17.5t9 -7.5l5 -1q148 -10 237 -191q11 -23 22 -49q19 -43 22 -109v-106q-1 -56 -19 -108q-30 -79 -96 -116q-29 -16 -55 -18q-16 -2 -36 -2h-225l-10 4q-8 7 -9 21v850q0 11 -4.5 17.5t-9.5 7.5h-5h-37l-10 4
q-9 7 -9 21v50q0 11 4.5 17.5t9.5 7.5h5zM235 599q-10 0 -10 -24v-450q0 -11 4.5 -17.5t9.5 -7.5h5h75q43 0 54 35q2 8 2 15v150v25q0 75 -19 134q-42 102 -98 132q-7 4 -14 6t-9 2z" />
    <glyph glyph-name="c" unicode="c" 
d="M206 700h56q90 0 116 -13q63 -29 113 -90q33 -43 34 -72q0 -11 -4.5 -17.5t-9.5 -6.5l-5 -1h-37q-41 0 -55 10l-18 18q-13 14 -21 22q-37 35 -52 42q-20 8 -61 8h-56q-43 0 -54 -35q-2 -8 -2 -15v-400q0 -31 28 -44q13 -6 28 -6h56q54 0 78 18q9 7 35 32l21 21
q22 24 36 27q11 2 37 2h37l10 -4q9 -7 9 -21q0 -42 -61 -101q-43 -41 -86 -61q-28 -13 -116 -13h-56q-56 0 -87 18q-3 1 -4 2q-67 37 -96 116q-19 54 -19 112v203q0 60 19 113q30 79 96 116q29 15 55 18q16 2 36 2z" />
    <glyph glyph-name="d" unicode="d" 
d="M244 1000h187l10 -4q8 -7 9 -21v-851q3 -23 19 -24h37l10 -4q9 -7 9 -21v-50q0 -11 -4.5 -17.5t-9.5 -7.5h-5h-21q-54 0 -69 6q-27 12 -41 44q-21 48 -33 50q-11 1 -37 -41q-3 -5 -5 -9q-24 -39 -54 -46q-16 -4 -42 -4q-55 0 -84 17q-3 2 -5 3q-67 38 -96 116
q-19 53 -19 108v106q4 67 22 109q68 164 167 215q43 22 92 25l10 4q9 8 9 22v150q0 11 -4.5 17.5t-9.5 7.5h-5h-37l-10 4q-9 7 -9 21v50q0 11 4.5 17.5t9.5 7.5h5zM290 599h-2q-4 -1 -7 -2q-55 -17 -101 -113q-5 -13 -10 -25q-20 -61 -20 -134v-25v-150q0 -31 28 -44
q13 -6 28 -6h56l16 5q21 13 22 45v425q-1 22 -10 24z" />
    <glyph glyph-name="e" unicode="e" 
d="M319 700q56 0 87 -18q3 -1 4 -2q67 -38 96 -116q19 -55 19 -113v-28q-1 -10 -5.5 -16t-8.5 -6l-5 -1h-56h-281q-17 -6 -19 -25v-225q0 -31 28 -44q13 -6 28 -6h56q54 0 78 18q9 7 35 32l21 21q22 24 36 27q11 2 37 2h37l10 -4q9 -7 9 -21q0 -42 -61 -101q-43 -41 -86 -61
q-28 -13 -116 -13h-56q-56 0 -87 18q-3 1 -4 2q-67 37 -96 116q-19 54 -19 112v203q0 60 19 113q30 79 96 116q29 15 55 18q16 2 36 2h113zM319 600h-113q-43 0 -54 -35q-2 -8 -2 -15v-25q0 -11 4.5 -17.5t9.5 -7.5h5h187l10 4q9 7 9 21v25q0 31 -28 44q-12 6 -28 6z" />
    <glyph glyph-name="f" unicode="f" 
d="M262 1000q40 0 66 -16q4 -2 8 -5q44 -27 80 -87q12 -19 18 -35q18 -47 16 -109q-1 -28 -7 -36q-9 -11 -23 -12h-8q-13 0 -22 7q-11 9 -47 72q-49 86 -80 115q-6 6 -9 6q-12 -1 -23 -26q-6 -13 -6 -100v-32v-117l3 -13q5 -11 16 -12h37l10 -4q9 -7 9 -21v-50
q0 -11 -4.5 -17.5t-9.5 -7.5h-5h-37q-8 0 -13 -6t-6 -12v-7v-350q0 -11 4.5 -17.5t9.5 -7.5h5h37l10 -4q9 -7 9 -21v-50q0 -11 -4.5 -17.5t-9.5 -7.5h-5h-262l-10 4q-9 7 -9 21v50q0 11 4.5 17.5t9.5 7.5h5h37l10 4q9 7 9 21v350l-3 13q-5 11 -16 12h-37l-10 4q-9 7 -9 21
v50q0 11 4.5 17.5t9.5 7.5h5h37q8 0 13 6t6 12v7v100q0 88 9 114q2 5 7 18q20 51 68 98q16 15 30 24q30 19 59 21h14z" />
    <glyph glyph-name="g" unicode="g" 
d="M469 700h6h10h21l10 -4q9 -7 9 -21v-50q0 -11 -4.5 -17.5t-9.5 -7.5h-5h-37q-9 0 -13.5 -6t-5.5 -12v-7v-627q0 -58 -19 -112q-30 -80 -96 -116q-29 -16 -55 -18q-16 -2 -36 -2q-71 0 -97 13q-63 29 -113 90q-33 43 -34 72q0 11 4.5 17.5t9.5 7.5h5h37q41 0 55 -11
q5 -4 18 -18l21 -21q43 -41 67 -47q12 -3 27 -3q43 0 54 35q2 8 2 15v125l-3 13q-5 11 -16 12h-75q-56 0 -87 18q-3 1 -4 2q-67 38 -96 116q-19 55 -19 113v202q0 59 19 113q30 79 96 116q29 16 55 18q16 2 36 2q50 0 71 -20q11 -11 23 -30q28 -48 39 -50q12 -2 31 40
q3 5 5 10q20 46 73 50h21zM206 600q-43 0 -54 -35q-2 -8 -2 -15v-400q0 -31 28 -44q13 -6 28 -6h75q9 0 13.5 6t5.5 12v7v425q0 22 -9.5 34.5t-18.5 13.5l-10 2h-56z" />
    <glyph glyph-name="h" unicode="h" 
d="M19 1000h187l10 -4q8 -7 9 -21v-300q0 -42 12 -58q22 -29 41 -11q5 4 7 9q43 72 63 82q8 3 16 3q42 -1 95 -62q33 -39 50 -81q16 -42 16 -82v-450q0 -11 -5 -17.5t-9 -7.5h-5h-112l-10 4q-9 7 -9 21v450q-1 26 -6 55q-6 41 -30 63q-8 7 -14 7q-21 0 -53 -66
q-27 -54 -37 -104q-10 -53 -10 -105v-300q0 -11 -5 -17.5t-9 -7.5h-5h-187l-10 4q-9 7 -9 21v50q0 11 4.5 17.5t9.5 7.5h5h37l10 4q9 7 9 21v750q0 11 -4.5 17.5t-9.5 7.5h-5h-37l-10 4q-9 7 -9 21v50q0 11 4.5 17.5t9.5 7.5h5z" />
    <glyph glyph-name="i" unicode="i" 
d="M244 1000h112l10 -4q9 -7 9 -21v-150q0 -11 -4.5 -17.5t-9.5 -7.5h-5h-112l-10 4q-9 7 -9 21v150q0 11 4.5 17.5t9.5 7.5h5zM169 700h187l10 -4q8 -7 9 -21v-550q0 -11 4.5 -17.5t9.5 -7.5h5h37l10 -4q9 -7 9 -21v-50q0 -11 -4.5 -17.5t-9.5 -7.5h-5h-262l-10 4
q-9 7 -9 21v50q0 11 4.5 17.5t9.5 7.5h5h37l10 4q9 7 9 21v450q0 11 -4.5 17.5t-9.5 7.5h-5h-37l-10 4q-9 7 -9 21v50q0 11 4.5 17.5t9.5 7.5h5z" />
    <glyph glyph-name="j" unicode="j" 
d="M394 1000h112l10 -4q9 -7 9 -21v-150q0 -11 -4.5 -17.5t-9.5 -7.5h-5h-112l-10 4q-9 7 -9 21v150q0 11 4.5 17.5t9.5 7.5h5zM319 700h187l10 -4q8 -7 9 -21v-726q0 -59 -19 -113q-30 -79 -96 -116q-29 -16 -56 -18l-16 -2h-76q-40 2 -70 19q-1 1 -2 1q-67 38 -96 116
q-19 55 -19 113v28q1 10 5.5 16t8.5 6l5 1h112l10 -4q9 -7 9 -21v-125q0 -31 28 -44q13 -6 28 -6h38q43 0 54 35q2 8 2 15v725q0 11 -4.5 17.5t-9.5 7.5h-5h-37l-10 4q-9 7 -9 21v50q0 11 4.5 17.5t9.5 7.5h5z" />
    <glyph glyph-name="k" unicode="k" 
d="M19 1000h187l10 -4q9 -7 9 -21v-75v-375l3 -13q5 -11 16 -12q18 0 56 50l75 114q22 28 35 33q9 3 21 3h75l10 -4q9 -7 9 -21q0 -21 -31 -66q-11 -14 -25 -34v0l-57 -75l-74 -100l84 -114q69 -92 84 -136q14 -38 17 -70q2 -24 2 -55q0 -11 -4.5 -17.5t-9.5 -7.5h-5h-112
l-10 4q-9 7 -9 21q0 80 -14 118l-6 14q-62 143 -111 143q-8 0 -13 -6t-6 -12v-7v-175v-75q0 -11 -4.5 -17.5t-9.5 -7.5h-5h-187l-10 4q-9 7 -9 21v50q0 11 4.5 17.5t9.5 7.5h5h37l10 4q9 7 9 21v750q0 11 -4.5 17.5t-9.5 7.5h-5h-37l-10 4q-9 7 -9 21v50q0 11 4.5 17.5
t9.5 7.5h5z" />
    <glyph glyph-name="l" unicode="l" 
d="M169 1000h187l10 -4q9 -7 9 -21v-75v-775q0 -11 4.5 -17.5t9.5 -7.5h5h37l10 -4q9 -7 9 -21v-50q0 -11 -4.5 -17.5t-9.5 -7.5h-5h-262l-10 4q-9 7 -9 21v50q0 11 4.5 17.5t9.5 7.5h5h37l10 4q9 7 9 21v750q0 11 -4.5 17.5t-9.5 7.5h-5h-37l-10 4q-9 7 -9 21v50
q0 11 4.5 17.5t9.5 7.5h5z" />
    <glyph glyph-name="m" unicode="m" 
d="M74 700h57q34 -1 49.5 -5.5t23 -12t20.5 -31.5v0q23 -41 38 -47q11 -4 38 -4h11q18 1 32 19l18 24q40 53 68 56q8 1 18 -1q50 -13 102 -81q23 -31 35 -60q14 -33 16 -72v-10v-75v-375q0 -11 -4.5 -17.5t-9.5 -7.5h-5h-112l-10 4q-9 7 -9 21v350v25v50q0 22 -9.5 34.5
t-18.5 13.5l-10 2l-15 -4q-21 -13 -22 -46v-50v-25v-350q0 -11 -4.5 -17.5t-9.5 -7.5h-5h-112l-10 4q-9 7 -9 21v350v25v50q0 22 -9.5 34.5t-18.5 13.5l-9 2h-19l-10 -4q-9 -7 -9 -21v-75v-25v-350q0 -11 -4.5 -17.5t-9.5 -7.5h-5h-112l-10 4q-9 7 -9 21v650q0 11 4.5 17.5
t9.5 7.5h5h55z" />
    <glyph glyph-name="n" unicode="n" 
d="M56 700q55 0 77 -24q10 -11 17 -26q21 -48 33 -50q11 -1 36 40l6 10q24 39 50 46q13 3 32 4h31q40 -2 69 -19q2 -1 3 -1q67 -38 96 -116q19 -55 19 -113v-428q-1 -10 -5.5 -16t-8.5 -6l-5 -1h-112l-10 4q-9 7 -9 21v525q0 31 -28 44q-12 6 -28 6h-57l-15 -5
q-21 -13 -22 -45v-525q0 -11 -4.5 -17.5t-9.5 -7.5h-5h-112l-10 4q-9 7 -9 21v550l-3 13q-5 11 -16 12h-37l-10 4q-9 7 -9 21v50q0 11 4.5 17.5t9.5 7.5h5h21h10h6z" />
    <glyph glyph-name="o" unicode="o" 
d="M206 700h113q56 0 87 -18q3 -1 4 -2q67 -38 96 -116q19 -55 19 -113v-202q0 -59 -19 -113q-30 -79 -96 -116q-29 -15 -54 -18q-17 -2 -37 -2h-113q-56 0 -87 18q-3 1 -4 2q-67 38 -96 116q-19 55 -19 113v202q0 59 19 113q30 79 96 116q29 15 54 18q16 2 37 2zM206 600
q-43 0 -54 -35q-2 -8 -2 -15v-400q0 -31 28 -44q13 -6 28 -6h113q43 0 54 35q2 8 2 15v400q0 31 -28 44q-12 6 -28 6h-113z" />
    <glyph glyph-name="p" unicode="p" 
d="M56 700q55 0 77 -24q10 -11 17 -26q21 -48 33 -50q11 -1 36 40l6 10q24 39 50 46q13 3 32 4h31q40 -2 69 -19q2 -1 3 -1q67 -38 96 -116q19 -55 19 -113v-202q0 -59 -19 -113q-30 -79 -96 -116q-29 -16 -55 -18q-16 -2 -36 -2h-75q-8 0 -13 -6t-6 -12v-7v-150
q0 -11 4.5 -17.5t9.5 -7.5h5h37l10 -4q9 -7 9 -21v-50q0 -11 -4.5 -17.5t-9.5 -7.5h-5h-262l-10 4q-9 7 -9 21v50q0 11 4.5 17.5t9.5 7.5h5h37l10 4q9 7 9 21v750l-3 13q-5 11 -16 12h-37l-10 4q-9 7 -9 21v50q0 11 4.5 17.5t9.5 7.5h5h21h10h6zM262 600l-15 -5
q-21 -13 -22 -45v-425l3 -13q5 -11 16 -12h75q43 0 54 35q2 8 2 15v400q0 31 -28 44q-12 6 -28 6h-57z" />
    <glyph glyph-name="q" unicode="q" 
d="M469 700h6h10h21l10 -4q9 -7 9 -21v-50q0 -11 -4.5 -17.5t-9.5 -6.5l-5 -1h-37q-9 0 -13.5 -6t-4.5 -13l-1 -6v-750q0 -11 4.5 -17.5t9.5 -6.5l5 -1h37l10 -4q9 -7 9 -21v-50q0 -11 -4.5 -17.5t-9.5 -6.5l-5 -1h-262l-10 4q-9 7 -9 21v50q0 11 4.5 17.5t9.5 6.5l5 1h37
l10 4q9 7 9 21v150l-3 13q-5 11 -16 12h-75q-56 0 -87 18q-3 1 -4 2q-67 38 -96 116q-19 55 -19 113v202q0 59 19 113q30 79 96 116q29 15 52 18q10 2 21 2h30q43 -1 64 -25q8 -10 18 -25q28 -48 39 -50q12 -2 31 40q3 5 5 10q20 46 73 50h21zM263 600h-57q-43 0 -54 -35
q-2 -8 -2 -15v-400q0 -31 28 -44q13 -6 28 -6h75q9 0 13.5 6t4.5 13l1 6v425q0 22 -9.5 34.5t-18.5 13.5z" />
    <glyph glyph-name="r" unicode="r" 
d="M313 700h25q67 0 122 -60q29 -33 46 -76q19 -49 19 -113v-26q0 -11 -4.5 -17.5t-9.5 -7.5h-5h-112l-10 4q-9 7 -9 21v150l-3 13q-5 11 -16 12q-50 -1 -111 -143q-15 -35 -18 -75q-1 -24 -2 -66v-91v-100q0 -11 4.5 -17.5t9.5 -7.5h5h37l10 -4q9 -7 9 -21v-50
q0 -11 -4.5 -17.5t-9.5 -7.5h-5h-262l-10 4q-9 7 -9 21v50q0 11 4.5 17.5t9.5 7.5h5h37l10 4q9 7 9 21v450l-3 13q-5 11 -16 12h-37l-10 4q-9 7 -9 21v50q0 11 4.5 17.5t9.5 7.5h5h37q55 0 79 -27q9 -10 15 -23q22 -43 29 -48q9 -5 31 22q5 7 20 26q38 49 83 50z" />
    <glyph glyph-name="s" unicode="s" 
d="M206 700h56q90 0 116 -13q63 -29 113 -90q33 -43 34 -72q0 -11 -4.5 -17.5t-9.5 -7.5h-5h-37q-41 0 -55 11q-5 4 -18 18l-21 21q-37 36 -52 42q-20 8 -61 8h-74l-18 -4q-19 -12 -20 -36q0 -55 56 -96q8 -7 19 -14l75 -50q193 -132 221 -224q4 -14 4 -26q0 -32 -22 -67
q-4 -5 -6 -8q-62 -75 -178 -75h-57q-89 0 -115 13q-63 29 -113 90q-33 43 -34 72q0 11 4.5 17.5t9.5 7.5h5h37q41 0 55 -11q5 -4 18 -18l21 -21q37 -36 52 -42q20 -8 60 -8h76l17 4q19 12 20 36q0 55 -56 96q-8 7 -19 14l-75 50q-193 132 -221 224q-4 14 -4 26q0 32 22 67
q4 5 6 8q62 75 178 75z" />
    <glyph glyph-name="t" unicode="t" 
d="M281 1000q9 0 13.5 -6t5.5 -12v-7v-250l3 -13q5 -11 16 -12h112l10 -4q9 -7 9 -21v-50q0 -11 -4.5 -17.5t-9.5 -7.5h-5h-112q-9 0 -13.5 -6t-5.5 -12v-7v-443q0 -22 19 -30q5 -2 10 -2q12 1 46 46q1 1 30 41l9 9q8 4 16 4h32q51 0 59 -15q4 -9 4 -23q0 -30 -56 -84
q-40 -39 -82 -63q-27 -14 -55 -15q-27 -1 -47 9q-63 31 -104 102q-9 16 -15 32q-16 40 -16 107v325l-3 13q-5 11 -16 12h-112l-10 4q-9 7 -9 21v50q0 11 4.5 17.5t9.5 7.5h5h112q9 0 13.5 6t5.5 12v7q0 81 13 114q2 7 7 18q62 143 111 143z" />
    <glyph glyph-name="u" unicode="u" 
d="M469 0q-55 0 -77 24q-10 11 -17 26q-21 48 -33 50q-11 1 -36 -40l-6 -10q-24 -39 -50 -46q-13 -3 -32 -4h-30q-41 2 -70 19q-2 1 -3 1q-67 38 -96 116q-19 55 -19 113v428q1 10 5.5 16t8.5 6l5 1h112l10 -4q9 -7 9 -21v-525q0 -31 28 -44q13 -6 28 -6h56l16 5
q21 13 22 45v525q0 11 4.5 17.5t9.5 7.5h5h112l10 -4q9 -7 9 -21v-550l3 -13q5 -11 16 -12h37l10 -4q9 -7 9 -21v-50q0 -11 -4.5 -17.5t-9.5 -7.5h-5h-21h-10h-6z" />
    <glyph glyph-name="v" unicode="v" 
d="M19 700h112l10 -4q9 -7 9 -21v-250q0 -36 22 -86q3 -8 6 -14q42 -73 122 -125q81 53 122 125q20 34 27 84q1 10 1 16v250q0 11 4.5 17.5t9.5 7.5h5h112l10 -4q9 -7 9 -21v-175q0 -92 -15 -129q-35 -89 -123 -206q-39 -51 -75 -88q-60 -63 -84 -76q-2 -1 -3 -1
q-1 1 -25 17q-82 64 -173 197q-64 92 -88 157q-14 38 -14 129v175q0 11 4.5 17.5t9.5 7.5h5z" />
    <glyph glyph-name="w" unicode="w" 
d="M19 700h112l10 -4q9 -7 9 -21v-425q0 -22 9.5 -34.5t18.5 -13.5l10 -2h18l10 4q9 7 9 21v150q0 11 4.5 17.5t9.5 7.5h5h112l10 -4q9 -7 9 -21v-150q0 -11 4.5 -17.5t9.5 -7.5h5h18l16 4q21 13 22 46v425q0 11 4.5 17.5t9.5 7.5h5h112l10 -4q9 -7 9 -21v-450
q0 -44 -15 -82q-27 -68 -87 -114q-16 -12 -32 -20q-18 -8 -42 -9q-26 -1 -37 21q-6 10 -12 29q-11 36 -23 44q-10 6 -30 6h-44q-31 -1 -41 -19q-5 -10 -12 -31q-13 -40 -28 -47q-9 -3 -21 -3q-24 1 -42 9q-63 31 -104 103q-9 16 -15 31q-15 39 -15 82v450q0 11 4.5 17.5
t9.5 7.5h5z" />
    <glyph glyph-name="x" unicode="x" 
d="M19 700h75q27 0 45 -22q4 -5 11 -14l150 -205l150 205q22 28 35 33q9 3 21 3h75l10 -4q9 -7 9 -21q0 -21 -31 -65q-11 -15 -25 -35v0l-165 -225l165 -225v0q51 -70 55 -91q1 -5 1 -9q0 -11 -4.5 -17.5t-9.5 -7.5h-5h-75q-27 0 -45 22q-4 5 -11 14l-150 205l-150 -205
q-22 -28 -35 -33q-9 -3 -21 -3h-75l-10 4q-9 7 -9 21q0 21 31 65q11 15 25 35v0l165 225l-165 225v0q-51 70 -55 91q-1 5 -1 9q0 11 4.5 17.5t9.5 7.5h5z" />
    <glyph glyph-name="y" unicode="y" 
d="M19 700h112l10 -4q9 -7 9 -21v-525q0 -31 28 -44q13 -6 28 -6h150q8 0 13 6t6 12v7v550q0 11 4.5 17.5t9.5 7.5h5h112l10 -4q9 -7 9 -21v-625q-1 -60 -20 -107q-25 -69 -95 -150q-39 -45 -69 -66q-42 -27 -79 -27h-93h-150l-10 4q-9 7 -9 21v50q0 11 4.5 17.5t9.5 7.5h5
h150q67 0 105 24q12 8 26 19q74 62 75 115v7v10l-3 13q-5 11 -16 12h-150q-47 1 -91 20q-67 38 -96 116q-19 55 -19 113v428q1 10 5.5 16t8.5 6z" />
    <glyph glyph-name="z" unicode="z" 
d="M19 700h487l10 -4q8 -7 9 -21q0 -22 -31 -66q-11 -15 -25 -34l-281 -375q-37 -53 -38 -75q0 -11 4.5 -17.5t9.5 -7.5h5h131q37 0 50 12q10 11 24 37q21 40 35 47q11 4 41 4h56l10 -4q9 -7 9 -21v-150q0 -11 -4.5 -17.5t-9.5 -7.5h-5h-487l-10 4q-9 7 -9 21v40
q0 59 26 108q21 38 83 123l135 179q51 69 55 91q1 5 1 9q0 11 -5 17t-9 7l-5 1h-62q-33 0 -47 -15q-9 -11 -21 -34q-21 -40 -35 -47q-11 -4 -41 -4h-56l-10 4q-9 7 -9 21v150q0 11 4.5 17.5t9.5 7.5h5z" />
    <glyph glyph-name="braceleft" unicode="{" 
d="M431 1000h75l10 -4q9 -7 9 -21v-50q0 -11 -4.5 -17.5t-9.5 -7.5h-5h-75q-41 2 -53 -33q-3 -9 -3 -17v-115q0 -5 -0.5 -10l-1 -10t-1 -7.5t-1.5 -9t-1.5 -7.5t-2 -8.5t-2.5 -7.5q-21 -87 -68 -112l-22 -13l23 -13q49 -30 68 -112q9 -41 9 -74v-201q0 -31 28 -44
q13 -6 28 -6h75l10 -4q9 -7 9 -21v-50q0 -11 -4.5 -17.5t-9.5 -7.5h-5h-75q-56 0 -87 18q-3 1 -4 2q-67 38 -96 116q-19 54 -19 113v201q0 22 -9.5 34.5t-18.5 13.5l-9 2h-94l-10 4q-9 7 -9 21v50q0 11 4.5 17.5t9.5 7.5h5h94l15 4q21 13 22 46v101q0 60 19 113
q30 79 96 116q29 16 55 18q16 2 36 2z" />
    <glyph glyph-name="bar" unicode="|" 
d="M244 1000h112l10 -4q9 -7 9 -21v-350q0 -11 -4.5 -17.5t-9.5 -7.5h-5h-112l-10 4q-9 7 -9 21v350q0 11 4.5 17.5t9.5 7.5h5zM244 500h112l10 -4q9 -7 9 -21v-450q0 -11 -4.5 -17.5t-9.5 -7.5h-5h-112l-10 4q-9 7 -9 21v450q0 11 4.5 17.5t9.5 7.5h5z" />
    <glyph glyph-name="braceright" unicode="}" 
d="M169 1000q56 0 87 -18q3 -1 4 -2q67 -38 96 -116q19 -54 19 -113v-101q0 -22 9.5 -34.5t18.5 -14.5l9 -1h94l10 -4q9 -7 9 -21v-50q0 -11 -4.5 -17.5t-9.5 -7.5h-5h-94l-15 -4q-21 -13 -22 -46v-201q0 -60 -19 -113q-30 -79 -96 -116q-29 -16 -55 -18q-16 -2 -36 -2h-75
l-10 4q-9 7 -9 21v50q0 11 4.5 17.5t9.5 7.5h5h75q43 0 54 35q2 8 2 15v201q0 34 9 74q20 83 68 112l23 13l-22 13q-47 25 -68 112q-10 39 -10 60v115q0 30 -26 44q-14 7 -30 6h-75l-10 4q-9 7 -9 21v50q0 11 4.5 17.5t9.5 7.5h5h75z" />
    <glyph glyph-name="asciitilde" unicode="~" 
d="M8 811q-20 27 15 74q2 3 4 5q47 59 112 94q26 15 61 16h12q29 0 42 -6q23 -13 57 -72q13 -22 22 -22q13 0 41 47q19 32 26 41q11 12 31 12h57q36 -2 37 -38q0 -30 -57 -84q-40 -38 -81 -61q-29 -16 -66 -17h-8q-26 0 -41 7q-28 15 -52 60q-3 6 -5 12q-10 20 -22 21
q-13 0 -43 -48q-17 -28 -24 -38q-8 -13 -23 -14h-9h-56q-22 1 -30 11z" />
    <glyph glyph-name="uni007F" 
d="M262 800q1 -2 113 -150q102 -136 129 -190q21 -43 21 -85v-250q0 -11 -4.5 -17.5t-9.5 -7.5h-5h-150h-187h-150l-10 4q-9 7 -9 21v250q0 38 20 85q17 39 115 170q7 10 15 20q16 22 34.5 46.5t31.5 41.5t23.5 32t16.5 22zM262 600l-37 -50q-58 -77 -70 -126q-5 -24 -5 -49
v-155q1 -9 5.5 -14t9.5 -5l4 -1h187l10 4q9 7 9 21v150q-3 67 -46 134q-12 19 -29 41z" />
    <glyph glyph-name="uni00A0" unicode="&#xa0;" 
 />
    <glyph glyph-name="exclamdown" unicode="&#xa1;" 
d="M225 975q0 11 4.5 17t9.5 7l5 1h112l10 -4q9 -7 9 -21v-150q0 -11 -4.5 -17.5t-9.5 -6.5l-5 -1h-112l-10 3q-9 8 -9 22v150zM244 700v0h1h1v0h2v0h1h1h1v0h1h1v0h1h1h1v0h1h1h1v0h1h1h1v0h1h1h1v0h1h1h1v0h1h1h1h1v0h1h1h1h1v0h1h1h1h1v0h1h1h1h1v0h1h1h1h1h1v0h1h1h1h1
v0h1h1h1h1h1v0h1h1h1h1h1v0h1h1h1h1h1v0h1h1h1h1h1v0h1h1h1h1h1v0h1h1h1h1v0h1h1h1h1v0h1h1h1h1v0h1h1h1h1v0h1h1h1h1h1h1h1h1h1h1h1h1h1h1h1h1h6q9 0 13.5 -6.5t5.5 -12.5v-6v-185q0 -10 7 -26.5t13 -28.5l7 -12q6 -14 16 -38q24 -58 28 -76t4 -66q0 -58 -11 -87
q-2 -5 -5 -13q-24 -61 -77 -110q-35 -33 -57 -33q-33 0 -84 61q-34 41 -50 82q-14 34 -15 67q-1 14 -1 33q0 54 7 77q4 14 41 103l19 37q8 20 8 31v184l3 13q5 11 16 12z" />
    <glyph glyph-name="cent" unicode="&#xa2;" 
d="M244 1100h112l10 -4q9 -7 9 -21v-150q1 -21 20 -26q39 -3 58 -12q63 -29 113 -90q33 -43 34 -72q0 -11 -4.5 -17.5t-9.5 -7.5h-5h-37q-41 0 -55 11q-5 4 -18 18l-21 21q-37 36 -52 42q-20 8 -60 8h-132q-43 0 -54 -35q-2 -8 -2 -15v-400q0 -31 28 -44q12 -6 28 -6h132
q53 0 77 18q9 7 35 32q9 9 21 22q22 23 36 26q11 2 37 2h37l10 -3q9 -8 9 -22q0 -42 -61 -101q-43 -41 -86 -61q-20 -10 -57 -12q-20 -6 -21 -26v-150q0 -11 -4.5 -17.5t-9.5 -7.5h-5h-112l-10 4q-9 7 -9 21v150q0 11 -4.5 17.5t-9.5 7.5h-5q-56 0 -87 18q-3 1 -4 2
q-67 38 -96 116q-19 54 -19 113v203q0 59 19 112q30 80 96 116q29 16 55 18q16 2 36 2l10 4q9 7 9 21v150q0 11 4.5 17.5t9.5 7.5h5z" />
    <glyph glyph-name="sterling" unicode="&#xa3;" 
d="M262 1100q40 0 66 -16q4 -2 8 -5q44 -27 80 -87q12 -19 18 -35q18 -47 16 -109q-1 -28 -7 -36q-9 -11 -23 -12h-8q-13 0 -22 7q-11 9 -47 72q-49 86 -80 115q-6 6 -9 6q-12 -1 -23 -26q-6 -13 -6 -100v-32v-117l3 -13q5 -11 16 -12h37l10 -4q9 -7 9 -21v-50
q0 -11 -4.5 -17.5t-9.5 -7.5h-5h-37q-8 0 -13 -6t-6 -12v-7v-450q0 -11 4.5 -17.5t9.5 -7.5h5h18q54 0 78 18q9 7 35 32l21 21q22 24 36 27q11 2 37 2h37l10 -4q9 -7 9 -21q0 -42 -61 -101q-43 -41 -86 -61q-28 -13 -116 -13h-243q-9 0 -13.5 6t-5.5 12v7v75q0 50 7 65
q8 14 31 36q29 28 34 50q3 15 3 49v275l-3 13q-5 11 -16 12h-37l-10 4q-9 7 -9 21v50q0 11 4.5 17.5t9.5 7.5h5h37q8 0 13 6t6 12v7v100q0 88 9 114q2 5 7 18q20 51 68 98q16 15 30 24q30 19 59 21h14z" />
    <glyph glyph-name="yen" unicode="&#xa5;" 
d="M19 1000h75q27 0 45 -22q4 -5 11 -14l150 -205l150 205q22 28 35 33q9 3 21 3h75l10 -4q9 -7 9 -21q0 -21 -31 -65q-11 -15 -25 -35v0l-56 -75l-57 -75q-51 -69 -55 -91q-1 -5 -1 -9q0 -11 5 -17t9 -7l5 -1h94h93l10 -4q9 -7 9 -21v-50q0 -11 -4.5 -17.5t-9.5 -7.5h-5
h-187q-8 0 -13 -6t-6 -12v-7v-50l3 -13q5 -11 16 -12h187l10 -4q9 -7 9 -21v-50q0 -11 -4.5 -17.5t-9.5 -7.5h-5h-187q-8 0 -13 -6t-6 -12v-7v-250l-3 -13q-5 -11 -16 -12h-112q-8 0 -13 6t-6 12v7v250l-3 13q-5 11 -16 12h-187l-10 4q-9 7 -9 21v50q0 11 4.5 17.5t9.5 7.5
h5h187q8 0 13 6t6 12v7v50l-3 13q-5 11 -16 12h-187l-10 4q-9 7 -9 21v50q0 11 4.5 17.5t9.5 7.5h5h93h94l10 4q8 7 9 21q0 21 -31 66q-11 15 -25 34l-57 75l-56 75v0q-51 70 -55 91q-1 5 -1 9q0 11 4.5 17.5t9.5 7.5h5z" />
    <glyph glyph-name="section" unicode="&#xa7;" 
d="M206 1100h56q90 0 116 -13q63 -29 113 -90q33 -43 34 -72q0 -11 -4.5 -17.5t-9.5 -7.5h-5h-37q-41 0 -55 11q-5 4 -18 18l-21 21q-37 36 -52 42q-20 8 -61 8h-74l-18 -4q-19 -12 -20 -36q0 -55 56 -96q8 -7 19 -14l75 -50q210 -144 224 -281q1 -10 1 -19q0 -67 -70 -159
q-3 -4 -5 -6q-38 -47 -70 -74q-9 -9 10 -29q134 -110 135 -182q0 -32 -22 -67q-4 -5 -6 -8q-62 -75 -178 -75h-57q-89 0 -115 13q-51 24 -99 75t-48 87q0 11 4.5 17.5t9.5 7.5h5h37q41 0 55 -11q5 -4 18 -18l21 -21q37 -36 52 -42q20 -8 60 -8h76l17 4q19 12 20 36
q0 55 -56 96q-8 7 -19 14l-75 50q-210 144 -224 281q-1 10 -1 19q0 67 70 159q3 4 5 6q38 47 70 74q9 9 -10 29q-134 110 -135 182q0 32 22 67q4 5 6 8q62 75 178 75zM263 699q-20 -1 -53 -42q-71 -91 -53 -197q10 -57 45 -106q39 -55 63 -52q9 1 19 8q28 19 58 78
q11 19 16 36q40 112 -30 215q-7 9 -13 17q-34 43 -52 43z" />
    <glyph glyph-name="ordfeminine" unicode="&#xaa;" 
d="M262 1100h113h56l10 -4q9 -7 9 -21v-75v-175q0 -11 4.5 -17.5t9.5 -7.5h5h37l10 -4q9 -7 9 -21v-50q0 -11 -4.5 -17.5t-9.5 -7.5h-5h-244q-42 0 -84 27q-3 3 -6 4q-59 44 -84 102q-2 5 -3 9q-10 28 -10 58q0 31 10 58q20 55 76 102q6 5 11 9q43 28 90 31zM262 1000
l-15 -4q-21 -13 -22 -46v-100q0 -22 9.5 -34.5t18.5 -13.5l9 -2h19l10 4q9 7 9 21v150q0 11 -4.5 17.5t-9.5 7.5h-5h-19zM94 600h412l10 -4q9 -7 9 -21v-50q0 -11 -4.5 -17.5t-9.5 -7.5h-5h-412l-10 4q-9 7 -9 21v50q0 11 4.5 17.5t9.5 7.5h5z" />
    <glyph glyph-name="guillemotleft" unicode="&#xab;" 
d="M206 700h75l10 -4q9 -7 9 -21q0 -21 -31 -65q-11 -15 -25 -35v0l-94 -125l94 -125v0q51 -70 55 -91q1 -5 1 -9q0 -11 -4.5 -17.5t-9.5 -7.5h-5h-75q-18 0 -33 19l-4 6l-169 225l169 225q16 22 29 24q4 1 8 1zM431 700h75l10 -4q9 -7 9 -21q0 -21 -31 -65q-11 -15 -25 -35
v0l-94 -125l94 -125v0q51 -70 55 -91q1 -5 1 -9q0 -11 -4.5 -17.5t-9.5 -7.5h-5h-75q-18 0 -33 19l-4 6l-169 225l169 225q16 22 29 24q4 1 8 1z" />
    <glyph glyph-name="logicalnot" unicode="&#xac;" 
d="M19 600h487l10 -4q8 -7 9 -21v-450q0 -11 -4.5 -17.5t-9.5 -7.5h-5h-112l-10 4q-9 7 -9 21v350q0 11 -4.5 17.5t-9.5 7.5h-5h-337l-10 4q-9 7 -9 21v50q0 11 4.5 17.5t9.5 7.5h5z" />
    <glyph glyph-name="degree" unicode="&#xb0;" 
d="M262 1100q83 0 141 -72q47 -59 47 -128q0 -77 -55 -138q-57 -62 -133 -62q-82 0 -140 72q-47 59 -47 128q0 77 55 138q57 62 132 62zM262 1000q-24 0 -34 -30q-3 -10 -3 -20v-100q0 -33 22 -46q8 -4 15 -4q25 0 35 30q3 10 3 20v100q0 33 -22 46q-8 4 -16 4z" />
    <glyph glyph-name="plusminus" unicode="&#xb1;" 
d="M244 800h112q8 0 13 -6t6 -12v-7v-150l3 -13q5 -11 16 -12h112l10 -4q9 -7 9 -21v-50q0 -11 -4.5 -17.5t-9.5 -7.5h-5h-112q-8 0 -13 -6t-6 -12v-7v-150l-3 -13q-5 -11 -16 -12h-112q-8 0 -13 6t-6 12v7v150l-3 13q-5 11 -16 12h-112l-10 4q-9 7 -9 21v50q0 11 4.5 17.5
t9.5 7.5h5h112q8 0 13 6t6 12v7v150l3 13q5 11 16 12zM19 100h562l10 -4q9 -7 9 -21v-50q0 -11 -4.5 -17.5t-9.5 -7.5h-5h-562l-10 4q-9 7 -9 21v50q0 11 4.5 17.5t9.5 7.5h5z" />
    <glyph glyph-name="uni00B2" unicode="&#xb2;" 
d="M212 1100q35 0 94 -41q65 -46 69 -89q0 -34 -53 -94q-18 -21 -22 -26l-94 -125q-51 -69 -55 -91q-1 -5 -1 -9q0 -11 4.5 -17.5t9.5 -7.5h5h112q9 0 13.5 6t5.5 12v7v50l3 13q5 11 16 12h37q8 0 13 -6t6 -12v-7v-150q0 -11 -4.5 -17.5t-9.5 -7.5h-5h-337l-10 4q-9 7 -9 21
v40q0 59 26 108q21 38 83 123q11 14 108 143q17 25 0 52q-7 9 -24 9q-13 0 -43 -48q-17 -28 -24 -38q-6 -10 -11.5 -12t-20.5 -2h-56q-22 1 -30 11q-20 27 15 74q2 3 4 5q47 59 112 94q26 15 61 16h12z" />
    <glyph glyph-name="mu" unicode="&#xb5;" 
d="M94 800h112l10 -4q9 -7 9 -21v-450l3 -13q5 -11 16 -12h75q43 0 54 35q2 8 2 15v425q0 11 4.5 17.5t9.5 7.5h5h112l10 -4q9 -7 9 -21v-326q0 -59 -19 -113q-30 -79 -96 -116q-29 -16 -56 -18l-16 -2h-94q-8 0 -13 -6t-6 -12v-7v-50q0 -43 -11 -67q-6 -16 -7 -16
q-22 -55 -70 -99q-14 -14 -27 -21q-36 -22 -72 -22q-23 1 -30 10q-16 22 4 54q3 4 5 8q23 33 36 59q19 46 21 78q1 12 1 24v642q0 11 4.5 17.5t9.5 7.5h5z" />
    <glyph glyph-name="paragraph" unicode="&#xb6;" 
d="M206 1000h375l10 -4q8 -7 9 -21v-950q0 -11 -4.5 -17.5t-9.5 -7.5h-5h-112l-10 4q-9 7 -9 21v850q0 11 -4.5 17.5t-9.5 7.5h-5h-37l-10 -4q-9 -7 -9 -21v-850q0 -11 -4.5 -17.5t-9.5 -7.5h-5h-112l-10 4q-9 7 -9 21v450l-3 13q-5 11 -16 12q-57 0 -87 18q-3 1 -4 2
q-67 37 -96 115q-19 52 -19 115q0 60 19 114q30 80 96 116q29 16 55 18q16 2 36 2zM206 900q-43 0 -54 -35q-2 -8 -2 -15v-200q0 -31 28 -45q12 -5 28 -5q8 0 13 6t6 12v7v250q0 11 -4.5 17.5t-9.5 7.5h-5zM0 750z" />
    <glyph glyph-name="periodcentered" unicode="&#xb7;" 
d="M244 400h112l10 -4q9 -7 9 -21v-50q0 -11 -4.5 -17.5t-9.5 -7.5h-5h-112l-10 4q-9 7 -9 21v50q0 11 4.5 17.5t9.5 7.5h5z" />
    <glyph glyph-name="ordmasculine" unicode="&#xba;" 
d="M262 1100q83 0 141 -72q47 -59 47 -128q0 -77 -55 -138q-57 -62 -133 -62q-82 0 -140 72q-47 59 -47 128q0 77 55 138q57 62 132 62zM262 1000q-24 0 -34 -30q-3 -10 -3 -20v-100q0 -33 22 -46q8 -4 15 -4q25 0 35 30q3 10 3 20v100q0 33 -22 46q-8 4 -16 4zM94 600h337
l10 -4q9 -7 9 -21v-50q0 -11 -4.5 -17.5t-9.5 -7.5h-5h-337l-10 4q-9 7 -9 21v50q0 11 4.5 17.5t9.5 7.5h5z" />
    <glyph glyph-name="guillemotright" unicode="&#xbb;" 
d="M319 700q18 0 33 -19l4 -6l169 -225l-169 -225q-16 -22 -29 -24q-4 -1 -8 -1h-75l-10 4q-9 7 -9 21q0 21 31 65q11 15 25 35v0l94 125l-94 125v0q-51 70 -55 91q-1 5 -1 9q0 11 4.5 17.5t9.5 7.5h5h75zM94 700q18 0 33 -19l4 -6l169 -225l-169 -225q-16 -22 -29 -24
q-4 -1 -8 -1h-75l-10 4q-9 7 -9 21q0 21 31 65q11 15 25 35v0l94 125l-94 125v0q-51 70 -55 91q-1 5 -1 9q0 11 4.5 17.5t9.5 7.5h5h75z" />
    <glyph glyph-name="onequarter" unicode="&#xbc;" 
d="M19 1100h112l10 -4q9 -7 9 -21v-450q0 -11 -4.5 -17.5t-9.5 -7.5h-5h-112l-10 4q-9 7 -9 21v450q0 11 4.5 17.5t9.5 7.5h5zM506 900q15 0 18 -13q1 -9 1 -37q0 -44 -13 -81q-2 -6 -6 -16q-13 -37 -57 -99q-39 -55 -186 -252q-190 -255 -226 -294q-8 -7 -19 -8
q-15 0 -18 13q-1 9 -1 37q0 44 13 81q2 6 6 16q13 37 57 99q39 55 186 252q190 255 226 294q8 7 19 8zM476 400h30q8 0 13 -6t6 -12v-7v-550q0 -11 -4.5 -17.5t-9.5 -7.5h-5h-112l-10 4q-9 7 -9 21v150q0 11 -4.5 17.5t-9.5 7.5h-5v0h-187l-10 4q-9 7 -9 21q0 21 31 66
q11 14 25 34l38 50q0 1 59 79q78 104 110 127q27 19 63 19zM356 200q-17 0 -41 -36q-15 -24 -15 -39q0 -11 5 -17.5t9 -7.5h5h37l10 4q9 7 9 21v50q0 11 -4.5 17.5t-9.5 7.5h-5z" />
    <glyph glyph-name="onehalf" unicode="&#xbd;" 
d="M19 1100h112l10 -4q9 -7 9 -21v-450q0 -11 -4.5 -17.5t-9.5 -7.5h-5h-112l-10 4q-9 7 -9 21v450q0 11 4.5 17.5t9.5 7.5h5zM506 900q15 0 18 -13q1 -9 1 -37q0 -44 -13 -81q-2 -6 -6 -16q-13 -37 -57 -99q-39 -55 -186 -252q-190 -255 -226 -294q-8 -7 -19 -8
q-15 0 -18 13q-1 9 -1 37q0 44 13 81q2 6 6 16q13 37 57 99q39 55 186 252q190 255 226 294q8 7 19 8zM437 300q35 0 94 -41q65 -46 69 -89q0 -34 -53 -94q-18 -21 -22 -26l-19 -25q-51 -69 -55 -91q-1 -5 -1 -9q0 -11 4.5 -17.5t9.5 -7.5h5h117l10 -4q8 -7 9 -21v-50
q0 -11 -5 -17.5t-9 -6.5l-5 -1h-267h-3h-72l-10 4q-8 7 -9 21q0 22 31 66q11 15 25 34q1 1 161 214q17 25 0 52q-7 9 -24 9q-13 0 -43 -48q-17 -28 -24 -38q-6 -10 -11.5 -12t-20.5 -2h-57q-21 1 -29 11q-20 27 15 74q2 3 4 5q47 59 112 94q26 15 61 16h12z" />
    <glyph glyph-name="questiondown" unicode="&#xbf;" 
d="M169 1000h112l10 -4q9 -7 9 -21v-150q0 -11 -4.5 -17.5t-9.5 -7.5h-5h-112l-10 4q-9 7 -9 21v150q0 11 4.5 17.5t9.5 7.5h5zM169 700h112l10 -4q9 -7 9 -21v-29q-6 -79 -74 -181q-53 -80 -65 -123q-11 -41 -11 -124v-63q2 -25 12 -39q13 -15 26 -16h131q43 0 54 35
q2 8 2 15v125q0 11 4.5 17.5t9.5 7.5h5h112l10 -4q9 -7 9 -21q0 -73 -15 -126q-2 -7 -4 -13q-30 -80 -96 -116q-29 -16 -55 -18q-16 -2 -36 -2h-136q-30 0 -49 9q-42 21 -75 63q-2 2 -3 4q-47 60 -55 147q-1 14 -1 27v4q-1 64 20 107q18 35 71 107q44 58 53 101q6 26 6 69
v37q0 11 4.5 17.5t9.5 7.5h5z" />
    <glyph glyph-name="Adieresis" unicode="&#xc4;" 
d="M262 900q1 -2 113 -150q102 -136 129 -190q21 -43 21 -85v-450q0 -11 -4.5 -17.5t-9.5 -7.5h-5h-112l-10 4q-9 7 -9 21v250q0 11 -4.5 17.5t-9.5 7.5h-5h-187l-10 -4q-9 -7 -9 -21v-250q0 -11 -4.5 -17.5t-9.5 -7.5h-5h-112l-10 4q-9 7 -9 21v450q0 38 20 85
q17 39 115 170q7 10 15 20q16 22 34.5 46.5t31.5 41.5t23.5 32t16.5 22zM262 700l-37 -50q-57 -77 -69 -124q-6 -25 -6 -51v-55q1 -9 5.5 -14t9.5 -5l4 -1h187l10 4q9 7 9 21v50q-3 67 -46 134q-12 19 -29 41zM19 1100h112l10 -4q9 -7 9 -21v-50q0 -11 -4.5 -17.5t-9.5 -7.5
h-5h-112l-10 4q-9 7 -9 21v50q0 11 4.5 17.5t9.5 7.5h5zM394 1100h112l10 -4q9 -7 9 -21v-50q0 -11 -4.5 -17.5t-9.5 -7.5h-5h-112l-10 4q-9 7 -9 21v50q0 11 4.5 17.5t9.5 7.5h5z" />
    <glyph glyph-name="Aring" unicode="&#xc5;" 
d="M262 1200q79 0 140 -56q47 -45 48 -94q0 -55 -57 -102q-59 -48 -131 -48q-78 0 -139 56q-47 45 -48 94q0 55 57 102q59 48 130 48zM262 1100q-24 0 -34 -30q-3 -10 -3 -20q0 -33 22 -46q8 -4 15 -4q25 0 35 30q3 10 3 20q0 33 -22 46q-8 4 -16 4zM262 800q77 0 160 -96
q72 -83 95 -174q8 -30 8 -55v-450q0 -11 -4.5 -17.5t-9.5 -7.5h-5h-112l-10 4q-9 7 -9 21v250q0 11 -4.5 17.5t-9.5 7.5h-5h-187l-10 -4q-9 -7 -9 -21v-250q0 -11 -4.5 -17.5t-9.5 -7.5h-5h-112l-10 4q-9 7 -9 21v450q0 79 64 177q65 101 144 135q29 13 54 13zM262 700
l-37 -50q-57 -77 -69 -124q-6 -25 -6 -51v-55q1 -9 5.5 -14t9.5 -5l4 -1h187l10 4q9 7 9 21v50q-3 67 -46 134q-12 19 -29 41z" />
    <glyph glyph-name="AE" unicode="&#xc6;" 
d="M300 1000h206l10 -4q9 -7 9 -21v-50q0 -11 -4.5 -17.5t-9.5 -7.5h-5h-37l-10 -4q-9 -7 -9 -21v-250l3 -13q5 -11 16 -12h37l10 -4q9 -7 9 -21v-50q0 -11 -4.5 -17.5t-9.5 -7.5h-5h-37q-9 0 -13.5 -6t-5.5 -12v-7v-350q0 -11 4.5 -17.5t9.5 -7.5h5h37l10 -4q9 -7 9 -21
v-50q0 -11 -4.5 -17.5t-9.5 -7.5h-5h-187l-10 4q-8 7 -9 21v450l-3 13q-5 11 -16 12h-112q-9 0 -13.5 -6t-5.5 -12v-7v-450q0 -11 -4.5 -17.5t-9.5 -7.5h-5h-112l-10 4q-9 7 -9 21v573q0 95 13 137q4 14 9 25q69 165 168 215q50 25 110 25zM281 900q-50 -1 -111 -143
q-15 -35 -18 -76q-1 -22 -2 -58q4 -22 19 -23h112q9 0 13.5 6t5.5 12v7v250l-3 13q-5 11 -16 12z" />
    <glyph glyph-name="Ccedilla" unicode="&#xc7;" 
d="M300 1000q62 0 88 -10q11 -4 23 -11q42 -22 80 -86q11 -19 18 -36q12 -34 15 -84q1 -31 1 -48q0 -11 -5 -17t-9 -7l-5 -1h-16t-24 13q-6 10 -18 34q-39 76 -82 122q-9 10 -15 14q-26 17 -51 17q-49 0 -98 -76q-18 -30 -33 -64q-19 -61 -19 -134v-152q0 -75 19 -134
q38 -92 92 -127q21 -13 39 -13q26 0 51 17q28 19 75 97q12 20 22 39q20 40 28 44q6 3 14 3h16l10 -4q8 -7 9 -21q0 -15 -1 -48q-3 -51 -15 -84q-20 -52 -65 -96q-16 -16 -30 -24q0 -1 -3 -3q-8 -10 -5 -14q5 -6 23 -20q16 -12 21 -17q75 -71 75 -119q0 -45 -53 -97
q-17 -17 -34 -29q-35 -24 -82 -24h-262l-10 4q-9 7 -9 21v50q0 11 4.5 17.5t9.5 7.5h5h262l10 4q9 7 9 21q0 21 -31 66q-11 14 -25 34q-36 46 -120 96q-104 47 -175 213l-2 6q-21 48 -22 141v21v96q0 95 13 137q4 14 9 25q69 165 168 215q50 25 110 25z" />
    <glyph glyph-name="Eacute" unicode="&#xc9;" 
d="M281 1200h75l10 -4q9 -7 9 -21q0 -21 -31 -66q-11 -15 -25 -34l-94 -125q-28 -38 -39 -45q-9 -5 -17 -5h-75l-10 4q-9 7 -9 21q0 22 32 67q3 4 5 8l113 150q28 37 39 44q9 6 17 6zM19 800h281h206l10 -4q9 -7 9 -21v-150q0 -11 -4.5 -17.5t-9.5 -7.5h-5h-56q-37 0 -48 10
t-28 41q-21 39 -37 45q-11 4 -37 4h-56l-10 -4q-9 -7 -9 -21v-150q0 -11 4.5 -17.5t9.5 -7.5h5h187l10 -4q9 -7 9 -21v-50q0 -11 -4.5 -17.5t-9.5 -7.5h-5h-187l-10 -4q-9 -7 -9 -21v-250q0 -11 4.5 -17.5t9.5 -7.5h5h56q37 0 50 12q10 11 24 37q21 40 35 47q11 4 41 4h56
l10 -4q9 -7 9 -21v-150q0 -11 -4.5 -17.5t-9.5 -7.5h-5h-206h-281l-10 4q-9 7 -9 21v50q0 11 4.5 17.5t9.5 7.5h5h37l10 4q9 7 9 21v550q0 11 -4.5 17.5t-9.5 7.5h-5h-37l-10 4q-9 7 -9 21v50q0 11 4.5 17.5t9.5 7.5h5z" />
    <glyph glyph-name="Ntilde" unicode="&#xd1;" 
d="M212 1200q29 0 42 -6q23 -13 57 -72q13 -22 22 -22q13 0 41 47q19 32 26 41q11 12 31 12h57q36 -2 37 -38q0 -30 -57 -84q-40 -38 -81 -61q-29 -16 -66 -17h-8q-26 0 -41 7q-28 15 -52 60q-3 6 -5 12q-10 20 -22 21q-13 0 -43 -48q-17 -28 -24 -38q-6 -10 -11.5 -12
t-20.5 -2h-56q-22 1 -30 11q-20 27 15 74q2 3 4 5q47 59 112 94q26 15 61 16h12zM19 900h30q45 0 86 -39q29 -30 90 -111l86 -115q25 -34 43 -35h2q8 0 13 6t6 12v7v250q0 11 4.5 17.5t9.5 7.5h5h112l10 -4q9 -7 9 -21v-850q0 -11 -4.5 -17.5t-9.5 -7.5h-5h-112l-10 4
q-9 7 -9 21v140q-3 62 -28 110q-22 40 -81 121q-69 92 -87 101q-6 3 -10 3q-9 0 -13.5 -6t-5.5 -12v-7v-450q0 -11 -4.5 -17.5t-9.5 -7.5h-5h-56h-56l-10 4q-9 7 -9 21v850l3 13q5 11 16 12z" />
    <glyph glyph-name="Odieresis" unicode="&#xd6;" 
d="M19 1100h112l10 -4q9 -7 9 -21v-50q0 -11 -4.5 -17.5t-9.5 -7.5h-5h-112l-10 4q-9 7 -9 21v50q0 11 4.5 17.5t9.5 7.5h5zM394 1100h112l10 -4q9 -7 9 -21v-50q0 -11 -4.5 -17.5t-9.5 -7.5h-5h-112l-10 4q-9 7 -9 21v50q0 11 4.5 17.5t9.5 7.5h5zM206 900h113q56 0 87 -18
q3 -1 4 -2q67 -37 96 -116q19 -55 19 -112v-404q0 -58 -19 -112q-30 -80 -96 -116q-29 -16 -55 -18q-16 -2 -36 -2h-113q-56 0 -87 18q-3 1 -4 2q-67 37 -96 116q-19 55 -19 112v404q0 58 19 112q30 80 96 116q29 16 55 18q16 2 36 2zM206 800q-43 0 -54 -35q-2 -8 -2 -15
v-600q0 -31 28 -44q13 -6 28 -6h113q43 0 54 35q2 8 2 15v600q0 31 -28 44q-12 6 -28 6h-113z" />
    <glyph glyph-name="Udieresis" unicode="&#xdc;" 
d="M19 1100h112l10 -4q9 -7 9 -21v-50q0 -11 -4.5 -17.5t-9.5 -7.5h-5h-112l-10 4q-9 7 -9 21v50q0 11 4.5 17.5t9.5 7.5h5zM394 1100h112l10 -4q9 -7 9 -21v-50q0 -11 -4.5 -17.5t-9.5 -7.5h-5h-112l-10 4q-9 7 -9 21v50q0 11 4.5 17.5t9.5 7.5h5zM19 900h112l10 -4
q9 -7 9 -21v-725q0 -31 28 -44q13 -6 28 -6h113q43 0 54 35q2 8 2 15v725q0 11 4.5 17.5t9.5 7.5h5h112l10 -4q9 -7 9 -21v-626q0 -59 -19 -113q-30 -79 -96 -116q-29 -16 -55 -18q-16 -2 -36 -2h-113q-56 0 -87 18q-3 1 -4 2q-67 38 -96 116q-19 55 -19 113v626
q0 11 4.5 17.5t9.5 7.5h5z" />
    <glyph glyph-name="germandbls" unicode="&#xdf;" 
d="M206 1000h38q56 0 87 -18q3 -1 4 -2q67 -38 96 -116q19 -55 19 -114q0 -57 -8 -80q-2 -3 -13 -30q-19 -43 -36 -67l-18 -23l57 -77q57 -76 74 -116q15 -37 17 -54t2 -53q0 -52 -6 -74q-4 -14 -12 -34q-22 -55 -70 -99q-14 -14 -27 -21q-36 -22 -72 -22q-23 1 -30 10
q-16 22 4 54q3 4 5 8q23 33 36 59q19 46 21 78q1 12 1 24v17q0 69 -22 115q-18 35 -69 105l-58 80l21 32q22 32 36 70q15 41 17 75v23v100q0 31 -28 44q-12 6 -28 6h-38q-43 0 -54 -35q-2 -8 -2 -15v-825q0 -11 -4.5 -17.5t-9.5 -7.5h-5h-112l-10 4q-9 7 -9 21v726
q0 59 19 113q30 79 96 116q29 16 55 18q16 2 36 2z" />
    <glyph glyph-name="agrave" unicode="&#xe0;" 
d="M94 1100h75q19 0 47 -38q1 -1 3 -4q4 -6 6 -8l113 -150q36 -53 37 -75q0 -11 -4.5 -17.5t-9.5 -7.5h-5h-75q-19 0 -47 37q-1 2 -3 5q-4 6 -6 8l-94 125q-51 69 -55 91q-1 5 -1 9q0 11 4.5 17t9.5 7zM94 700h150q56 0 87 -18q3 -1 4 -2q67 -38 96 -116q19 -55 19 -113
v-326l3 -13q5 -11 16 -12h37l10 -4q9 -7 9 -21v-50q0 -11 -4.5 -17.5t-9.5 -7.5h-5h-21q-53 0 -67 5q-28 12 -43 45q-21 48 -33 50q-11 1 -37 -41q-3 -5 -5 -9q-24 -39 -51 -46q-15 -4 -43 -4q-56 0 -87 18q-3 1 -4 2q-67 37 -96 115q-19 52 -19 115q0 60 19 114
q30 80 96 116q29 16 55 18q16 2 36 2h75q9 0 13.5 6t5.5 12v7v25q0 31 -28 44q-12 6 -28 6h-150l-10 4q-9 7 -9 21v50q0 11 4.5 17.5t9.5 7.5h5zM206 400q-43 0 -54 -35q-2 -8 -2 -15v-200q0 -31 28 -45q13 -5 28 -5h56l16 5q21 13 22 45v225l-3 13q-5 11 -16 12h-75zM0 250
z" />
    <glyph glyph-name="aacute" unicode="&#xe1;" 
d="M281 1100h75l10 -4q9 -7 9 -21q0 -21 -31 -66q-11 -15 -25 -34l-94 -125q-28 -38 -39 -45q-9 -5 -17 -5h-75l-10 4q-9 7 -9 21q0 22 32 67q3 4 5 8l113 150q28 37 39 44q9 6 17 6zM94 700h150q56 0 87 -18q3 -1 4 -2q67 -38 96 -116q19 -55 19 -113v-326l3 -13
q5 -11 16 -12h37l10 -4q9 -7 9 -21v-50q0 -11 -4.5 -17.5t-9.5 -7.5h-5h-21q-53 0 -67 5q-28 12 -43 45q-21 48 -33 50q-11 1 -37 -41q-3 -5 -5 -9q-24 -39 -51 -46q-15 -4 -43 -4q-56 0 -87 18q-3 1 -4 2q-67 37 -96 115q-19 52 -19 115q0 60 19 114q30 80 96 116
q29 16 55 18q16 2 36 2h75q9 0 13.5 6t5.5 12v7v25q0 31 -28 44q-12 6 -28 6h-150l-10 4q-9 7 -9 21v50q0 11 4.5 17.5t9.5 7.5h5zM206 400q-43 0 -54 -35q-2 -8 -2 -15v-200q0 -31 28 -45q13 -5 28 -5h56l16 5q21 13 22 45v225l-3 13q-5 11 -16 12h-75zM0 250z" />
    <glyph glyph-name="acircumflex" unicode="&#xe2;" 
d="M263 1100l131 -175v0q52 -69 55 -91q1 -5 1 -9q0 -11 -4.5 -17t-9.5 -7l-5 -1h-75q-27 0 -45 22q-4 5 -11 14l-37 62l-38 -62q-22 -28 -35 -33q-9 -3 -21 -3h-75l-10 4q-8 7 -9 21q0 21 31 66q11 14 25 34v0zM94 700h150q56 0 87 -18q3 -1 4 -2q67 -38 96 -116
q19 -55 19 -113v-326l3 -13q5 -11 16 -12h37l10 -4q9 -7 9 -21v-50q0 -11 -4.5 -17.5t-9.5 -7.5h-5h-21q-53 0 -67 5q-28 12 -43 45q-21 48 -33 50q-11 1 -37 -41q-3 -5 -5 -9q-24 -39 -51 -46q-15 -4 -43 -4q-56 0 -87 18q-3 1 -4 2q-67 37 -96 115q-19 52 -19 115
q0 60 19 114q30 80 96 116q29 16 55 18q16 2 36 2h75q9 0 13.5 6t5.5 12v7v25q0 31 -28 44q-12 6 -28 6h-150l-10 4q-9 7 -9 21v50q0 11 4.5 17.5t9.5 7.5h5zM206 400q-43 0 -54 -35q-2 -8 -2 -15v-200q0 -31 28 -45q13 -5 28 -5h56l16 5q21 13 22 45v225l-3 13
q-5 11 -16 12h-75zM0 250z" />
    <glyph glyph-name="adieresis" unicode="&#xe4;" 
d="M94 700h150q56 0 87 -18q3 -1 4 -2q67 -38 96 -116q19 -55 19 -113v-326l3 -13q5 -11 16 -12h37l10 -4q9 -7 9 -21v-50q0 -11 -4.5 -17.5t-9.5 -7.5h-5h-21q-53 0 -67 5q-28 12 -43 45q-21 48 -33 50q-11 1 -37 -41q-3 -5 -5 -9q-24 -39 -51 -46q-15 -4 -43 -4
q-56 0 -87 18q-3 1 -4 2q-67 37 -96 115q-19 52 -19 115q0 60 19 114q30 80 96 116q29 16 55 18q16 2 36 2h75q9 0 13.5 6t5.5 12v7v25q0 31 -28 44q-12 6 -28 6h-150l-10 4q-9 7 -9 21v50q0 11 4.5 17.5t9.5 7.5h5zM206 400q-43 0 -54 -35q-2 -8 -2 -15v-200q0 -31 28 -45
q13 -5 28 -5h56l16 5q21 13 22 45v225l-3 13q-5 11 -16 12h-75zM0 250zM19 1000h112l10 -4q9 -7 9 -21v-50q0 -11 -4.5 -17.5t-9.5 -7.5h-5h-112l-10 4q-9 7 -9 21v50q0 11 4.5 17.5t9.5 7.5h5zM319 1000h112l10 -4q9 -7 9 -21v-50q0 -11 -4.5 -17.5t-9.5 -7.5h-5h-112
l-10 4q-9 7 -9 21v50q0 11 4.5 17.5t9.5 7.5h5z" />
    <glyph glyph-name="aring" unicode="&#xe5;" 
d="M262 1100q79 0 140 -56q47 -45 48 -94q0 -55 -57 -102q-59 -48 -131 -48q-78 0 -139 56q-47 45 -48 94q0 55 57 102q59 48 130 48zM262 1000q-24 0 -34 -30q-3 -10 -3 -20q0 -33 22 -46q8 -4 15 -4q25 0 35 30q3 10 3 20q0 33 -22 46q-8 4 -16 4zM94 700h150q56 0 87 -18
q3 -1 4 -2q67 -38 96 -116q19 -55 19 -113v-326l3 -13q5 -11 16 -12h37l10 -4q9 -7 9 -21v-50q0 -11 -4.5 -17.5t-9.5 -7.5h-5h-21q-53 0 -67 5q-28 12 -43 45q-21 48 -33 50q-11 1 -37 -41q-3 -5 -5 -9q-24 -39 -51 -46q-15 -4 -43 -4q-56 0 -87 18q-3 1 -4 2
q-67 37 -96 115q-19 52 -19 115q0 60 19 114q30 80 96 116q29 16 55 18q16 2 36 2h75q9 0 13.5 6t5.5 12v7v25q0 31 -28 44q-12 6 -28 6h-150l-10 4q-9 7 -9 21v50q0 11 4.5 17.5t9.5 7.5h5zM206 400q-43 0 -54 -35q-2 -8 -2 -15v-200q0 -31 28 -45q13 -5 28 -5h56l16 5
q21 13 22 45v225l-3 13q-5 11 -16 12h-75zM0 250z" />
    <glyph glyph-name="ae" unicode="&#xe6;" 
d="M115 700q45 0 78 -22q31 -21 63 -72q46 74 123 91q17 3 33 3q83 0 141 -72q47 -59 47 -128q0 -77 -55 -138q-57 -62 -133 -62h-18l-10 -3q-9 -8 -9 -22l6 -24q2 -6 4 -11q46 -96 103 -129q20 -11 37 -11h56l10 -4q9 -7 9 -21v-50q0 -11 -4.5 -17.5t-9.5 -7.5h-5h-56
q-110 1 -187 85q-51 -74 -130 -84q-11 -1 -20 -1q-83 0 -141 72q-47 59 -47 128q0 77 55 138q54 58 125 62l19 4q4 2 7 4q18 16 19 31q0 18 -58 83q-16 19 -33 36q-48 49 -54 62q-5 14 -5 30q0 28 7 38l2 2q8 10 31 10zM412 600q-24 0 -34 -30q-3 -10 -3 -20v-100
q0 -33 22 -46q8 -4 15 -4q25 0 35 30q3 10 3 20v100q0 33 -22 46q-8 4 -16 4zM188 300q-25 0 -35 -30q-3 -10 -3 -20v-100q0 -33 22 -46q8 -4 16 -4q24 0 34 30q3 10 3 20v100q0 33 -22 46q-8 4 -15 4z" />
    <glyph glyph-name="ccedilla" unicode="&#xe7;" 
d="M281 800q71 0 97 -13q63 -29 113 -90q33 -43 34 -72q0 -11 -4.5 -17.5t-9.5 -7.5h-5h-37q-41 0 -55 11q-5 4 -18 18l-21 21q-43 41 -67 47q-12 3 -27 3q-43 0 -54 -35q-2 -8 -2 -15v-300q0 -31 28 -44q12 -6 28 -6q37 0 66 25q11 9 28 25l21 21q22 24 36 27q11 2 37 2h37
l10 -4q9 -7 9 -21q0 -42 -62 -101q-25 -25 -52 -43q-11 -10 -5 -18q14 -16 44 -44q74 -72 75 -119q0 -45 -53 -97q-17 -17 -34 -29q-35 -24 -82 -24h-187l-10 4q-9 7 -9 21v50q0 11 4.5 17.5t9.5 7.5h5h187l10 4q9 7 9 21q-1 81 -120 156q-14 9 -40 24q-18 11 -25 15
q-67 37 -96 116q-19 54 -19 112v104q0 59 19 112q30 80 96 116q29 16 55 18q16 2 36 2z" />
    <glyph glyph-name="egrave" unicode="&#xe8;" 
d="M94 1100h75q19 0 47 -38q1 -1 3 -4q4 -6 6 -8l94 -125q51 -69 55 -91q1 -5 1 -9q0 -11 -4.5 -17.5t-9.5 -7.5h-5h-75q-19 0 -47 37q-1 2 -3 5q-4 6 -6 8l-113 150q-36 53 -37 75q0 11 4.5 17t9.5 7zM319 700q56 0 87 -18q3 -1 4 -2q67 -38 96 -116q19 -55 19 -113v-28
q-1 -10 -5.5 -16t-8.5 -6l-5 -1h-56h-281q-17 -6 -19 -25v-225q0 -31 28 -44q13 -6 28 -6h56q54 0 78 18q9 7 35 32l21 21q22 24 36 27q11 2 37 2h37l10 -4q9 -7 9 -21q0 -42 -61 -101q-43 -41 -86 -61q-28 -13 -116 -13h-56q-56 0 -87 18q-3 1 -4 2q-67 37 -96 116
q-19 54 -19 112v203q0 60 19 113q30 79 96 116q29 15 55 18q16 2 36 2h113zM319 600h-113q-43 0 -54 -35q-2 -8 -2 -15v-25q0 -11 4.5 -17.5t9.5 -7.5h5h187l10 4q9 7 9 21v25q0 31 -28 44q-12 6 -28 6z" />
    <glyph glyph-name="eacute" unicode="&#xe9;" 
d="M281 1100h75l10 -4q9 -7 9 -21q0 -22 -32 -67q-3 -4 -5 -8l-113 -150q-28 -38 -39 -45q-9 -5 -17 -5h-75l-10 4q-9 7 -9 21q0 21 31 66q11 14 25 34l94 125q28 37 39 44q9 6 17 6zM319 700q56 0 87 -18q3 -1 4 -2q67 -38 96 -116q19 -55 19 -113v-28q-1 -10 -5.5 -16
t-8.5 -6l-5 -1h-56h-281q-17 -6 -19 -25v-225q0 -31 28 -44q13 -6 28 -6h56q54 0 78 18q9 7 35 32l21 21q22 24 36 27q11 2 37 2h37l10 -4q9 -7 9 -21q0 -42 -61 -101q-43 -41 -86 -61q-28 -13 -116 -13h-56q-56 0 -87 18q-3 1 -4 2q-67 37 -96 116q-19 54 -19 112v203
q0 60 19 113q30 79 96 116q29 15 55 18q16 2 36 2h113zM319 600h-113q-43 0 -54 -35q-2 -8 -2 -15v-25q0 -11 4.5 -17.5t9.5 -7.5h5h187l10 4q9 7 9 21v25q0 31 -28 44q-12 6 -28 6z" />
    <glyph glyph-name="ecircumflex" unicode="&#xea;" 
d="M262 1100l132 -175v0q51 -70 55 -91q1 -5 1 -9q0 -11 -4.5 -17.5t-9.5 -7.5h-5h-75q-27 0 -45 22q-4 5 -11 14l-38 62l-37 -62q-22 -28 -35 -33q-9 -3 -21 -3h-75l-10 4q-9 7 -9 21q0 21 31 65q11 15 25 35v0zM319 700q56 0 87 -18q3 -1 4 -2q67 -38 96 -116
q19 -55 19 -113v-28q-1 -10 -5.5 -16t-8.5 -6l-5 -1h-56h-281q-17 -6 -19 -25v-225q0 -31 28 -44q13 -6 28 -6h56q54 0 78 18q9 7 35 32l21 21q22 24 36 27q11 2 37 2h37l10 -4q9 -7 9 -21q0 -42 -61 -101q-43 -41 -86 -61q-28 -13 -116 -13h-56q-56 0 -87 18q-3 1 -4 2
q-67 37 -96 116q-19 54 -19 112v203q0 60 19 113q30 79 96 116q29 15 55 18q16 2 36 2h113zM319 600h-113q-43 0 -54 -35q-2 -8 -2 -15v-25q0 -11 4.5 -17.5t9.5 -7.5h5h187l10 4q9 7 9 21v25q0 31 -28 44q-12 6 -28 6z" />
    <glyph glyph-name="edieresis" unicode="&#xeb;" 
d="M19 1000h112l10 -4q9 -7 9 -21v-50q0 -11 -4.5 -17.5t-9.5 -7.5h-5h-112l-10 4q-9 7 -9 21v50q0 11 4.5 17.5t9.5 7.5h5zM394 1000h112l10 -4q9 -7 9 -21v-50q0 -11 -4.5 -17.5t-9.5 -7.5h-5h-112l-10 4q-9 7 -9 21v50q0 11 4.5 17.5t9.5 7.5h5zM319 700q56 0 87 -18
q3 -1 4 -2q67 -38 96 -116q19 -55 19 -113v-28q-1 -10 -5.5 -16t-8.5 -6l-5 -1h-56h-281q-17 -6 -19 -25v-225q0 -31 28 -44q13 -6 28 -6h56q54 0 78 18q9 7 35 32l21 21q22 24 36 27q11 2 37 2h37l10 -4q9 -7 9 -21q0 -42 -61 -101q-43 -41 -86 -61q-28 -13 -116 -13h-56
q-56 0 -87 18q-3 1 -4 2q-67 37 -96 116q-19 54 -19 112v203q0 60 19 113q30 79 96 116q29 15 55 18q16 2 36 2h113zM319 600h-113q-43 0 -54 -35q-2 -8 -2 -15v-25q0 -11 4.5 -17.5t9.5 -7.5h5h187l10 4q9 7 9 21v25q0 31 -28 44q-12 6 -28 6z" />
    <glyph glyph-name="igrave" unicode="&#xec;" 
d="M94 1100h75q19 0 47 -37q1 -2 3 -5q4 -6 6 -8l94 -125q51 -69 55 -91q1 -5 1 -9q0 -11 -4.5 -17t-9.5 -7l-5 -1h-75q-19 0 -47 38q-1 1 -3 4q-4 6 -6 8l-113 150q-36 53 -37 75q0 11 4.5 17.5t9.5 7.5h5zM169 700h187l10 -4q8 -7 9 -21v-550q0 -11 4.5 -17.5t9.5 -7.5h5
h37l10 -4q9 -7 9 -21v-50q0 -11 -4.5 -17.5t-9.5 -7.5h-5h-262l-10 4q-9 7 -9 21v50q0 11 4.5 17.5t9.5 7.5h5h37l10 4q9 7 9 21v450q0 11 -4.5 17.5t-9.5 7.5h-5h-37l-10 4q-9 7 -9 21v50q0 11 4.5 17.5t9.5 7.5h5z" />
    <glyph glyph-name="iacute" unicode="&#xed;" 
d="M355 1100h75l10 -4q8 -7 8 -21q0 -22 -31 -67l-6 -8l-113 -150q-28 -38 -39 -45q-9 -5 -17 -5h-75l-10 4q-8 7 -9 21q0 21 32 66q10 14 25 34l93 125q29 37 40 44q8 6 17 6zM169 700h187l10 -4q8 -7 9 -21v-550q0 -11 4.5 -17.5t9.5 -7.5h5h37l10 -4q9 -7 9 -21v-50
q0 -11 -4.5 -17.5t-9.5 -7.5h-5h-262l-10 4q-9 7 -9 21v50q0 11 4.5 17.5t9.5 7.5h5h37l10 4q9 7 9 21v450q0 11 -4.5 17.5t-9.5 7.5h-5h-37l-10 4q-9 7 -9 21v50q0 11 4.5 17.5t9.5 7.5h5z" />
    <glyph glyph-name="icircumflex" unicode="&#xee;" 
d="M300 1100q10 0 74 -64q8 -7 13 -13q64 -66 125 -159q13 -21 13 -39q0 -11 -5 -17.5t-9 -7.5h-5h-37q-45 0 -54 5q-12 8 -40 45q-24 32 -37 40q-16 10 -38 10q-38 0 -62 -32q-2 -3 -6.5 -9t-6.5 -9q-30 -40 -41 -46q-11 -4 -53 -4h-37l-10 4q-9 7 -9 21q1 24 11 38
q86 130 172 205q9 8 17 15zM169 700h187l10 -4q8 -7 9 -21v-550q0 -11 4.5 -17.5t9.5 -7.5h5h37l10 -4q9 -7 9 -21v-50q0 -11 -4.5 -17.5t-9.5 -7.5h-5h-262l-10 4q-9 7 -9 21v50q0 11 4.5 17.5t9.5 7.5h5h37l10 4q9 7 9 21v450q0 11 -4.5 17.5t-9.5 7.5h-5h-37l-10 4
q-9 7 -9 21v50q0 11 4.5 17.5t9.5 7.5h5z" />
    <glyph glyph-name="idieresis" unicode="&#xef;" 
d="M169 700h187l10 -4q8 -7 9 -21v-550q0 -11 4.5 -17.5t9.5 -7.5h5h37l10 -4q9 -7 9 -21v-50q0 -11 -4.5 -17.5t-9.5 -7.5h-5h-262l-10 4q-9 7 -9 21v50q0 11 4.5 17.5t9.5 7.5h5h37l10 4q9 7 9 21v450q0 11 -4.5 17.5t-9.5 7.5h-5h-37l-10 4q-9 7 -9 21v50q0 11 4.5 17.5
t9.5 7.5h5zM94 1000h112l10 -4q9 -7 9 -21v-50q0 -11 -4.5 -17.5t-9.5 -7.5h-5h-112l-10 4q-9 7 -9 21v50q0 11 4.5 17.5t9.5 7.5h5zM394 1000h112l10 -4q9 -7 9 -21v-50q0 -11 -4.5 -17.5t-9.5 -7.5h-5h-112l-10 4q-9 7 -9 21v50q0 11 4.5 17.5t9.5 7.5h5z" />
    <glyph glyph-name="ntilde" unicode="&#xf1;" 
d="M212 1000q29 0 42 -6q23 -13 57 -72q13 -22 22 -22q13 0 41 47q19 32 26 41q11 12 31 12h57q36 -2 37 -38q0 -30 -57 -84q-40 -38 -81 -61q-29 -16 -66 -17h-8q-26 0 -41 7q-28 15 -52 60q-3 6 -5 12q-10 20 -22 21q-13 0 -43 -48q-17 -28 -24 -38q-6 -10 -11.5 -12
t-20.5 -2h-56q-22 1 -30 11q-20 27 15 74q2 3 4 5q47 59 112 94q26 15 61 16h12zM56 700q55 0 77 -24q10 -11 17 -26q21 -48 33 -50q11 -1 36 40l6 10q24 39 50 46q13 3 32 4h31q40 -2 69 -19q2 -1 3 -1q67 -38 96 -116q19 -55 19 -113v-428q-1 -10 -5.5 -16t-8.5 -6l-5 -1
h-112l-10 4q-9 7 -9 21v525q0 31 -28 44q-12 6 -28 6h-57l-15 -5q-21 -13 -22 -45v-525q0 -11 -4.5 -17.5t-9.5 -7.5h-5h-112l-10 4q-9 7 -9 21v550l-3 13q-5 11 -16 12h-37l-10 4q-9 7 -9 21v50q0 11 4.5 17.5t9.5 7.5h5h21h10h6z" />
    <glyph glyph-name="ograve" unicode="&#xf2;" 
d="M94 1100h75q19 0 47 -38q1 -1 3 -4q4 -6 6 -8l113 -150q36 -53 37 -75q0 -11 -4.5 -17.5t-9.5 -7.5h-5h-75q-19 0 -47 37q-1 2 -3 5q-4 6 -6 8l-94 125q-51 69 -55 91q-1 5 -1 9q0 11 4.5 17t9.5 7zM206 700h113q56 0 87 -18q3 -1 4 -2q67 -37 96 -116q19 -55 19 -112
v-203q0 -59 -19 -113q-30 -79 -96 -116q-29 -15 -54 -18q-17 -2 -37 -2h-113q-56 0 -87 18q-3 1 -4 2q-67 38 -96 116q-19 55 -19 113v202v1q0 58 19 112q30 80 96 116q29 16 54 18q16 2 37 2zM206 600q-43 0 -54 -35q-2 -8 -2 -15v-400q0 -31 28 -44q13 -6 28 -6h113
q43 0 54 35q2 8 2 15v400q0 31 -28 44q-12 6 -28 6h-113z" />
    <glyph glyph-name="oacute" unicode="&#xf3;" 
d="M281 1100h75l10 -4q9 -7 9 -21q0 -21 -31 -66q-11 -15 -25 -34l-94 -125q-28 -38 -39 -45q-9 -5 -17 -5h-75l-10 4q-9 7 -9 21q0 22 32 67q3 4 5 8l113 150q28 37 39 44q9 6 17 6zM206 700h113q56 0 87 -18q3 -1 4 -2q67 -38 96 -116q19 -55 19 -113v-202v-1
q0 -58 -19 -112q-30 -80 -96 -116q-29 -16 -54 -18q-17 -2 -37 -2h-113q-56 0 -87 18q-3 1 -4 2q-67 38 -96 116q-19 55 -19 113v202v1q0 58 19 112q30 80 96 116q29 16 54 18q16 2 37 2zM206 600q-43 0 -54 -35q-2 -8 -2 -15v-400q0 -31 28 -44q12 -6 28 -6h113q43 0 54 35
q2 8 2 15v400q0 31 -28 44q-12 6 -28 6h-113z" />
    <glyph glyph-name="ocircumflex" unicode="&#xf4;" 
d="M262 1100l132 -175v0q51 -70 55 -91q1 -5 1 -9q0 -11 -4.5 -17.5t-9.5 -7.5h-5h-75q-27 0 -45 22q-4 5 -11 14l-38 62l-37 -62q-22 -28 -35 -33q-9 -3 -21 -3h-75l-10 4q-9 7 -9 21q0 21 31 65q11 15 25 35v0zM206 700h113q56 0 87 -18q3 -1 4 -2q67 -38 96 -116
q19 -55 19 -113v-202v-1q0 -58 -19 -112q-30 -80 -96 -116q-29 -16 -54 -18q-17 -2 -37 -2h-113q-56 0 -87 18q-3 1 -4 2q-67 38 -96 116q-19 55 -19 113v202v1q0 58 19 112q30 80 96 116q29 16 54 18q16 2 37 2zM206 600q-43 0 -54 -35q-2 -8 -2 -15v-400q0 -31 28 -44
q12 -6 28 -6h113q43 0 54 35q2 8 2 15v400q0 31 -28 44q-12 6 -28 6h-113z" />
    <glyph glyph-name="odieresis" unicode="&#xf6;" 
d="M19 1000h112l10 -4q9 -7 9 -21v-50q0 -11 -4.5 -17.5t-9.5 -7.5h-5h-112l-10 4q-9 7 -9 21v50q0 11 4.5 17.5t9.5 7.5h5zM394 1000h112l10 -4q9 -7 9 -21v-50q0 -11 -4.5 -17.5t-9.5 -7.5h-5h-112l-10 4q-9 7 -9 21v50q0 11 4.5 17.5t9.5 7.5h5zM206 700h113q56 0 87 -18
q3 -1 4 -2q67 -38 96 -116q19 -55 19 -113v-202v-1q0 -58 -19 -112q-30 -80 -96 -116q-29 -16 -54 -18q-17 -2 -37 -2h-113q-56 0 -87 18q-3 1 -4 2q-67 38 -96 116q-19 55 -19 113v202v1q0 58 19 112q30 80 96 116q29 16 54 18q16 2 37 2zM206 600q-43 0 -54 -35
q-2 -8 -2 -15v-400q0 -31 28 -44q12 -6 28 -6h113q43 0 54 35q2 8 2 15v400q0 31 -28 44q-12 6 -28 6h-113z" />
    <glyph glyph-name="divide" unicode="&#xf7;" 
d="M244 800h112l10 -4q9 -7 9 -21v-150q0 -11 -4.5 -17.5t-9.5 -7.5h-5h-112l-10 4q-9 7 -9 21v150q0 11 4.5 17.5t9.5 7.5h5zM94 500h412l10 -4q9 -7 9 -21v-50q0 -11 -4.5 -17.5t-9.5 -7.5h-5h-412l-10 4q-9 7 -9 21v50q0 11 4.5 17.5t9.5 7.5h5zM244 300h112l10 -4
q9 -7 9 -21v-150q0 -11 -4.5 -17.5t-9.5 -7.5h-5h-112l-10 4q-9 7 -9 21v150q0 11 4.5 17.5t9.5 7.5h5z" />
    <glyph glyph-name="ugrave" unicode="&#xf9;" 
d="M94 1100h75q19 0 47 -38q1 -1 3 -4q4 -6 6 -8l113 -150q36 -53 37 -75q0 -11 -4.5 -17.5t-9.5 -7.5h-5h-75q-19 0 -47 37q-1 2 -3 5q-4 6 -6 8l-94 125q-51 69 -55 91q-1 5 -1 9q0 11 4.5 17t9.5 7zM19 700h112l10 -4q9 -7 9 -21v-525q0 -31 28 -44q13 -6 28 -6h56l16 5
q21 13 22 45v525q0 11 4.5 17.5t9.5 7.5h5h112l10 -4q9 -7 9 -21v-550l3 -13q5 -11 16 -12h37l10 -4q9 -7 9 -21v-50q0 -11 -4.5 -17.5t-9.5 -7.5h-5h-21h-10h-6q-55 0 -77 24q-10 11 -17 26q-21 48 -33 50q-11 1 -36 -40l-6 -10q-24 -39 -50 -46q-13 -3 -32 -4h-30
q-41 2 -70 19q-2 1 -3 1q-67 38 -96 116q-19 55 -19 113v428q1 10 5.5 16t8.5 6z" />
    <glyph glyph-name="uacute" unicode="&#xfa;" 
d="M281 1100h75l10 -4q9 -7 9 -21q0 -21 -31 -66q-11 -15 -25 -34l-94 -125q-28 -38 -39 -45q-9 -5 -17 -5h-75l-10 4q-9 7 -9 21q0 22 32 67q3 4 5 8l113 150q28 37 39 44q9 6 17 6zM19 700h112l10 -4q9 -7 9 -21v-525q0 -31 28 -44q13 -6 28 -6h56l16 5q21 13 22 45v525
q0 11 4.5 17.5t9.5 7.5h5h112l10 -4q9 -7 9 -21v-550l3 -13q5 -11 16 -12h37l10 -4q9 -7 9 -21v-50q0 -11 -4.5 -17.5t-9.5 -7.5h-5h-21h-10h-6q-55 0 -77 24q-10 11 -17 26q-21 48 -33 50q-11 1 -36 -40l-6 -10q-24 -39 -50 -46q-13 -3 -32 -4h-30q-41 2 -70 19q-2 1 -3 1
q-67 38 -96 116q-19 55 -19 113v428q1 10 5.5 16t8.5 6z" />
    <glyph glyph-name="ucircumflex" unicode="&#xfb;" 
d="M225 1100q10 0 74 -64q8 -7 13 -13q64 -66 125 -159q13 -21 13 -39q0 -11 -5 -17.5t-9 -7.5h-5h-37q-45 0 -54 5q-12 8 -40 45q-24 32 -37 40q-16 10 -38 10q-38 0 -62 -32q-2 -3 -6.5 -9t-6.5 -9q-30 -40 -41 -46q-11 -4 -53 -4h-37l-10 4q-9 7 -9 21q1 24 11 38
q86 130 172 205q9 8 17 15zM19 700h112l10 -4q9 -7 9 -21v-525q0 -31 28 -44q13 -6 28 -6h56l16 5q21 13 22 45v525q0 11 4.5 17.5t9.5 7.5h5h112l10 -4q9 -7 9 -21v-550l3 -13q5 -11 16 -12h37l10 -4q9 -7 9 -21v-50q0 -11 -4.5 -17.5t-9.5 -7.5h-5h-21h-10h-6
q-55 0 -77 24q-10 11 -17 26q-21 48 -33 50q-11 1 -36 -40l-6 -10q-24 -39 -50 -46q-13 -3 -32 -4h-30q-41 2 -70 19q-2 1 -3 1q-67 38 -96 116q-19 55 -19 113v428q1 10 5.5 16t8.5 6z" />
    <glyph glyph-name="udieresis" unicode="&#xfc;" 
d="M469 0q-55 0 -77 24q-10 11 -17 26q-21 48 -33 50q-11 1 -36 -40l-6 -10q-24 -39 -50 -46q-13 -3 -32 -4h-30q-41 2 -70 19q-2 1 -3 1q-67 38 -96 116q-19 55 -19 113v428q1 10 5.5 16t8.5 6l5 1h112l10 -4q9 -7 9 -21v-525q0 -31 28 -44q13 -6 28 -6h56l16 5
q21 13 22 45v525q0 11 4.5 17.5t9.5 7.5h5h112l10 -4q9 -7 9 -21v-550l3 -13q5 -11 16 -12h37l10 -4q9 -7 9 -21v-50q0 -11 -4.5 -17.5t-9.5 -7.5h-5h-21h-10h-6zM19 1000h112l10 -4q9 -7 9 -21v-50q0 -11 -4.5 -17.5t-9.5 -7.5h-5h-112l-10 4q-9 7 -9 21v50q0 11 4.5 17.5
t9.5 7.5h5zM319 1000h112l10 -4q9 -7 9 -21v-50q0 -11 -4.5 -17.5t-9.5 -7.5h-5h-112l-10 4q-9 7 -9 21v50q0 11 4.5 17.5t9.5 7.5h5z" />
    <glyph glyph-name="ydieresis" unicode="&#xff;" 
d="M19 1000h112l10 -4q9 -7 9 -21v-50q0 -11 -4.5 -17.5t-9.5 -7.5h-5h-112l-10 4q-9 7 -9 21v50q0 11 4.5 17.5t9.5 7.5h5zM394 1000h112l10 -4q9 -7 9 -21v-50q0 -11 -4.5 -17.5t-9.5 -7.5h-5h-112l-10 4q-9 7 -9 21v50q0 11 4.5 17.5t9.5 7.5h5zM19 700h112l10 -4
q9 -7 9 -21v-525q0 -31 28 -44q13 -6 28 -6h150q8 0 13 6t6 12v7v550q0 11 4.5 17.5t9.5 7.5h5h112l10 -4q9 -7 9 -21v-625q-1 -60 -20 -107q-25 -69 -95 -150q-39 -45 -69 -66q-42 -27 -79 -27h-93h-150l-10 4q-9 7 -9 21v50q0 11 4.5 17.5t9.5 7.5h5h150q67 0 105 24
q12 8 26 19q74 62 75 115v7v10l-3 13q-5 11 -16 12h-150q-47 1 -91 20q-67 38 -96 116q-19 55 -19 113v428q1 10 5.5 16t8.5 6z" />
    <glyph glyph-name="florin" unicode="&#x192;" 
d="M400 1100h7q29 -2 55 -15q67 -38 114 -98q23 -31 24 -49q0 -27 -17 -33q-14 -5 -46 -5h-32q-8 0 -14 3t-9 6l-2 4l-30 41q-34 45 -46 46q-21 0 -27 -22q-2 -6 -2 -10v-343l3 -13q5 -11 16 -12h112l10 -4q9 -7 9 -21v-50q0 -11 -4.5 -17.5t-9.5 -7.5h-5h-112q-8 0 -13 -6
t-6 -12v-7v-425q0 -67 -16 -107q-27 -69 -87 -114q-16 -12 -32 -20q-21 -10 -47 -9q-29 2 -55 16q-67 37 -114 97q-23 31 -24 49q0 27 17 34q14 4 46 4h32q8 0 14 -3t9 -6l2 -3l30 -42q34 -45 46 -46q21 0 27 22q2 6 2 11v542l-3 13q-5 11 -16 12h-112l-10 4q-9 7 -9 21v50
q0 11 4.5 17.5t9.5 7.5h5h112q8 0 13 6t6 12v7v225q0 67 16 107q27 69 87 114q16 12 32 20q18 9 40 9z" />
    <glyph glyph-name="Gamma" unicode="&#x393;" 
d="M19 1000h487l10 -4q8 -7 9 -21v-250q0 -11 -4.5 -17.5t-9.5 -7.5h-5h-112l-10 4q-9 7 -9 21v150q0 11 -4.5 17.5t-9.5 7.5h-5h-187l-10 -4q-9 -7 -9 -21v-850q0 -11 -4.5 -17.5t-9.5 -7.5h-5h-112l-10 4q-9 7 -9 21v950q0 11 5 17.5t9 7.5h5z" />
    <glyph glyph-name="Theta" unicode="&#x398;" 
d="M262 900q41 0 79 -26q2 -2 4 -3q62 -44 120 -136q24 -40 40 -78q20 -49 20 -107v-50v-100v-50q0 -59 -20 -107q-39 -95 -114 -173q-25 -26 -46 -41q-39 -27 -75 -29h-8q-40 0 -78 26q-2 2 -4 3q-61 43 -120 137q-24 40 -40 77q-19 47 -20 107v200q1 61 20 107
q40 96 114 173q25 26 46 41q39 27 75 29h7zM262 799q-19 -1 -53 -43q-28 -37 -42 -78q-13 -37 -15 -66q-2 -27 -2 -88q3 -22 19 -24h187q17 2 19 25q0 103 -6 127q-3 9 -8 26q-13 37 -46 79q-34 42 -53 42zM169 400q-18 -1 -19 -24q0 -101 8 -129q3 -8 9 -25q15 -42 42 -78
q36 -45 56 -43q19 3 50 42q33 43 46 79q12 35 13 69q1 23 1 84q-2 23 -19 25h-187z" />
    <glyph glyph-name="Sigma" unicode="&#x3a3;" 
d="M19 900h487l10 -4q9 -7 9 -21v-150q0 -11 -4.5 -17.5t-9.5 -7.5h-5h-56q-37 0 -48 10t-28 41q-21 39 -37 45q-11 4 -37 4h-131l-10 -4q-9 -7 -9 -21q0 -22 33 -68q2 -4 5 -7l187 -250l-187 -250q-37 -53 -38 -75q0 -11 4.5 -17.5t9.5 -7.5h5h131q37 0 50 12q10 11 24 37
q21 40 35 47q11 4 41 4h56l10 -4q9 -7 9 -21v-150q0 -11 -4.5 -17.5t-9.5 -7.5h-5h-487l-10 4q-9 7 -9 21v40q0 59 26 108q21 38 83 123q7 9 116 154q-108 145 -116 154q-77 105 -95 147q-14 37 -14 84v40q0 11 4.5 17.5t9.5 7.5h5z" />
    <glyph glyph-name="Phi" unicode="&#x3a6;" 
d="M94 900h75h262h75l10 -4q9 -7 9 -21v-50q0 -11 -4.5 -17.5t-9.5 -7.5h-5h-75h-37l-10 -4q-9 -7 -9 -21v-67q1 -12 9 -15t26 -13q67 -37 96 -116q19 -55 19 -114q0 -64 -19 -115q-30 -79 -96 -115q-18 -10 -25 -12q-10 -6 -10 -16v-67q0 -11 4.5 -17.5t9.5 -7.5h5h37h75
l10 -4q9 -7 9 -21v-50q0 -11 -4.5 -17.5t-9.5 -7.5h-5h-75h-262h-75l-10 4q-9 7 -9 21v50q0 11 4.5 17.5t9.5 7.5h5h75h37l10 4q9 7 9 21v66q0 14 -9 17h-2q-8 3 -24 12q-67 37 -96 115q-19 52 -19 115q0 60 19 114q30 80 96 116q19 10 25 12q10 5 10 16v67q0 11 -4.5 17.5
t-9.5 7.5h-5h-37h-75l-10 4q-9 7 -9 21v50q0 11 4.5 17.5t9.5 7.5h5zM281 600q-43 0 -54 -35q-2 -8 -2 -15v-200q0 -31 28 -45q12 -5 28 -5h38q43 0 54 35q2 7 2 15v200q0 31 -28 44q-12 6 -28 6h-38zM75 450zM525 450z" />
    <glyph glyph-name="uni03A9" unicode="&#x3a9;" 
d="M262 1000q41 0 79 -26q2 -2 4 -3q62 -44 120 -136q24 -40 40 -78q20 -49 20 -107q-1 -90 -37 -150q-36 -58 -38 -100v-275q0 -11 4.5 -17.5t9.5 -7.5h5h37l10 -4q9 -7 9 -21v-50q0 -11 -4.5 -17.5t-9.5 -7.5h-5h-187l-10 4q-8 7 -9 21v375q0 43 38 100q35 58 37 100v50
q0 82 -8 108q-2 8 -6 20q-13 37 -46 79q-35 45 -55 42q-19 -3 -51 -43q-28 -37 -42 -78q-14 -38 -16 -77q-1 -20 -1 -51v-50q1 -42 38 -100q36 -58 37 -100v-375q0 -11 -5 -17.5t-9 -7.5h-5h-187l-10 4q-9 7 -9 21v50q0 11 4.5 17.5t9.5 7.5h5h37l10 4q9 7 9 21v275
q-1 42 -37 100q-38 59 -38 150q1 61 20 107q40 96 114 173q25 26 46 41q39 27 75 29h7z" />
    <glyph glyph-name="alpha" unicode="&#x3b1;" 
d="M188 700zM188 700q47 0 85 -25q40 -26 65 -74l37 49q28 37 39 44q9 6 17 6h75l10 -4q9 -7 9 -21q0 -21 -31 -66q-11 -15 -25 -34q-70 -97 -85 -153q-9 -32 -9 -72q0 -68 32 -129q21 -40 66 -101v-1q48 -65 52 -87v-7q0 -11 -4.5 -17.5t-9.5 -7.5h-5h-75q-19 0 -47 37
q-1 2 -3 5q-4 6 -6 8l-37 49q-26 -48 -65 -74q-38 -25 -85 -25q-46 0 -86 25q-60 40 -87 128q-12 39 -14 74q-1 22 -1 48v150q0 75 13 116q1 4 2 6q28 89 87 128q41 25 86 25zM188 600q-25 0 -35 -30q-3 -10 -3 -20v-400q0 -33 22 -46q8 -4 16 -4q24 0 34 30q3 10 3 20v400
q0 33 -22 46q-8 4 -15 4zM189 0h-1h1z" />
    <glyph glyph-name="delta" unicode="&#x3b4;" 
d="M392 1000h114l10 -4q9 -7 9 -21v-50q0 -11 -4.5 -17.5t-9.5 -7.5h-5h-168q-36 0 -38 -26q0 -14 10 -32q27 -40 81 -114q92 -125 112 -171q21 -55 22 -107v-100v-102q0 -59 -19 -112q-30 -80 -96 -116q-29 -16 -55 -18q-16 -2 -36 -2h-38q-56 0 -87 18q-3 1 -4 2
q-67 37 -96 116q-19 54 -19 112v102q0 61 19 114q30 80 96 116q34 18 72 20h19l11 4q8 7 8 18q0 14 -23 45q-3 3 -33 42l-38 49q-55 73 -56 110q0 40 55 81q14 10 28 18q49 27 105 31q22 2 54 2zM281 500q-43 0 -54 -35q-2 -8 -2 -15v-300q0 -31 28 -44q13 -6 28 -6h38
q43 0 54 35q2 8 2 15v300q0 31 -28 44q-12 6 -28 6h-38z" />
    <glyph glyph-name="epsilon" unicode="&#x3b5;" 
d="M375 1000h56l10 -4q9 -7 9 -21v-50q0 -11 -4.5 -17.5t-9.5 -7.5h-5h-56q-55 0 -105 -87q-14 -25 -26 -53q-19 -61 -19 -134v-1l3 -13q5 -11 16 -12h187l10 -4q9 -7 9 -21v-50q0 -11 -4.5 -17.5t-9.5 -7.5h-5h-187q-8 0 -13 -6t-6 -12v-7v-101q0 -75 19 -134
q42 -102 99 -131q16 -9 32 -9h56l10 -4q9 -7 9 -21v-50q0 -11 -4.5 -17.5t-9.5 -7.5h-5h-56q-158 0 -252 183q-13 26 -26 57q-21 48 -22 141v21v196q0 95 13 137q4 14 9 25q69 165 168 215q50 25 110 25z" />
    <glyph glyph-name="pi" unicode="&#x3c0;" 
d="M19 800h487l10 -4q9 -7 9 -21v-50q0 -11 -4.5 -17.5t-9.5 -7.5h-5h-37l-10 -4q-9 -7 -9 -21v-650q0 -11 -4.5 -17.5t-9.5 -7.5h-5h-112l-10 4q-9 7 -9 21v650q0 11 -4.5 17.5t-9.5 7.5h-5h-37l-10 -4q-9 -7 -9 -21v-650q0 -11 -4.5 -17.5t-9.5 -7.5h-5h-112l-10 4
q-9 7 -9 21v650q0 11 -4.5 17.5t-9.5 7.5h-5h-37l-10 4q-9 7 -9 21v50q0 11 4.5 17.5t9.5 7.5h5z" />
    <glyph glyph-name="sigma" unicode="&#x3c3;" 
d="M188 700h318l10 -4q9 -7 9 -21v-50q0 -11 -4.5 -17.5t-9.5 -7.5h-5h-112l-10 -4q-9 -7 -9 -21v-150v-25v-125q0 -76 -13 -117q-1 -3 -2 -5q-28 -89 -87 -128q-38 -25 -85 -25q-46 0 -86 25q-60 40 -87 128q-12 39 -14 74q-1 22 -1 48v150q0 75 13 116q1 4 2 6
q28 89 87 128q41 25 86 25v0zM188 600l-16 -4q-21 -13 -22 -46v-400q0 -33 22 -46q8 -4 16 -4q24 0 34 30q3 10 3 20v425q0 11 -4.5 17.5t-9.5 7.5h-5h-18zM189 0h-1h1z" />
    <glyph glyph-name="tau" unicode="&#x3c4;" 
d="M206 800q61 -1 106 -68q16 -23 26 -50q26 60 70 93q34 25 72 25q30 -1 41 -22q4 -9 4 -13v-1q-2 -24 -27 -54q-61 -74 -99 -164q-24 -58 -24 -96v-425q0 -11 -4.5 -17.5t-9.5 -7.5h-5h-112l-10 4q-9 7 -9 21v625q0 41 -10 48q-4 2 -9 2q-20 0 -50 -35q-11 -13 -13 -15
q-30 -34 -32 -36q-19 -14 -55 -14h-37l-10 4q-9 7 -9 21q0 42 61 101q43 41 86 61q27 13 59 13z" />
    <glyph glyph-name="phi" unicode="&#x3c6;" 
d="M562 900q23 -1 30 -10q16 -22 -4 -54q-3 -4 -5 -8q-23 -33 -36 -59q-19 -46 -21 -78q-1 -12 -1 -24v-15q37 -35 56 -87t19 -115q0 -60 -19 -114q-30 -80 -96 -116q-29 -16 -55 -18q-16 -2 -36 -2h-150q-17 -1 -23 -25q-2 -6 -14 -33q-22 -55 -70 -99q-14 -14 -27 -21
q-36 -22 -72 -22q-23 1 -30 10q-16 22 4 54q3 4 5 8q23 33 36 59q19 46 21 78q1 12 1 24v16q-37 35 -56 87q-19 55 -19 114q0 64 19 115q30 79 96 115q29 16 61 19q14 1 30 1h150q17 1 23 25q2 6 14 33q22 55 70 99q14 14 27 21q36 22 72 22zM206 600q-43 0 -54 -35
q-2 -7 -2 -15v-172q0 -32 45 39q4 6 5 8q30 53 48 110q7 23 8 40q2 24 -12 25h-38zM422 600q-14 -2 -28 -40q-4 -11 -13 -39q-32 -107 -72 -171l-8 -12q-5 -7 -9 -13q-10 -16 2 -23q3 -2 6 -2h94q43 0 54 35q2 8 2 15v220q-2 29 -28 30zM0 452v-2v2zM600 452v1v-3v2z" />
    <glyph glyph-name="bullet" unicode="&#x2022;" 
d="M450 400q0 -92 -52 -152q-43 -48 -98 -48q-69 0 -114 70q-36 57 -36 130q0 92 52 152q43 48 98 48q69 0 114 -70q36 -57 36 -130z" />
    <glyph glyph-name="exclamdbl" unicode="&#x203c;" 
d="M94 1000h112l10 -4q9 -7 9 -21v-650q0 -11 -4.5 -17.5t-9.5 -7.5h-5h-112l-10 4q-9 7 -9 21v650q0 11 4.5 17.5t9.5 7.5h5zM394 1000h112l10 -4q9 -7 9 -21v-650q0 -11 -4.5 -17.5t-9.5 -7.5h-5h-112l-10 4q-9 7 -9 21v650q0 11 4.5 17.5t9.5 7.5h5zM94 200h112l10 -4
q9 -7 9 -21v-150q0 -11 -4.5 -17.5t-9.5 -7.5h-5h-112l-10 4q-9 7 -9 21v150q0 11 4.5 17.5t9.5 7.5h5zM394 200h112l10 -4q9 -7 9 -21v-150q0 -11 -4.5 -17.5t-9.5 -7.5h-5h-112l-10 4q-9 7 -9 21v150q0 11 4.5 17.5t9.5 7.5h5z" />
    <glyph glyph-name="uni207F" unicode="&#x207f;" 
d="M56 1100q55 0 77 -24q10 -11 17 -26q3 -7 8 -19q13 -31 18 -31t19 26q8 15 13 24q29 49 54 50q37 0 71 -19q1 -1 2 -1q67 -37 96 -116q19 -55 19 -114v-325q0 -11 -4.5 -17.5t-9.5 -7.5h-5h-112l-10 4q-9 7 -9 21v325v100q0 33 -22 46q-8 4 -16 4q-24 0 -34 -30
q-3 -10 -3 -20v-15v-35v-50v-325q0 -11 -4.5 -17.5t-9.5 -7.5h-5h-112l-10 4q-9 7 -9 21v410v1v39l-3 13q-5 11 -16 12h-37l-10 4q-9 7 -9 21v50q0 11 4.5 17.5t9.5 7.5h5h21h10h6z" />
    <glyph glyph-name="peseta" unicode="&#x20a7;" 
d="M19 1100h281h38q42 0 84 -27q3 -3 6 -4q59 -44 84 -102q2 -5 3 -9q10 -28 10 -58q0 -31 -10 -58q-20 -55 -76 -102q-6 -5 -11 -9q-43 -28 -90 -31h-94l-10 -4q-9 -7 -9 -21v-550q0 -11 4.5 -17.5t9.5 -7.5h5h37l10 -4q9 -7 9 -21v-50q0 -11 -4.5 -17.5t-9.5 -7.5h-5h-262
l-10 4q-9 7 -9 21v50q0 11 4.5 17.5t9.5 7.5h5h37l10 4q9 7 9 21v850q0 11 -4.5 17.5t-9.5 7.5h-5h-37l-10 4q-9 7 -9 21v50q0 11 4.5 17.5t9.5 7.5h5zM244 1000l-10 -4q-9 -7 -9 -21v-150q0 -11 4.5 -17.5t9.5 -7.5h5h94l15 4q21 13 22 46v100q0 22 -9.5 34.5t-18.5 13.5
l-9 2h-94zM506 700q8 0 13 -6t6 -12v-7v-150q0 -11 4.5 -17.5t9.5 -7.5h5h37l10 -4q9 -7 9 -21v-50q0 -11 -4.5 -17.5t-9.5 -7.5h-5h-37l-10 -4q-9 -7 -9 -21v-142q0 -48 19 -93q0 -2 1 -4q2 -4 2 -5q13 -27 36 -59q25 -36 12 -58q-2 -2 -3 -4q-9 -10 -30 -10q-37 0 -72 22
q-44 26 -81 88q-10 17 -16 32q-14 32 -15 40q-3 16 -3 43v150q0 11 -4.5 17.5t-9.5 7.5h-5h-37l-10 4q-9 7 -9 21v50q0 11 4.5 17.5t9.5 7.5h5l19 6q21 10 37 32q46 64 75 112q36 48 56 50z" />
    <glyph glyph-name="arrowleft" unicode="&#x2190;" 
d="M206 700h75l10 -4q9 -7 9 -21q0 -21 -32 -66q-8 -12 -19 -27l-24 -32l-7 -13q-2 -6 -3 -12q0 -11 5 -17.5t9 -6.5l5 -1h272l10 -4q9 -7 9 -21v-50q0 -11 -4.5 -17.5t-9.5 -7.5h-5h-272l-11 -4q-7 -7 -8 -18q1 -8 3 -15t5 -10l2 -3q8 -13 23 -30q49 -73 52 -95
q0 -11 -4.5 -17t-9.5 -7l-5 -1h-75q-19 0 -47 38q-1 1 -3 4q-4 6 -6 8l-112 150l-38 50l38 50l112 150q28 37 39 44q9 6 17 6z" />
    <glyph glyph-name="arrowup" unicode="&#x2191;" 
d="M300 1000q10 0 74 -64q8 -7 13 -13q64 -66 125 -159q13 -21 13 -39q0 -11 -5 -17.5t-9 -7.5h-5h-112l-10 -4q-9 -7 -9 -21v-650q0 -11 -4.5 -17.5t-9.5 -7.5h-5h-112l-10 4q-9 7 -9 21v650q0 11 -4.5 17.5t-9.5 7.5h-5h-112l-10 4q-9 7 -9 21q1 24 11 38q86 130 172 205
q9 8 17 15z" />
    <glyph glyph-name="arrowright" unicode="&#x2192;" 
d="M319 700q19 0 47 -38q1 -1 3 -4q4 -6 6 -8l113 -150l37 -50l-37 -50l-113 -150q-28 -37 -39 -44q-9 -6 -17 -6h-75l-10 4q-9 7 -9 21q0 22 36 72q7 10 16 23q16 19 23 30l7 11q2 9 3 17q0 10 -5 15.5t-9 5.5l-5 1h-272l-10 4q-9 7 -9 21v50q0 11 4.5 17.5t9.5 7.5h5h272
l10 4q8 7 9 21q-1 6 -3 12.5t-5 9.5l-2 3l-24 32q-47 64 -51 86v7q0 11 4.5 17t9.5 7l5 1h75z" />
    <glyph glyph-name="arrowdown" unicode="&#x2193;" 
d="M300 0q-1 1 -25 17q-81 64 -173 196q-8 13 -16 24q-11 16 -11 38q0 11 4.5 17.5t9.5 6.5l5 1h112l10 4q9 7 9 21v650q0 11 4.5 17.5t9.5 6.5l5 1h112l10 -4q9 -7 9 -21v-650q0 -11 4.5 -17.5t9.5 -6.5l5 -1h112l10 -4q8 -7 9 -21q-1 -19 -13 -39q-62 -94 -125 -159
q-60 -63 -84 -76q-2 -1 -3 -1z" />
    <glyph glyph-name="arrowboth" unicode="&#x2194;" 
d="M206 700q8 0 13 -6t6 -12v-7v-150q0 -11 4.5 -17.5t9.5 -7.5h5h112l10 4q9 7 9 21v150l3 13q5 11 16 12q8 0 60 -62.5t99 -125.5l47 -62l-113 -146q-82 -103 -93 -104q-8 0 -13 6t-6 12v7v150q0 11 -4.5 17.5t-9.5 7.5h-5h-112l-10 -4q-9 -7 -9 -21v-150l-3 -13
q-5 -11 -16 -12q-8 0 -60 62.5t-99 125.5l-47 62l113 146q82 103 93 104z" />
    <glyph glyph-name="arrowupdn" unicode="&#x2195;" 
d="M300 1000q10 0 74 -64q8 -7 13 -13q64 -66 125 -159q13 -21 13 -39q0 -11 -5 -17.5t-9 -7.5h-5h-112l-10 -4q-9 -7 -9 -21v-250q0 -11 4.5 -17.5t9.5 -7.5h5h112l10 -4q8 -7 9 -21q-1 -19 -13 -39q-62 -94 -125 -159q-60 -63 -84 -76q-2 -1 -3 -1q-1 1 -25 17
q-81 64 -173 196q-8 13 -16 24q-11 16 -11 38q0 11 4.5 17.5t9.5 7.5h5h112l10 4q9 7 9 21v250q0 11 -4.5 17.5t-9.5 7.5h-5h-112l-10 4q-9 7 -9 21q1 24 11 38q86 130 172 205q9 8 17 15z" />
    <glyph glyph-name="arrowupdnbse" unicode="&#x21a8;" 
d="M300 1000q10 0 74 -64q8 -7 13 -13q64 -66 125 -159q13 -21 13 -39q0 -11 -5 -17.5t-9 -7.5h-5h-112l-10 -4q-9 -7 -9 -21v-250q0 -11 4.5 -17.5t9.5 -7.5h5h112l10 -4q8 -7 9 -21q-1 -19 -13 -39q-62 -94 -125 -159q-60 -63 -84 -76q-2 -1 -3 -1q-1 1 -25 17
q-81 64 -173 196q-8 13 -16 24q-11 16 -11 38q0 11 4.5 17.5t9.5 7.5h5h112l10 4q9 7 9 21v250q0 11 -4.5 17.5t-9.5 7.5h-5h-112l-10 4q-9 7 -9 21q1 24 11 38q86 130 172 205q9 8 17 15zM300 100h206l10 -4q9 -7 9 -21v-50q0 -11 -4.5 -17.5t-9.5 -7.5h-5h-412l-10 4
q-9 7 -9 21v50q0 11 4.5 17.5t9.5 7.5h5h206z" />
    <glyph glyph-name="uni2219" unicode="&#x2219;" 
d="M225 325v150q0 11 4.5 17.5t9.5 7.5h5h112l10 -4q9 -7 9 -21v-150q0 -11 -4.5 -17.5t-9.5 -7.5h-5h-112l-10 4q-9 7 -9 21z" />
    <glyph glyph-name="radical" unicode="&#x221a;" 
d="M319 1100h262l10 -4q9 -7 9 -21v-50q0 -11 -4.5 -17.5t-9.5 -7.5h-5h-112l-10 -4q-9 -7 -9 -21v-950q0 -11 -4.5 -17.5t-9.5 -7.5h-5h-56q-158 0 -252 183q-13 26 -26 57q-21 49 -22 135l-3 13q-5 11 -16 12h-37l-10 4q-9 7 -9 21v50q0 11 4.5 17.5t9.5 7.5h5h187l10 -4
q8 -7 9 -21v-225q0 -22 9.5 -34.5t18.5 -13.5l9 -2h19l10 4q9 7 9 21v850q0 11 5 17.5t9 7.5h5z" />
    <glyph glyph-name="infinity" unicode="&#x221e;" 
d="M206 700h188q57 0 87 -18q3 -1 4 -2q67 -37 96 -115q18 -50 19 -115q0 -59 -19 -114q-30 -80 -96 -116q-29 -16 -55 -18q-16 -2 -36 -2h-188q-56 0 -87 18q-3 1 -4 2q-67 37 -96 116q-19 55 -19 114q0 64 19 115q30 79 96 115q29 16 61 19q14 1 30 1zM206 600
q-43 0 -54 -35q-2 -8 -2 -15v-200q0 -31 28 -44q12 -6 28 -6l10 4q9 7 9 21v250q0 11 -4.5 17.5t-9.5 7.5h-5zM394 600l-10 -4q-9 -7 -9 -21v-250q0 -11 4.5 -17.5t9.5 -7.5h5q43 0 54 35q2 8 2 15v200q0 31 -28 44q-12 6 -28 6z" />
    <glyph glyph-name="orthogonal" unicode="&#x221f;" 
d="M506 200h-487l-10 4q-8 7 -9 21v350q0 11 4.5 17.5t9.5 7.5h5h112l10 -4q9 -7 9 -21v-250q0 -11 4.5 -17.5t9.5 -7.5h5h337l10 -4q9 -7 9 -21v-50q0 -11 -4.5 -17.5t-9.5 -7.5h-5z" />
    <glyph glyph-name="intersection" unicode="&#x2229;" 
d="M206 900h113q56 0 87 -18q3 -1 4 -2q67 -37 96 -116q19 -55 19 -112v-627q0 -11 -4.5 -17.5t-9.5 -7.5h-5h-112l-10 4q-9 7 -9 21v725q0 31 -28 44q-12 6 -28 6h-113q-43 0 -54 -35q-2 -8 -2 -15v-725q0 -11 -4.5 -17.5t-9.5 -7.5h-5h-112l-10 4q-9 7 -9 21v627
q0 58 19 112q30 80 96 116q29 16 55 18q16 2 36 2z" />
    <glyph glyph-name="approxequal" unicode="&#x2248;" 
d="M212 700q29 0 42 -6q23 -13 57 -72q13 -22 22 -22q13 0 41 47q19 32 26 41q11 12 31 12h57q36 -2 37 -38q0 -30 -57 -84q-40 -38 -81 -61q-29 -16 -66 -17h-8q-26 0 -41 7q-28 15 -52 60q-3 6 -5 12q-10 20 -22 21q-13 0 -43 -48q-17 -28 -24 -38q-6 -10 -11.5 -12
t-20.5 -2h-56q-22 1 -30 11q-20 27 15 74q2 3 4 5q47 59 112 94q26 15 61 16h12zM212 400q29 0 42 -6q23 -13 57 -72q13 -22 22 -22q13 0 41 47q19 32 26 41q11 12 31 12h57q36 -2 37 -38q0 -30 -57 -84q-40 -38 -81 -61q-29 -16 -66 -17h-8q-26 0 -41 7q-28 15 -52 60
q-3 6 -5 12q-10 20 -22 21q-13 0 -43 -48q-17 -28 -24 -38q-6 -10 -11.5 -12t-20.5 -2h-56q-22 1 -30 11q-20 27 15 74q2 3 4 5q47 59 112 94q26 15 61 16h12z" />
    <glyph glyph-name="equivalence" unicode="&#x2261;" 
d="M19 800h487l10 -4q9 -7 9 -21v-50q0 -11 -4.5 -17.5t-9.5 -7.5h-5h-487l-10 4q-9 7 -9 21v50q0 11 4.5 17.5t9.5 7.5h5zM19 500h487l10 -4q9 -7 9 -21v-50q0 -11 -4.5 -17.5t-9.5 -7.5h-5h-487l-10 4q-9 7 -9 21v50q0 11 4.5 17.5t9.5 7.5h5zM19 200h487l10 -4
q9 -7 9 -21v-50q0 -11 -4.5 -17.5t-9.5 -7.5h-5h-487l-10 4q-9 7 -9 21v50q0 11 4.5 17.5t9.5 7.5h5z" />
    <glyph glyph-name="lessequal" unicode="&#x2264;" 
d="M356 900h75l10 -4q9 -7 9 -21q0 -21 -31 -65q-11 -15 -25 -35v0l-169 -225l169 -225v0q51 -70 55 -91q1 -5 1 -9q0 -11 -4.5 -17.5t-9.5 -7.5h-5h-75q-18 0 -33 19l-4 6l-244 325l244 325q16 22 29 24q4 1 8 1zM94 100h412l10 -4q9 -7 9 -21v-50q0 -11 -4.5 -17.5
t-9.5 -7.5h-5h-412l-10 4q-9 7 -9 21v50q0 11 4.5 17.5t9.5 7.5h5z" />
    <glyph glyph-name="greaterequal" unicode="&#x2265;" 
d="M244 900q18 0 33 -19l4 -6l244 -325l-244 -325q-16 -22 -29 -24q-4 -1 -8 -1h-75l-10 4q-9 7 -9 21q0 21 31 65q11 15 25 35v0l169 225l-169 225v0q-51 70 -55 91q-1 5 -1 9q0 11 4.5 17.5t9.5 7.5h5h75zM506 100l10 -4q9 -7 9 -21v-50q0 -11 -4.5 -17.5t-9.5 -7.5h-5
h-412l-10 4q-9 7 -9 21v50q0 11 4.5 17.5t9.5 7.5h5h412z" />
    <glyph glyph-name="house" unicode="&#x2302;" 
d="M262 800q1 -2 113 -150q102 -136 129 -190q21 -43 21 -85v-250q0 -11 -4.5 -17.5t-9.5 -7.5h-5h-150h-187h-150l-10 4q-9 7 -9 21v250q0 38 20 85q17 39 115 170q7 10 15 20q16 22 34.5 46.5t31.5 41.5t23.5 32t16.5 22zM262 600l-37 -50q-58 -77 -70 -126q-5 -24 -5 -49
v-155q1 -9 5.5 -14t9.5 -5l4 -1h187l10 4q9 7 9 21v150q-3 67 -46 134q-12 19 -29 41z" />
    <glyph glyph-name="revlogicalnot" unicode="&#x2310;" 
d="M506 600l10 -4q9 -7 9 -21v-50q0 -11 -4.5 -17.5t-9.5 -7.5h-5h-337l-10 -4q-9 -7 -9 -21v-350q0 -11 -4.5 -17.5t-9.5 -7.5h-5h-112l-10 4q-9 7 -9 21v450q0 11 5 17.5t9 7.5h5h487z" />
    <glyph glyph-name="integraltp" unicode="&#x2320;" 
d="M412 1000q83 0 141 -72q47 -59 47 -128v-75q0 -11 -4.5 -17.5t-9.5 -7.5h-5h-112l-10 4q-9 7 -9 21v125q0 33 -22 46q-8 4 -16 4q-24 0 -34 -30q-3 -10 -3 -20v-1250h-150v1200q0 77 55 138q57 62 132 62z" />
    <glyph glyph-name="integralbt" unicode="&#x2321;" 
d="M225 1200h150v-1000q0 -77 -55 -138q-57 -62 -132 -62q-83 0 -141 72q-47 59 -47 128v175q0 11 4.5 17.5t9.5 7.5h5h112l10 -4q9 -7 9 -21v-225q0 -33 22 -46q8 -4 16 -4q24 0 34 30q3 10 3 20v1050z" />
    <glyph glyph-name="SF100000" unicode="&#x2500;" 
d="M0 400v100h675v-100h-675z" />
    <glyph glyph-name="SF110000" unicode="&#x2502;" 
d="M375 1200v-1600h-150v1600h150z" />
    <glyph glyph-name="SF010000" unicode="&#x250c;" 
d="M675 500v-100h-300v-800h-150v900h450z" />
    <glyph glyph-name="SF030000" unicode="&#x2510;" 
d="M0 400v100h375v-900h-150v800h-225z" />
    <glyph glyph-name="SF020000" unicode="&#x2514;" 
d="M375 1200v-700h300v-100h-450v800h150z" />
    <glyph glyph-name="SF040000" unicode="&#x2518;" 
d="M375 1200v-800h-375v100h225v700h150z" />
    <glyph glyph-name="SF080000" unicode="&#x251c;" 
d="M375 1200v-700h300v-100h-300v-800h-150v1600h150z" />
    <glyph glyph-name="SF090000" unicode="&#x2524;" 
d="M375 1200v-1600h-150v800h-225v100h225v700h150z" />
    <glyph glyph-name="SF060000" unicode="&#x252c;" 
d="M0 400v100h675v-100h-300v-800h-150v800h-225z" />
    <glyph glyph-name="SF070000" unicode="&#x2534;" 
d="M375 1200v-700h300v-100h-675v100h225v700h150z" />
    <glyph glyph-name="SF050000" unicode="&#x253c;" 
d="M375 1200v-700h300v-100h-300v-800h-150v800h-225v100h225v700h150z" />
    <glyph glyph-name="SF430000" unicode="&#x2550;" 
d="M0 400v100h675v-100h-675zM0 600v100h675v-100h-675z" />
    <glyph glyph-name="SF240000" unicode="&#x2551;" 
d="M375 1200h150v-1600h-150v1600zM300 -400h-150v1600h150v-1600z" />
    <glyph glyph-name="SF510000" unicode="&#x2552;" 
d="M675 500v-100h-300v-800h-150v1100h450v-100h-300v-100h300z" />
    <glyph glyph-name="SF520000" unicode="&#x2553;" 
d="M300 400v-800h-150v900h525v-100h-150v-800h-150v800h-75z" />
    <glyph glyph-name="SF390000" unicode="&#x2554;" 
d="M300 -400h-150v1100h525v-100h-375v-1000zM675 500v-100h-150v-800h-150v900h300z" />
    <glyph glyph-name="SF220000" unicode="&#x2555;" 
d="M0 400v100h225v100h-225v100h375v-1100h-150v800h-225z" />
    <glyph glyph-name="SF210000" unicode="&#x2556;" 
d="M0 400v100h525v-900h-150v800h-75v-800h-150v800h-150z" />
    <glyph glyph-name="SF250000" unicode="&#x2557;" 
d="M0 400v100h300v-900h-150v800h-150zM0 600v100h525v-1100h-150v1000h-375z" />
    <glyph glyph-name="SF500000" unicode="&#x2558;" 
d="M375 1200v-500h300v-100h-300v-100h300v-100h-450v800h150z" />
    <glyph glyph-name="SF490000" unicode="&#x2559;" 
d="M375 1200h150v-700h150v-100h-525v800h150v-700h75v700z" />
    <glyph glyph-name="SF380000" unicode="&#x255a;" 
d="M375 1200h150v-500h150v-100h-300v600zM300 500h375v-100h-525v800h150v-700z" />
    <glyph glyph-name="SF280000" unicode="&#x255b;" 
d="M375 1200v-800h-375v100h225v100h-225v100h225v500h150z" />
    <glyph glyph-name="SF270000" unicode="&#x255c;" 
d="M375 1200h150v-800h-525v100h150v700h150v-700h75v700z" />
    <glyph glyph-name="SF260000" unicode="&#x255d;" 
d="M375 1200h150v-800h-525v100h375v700zM0 600v100h150v500h150v-600h-300z" />
    <glyph glyph-name="SF360000" unicode="&#x255e;" 
d="M375 1200v-500h300v-100h-300v-100h300v-100h-300v-800h-150v1600h150z" />
    <glyph glyph-name="SF370000" unicode="&#x255f;" 
d="M375 1200h150v-700h150v-100h-150v-800h-150v1600zM300 -400h-150v1600h150v-1600z" />
    <glyph glyph-name="SF420000" unicode="&#x2560;" 
d="M675 500v-100h-150v-800h-150v900h300zM675 700v-100h-300v600h150v-500h150zM150 -400v1600h150v-1600h-150z" />
    <glyph glyph-name="SF190000" unicode="&#x2561;" 
d="M375 1200v-1600h-150v800h-225v100h225v100h-225v100h225v500h150z" />
    <glyph glyph-name="SF200000" unicode="&#x2562;" 
d="M375 1200h150v-1600h-150v1600zM0 400v100h150v700h150v-1600h-150v800h-150z" />
    <glyph glyph-name="SF230000" unicode="&#x2563;" 
d="M0 400v100h300v-900h-150v800h-150zM0 600v100h150v500h150v-600h-300zM375 1200h150v-1600h-150v1600z" />
    <glyph glyph-name="SF470000" unicode="&#x2564;" 
d="M0 400v100h675v-100h-300v-800h-150v800h-225zM0 600v100h675v-100h-675z" />
    <glyph glyph-name="SF480000" unicode="&#x2565;" 
d="M0 400v100h675v-100h-150v-800h-150v800h-75v-800h-150v800h-150z" />
    <glyph glyph-name="SF410000" unicode="&#x2566;" 
d="M0 400v100h300v-900h-150v800h-150zM0 600v100h675v-100h-675zM675 500v-100h-150v-800h-150v900h300z" />
    <glyph glyph-name="SF450000" unicode="&#x2567;" 
d="M375 1200v-500h300v-100h-675v100h225v500h150zM0 400v100h675v-100h-675z" />
    <glyph glyph-name="SF460000" unicode="&#x2568;" 
d="M375 1200h150v-700h150v-100h-675v100h150v700h150v-700h75v700z" />
    <glyph glyph-name="SF400000" unicode="&#x2569;" 
d="M0 400v100h675v-100h-675zM0 600v100h150v500h150v-600h-300zM675 700v-100h-300v600h150v-500h150z" />
    <glyph glyph-name="SF540000" unicode="&#x256a;" 
d="M0 400v100h225v100h-225v100h225v500h150v-500h300v-100h-300v-100h300v-100h-300v-800h-150v800h-225z" />
    <glyph glyph-name="SF530000" unicode="&#x256b;" 
d="M0 400v100h150v700h150v-700h75v700h150v-700h150v-100h-150v-800h-150v800h-75v-800h-150v800h-150z" />
    <glyph glyph-name="SF440000" unicode="&#x256c;" 
d="M0 400v100h300v-900h-150v800h-150zM0 600v100h150v500h150v-600h-300zM675 500v-100h-150v-800h-150v900h300zM675 700v-100h-300v600h150v-500h150z" />
    <glyph glyph-name="upblock" unicode="&#x2580;" 
d="M675 1200v-700h-675v700h675z" />
    <glyph glyph-name="dnblock" unicode="&#x2584;" 
d="M0 500h675v-900h-675v900z" />
    <glyph glyph-name="block" unicode="&#x2588;" 
d="M675 1200v-1600h-675v1600h675z" />
    <glyph glyph-name="lfblock" unicode="&#x258c;" 
d="M0 -400v1600h300v-1600h-300z" />
    <glyph glyph-name="rtblock" unicode="&#x2590;" 
d="M675 1200v-1600h-375v1600h375z" />
    <glyph glyph-name="ltshade" unicode="&#x2591;" 
d="M600 200v-100h-75v100h75zM600 0v-100h-75v100h75zM600 -200v-100h-75v100h75zM600 500h-75v100h75v-100zM600 400v-100h-75v100h75zM600 700h-75v100h75v-100zM600 1000v-100h-75v100h75zM600 1200v-100h-75v100h75zM225 1100v100h75v-100h-75zM225 100v100h75v-100h-75
zM225 -100v100h75v-100h-75zM225 -200h75v-100h-75v100zM225 500v100h75v-100h-75zM225 300v100h75v-100h-75zM225 700v100h75v-100h-75zM225 900v100h75v-100h-75zM450 200h-75v100h75v-100zM450 100v-100h-75v100h75zM450 -100v-100h-75v100h75zM450 500v-100h-75v100h75z
M450 -300v-100h-75v100h75zM450 700v-100h-75v100h75zM450 1000h-75v100h75v-100zM450 900v-100h-75v100h75zM75 1100h75v-100h-75v100zM75 200v100h75v-100h-75zM75 0v100h75v-100h-75zM75 -200v100h75v-100h-75zM75 400v100h75v-100h-75zM75 -400v100h75v-100h-75zM75 600
v100h75v-100h-75zM75 800v100h75v-100h-75z" />
    <glyph glyph-name="shade" unicode="&#x2592;" 
d="M0 200v100h75v-100h-75zM0 0v100h75v-100h-75zM0 -200v100h75v-100h-75zM0 400v100h75v-100h-75zM0 -400v100h75v-100h-75zM0 600v100h75v-100h-75zM0 1000v100h75v-100h-75zM0 800v100h75v-100h-75zM600 200v-100h-75v100h75zM600 0v-100h-75v100h75zM600 -200v-100h-75
v100h75zM600 500h-75v100h75v-100zM600 400v-100h-75v100h75zM600 700h-75v100h75v-100zM600 1000v-100h-75v100h75zM600 1200v-100h-75v100h75zM225 1100v100h75v-100h-75zM225 200h75v-100h-75v100zM225 100v-100h-75v100h75zM225 0h75v-100h-75v100zM225 -100v-100h-75
v100h75zM225 -200h75v-100h-75v100zM225 500v-100h-75v100h75zM225 400h75v-100h-75v100zM225 300v-100h-75v100h75zM225 -300v-100h-75v100h75zM225 700v-100h-75v100h75zM225 600h75v-100h-75v100zM225 1000h75v-100h-75v100zM225 900v-100h-75v100h75zM225 800h75v-100
h-75v100zM450 200v-100h-75v100h75zM450 100h75v-100h-75v100zM450 0v-100h-75v100h75zM450 -100h75v-100h-75v100zM450 -200v-100h-75v100h75zM450 500h-75v100h75v-100zM450 400v100h75v-100h-75zM450 300h-75v100h75v-100zM450 -300h75v-100h-75v100zM450 700h-75v100h75
v-100zM450 600v100h75v-100h-75zM450 1000v-100h-75v100h75zM450 900h75v-100h-75v100zM450 1200v-100h-75v100h75zM450 1100h75v-100h-75v100zM75 1100v100h75v-100h-75zM75 200h75v-100h-75v100zM75 0h75v-100h-75v100zM75 -200h75v-100h-75v100zM75 500v100h75v-100h-75z
M75 400h75v-100h-75v100zM75 700v100h75v-100h-75zM75 1000h75v-100h-75v100zM300 200v100h75v-100h-75zM300 100h75v-100h-75v100zM300 -100h75v-100h-75v100zM300 500h75v-100h-75v100zM300 -300h75v-100h-75v100zM300 700h75v-100h-75v100zM300 1000v100h75v-100h-75z
M300 900h75v-100h-75v100zM525 200h-75v100h75v-100zM150 1000v100h75v-100h-75z" />
    <glyph glyph-name="dkshade" unicode="&#x2593;" 
d="M0 100v100h75v100h-75v100h75v100h-75v100h75v100h-75v100h75v100h-75v100h75v100h-75v100h150v-100h75v100h225v-100h75v100h75v-1600h-225v100h-75v-100h-225v100h-75v100h75v100h-75v100h75v100h-75zM225 200h-75v-100h75v100zM225 0h-75v-100h75v100zM225 -200h-75
v-100h75v100zM225 500v100h-75v-100h75zM225 400h-75v-100h75v100zM225 700v100h-75v-100h75zM225 1000h-75v-100h75v100zM450 200v-100h75v100h-75zM450 0v-100h75v100h-75zM450 -200v-100h75v100h-75zM450 500h75v100h-75v-100zM450 400v-100h75v100h-75zM450 700h75v100
h-75v-100zM450 1000v-100h75v100h-75zM300 200h75v100h-75v-100zM300 100v-100h75v100h-75zM300 -100v-100h75v100h-75zM300 500v-100h75v100h-75zM300 700v-100h75v100h-75zM300 1000h75v100h-75v-100zM300 900v-100h75v100h-75z" />
    <glyph glyph-name="filledbox" unicode="&#x25a0;" 
d="M431 800l10 -4q9 -7 9 -21v-650q0 -11 -4.5 -17.5t-9.5 -7.5h-5h-337l-10 4q-9 7 -9 21v650q0 11 4.5 17.5t9.5 7.5h5h337z" />
    <glyph glyph-name="filledrect" unicode="&#x25ac;" 
d="M506 400l10 -4q9 -7 9 -21v-350q0 -11 -4.5 -17.5t-9.5 -7.5h-5h-487l-10 4q-9 7 -9 21v350q0 11 4.5 17.5t9.5 7.5h5h487z" />
    <glyph glyph-name="triagup" unicode="&#x25b2;" 
d="M0 125v25q0 41 20 101q14 41 62 169q116 311 157 363q13 17 23 17q25 0 73 -109q38 -85 108 -271t78 -224q4 -22 4 -46v-25l-3 -13q-5 -11 -16 -12h-489l-9 4q-8 7 -8 21z" />
    <glyph glyph-name="triagrt" unicode="&#x25ba;" 
d="M19 1100q16 0 50 -43q11 -14 25 -32l112 -150q145 -193 186 -233q33 -34 82 -52q3 -2 6 -3q36 -13 40 -17q5 -8 5 -20q0 -19 -14 -25q-2 -1 -31 -12q-50 -18 -79 -45q-36 -35 -159 -197q-14 -18 -32 -43l-116 -153q-52 -69 -69 -74q-4 -1 -6 -1q-9 0 -13.5 6t-5.5 12v7
v1050l3 13q5 11 16 12z" />
    <glyph glyph-name="triagdn" unicode="&#x25bc;" 
d="M0 775q0 11 4 17.5t8 6.5l5 1h489q8 0 13 -6t6 -12v-7v-25q0 -41 -20 -101q-13 -39 -62 -169q-116 -309 -156 -362q-14 -18 -25 -18q-24 0 -74 113q-38 85 -106 267q-70 186 -78 225q-4 21 -4 45v25z" />
    <glyph glyph-name="triaglf" unicode="&#x25c4;" 
d="M506 1100q8 0 13 -6t6 -12v-7v-1050l-3 -13q-5 -11 -16 -12q-16 0 -50 43q-11 14 -25 32q-1 1 -116 153q-143 191 -181 229q-34 35 -79 52l-10 4q-36 13 -40 17q-5 8 -5 20q0 19 14 26q2 1 31 11q51 19 81 48q41 38 171 211q11 14 22 29l112 150q52 69 69 74q4 1 6 1z
" />
    <glyph glyph-name="circle" unicode="&#x25cb;" 
d="M262 700h76q82 0 138 -81q49 -72 49 -169v-100q0 -110 -61 -184q-54 -66 -126 -66h-76q-82 0 -138 81q-49 72 -49 169v100q0 110 61 184q54 66 126 66zM300 600q-69 0 -114 -70q-36 -57 -36 -130q0 -92 52 -152q43 -48 98 -48q69 0 114 70q36 57 36 130q0 92 -52 152
q-43 48 -98 48z" />
    <glyph glyph-name="invbullet" unicode="&#x25d8;" 
d="M0 1200h600v-1600h-600v1600zM300 600q-69 0 -114 -70q-36 -57 -36 -130q0 -92 52 -152q43 -48 98 -48q69 0 114 70q36 57 36 130q0 92 -52 152q-43 48 -98 48z" />
    <glyph glyph-name="invcircle" unicode="&#x25d9;" 
d="M0 1200h600v-1600h-600v1600zM262 700q-82 0 -138 -81q-49 -72 -49 -169v-100q0 -110 61 -184q54 -66 126 -66h76q82 0 138 81q49 72 49 169v100q0 110 -61 184q-54 66 -126 66h-76zM300 600q69 0 114 -70q36 -57 36 -130q0 -92 -52 -152q-43 -48 -98 -48q-69 0 -114 70
q-36 57 -36 130q0 92 52 152q43 48 98 48z" />
    <glyph glyph-name="smileface" unicode="&#x263a;" 
d="M150 1000h300q70 0 115 -71q35 -56 35 -129v-600q0 -93 -53 -153q-42 -47 -97 -47h-300q-70 0 -115 71q-35 56 -35 129v600q0 93 53 153q42 47 97 47zM150 900q-41 0 -63 -46q-12 -25 -12 -54v-600q0 -55 34 -84q19 -16 41 -16h300q41 0 63 46q12 25 12 54v600
q0 55 -34 84q-19 16 -41 16h-300zM169 800h37l10 -4q9 -7 9 -21v-50q0 -11 -4.5 -17.5t-9.5 -7.5h-5h-37l-10 4q-9 7 -9 21v50q0 11 4.5 17.5t9.5 7.5h5zM394 800h37l10 -4q9 -7 9 -21v-50q0 -11 -4.5 -17.5t-9.5 -7.5h-5h-37l-10 4q-9 7 -9 21v50q0 11 4.5 17.5t9.5 7.5h5z
M169 500h131h131q19 0 19 -24q0 -18 -11 -40q-17 -34 -53 -76q-52 -60 -86 -60q-35 1 -86 60q-36 43 -53 76q-21 42 -5 59q6 5 13 5z" />
    <glyph glyph-name="invsmileface" unicode="&#x263b;" 
d="M150 1000h300q70 0 115 -71q35 -56 35 -129v-600q0 -93 -53 -153q-42 -47 -97 -47h-300q-70 0 -115 71q-35 56 -35 129v600q0 93 53 153q42 47 97 47zM169 800l-10 -4q-9 -7 -9 -21v-50q0 -11 4.5 -17.5t9.5 -7.5h5h37l10 4q9 7 9 21v50q0 11 -4.5 17.5t-9.5 7.5h-5h-37z
M394 800l-10 -4q-9 -7 -9 -21v-50q0 -11 4.5 -17.5t9.5 -7.5h5h37l10 4q9 7 9 21v50q0 11 -4.5 17.5t-9.5 7.5h-5h-37zM169 500q-19 0 -19 -24q0 -18 11 -40q17 -34 53 -76q52 -60 86 -60q35 1 86 60q36 43 53 76q21 42 5 59q-6 5 -13 5h-131h-131z" />
    <glyph glyph-name="sun" unicode="&#x263c;" 
d="M244 900h112l10 -4q9 -7 9 -21v-125v-125l3 -13q5 -11 16 -12q21 1 50 50t50 50h87l10 -4q9 -7 9 -21v-50q0 -11 -4.5 -17.5t-9.5 -7.5h-5h-56q-49 0 -69 -30q-6 -10 -6 -20q0 -27 35 -42q18 -8 40 -8h56l10 -4q9 -7 9 -21v-50q0 -11 -4.5 -17.5t-9.5 -7.5h-5h-56
q-49 0 -69 -30q-6 -10 -6 -20q0 -27 35 -42q18 -8 40 -8h56l10 -4q9 -7 9 -21v-50q0 -11 -4.5 -17.5t-9.5 -7.5h-5h-87q-21 1 -50 50q-30 49 -50 50q-9 0 -13.5 -6.5t-4.5 -12.5l-1 -6v-125v-125q0 -11 -4.5 -17.5t-9.5 -7.5h-5h-112l-10 4q-9 7 -9 21v125v125l-3 13
q-5 11 -16 12q-21 -1 -50 -50t-50 -50h-87l-10 4q-9 7 -9 21v50q0 11 4.5 17.5t9.5 7.5h5h56q49 0 69 30q6 10 6 20q0 27 -35 42q-18 8 -40 8h-56l-10 4q-9 7 -9 21v50q0 11 4.5 17.5t9.5 7.5h5h56q49 0 69 30q6 10 6 20q0 27 -35 42q-18 8 -40 8h-56l-10 4q-9 7 -9 21v50
q0 11 4.5 17.5t9.5 7.5h5h87q21 -1 50 -50q30 -49 50 -50q9 0 13.5 6.5t4.5 12.5l1 6v125v125q0 11 4.5 17.5t9.5 7.5h5zM244 500l-10 -4q-9 -7 -9 -21v-50q0 -11 4.5 -17.5t9.5 -7.5h5h112l10 4q9 7 9 21v50q0 11 -4.5 17.5t-9.5 7.5h-5h-112z" />
    <glyph glyph-name="female" unicode="&#x2640;" 
d="M281 1000h38q56 0 87 -18q3 -1 4 -2q67 -37 96 -116q19 -55 19 -112v-118q-3 -61 -28 -108q-22 -42 -85 -126q-37 -50 -37 -75l3 -13q5 -11 16 -12h94h18l10 -4q9 -7 9 -21v-50q0 -11 -4.5 -17.5t-9.5 -7.5h-5h-112q-8 0 -13 -6t-6 -12v-7v-150l-3 -13q-5 -11 -16 -12
h-112q-8 0 -13 6t-6 12v7v150l-3 13q-5 11 -16 12h-112l-10 4q-9 7 -9 21v50q0 11 4.5 17.5t9.5 7.5h5h18h94q8 0 13 6t6 12v7q-1 26 -37 75q-81 107 -99 155q-12 33 -14 79v118q0 58 19 112q30 80 96 116q29 16 55 18q16 2 36 2zM281 900q-43 0 -54 -35q-2 -8 -2 -15v-100
v-200q0 -22 9.5 -34.5t18.5 -14.5l9 -1h76l15 4q21 13 22 46v200v100q0 31 -28 44q-12 6 -28 6h-38z" />
    <glyph glyph-name="male" unicode="&#x2642;" 
d="M244 1000h262l10 -4q8 -7 9 -21v-350q0 -11 -4.5 -17.5t-9.5 -7.5h-5h-37l-10 4q-9 7 -9 21v150l-3 13q-5 11 -16 12q-16 0 -49 -42q-11 -13 -26 -33l-56 -75l38 -50q80 -107 98 -155q12 -33 14 -79v-118q0 -58 -19 -112q-30 -80 -96 -116q-29 -16 -55 -18q-16 -2 -36 -2
h-38q-56 0 -87 18q-3 1 -4 2q-67 37 -96 116q-19 55 -19 112v118q3 61 28 108q22 42 84 126l150 200q37 53 38 75q0 11 -4.5 17.5t-9.5 7.5h-5h-37l-10 4q-9 7 -9 21v50q0 11 4.5 17.5t9.5 7.5h5zM188 500l-16 -4q-21 -13 -22 -46v-200v-100q0 -31 28 -44q13 -6 28 -6h38
q43 0 54 35q2 8 2 15v100v200q0 22 -9.5 34.5t-18.5 14.5l-10 1h-74z" />
    <glyph glyph-name="spade" unicode="&#x2660;" 
d="M300 900q10 0 74 -64q8 -7 13 -13q136 -140 188 -245q6 -13 10 -24q6 -14 9.5 -27.5t4.5 -20.5l1 -6q0 -65 -56 -130q-28 -32 -56 -48q-41 -22 -76 -22h-18l-10 -4q-9 -7 -9 -21v-150q0 -11 4.5 -17.5t9.5 -7.5h5h37l10 -4q9 -7 9 -21v-50q0 -11 -4.5 -17.5t-9.5 -7.5h-5
h-262l-10 4q-9 7 -9 21v50q0 11 4.5 17.5t9.5 7.5h5h37l10 4q9 7 9 21v150q0 11 -4.5 17.5t-9.5 7.5h-5h-18q-36 0 -76 22q-50 28 -85 89q-27 47 -27 89l7 33q4 11 8 21q39 99 177 248l21 21q60 63 84 76q2 1 3 1z" />
    <glyph glyph-name="club" unicode="&#x2663;" 
d="M300 900q23 0 44 -13q41 -27 76 -101q3 -8 6 -15q22 -58 24 -121v-25q0 -11 4.5 -17.5t9.5 -7.5h5h56h37l16 -4q21 -13 22 -46v-200q0 -22 -9.5 -34.5t-18.5 -13.5l-10 -2h-168l-10 4q-9 7 -9 21v175v50v25q0 11 -4.5 17.5t-9.5 7.5h-5h-112l-10 -4q-9 -7 -9 -21v-25v-50
v-175q0 -11 -4.5 -17.5t-9.5 -7.5h-5h-168l-16 4q-21 13 -22 46v200q0 22 9.5 34.5t18.5 13.5l10 2h37h56l10 4q9 7 9 21v25q0 57 20 113l4 8q33 78 76 111q4 3 6 5q21 13 44 13zM244 300h112l10 -4q9 -7 9 -21v-150q0 -11 4.5 -17.5t9.5 -7.5h5h37l10 -4q9 -7 9 -21v-50
q0 -11 -4.5 -17.5t-9.5 -7.5h-5h-262l-10 4q-9 7 -9 21v50q0 11 4.5 17.5t9.5 7.5h5h37l10 4q9 7 9 21v150q0 11 4.5 17.5t9.5 7.5h5z" />
    <glyph glyph-name="heart" unicode="&#x2665;" 
d="M149 801q42 -2 86 -66q14 -20 27 -60q15 42 28 60q64 93 125 52q33 -22 67 -87q15 -28 23 -53q18 -56 20 -124v-23q0 -92 -24 -151q-27 -66 -123 -194l-116 -155l-115 155q-98 130 -124 195q-23 59 -23 150q0 87 14 130q3 9 6 17q21 66 66 118q13 15 24 22q20 14 39 14z
" />
    <glyph glyph-name="diamond" unicode="&#x2666;" 
d="M0 450l262 350l263 -350l-263 -350z" />
    <glyph glyph-name="musicalnote" unicode="&#x266a;" 
d="M169 1000h412l10 -4q9 -7 9 -21v-250q0 -11 -4.5 -17.5t-9.5 -7.5h-5h-262l-10 -4q-9 -7 -9 -21v-450q0 -48 -16 -93q-26 -74 -82 -110q-1 -1 -2 -1q-34 -21 -88 -21q-57 0 -84 36q-7 10 -13 21q-15 30 -14 64v3q-1 83 70 142q25 22 54 34q22 9 24 31q1 7 1 19v625
q0 11 5 17.5t9 7.5h5zM319 900l-10 -4q-9 -7 -9 -21v-50q0 -11 4.5 -17.5t9.5 -7.5h5h112l10 4q9 7 9 21v50q0 11 -4.5 17.5t-9.5 7.5h-5h-112z" />
    <glyph glyph-name="musicalnotedbl" unicode="&#x266b;" 
d="M94 1000h487l10 -4q9 -7 9 -21v-750q0 -48 -12 -93q-21 -76 -63 -111q-26 -21 -66 -21q-32 0 -53 30q-6 9 -12 20q-17 38 -19 100q-1 113 62 181q2 3 4 4q8 9 9 19v21v300q0 11 -4.5 17.5t-9.5 7.5h-5h-187l-10 -4q-9 -7 -9 -21v-550q0 -48 -12 -93q-21 -76 -63 -111
q-26 -21 -66 -21q-32 0 -53 30q-6 9 -12 20q-17 38 -19 100q-1 113 62 181q2 3 4 4q8 9 9 19v21v700q0 11 5 17.5t9 7.5h5zM244 900l-10 -4q-9 -7 -9 -21v-50q0 -11 4.5 -17.5t9.5 -7.5h5h187l10 4q9 7 9 21v50q0 11 -4.5 17.5t-9.5 7.5h-5h-187z" />
  </font>
</defs>
</svg>
