<svg version="1.1" xmlns="http://www.w3.org/2000/svg" xmlns:xlink="http://www.w3.org/1999/xlink" width="270.92576" height="14.68025" viewBox="0,0,270.92576,14.68025"><g transform="translate(-233.45456,-174.71423)"><g data-paper-data="{&quot;isPaintingLayer&quot;:true}" fill="#00ff18" fill-rule="nonzero" stroke-width="0" stroke-linecap="butt" stroke-linejoin="miter" stroke-miterlimit="10" stroke-dasharray="" stroke-dashoffset="0" style="mix-blend-mode: normal"><path d="M241.0089,189.36959v-14.64639h256.06018v14.64639z" stroke="#000000"/><path d="M233.45457,182.0563c0,-4.05277 3.28541,-7.33818 7.33818,-7.33818c4.05277,0 7.33819,3.28541 7.33819,7.33818c0,4.05277 -3.28542,7.33818 -7.33819,7.33818c-4.05277,0 -7.33818,-3.28541 -7.33818,-7.33818z" stroke="none"/><path d="M489.70396,182.05242c0,-4.05277 3.28541,-7.33818 7.33818,-7.33818c4.05277,0 7.33818,3.28541 7.33818,7.33818c0,4.05277 -3.28541,7.33818 -7.33818,7.33818c-4.05277,0 -7.33818,-3.28541 -7.33818,-7.33818z" stroke="none"/></g></g></svg>